solid ascii
  facet normal -0.000000e+000 -1.000000e+000 -0.000000e+000
    outer loop
      vertex   -8.200000e+001 -5.160774e+001 4.600000e+002
      vertex   -1.020000e+002 -5.160774e+001 4.600000e+002
      vertex   -8.200000e+001 -5.160774e+001 4.540000e+002
    endloop
  endfacet
  facet normal -0.000000e+000 -1.000000e+000 -0.000000e+000
    outer loop
      vertex   -8.200000e+001 -5.160774e+001 4.540000e+002
      vertex   -1.020000e+002 -5.160774e+001 4.600000e+002
      vertex   -1.020000e+002 -5.160774e+001 4.540000e+002
    endloop
  endfacet
  facet normal 0.000000e+000 0.000000e+000 -1.000000e+000
    outer loop
      vertex   -8.200000e+001 -5.160774e+001 4.540000e+002
      vertex   -1.020000e+002 -5.160774e+001 4.540000e+002
      vertex   -8.200000e+001 -4.760774e+001 4.540000e+002
    endloop
  endfacet
  facet normal -0.000000e+000 0.000000e+000 -1.000000e+000
    outer loop
      vertex   -8.200000e+001 -4.760774e+001 4.540000e+002
      vertex   -1.020000e+002 -5.160774e+001 4.540000e+002
      vertex   -1.020000e+002 -4.760774e+001 4.540000e+002
    endloop
  endfacet
  facet normal -0.000000e+000 -0.000000e+000 -1.000000e+000
    outer loop
      vertex   -1.020000e+002 -1.360774e+001 4.540000e+002
      vertex   -1.020000e+002 -4.760774e+001 4.540000e+002
      vertex   -1.070000e+002 -4.760774e+001 4.540000e+002
    endloop
  endfacet
  facet normal 0.000000e+000 -0.000000e+000 -1.000000e+000
    outer loop
      vertex   -1.070000e+002 -1.360774e+001 4.540000e+002
      vertex   -1.020000e+002 -1.360774e+001 4.540000e+002
      vertex   -1.070000e+002 -4.760774e+001 4.540000e+002
    endloop
  endfacet
  facet normal -0.000000e+000 0.000000e+000 -1.000000e+000
    outer loop
      vertex   -8.200000e+001 -4.760774e+001 4.540000e+002
      vertex   -1.020000e+002 -4.760774e+001 4.540000e+002
      vertex   -1.020000e+002 -1.360774e+001 4.540000e+002
    endloop
  endfacet
  facet normal -0.000000e+000 0.000000e+000 -1.000000e+000
    outer loop
      vertex   -8.200000e+001 -1.360774e+001 4.540000e+002
      vertex   -1.020000e+002 -1.360774e+001 4.540000e+002
      vertex   -8.200000e+001 -7.607739e+000 4.540000e+002
    endloop
  endfacet
  facet normal -0.000000e+000 -0.000000e+000 -1.000000e+000
    outer loop
      vertex   -8.200000e+001 -1.360774e+001 4.540000e+002
      vertex   -8.200000e+001 -4.760774e+001 4.540000e+002
      vertex   -1.020000e+002 -1.360774e+001 4.540000e+002
    endloop
  endfacet
  facet normal 0.000000e+000 -0.000000e+000 -1.000000e+000
    outer loop
      vertex   -8.200000e+001 -1.360774e+001 4.540000e+002
      vertex   -7.700000e+001 -1.360774e+001 4.540000e+002
      vertex   -8.200000e+001 -4.760774e+001 4.540000e+002
    endloop
  endfacet
  facet normal 0.000000e+000 0.000000e+000 -1.000000e+000
    outer loop
      vertex   -8.200000e+001 -4.760774e+001 4.540000e+002
      vertex   -7.700000e+001 -1.360774e+001 4.540000e+002
      vertex   -7.700000e+001 -4.760774e+001 4.540000e+002
    endloop
  endfacet
  facet normal 0.000000e+000 0.000000e+000 -1.000000e+000
    outer loop
      vertex   -1.020000e+002 -1.360774e+001 4.540000e+002
      vertex   -1.020000e+002 -7.607739e+000 4.540000e+002
      vertex   -8.200000e+001 -7.607739e+000 4.540000e+002
    endloop
  endfacet
  facet normal -1.000000e+000 0.000000e+000 -0.000000e+000
    outer loop
      vertex   -1.020000e+002 -5.160774e+001 4.600000e+002
      vertex   -1.020000e+002 -4.760774e+001 4.600000e+002
      vertex   -1.020000e+002 -5.160774e+001 4.540000e+002
    endloop
  endfacet
  facet normal -1.000000e+000 0.000000e+000 0.000000e+000
    outer loop
      vertex   -1.020000e+002 -5.160774e+001 4.540000e+002
      vertex   -1.020000e+002 -4.760774e+001 4.600000e+002
      vertex   -1.020000e+002 -4.760774e+001 4.540000e+002
    endloop
  endfacet
  facet normal -0.000000e+000 1.000000e+000 0.000000e+000
    outer loop
      vertex   -8.200000e+001 -1.360774e+001 4.600000e+002
      vertex   -7.700000e+001 -1.360774e+001 4.600000e+002
      vertex   -8.200000e+001 -1.360774e+001 4.540000e+002
    endloop
  endfacet
  facet normal -0.000000e+000 1.000000e+000 0.000000e+000
    outer loop
      vertex   -8.200000e+001 -1.360774e+001 4.540000e+002
      vertex   -7.700000e+001 -1.360774e+001 4.600000e+002
      vertex   -7.700000e+001 -1.360774e+001 4.540000e+002
    endloop
  endfacet
  facet normal 1.000000e+000 0.000000e+000 0.000000e+000
    outer loop
      vertex   -8.200000e+001 -7.607739e+000 4.600000e+002
      vertex   -8.200000e+001 -1.360774e+001 4.600000e+002
      vertex   -8.200000e+001 -7.607739e+000 4.540000e+002
    endloop
  endfacet
  facet normal 1.000000e+000 0.000000e+000 0.000000e+000
    outer loop
      vertex   -8.200000e+001 -7.607739e+000 4.540000e+002
      vertex   -8.200000e+001 -1.360774e+001 4.600000e+002
      vertex   -8.200000e+001 -1.360774e+001 4.540000e+002
    endloop
  endfacet
  facet normal -4.440892e-016 1.000000e+000 0.000000e+000
    outer loop
      vertex   -1.020000e+002 -7.607739e+000 4.600000e+002
      vertex   -8.200000e+001 -7.607739e+000 4.600000e+002
      vertex   -1.020000e+002 -7.607739e+000 4.540000e+002
    endloop
  endfacet
  facet normal -4.440892e-016 1.000000e+000 0.000000e+000
    outer loop
      vertex   -1.020000e+002 -7.607739e+000 4.540000e+002
      vertex   -8.200000e+001 -7.607739e+000 4.600000e+002
      vertex   -8.200000e+001 -7.607739e+000 4.540000e+002
    endloop
  endfacet
  facet normal -1.000000e+000 0.000000e+000 -0.000000e+000
    outer loop
      vertex   -1.020000e+002 -1.360774e+001 4.600000e+002
      vertex   -1.020000e+002 -7.607739e+000 4.600000e+002
      vertex   -1.020000e+002 -1.360774e+001 4.540000e+002
    endloop
  endfacet
  facet normal -1.000000e+000 0.000000e+000 0.000000e+000
    outer loop
      vertex   -1.020000e+002 -1.360774e+001 4.540000e+002
      vertex   -1.020000e+002 -7.607739e+000 4.600000e+002
      vertex   -1.020000e+002 -7.607739e+000 4.540000e+002
    endloop
  endfacet
  facet normal -0.000000e+000 1.000000e+000 0.000000e+000
    outer loop
      vertex   -1.070000e+002 -1.360774e+001 4.600000e+002
      vertex   -1.020000e+002 -1.360774e+001 4.600000e+002
      vertex   -1.070000e+002 -1.360774e+001 4.540000e+002
    endloop
  endfacet
  facet normal -0.000000e+000 1.000000e+000 0.000000e+000
    outer loop
      vertex   -1.070000e+002 -1.360774e+001 4.540000e+002
      vertex   -1.020000e+002 -1.360774e+001 4.600000e+002
      vertex   -1.020000e+002 -1.360774e+001 4.540000e+002
    endloop
  endfacet
  facet normal -1.000000e+000 0.000000e+000 -0.000000e+000
    outer loop
      vertex   -1.070000e+002 -4.760774e+001 4.600000e+002
      vertex   -1.070000e+002 -1.360774e+001 4.600000e+002
      vertex   -1.070000e+002 -4.760774e+001 4.540000e+002
    endloop
  endfacet
  facet normal -1.000000e+000 0.000000e+000 0.000000e+000
    outer loop
      vertex   -1.070000e+002 -4.760774e+001 4.540000e+002
      vertex   -1.070000e+002 -1.360774e+001 4.600000e+002
      vertex   -1.070000e+002 -1.360774e+001 4.540000e+002
    endloop
  endfacet
  facet normal -0.000000e+000 -1.000000e+000 -0.000000e+000
    outer loop
      vertex   -1.020000e+002 -4.760774e+001 4.600000e+002
      vertex   -1.070000e+002 -4.760774e+001 4.600000e+002
      vertex   -1.020000e+002 -4.760774e+001 4.540000e+002
    endloop
  endfacet
  facet normal -0.000000e+000 -1.000000e+000 -0.000000e+000
    outer loop
      vertex   -1.020000e+002 -4.760774e+001 4.540000e+002
      vertex   -1.070000e+002 -4.760774e+001 4.600000e+002
      vertex   -1.070000e+002 -4.760774e+001 4.540000e+002
    endloop
  endfacet
  facet normal 1.000000e+000 0.000000e+000 -0.000000e+000
    outer loop
      vertex   -8.200000e+001 -5.160774e+001 4.540000e+002
      vertex   -8.200000e+001 -4.760774e+001 4.540000e+002
      vertex   -8.200000e+001 -5.160774e+001 4.600000e+002
    endloop
  endfacet
  facet normal 1.000000e+000 -0.000000e+000 0.000000e+000
    outer loop
      vertex   -8.200000e+001 -5.160774e+001 4.600000e+002
      vertex   -8.200000e+001 -4.760774e+001 4.540000e+002
      vertex   -8.200000e+001 -4.760774e+001 4.600000e+002
    endloop
  endfacet
  facet normal -0.000000e+000 -1.000000e+000 -0.000000e+000
    outer loop
      vertex   -7.700000e+001 -4.760774e+001 4.600000e+002
      vertex   -8.200000e+001 -4.760774e+001 4.600000e+002
      vertex   -7.700000e+001 -4.760774e+001 4.540000e+002
    endloop
  endfacet
  facet normal -0.000000e+000 -1.000000e+000 -0.000000e+000
    outer loop
      vertex   -7.700000e+001 -4.760774e+001 4.540000e+002
      vertex   -8.200000e+001 -4.760774e+001 4.600000e+002
      vertex   -8.200000e+001 -4.760774e+001 4.540000e+002
    endloop
  endfacet
  facet normal 1.000000e+000 4.179663e-016 0.000000e+000
    outer loop
      vertex   -7.700000e+001 -1.360774e+001 4.600000e+002
      vertex   -7.700000e+001 -4.760774e+001 4.600000e+002
      vertex   -7.700000e+001 -1.360774e+001 4.540000e+002
    endloop
  endfacet
  facet normal 1.000000e+000 4.179663e-016 0.000000e+000
    outer loop
      vertex   -7.700000e+001 -1.360774e+001 4.540000e+002
      vertex   -7.700000e+001 -4.760774e+001 4.600000e+002
      vertex   -7.700000e+001 -4.760774e+001 4.540000e+002
    endloop
  endfacet
  facet normal 0.000000e+000 -0.000000e+000 1.000000e+000
    outer loop
      vertex   -1.020000e+002 -5.160774e+001 4.600000e+002
      vertex   -8.200000e+001 -5.160774e+001 4.600000e+002
      vertex   -1.020000e+002 -4.760774e+001 4.600000e+002
    endloop
  endfacet
  facet normal -0.000000e+000 0.000000e+000 1.000000e+000
    outer loop
      vertex   -1.020000e+002 -4.760774e+001 4.600000e+002
      vertex   -8.200000e+001 -5.160774e+001 4.600000e+002
      vertex   -8.200000e+001 -4.760774e+001 4.600000e+002
    endloop
  endfacet
  facet normal -0.000000e+000 0.000000e+000 1.000000e+000
    outer loop
      vertex   -1.020000e+002 -1.360774e+001 4.600000e+002
      vertex   -8.200000e+001 -4.760774e+001 4.600000e+002
      vertex   -8.200000e+001 -1.360774e+001 4.600000e+002
    endloop
  endfacet
  facet normal -0.000000e+000 0.000000e+000 1.000000e+000
    outer loop
      vertex   -1.020000e+002 -7.607739e+000 4.600000e+002
      vertex   -8.200000e+001 -1.360774e+001 4.600000e+002
      vertex   -8.200000e+001 -7.607739e+000 4.600000e+002
    endloop
  endfacet
  facet normal -0.000000e+000 0.000000e+000 1.000000e+000
    outer loop
      vertex   -1.020000e+002 -7.607739e+000 4.600000e+002
      vertex   -1.020000e+002 -1.360774e+001 4.600000e+002
      vertex   -8.200000e+001 -1.360774e+001 4.600000e+002
    endloop
  endfacet
  facet normal 0.000000e+000 -0.000000e+000 1.000000e+000
    outer loop
      vertex   -8.200000e+001 -4.760774e+001 4.600000e+002
      vertex   -7.700000e+001 -4.760774e+001 4.600000e+002
      vertex   -8.200000e+001 -1.360774e+001 4.600000e+002
    endloop
  endfacet
  facet normal -0.000000e+000 -0.000000e+000 1.000000e+000
    outer loop
      vertex   -8.200000e+001 -1.360774e+001 4.600000e+002
      vertex   -7.700000e+001 -4.760774e+001 4.600000e+002
      vertex   -7.700000e+001 -1.360774e+001 4.600000e+002
    endloop
  endfacet
  facet normal -0.000000e+000 0.000000e+000 1.000000e+000
    outer loop
      vertex   -1.070000e+002 -1.360774e+001 4.600000e+002
      vertex   -1.070000e+002 -4.760774e+001 4.600000e+002
      vertex   -1.020000e+002 -1.360774e+001 4.600000e+002
    endloop
  endfacet
  facet normal -0.000000e+000 0.000000e+000 1.000000e+000
    outer loop
      vertex   -1.020000e+002 -1.360774e+001 4.600000e+002
      vertex   -1.070000e+002 -4.760774e+001 4.600000e+002
      vertex   -1.020000e+002 -4.760774e+001 4.600000e+002
    endloop
  endfacet
  facet normal 0.000000e+000 0.000000e+000 1.000000e+000
    outer loop
      vertex   -8.200000e+001 -4.760774e+001 4.600000e+002
      vertex   -1.020000e+002 -1.360774e+001 4.600000e+002
      vertex   -1.020000e+002 -4.760774e+001 4.600000e+002
    endloop
  endfacet
endsolid
