  0
SECTION
  2
HEADER
  9
$ACADVER
  1
AC1012
  9
$DWGCODEPAGE
  3
ansi_1252
  9
$INSBASE
 10
0.0
 20
0.0
 30
0.0
  9
$EXTMIN
 10
4.367697882616911
 20
2.243773340079487
 30
0.0
  9
$EXTMAX
 10
46.3676978826169
 20
22.24376334007949
 30
0.0
  9
$LIMMIN
 10
0.0
 20
0.0
  9
$LIMMAX
 10
12.0
 20
9.0
  9
$ORTHOMODE
 70
     0
  9
$REGENMODE
 70
     1
  9
$FILLMODE
 70
     1
  9
$QTEXTMODE
 70
     0
  9
$MIRRTEXT
 70
     1
  9
$DRAGMODE
 70
     2
  9
$LTSCALE
 40
1.0
  9
$OSMODE
 70
   511
  9
$ATTMODE
 70
     1
  9
$TEXTSIZE
 40
0.2
  9
$TRACEWID
 40
0.05
  9
$TEXTSTYLE
  7
STANDARD
  9
$CLAYER
  8
0
  9
$CELTYPE
  6
BYBLOCK
  9
$CECOLOR
 62
   256
  9
$CELTSCALE
 40
1.0
  9
$DELOBJ
 70
     1
  9
$DISPSILH
 70
     0
  9
$DIMSCALE
 40
1.0
  9
$DIMASZ
 40
0.18
  9
$DIMEXO
 40
0.0625
  9
$DIMDLI
 40
0.38
  9
$DIMRND
 40
0.0
  9
$DIMDLE
 40
0.0
  9
$DIMEXE
 40
0.18
  9
$DIMTP
 40
0.0
  9
$DIMTM
 40
0.0
  9
$DIMTXT
 40
0.18
  9
$DIMCEN
 40
0.09
  9
$DIMTSZ
 40
0.0
  9
$DIMTOL
 70
     0
  9
$DIMLIM
 70
     0
  9
$DIMTIH
 70
     1
  9
$DIMTOH
 70
     1
  9
$DIMSE1
 70
     0
  9
$DIMSE2
 70
     0
  9
$DIMTAD
 70
     0
  9
$DIMZIN
 70
     0
  9
$DIMBLK
  1

  9
$DIMASO
 70
     1
  9
$DIMSHO
 70
     1
  9
$DIMPOST
  1

  9
$DIMAPOST
  1

  9
$DIMALT
 70
     0
  9
$DIMALTD
 70
     2
  9
$DIMALTF
 40
25.4
  9
$DIMLFAC
 40
1.0
  9
$DIMTOFL
 70
     0
  9
$DIMTVP
 40
0.0
  9
$DIMTIX
 70
     0
  9
$DIMSOXD
 70
     0
  9
$DIMSAH
 70
     0
  9
$DIMBLK1
  1

  9
$DIMBLK2
  1

  9
$DIMSTYLE
  2
STANDARD
  9
$DIMCLRD
 70
     0
  9
$DIMCLRE
 70
     0
  9
$DIMCLRT
 70
     0
  9
$DIMTFAC
 40
1.0
  9
$DIMGAP
 40
0.09
  9
$DIMJUST
 70
     0
  9
$DIMSD1
 70
     0
  9
$DIMSD2
 70
     0
  9
$DIMTOLJ
 70
     1
  9
$DIMTZIN
 70
     0
  9
$DIMALTZ
 70
     0
  9
$DIMALTTZ
 70
     0
  9
$DIMFIT
 70
     5
  9
$DIMUPT
 70
     0
  9
$DIMUNIT
 70
     2
  9
$DIMDEC
 70
     4
  9
$DIMTDEC
 70
     4
  9
$DIMALTU
 70
     2
  9
$DIMALTTD
 70
     2
  9
$DIMTXSTY
  7
STANDARD
  9
$DIMAUNIT
 70
     0
  9
$LUNITS
 70
     2
  9
$LUPREC
 70
     4
  9
$SKETCHINC
 40
0.1
  9
$FILLETRAD
 40
0.5
  9
$AUNITS
 70
     0
  9
$AUPREC
 70
     0
  9
$MENU
  1
.
  9
$ELEVATION
 40
0.0
  9
$PELEVATION
 40
0.0
  9
$THICKNESS
 40
0.0
  9
$LIMCHECK
 70
     0
  9
$CHAMFERA
 40
0.0
  9
$CHAMFERB
 40
0.0
  9
$CHAMFERC
 40
0.0
  9
$CHAMFERD
 40
0.0
  9
$SKPOLY
 70
     0
  9
$TDCREATE
 40
2457627.94739757
  9
$TDUPDATE
 40
2457628.73545397
  9
$TDINDWG
 40
0.0004439815
  9
$TDUSRTIMER
 40
2457628.860346366
  9
$USRTIMER
 70
     1
  9
$ANGBASE
 50
0.0
  9
$ANGDIR
 70
     0
  9
$PDMODE
 70
     0
  9
$PDSIZE
 40
0.0
  9
$PLINEWID
 40
0.0
  9
$COORDS
 70
     1
  9
$SPLFRAME
 70
     0
  9
$SPLINETYPE
 70
     6
  9
$SPLINESEGS
 70
     8
  9
$ATTDIA
 70
     0
  9
$ATTREQ
 70
     1
  9
$HANDLING
 70
     1
  9
$HANDSEED
  5
139
  9
$SURFTAB1
 70
     6
  9
$SURFTAB2
 70
     6
  9
$SURFTYPE
 70
     6
  9
$SURFU
 70
     6
  9
$SURFV
 70
     6
  9
$UCSNAME
  2

  9
$UCSORG
 10
0.0
 20
0.0
 30
0.0
  9
$UCSXDIR
 10
1.0
 20
0.0
 30
0.0
  9
$UCSYDIR
 10
0.0
 20
1.0
 30
0.0
  9
$PUCSNAME
  2

  9
$PUCSORG
 10
0.0
 20
0.0
 30
0.0
  9
$PUCSXDIR
 10
1.0
 20
0.0
 30
0.0
  9
$PUCSYDIR
 10
0.0
 20
1.0
 30
0.0
  9
$USERI1
 70
     0
  9
$USERI2
 70
     0
  9
$USERI3
 70
     0
  9
$USERI4
 70
     0
  9
$USERI5
 70
     0
  9
$USERR1
 40
0.0
  9
$USERR2
 40
0.0
  9
$USERR3
 40
0.0
  9
$USERR4
 40
0.0
  9
$USERR5
 40
0.0
  9
$WORLDVIEW
 70
     1
  9
$SHADEDGE
 70
     3
  9
$SHADEDIF
 70
    70
  9
$TILEMODE
 70
     1
  9
$MAXACTVP
 70
    64
  9
$PINSBASE
 10
0.0
 20
0.0
 30
0.0
  9
$PLIMCHECK
 70
     0
  9
$PEXTMIN
 10
1.000000000000000E+20
 20
1.000000000000000E+20
 30
1.000000000000000E+20
  9
$PEXTMAX
 10
-1.000000000000000E+20
 20
-1.000000000000000E+20
 30
-1.000000000000000E+20
  9
$PLIMMIN
 10
0.0
 20
0.0
  9
$PLIMMAX
 10
0.0
 20
0.0
  9
$UNITMODE
 70
     0
  9
$VISRETAIN
 70
     1
  9
$PLINEGEN
 70
     0
  9
$PSLTSCALE
 70
     1
  9
$TREEDEPTH
 70
  3020
  9
$PICKSTYLE
 70
     1
  9
$CMLSTYLE
  2
STANDARD
  9
$CMLJUST
 70
     0
  9
$CMLSCALE
 40
1.0
  9
$SAVEIMAGES
 70
     1
  0
ENDSEC
  0
SECTION
  2
CLASSES
  0
CLASS
  1
ACDBDICTIONARYWDFLT
  2
AcDbDictionaryWithDefault
  3
ObjectDBX Classes
 90
    32768
280
     0
281
     0
  0
CLASS
  1
SCALE
  2
AcDbScale
  3
ObjectDBX Classes
 90
     1153
280
     0
281
     0
  0
CLASS
  1
VISUALSTYLE
  2
AcDbVisualStyle
  3
ObjectDBX Classes
 90
     4095
280
     0
281
     0
  0
CLASS
  1
MATERIAL
  2
AcDbMaterial
  3
ObjectDBX Classes
 90
     1153
280
     0
281
     0
  0
CLASS
  1
TABLESTYLE
  2
AcDbTableStyle
  3
ObjectDBX Classes
 90
     4095
280
     0
281
     0
  0
CLASS
  1
MLEADERSTYLE
  2
AcDbMLeaderStyle
  3
ACDB_MLEADERSTYLE_CLASS
 90
     4095
280
     0
281
     0
  0
CLASS
  1
SUN
  2
AcDbSun
  3
SCENEOE
 90
     1153
280
     0
281
     0
  0
CLASS
  1
RASTERVARIABLES
  2
AcDbRasterVariables
  3
ISM
 90
    32768
280
     0
281
     0
  0
CLASS
  1
DICTIONARYVAR
  2
AcDbDictionaryVar
  3
ObjectDBX Classes
 90
        0
280
     0
281
     0
  0
CLASS
  1
CELLSTYLEMAP
  2
AcDbCellStyleMap
  3
ObjectDBX Classes
 90
     1152
280
     0
281
     0
  0
CLASS
  1
XRECORD
  2
AcDbXrecord
  3
ObjectDBX Classes
 90
    32768
280
     0
281
     0
  0
ENDSEC
  0
SECTION
  2
TABLES
  0
TABLE
  2
VPORT
  5
8
330
0
100
AcDbSymbolTable
 70
     1
  0
VPORT
  5
82
330
8
100
AcDbSymbolTableRecord
100
AcDbViewportTableRecord
  2
*ACTIVE
 70
     0
 10
0.0
 20
0.0
 11
1.0
 21
1.0
 12
24.81227821981311
 22
11.03578611067416
 13
0.0
 23
0.0
 14
0.5
 24
0.5
 15
0.5
 25
0.5
 16
0.0
 26
0.0
 36
1.0
 17
0.0
 27
0.0
 37
0.0
 40
35.40539717442223
 41
2.501170960187354
 42
50.0
 43
0.0
 44
0.0
 50
0.0
 51
0.0
 71
    16
 72
   100
 73
     1
 74
     3
 75
     0
 76
     0
 77
     0
 78
     0
  0
ENDTAB
  0
TABLE
  2
LTYPE
  5
5
330
0
100
AcDbSymbolTable
 70
     1
  0
LTYPE
  5
14
330
5
100
AcDbSymbolTableRecord
100
AcDbLinetypeTableRecord
  2
BYBLOCK
 70
     0
  3

 72
    65
 73
     0
 40
0.0
  0
LTYPE
  5
15
330
5
100
AcDbSymbolTableRecord
100
AcDbLinetypeTableRecord
  2
BYLAYER
 70
     0
  3

 72
    65
 73
     0
 40
0.0
  0
LTYPE
  5
16
330
5
100
AcDbSymbolTableRecord
100
AcDbLinetypeTableRecord
  2
CONTINUOUS
 70
     0
  3
Solid line
 72
    65
 73
     0
 40
0.0
  0
ENDTAB
  0
TABLE
  2
LAYER
  5
2
330
0
100
AcDbSymbolTable
 70
     2
  0
LAYER
  5
10
330
2
100
AcDbSymbolTableRecord
100
AcDbLayerTableRecord
  2
0
 70
     0
 62
     7
  6
CONTINUOUS
  0
LAYER
  5
137
330
2
100
AcDbSymbolTableRecord
100
AcDbLayerTableRecord
  2
DEFPOINTS
 70
     0
 62
     7
  6
CONTINUOUS
  0
ENDTAB
  0
TABLE
  2
STYLE
  5
3
330
0
100
AcDbSymbolTable
 70
     1
  0
STYLE
  5
11
330
3
100
AcDbSymbolTableRecord
100
AcDbTextStyleTableRecord
  2
STANDARD
 70
     0
 40
0.0
 41
1.0
 50
0.0
 71
     0
 42
0.2
  3
txt
  4

  0
ENDTAB
  0
TABLE
  2
VIEW
  5
6
330
0
100
AcDbSymbolTable
 70
     0
  0
ENDTAB
  0
TABLE
  2
UCS
  5
7
330
0
100
AcDbSymbolTable
 70
     0
  0
ENDTAB
  0
TABLE
  2
APPID
  5
9
330
0
100
AcDbSymbolTable
 70
     1
  0
APPID
  5
12
330
9
100
AcDbSymbolTableRecord
100
AcDbRegAppTableRecord
  2
ACAD
 70
     0
  0
ENDTAB
  0
TABLE
  2
DIMSTYLE
  5
A
330
0
100
AcDbSymbolTable
 70
     1
  0
DIMSTYLE
105
20
330
A
100
AcDbSymbolTableRecord
100
AcDbDimStyleTableRecord
  2
STANDARD
 70
     0
  3

  4

  5

  6

  7

 40
1.0
 41
0.18
 42
0.0625
 43
0.38
 44
0.18
 45
0.0
 46
0.0
 47
0.0
 48
0.0
140
0.18
141
0.09
142
0.0
143
25.4
144
1.0
145
0.0
146
1.0
147
0.09
 71
     0
 72
     0
 73
     1
 74
     1
 75
     0
 76
     0
 77
     0
 78
     0
170
     0
171
     2
172
     0
173
     0
174
     0
175
     0
176
     0
177
     0
178
     0
270
     2
271
     4
272
     4
273
     2
274
     2
340
11
275
     0
280
     0
281
     0
282
     0
283
     1
284
     0
285
     0
286
     0
287
     3
288
     0
  0
ENDTAB
  0
TABLE
  2
BLOCK_RECORD
  5
1
330
0
100
AcDbSymbolTable
 70
     0
  0
BLOCK_RECORD
  5
1D
330
1
100
AcDbSymbolTableRecord
100
AcDbBlockTableRecord
  2
*MODEL_SPACE
  0
BLOCK_RECORD
  5
1B
330
1
100
AcDbSymbolTableRecord
100
AcDbBlockTableRecord
  2
*PAPER_SPACE
  0
ENDTAB
  0
ENDSEC
  0
SECTION
  2
BLOCKS
  0
BLOCK
  5
A5
330
1D
100
AcDbEntity
  8
0
100
AcDbBlockBegin
  2
*MODEL_SPACE
 70
     0
 10
0.0
 20
0.0
 30
0.0
  3
*MODEL_SPACE
  1

  0
ENDBLK
  5
A6
330
1D
100
AcDbEntity
  8
0
100
AcDbBlockEnd
  0
BLOCK
  5
A7
330
1B
100
AcDbEntity
 67
     1
  8
0
100
AcDbBlockBegin
  2
*PAPER_SPACE
 70
     0
 10
0.0
 20
0.0
 30
0.0
  3
*PAPER_SPACE
  1

  0
ENDBLK
  5
A8
330
1B
100
AcDbEntity
 67
     1
  8
0
100
AcDbBlockEnd
  0
ENDSEC
  0
SECTION
  2
ENTITIES
  0
LINE
  5
21
330
1D
100
AcDbEntity
  8
0
100
AcDbLine
 10
14.36769788261691
 20
14.24376334007949
 30
0.0
 11
36.36769788261691
 21
14.24376334007949
 31
0.0
  0
LINE
  5
22
330
1D
100
AcDbEntity
  8
0
100
AcDbLine
 10
36.36769788261691
 20
14.24376334007949
 30
0.0
 11
36.36769788261691
 21
2.243773340079487
 31
0.0
  0
LINE
  5
23
330
1D
100
AcDbEntity
  8
0
100
AcDbLine
 10
36.36769788261691
 20
2.243773340079487
 30
0.0
 11
46.36769788261691
 21
2.243773340079487
 31
0.0
  0
LINE
  5
24
330
1D
100
AcDbEntity
  8
0
100
AcDbLine
 10
46.36769788261691
 20
2.243773340079487
 30
0.0
 11
46.36769788261691
 21
18.24376334007949
 31
0.0
  0
LINE
  5
25
330
1D
100
AcDbEntity
  8
0
100
AcDbLine
 10
46.36769788261691
 20
18.24376334007949
 30
0.0
 11
36.36769788261691
 21
18.24376334007949
 31
0.0
  0
LINE
  5
26
330
1D
100
AcDbEntity
  8
0
100
AcDbLine
 10
36.36769788261691
 20
18.24376334007949
 30
0.0
 11
36.36769788261691
 21
21.24376334007949
 31
0.0
  0
LINE
  5
27
330
1D
100
AcDbEntity
  8
0
100
AcDbLine
 10
36.36769788261691
 20
21.24376334007949
 30
0.0
 11
14.36769788261691
 21
21.24376334007949
 31
0.0
  0
LINE
  5
28
330
1D
100
AcDbEntity
  8
0
100
AcDbLine
 10
14.36769788261691
 20
21.24376334007949
 30
0.0
 11
14.36769788261691
 21
18.24376334007949
 31
0.0
  0
LINE
  5
29
330
1D
100
AcDbEntity
  8
0
100
AcDbLine
 10
14.36769788261691
 20
18.24376334007949
 30
0.0
 11
4.367697882616911
 21
18.24376334007949
 31
0.0
  0
LINE
  5
2A
330
1D
100
AcDbEntity
  8
0
100
AcDbLine
 10
4.367697882616911
 20
18.24376334007949
 30
0.0
 11
4.367697882616911
 21
2.243773340079487
 31
0.0
  0
LINE
  5
2B
330
1D
100
AcDbEntity
  8
0
100
AcDbLine
 10
4.367697882616911
 20
2.243773340079487
 30
0.0
 11
14.36769788261691
 21
2.243773340079487
 31
0.0
  0
LINE
  5
2C
330
1D
100
AcDbEntity
  8
0
100
AcDbLine
 10
14.36769788261691
 20
2.243773340079487
 30
0.0
 11
14.36769788261691
 21
14.24376334007949
 31
0.0
  0
LINE
  5
2D
330
1D
100
AcDbEntity
  8
0
100
AcDbLine
 10
38.81119788261691
 20
7.249993340079487
 30
0.0
 11
38.66339788261691
 21
7.272263340079487
 31
0.0
  0
LINE
  5
2E
330
1D
100
AcDbEntity
  8
0
100
AcDbLine
 10
38.66339788261691
 20
7.272263340079487
 30
0.0
 11
38.52059788261691
 21
7.316323340079487
 31
0.0
  0
LINE
  5
2F
330
1D
100
AcDbEntity
  8
0
100
AcDbLine
 10
38.52059788261691
 20
7.316323340079487
 30
0.0
 11
38.38589788261691
 21
7.381163340079487
 31
0.0
  0
LINE
  5
30
330
1D
100
AcDbEntity
  8
0
100
AcDbLine
 10
38.38589788261691
 20
7.381163340079487
 30
0.0
 11
38.26239788261691
 21
7.465363340079487
 31
0.0
  0
LINE
  5
31
330
1D
100
AcDbEntity
  8
0
100
AcDbLine
 10
38.26239788261691
 20
7.465363340079487
 30
0.0
 11
38.15289788261691
 21
7.567013340079487
 31
0.0
  0
LINE
  5
32
330
1D
100
AcDbEntity
  8
0
100
AcDbLine
 10
38.15289788261691
 20
7.567013340079487
 30
0.0
 11
38.05969788261691
 21
7.683883340079487
 31
0.0
  0
LINE
  5
33
330
1D
100
AcDbEntity
  8
0
100
AcDbLine
 10
38.05969788261691
 20
7.683883340079487
 30
0.0
 11
37.98499788261691
 21
7.813303340079488
 31
0.0
  0
LINE
  5
34
330
1D
100
AcDbEntity
  8
0
100
AcDbLine
 10
37.98499788261691
 20
7.813303340079488
 30
0.0
 11
37.93039788261691
 21
7.952433340079487
 31
0.0
  0
LINE
  5
35
330
1D
100
AcDbEntity
  8
0
100
AcDbLine
 10
37.93039788261691
 20
7.952433340079487
 30
0.0
 11
37.89709788261691
 21
8.098153340079488
 31
0.0
  0
LINE
  5
36
330
1D
100
AcDbEntity
  8
0
100
AcDbLine
 10
37.89709788261691
 20
8.098153340079488
 30
0.0
 11
37.88589788261691
 21
8.247183340079488
 31
0.0
  0
LINE
  5
37
330
1D
100
AcDbEntity
  8
0
100
AcDbLine
 10
37.88589788261691
 20
8.247183340079488
 30
0.0
 11
37.89709788261691
 21
8.396233340079487
 31
0.0
  0
LINE
  5
38
330
1D
100
AcDbEntity
  8
0
100
AcDbLine
 10
37.89709788261691
 20
8.396233340079487
 30
0.0
 11
37.93039788261691
 21
8.541943340079488
 31
0.0
  0
LINE
  5
39
330
1D
100
AcDbEntity
  8
0
100
AcDbLine
 10
37.93039788261691
 20
8.541943340079488
 30
0.0
 11
37.98499788261691
 21
8.681073340079488
 31
0.0
  0
LINE
  5
3A
330
1D
100
AcDbEntity
  8
0
100
AcDbLine
 10
37.98499788261691
 20
8.681073340079488
 30
0.0
 11
38.05969788261691
 21
8.810513340079487
 31
0.0
  0
LINE
  5
3B
330
1D
100
AcDbEntity
  8
0
100
AcDbLine
 10
38.05969788261691
 20
8.810513340079487
 30
0.0
 11
38.15289788261691
 21
8.927363340079488
 31
0.0
  0
LINE
  5
3C
330
1D
100
AcDbEntity
  8
0
100
AcDbLine
 10
38.15289788261691
 20
8.927363340079488
 30
0.0
 11
38.26239788261691
 21
9.029013340079487
 31
0.0
  0
LINE
  5
3D
330
1D
100
AcDbEntity
  8
0
100
AcDbLine
 10
38.26239788261691
 20
9.029013340079487
 30
0.0
 11
38.38589788261691
 21
9.113213340079486
 31
0.0
  0
LINE
  5
3E
330
1D
100
AcDbEntity
  8
0
100
AcDbLine
 10
38.38589788261691
 20
9.113213340079486
 30
0.0
 11
38.52059788261691
 21
9.178063340079488
 31
0.0
  0
LINE
  5
3F
330
1D
100
AcDbEntity
  8
0
100
AcDbLine
 10
38.52059788261691
 20
9.178063340079488
 30
0.0
 11
38.66339788261691
 21
9.222113340079487
 31
0.0
  0
LINE
  5
40
330
1D
100
AcDbEntity
  8
0
100
AcDbLine
 10
38.66339788261691
 20
9.222113340079487
 30
0.0
 11
38.81119788261691
 21
9.244393340079487
 31
0.0
  0
LINE
  5
41
330
1D
100
AcDbEntity
  8
0
100
AcDbLine
 10
38.81119788261691
 20
9.244393340079487
 30
0.0
 11
38.96069788261691
 21
9.244393340079487
 31
0.0
  0
LINE
  5
42
330
1D
100
AcDbEntity
  8
0
100
AcDbLine
 10
38.96069788261691
 20
9.244393340079487
 30
0.0
 11
39.10849788261691
 21
9.222113340079487
 31
0.0
  0
LINE
  5
43
330
1D
100
AcDbEntity
  8
0
100
AcDbLine
 10
39.10849788261691
 20
9.222113340079487
 30
0.0
 11
39.25129788261691
 21
9.178063340079488
 31
0.0
  0
LINE
  5
44
330
1D
100
AcDbEntity
  8
0
100
AcDbLine
 10
39.25129788261691
 20
9.178063340079488
 30
0.0
 11
39.38589788261691
 21
9.113213340079486
 31
0.0
  0
LINE
  5
45
330
1D
100
AcDbEntity
  8
0
100
AcDbLine
 10
39.38589788261691
 20
9.113213340079486
 30
0.0
 11
39.50939788261691
 21
9.029013340079487
 31
0.0
  0
LINE
  5
46
330
1D
100
AcDbEntity
  8
0
100
AcDbLine
 10
39.50939788261691
 20
9.029013340079487
 30
0.0
 11
39.61899788261691
 21
8.927363340079488
 31
0.0
  0
LINE
  5
47
330
1D
100
AcDbEntity
  8
0
100
AcDbLine
 10
39.61899788261691
 20
8.927363340079488
 30
0.0
 11
39.71219788261691
 21
8.810513340079487
 31
0.0
  0
LINE
  5
48
330
1D
100
AcDbEntity
  8
0
100
AcDbLine
 10
39.71219788261691
 20
8.810513340079487
 30
0.0
 11
39.78689788261691
 21
8.681073340079488
 31
0.0
  0
LINE
  5
49
330
1D
100
AcDbEntity
  8
0
100
AcDbLine
 10
39.78689788261691
 20
8.681073340079488
 30
0.0
 11
39.84149788261691
 21
8.541943340079488
 31
0.0
  0
LINE
  5
4A
330
1D
100
AcDbEntity
  8
0
100
AcDbLine
 10
39.84149788261691
 20
8.541943340079488
 30
0.0
 11
39.87479788261691
 21
8.396233340079487
 31
0.0
  0
LINE
  5
4B
330
1D
100
AcDbEntity
  8
0
100
AcDbLine
 10
39.87479788261691
 20
8.396233340079487
 30
0.0
 11
39.88589788261691
 21
8.247183340079488
 31
0.0
  0
LINE
  5
4C
330
1D
100
AcDbEntity
  8
0
100
AcDbLine
 10
39.88589788261691
 20
8.247183340079488
 30
0.0
 11
39.87479788261691
 21
8.098153340079488
 31
0.0
  0
LINE
  5
4D
330
1D
100
AcDbEntity
  8
0
100
AcDbLine
 10
39.87479788261691
 20
8.098153340079488
 30
0.0
 11
39.84149788261691
 21
7.952433340079487
 31
0.0
  0
LINE
  5
4E
330
1D
100
AcDbEntity
  8
0
100
AcDbLine
 10
39.84149788261691
 20
7.952433340079487
 30
0.0
 11
39.78689788261691
 21
7.813303340079488
 31
0.0
  0
LINE
  5
4F
330
1D
100
AcDbEntity
  8
0
100
AcDbLine
 10
39.78689788261691
 20
7.813303340079488
 30
0.0
 11
39.71219788261691
 21
7.683883340079487
 31
0.0
  0
LINE
  5
50
330
1D
100
AcDbEntity
  8
0
100
AcDbLine
 10
39.71219788261691
 20
7.683883340079487
 30
0.0
 11
39.61899788261691
 21
7.567013340079487
 31
0.0
  0
LINE
  5
51
330
1D
100
AcDbEntity
  8
0
100
AcDbLine
 10
39.61899788261691
 20
7.567013340079487
 30
0.0
 11
39.50939788261691
 21
7.465363340079487
 31
0.0
  0
LINE
  5
52
330
1D
100
AcDbEntity
  8
0
100
AcDbLine
 10
39.50939788261691
 20
7.465363340079487
 30
0.0
 11
39.38589788261691
 21
7.381163340079487
 31
0.0
  0
LINE
  5
53
330
1D
100
AcDbEntity
  8
0
100
AcDbLine
 10
39.38589788261691
 20
7.381163340079487
 30
0.0
 11
39.25129788261691
 21
7.316323340079487
 31
0.0
  0
LINE
  5
54
330
1D
100
AcDbEntity
  8
0
100
AcDbLine
 10
39.25129788261691
 20
7.316323340079487
 30
0.0
 11
39.10849788261691
 21
7.272263340079487
 31
0.0
  0
LINE
  5
55
330
1D
100
AcDbEntity
  8
0
100
AcDbLine
 10
39.10849788261691
 20
7.272263340079487
 30
0.0
 11
38.96069788261691
 21
7.249993340079487
 31
0.0
  0
LINE
  5
56
330
1D
100
AcDbEntity
  8
0
100
AcDbLine
 10
38.96069788261691
 20
7.249993340079487
 30
0.0
 11
38.81119788261691
 21
7.249993340079487
 31
0.0
  0
LINE
  5
57
330
1D
100
AcDbEntity
  8
0
100
AcDbLine
 10
11.81119788261691
 20
7.249993340079487
 30
0.0
 11
11.66339788261691
 21
7.272263340079487
 31
0.0
  0
LINE
  5
58
330
1D
100
AcDbEntity
  8
0
100
AcDbLine
 10
11.66339788261691
 20
7.272263340079487
 30
0.0
 11
11.52059788261691
 21
7.316323340079487
 31
0.0
  0
LINE
  5
59
330
1D
100
AcDbEntity
  8
0
100
AcDbLine
 10
11.52059788261691
 20
7.316323340079487
 30
0.0
 11
11.38589788261691
 21
7.381163340079487
 31
0.0
  0
LINE
  5
5A
330
1D
100
AcDbEntity
  8
0
100
AcDbLine
 10
11.38589788261691
 20
7.381163340079487
 30
0.0
 11
11.26239788261691
 21
7.465363340079487
 31
0.0
  0
LINE
  5
5B
330
1D
100
AcDbEntity
  8
0
100
AcDbLine
 10
11.26239788261691
 20
7.465363340079487
 30
0.0
 11
11.15289788261691
 21
7.567013340079487
 31
0.0
  0
LINE
  5
5C
330
1D
100
AcDbEntity
  8
0
100
AcDbLine
 10
11.15289788261691
 20
7.567013340079487
 30
0.0
 11
11.05969788261691
 21
7.683883340079487
 31
0.0
  0
LINE
  5
5D
330
1D
100
AcDbEntity
  8
0
100
AcDbLine
 10
11.05969788261691
 20
7.683883340079487
 30
0.0
 11
10.98499788261691
 21
7.813303340079488
 31
0.0
  0
LINE
  5
5E
330
1D
100
AcDbEntity
  8
0
100
AcDbLine
 10
10.98499788261691
 20
7.813303340079488
 30
0.0
 11
10.93039788261691
 21
7.952433340079487
 31
0.0
  0
LINE
  5
5F
330
1D
100
AcDbEntity
  8
0
100
AcDbLine
 10
10.93039788261691
 20
7.952433340079487
 30
0.0
 11
10.89709788261691
 21
8.098153340079488
 31
0.0
  0
LINE
  5
60
330
1D
100
AcDbEntity
  8
0
100
AcDbLine
 10
10.89709788261691
 20
8.098153340079488
 30
0.0
 11
10.88589788261691
 21
8.247183340079488
 31
0.0
  0
LINE
  5
61
330
1D
100
AcDbEntity
  8
0
100
AcDbLine
 10
10.88589788261691
 20
8.247183340079488
 30
0.0
 11
10.89709788261691
 21
8.396233340079487
 31
0.0
  0
LINE
  5
62
330
1D
100
AcDbEntity
  8
0
100
AcDbLine
 10
10.89709788261691
 20
8.396233340079487
 30
0.0
 11
10.93039788261691
 21
8.541943340079488
 31
0.0
  0
LINE
  5
63
330
1D
100
AcDbEntity
  8
0
100
AcDbLine
 10
10.93039788261691
 20
8.541943340079488
 30
0.0
 11
10.98499788261691
 21
8.681073340079488
 31
0.0
  0
LINE
  5
64
330
1D
100
AcDbEntity
  8
0
100
AcDbLine
 10
10.98499788261691
 20
8.681073340079488
 30
0.0
 11
11.05969788261691
 21
8.810513340079487
 31
0.0
  0
LINE
  5
65
330
1D
100
AcDbEntity
  8
0
100
AcDbLine
 10
11.05969788261691
 20
8.810513340079487
 30
0.0
 11
11.15289788261691
 21
8.927363340079488
 31
0.0
  0
LINE
  5
66
330
1D
100
AcDbEntity
  8
0
100
AcDbLine
 10
11.15289788261691
 20
8.927363340079488
 30
0.0
 11
11.26239788261691
 21
9.029013340079487
 31
0.0
  0
LINE
  5
67
330
1D
100
AcDbEntity
  8
0
100
AcDbLine
 10
11.26239788261691
 20
9.029013340079487
 30
0.0
 11
11.38589788261691
 21
9.113213340079486
 31
0.0
  0
LINE
  5
68
330
1D
100
AcDbEntity
  8
0
100
AcDbLine
 10
11.38589788261691
 20
9.113213340079486
 30
0.0
 11
11.52059788261691
 21
9.178063340079488
 31
0.0
  0
LINE
  5
69
330
1D
100
AcDbEntity
  8
0
100
AcDbLine
 10
11.52059788261691
 20
9.178063340079488
 30
0.0
 11
11.66339788261691
 21
9.222113340079487
 31
0.0
  0
LINE
  5
6A
330
1D
100
AcDbEntity
  8
0
100
AcDbLine
 10
11.66339788261691
 20
9.222113340079487
 30
0.0
 11
11.81119788261691
 21
9.244393340079487
 31
0.0
  0
LINE
  5
6B
330
1D
100
AcDbEntity
  8
0
100
AcDbLine
 10
11.81119788261691
 20
9.244393340079487
 30
0.0
 11
11.96069788261691
 21
9.244393340079487
 31
0.0
  0
LINE
  5
6C
330
1D
100
AcDbEntity
  8
0
100
AcDbLine
 10
11.96069788261691
 20
9.244393340079487
 30
0.0
 11
12.10849788261691
 21
9.222113340079487
 31
0.0
  0
LINE
  5
6D
330
1D
100
AcDbEntity
  8
0
100
AcDbLine
 10
12.10849788261691
 20
9.222113340079487
 30
0.0
 11
12.25129788261691
 21
9.178063340079488
 31
0.0
  0
LINE
  5
6E
330
1D
100
AcDbEntity
  8
0
100
AcDbLine
 10
12.25129788261691
 20
9.178063340079488
 30
0.0
 11
12.38589788261691
 21
9.113213340079486
 31
0.0
  0
LINE
  5
6F
330
1D
100
AcDbEntity
  8
0
100
AcDbLine
 10
12.38589788261691
 20
9.113213340079486
 30
0.0
 11
12.50939788261691
 21
9.029013340079487
 31
0.0
  0
LINE
  5
70
330
1D
100
AcDbEntity
  8
0
100
AcDbLine
 10
12.50939788261691
 20
9.029013340079487
 30
0.0
 11
12.61899788261691
 21
8.927363340079488
 31
0.0
  0
LINE
  5
71
330
1D
100
AcDbEntity
  8
0
100
AcDbLine
 10
12.61899788261691
 20
8.927363340079488
 30
0.0
 11
12.71219788261691
 21
8.810513340079487
 31
0.0
  0
LINE
  5
72
330
1D
100
AcDbEntity
  8
0
100
AcDbLine
 10
12.71219788261691
 20
8.810513340079487
 30
0.0
 11
12.78689788261691
 21
8.681073340079488
 31
0.0
  0
LINE
  5
73
330
1D
100
AcDbEntity
  8
0
100
AcDbLine
 10
12.78689788261691
 20
8.681073340079488
 30
0.0
 11
12.84149788261691
 21
8.541943340079488
 31
0.0
  0
LINE
  5
74
330
1D
100
AcDbEntity
  8
0
100
AcDbLine
 10
12.84149788261691
 20
8.541943340079488
 30
0.0
 11
12.87479788261691
 21
8.396233340079487
 31
0.0
  0
LINE
  5
75
330
1D
100
AcDbEntity
  8
0
100
AcDbLine
 10
12.87479788261691
 20
8.396233340079487
 30
0.0
 11
12.88589788261691
 21
8.247183340079488
 31
0.0
  0
LINE
  5
76
330
1D
100
AcDbEntity
  8
0
100
AcDbLine
 10
12.88589788261691
 20
8.247183340079488
 30
0.0
 11
12.87479788261691
 21
8.098153340079488
 31
0.0
  0
LINE
  5
77
330
1D
100
AcDbEntity
  8
0
100
AcDbLine
 10
12.87479788261691
 20
8.098153340079488
 30
0.0
 11
12.84149788261691
 21
7.952433340079487
 31
0.0
  0
LINE
  5
78
330
1D
100
AcDbEntity
  8
0
100
AcDbLine
 10
12.84149788261691
 20
7.952433340079487
 30
0.0
 11
12.78689788261691
 21
7.813303340079488
 31
0.0
  0
LINE
  5
79
330
1D
100
AcDbEntity
  8
0
100
AcDbLine
 10
12.78689788261691
 20
7.813303340079488
 30
0.0
 11
12.71219788261691
 21
7.683883340079487
 31
0.0
  0
LINE
  5
7A
330
1D
100
AcDbEntity
  8
0
100
AcDbLine
 10
12.71219788261691
 20
7.683883340079487
 30
0.0
 11
12.61899788261691
 21
7.567013340079487
 31
0.0
  0
LINE
  5
7B
330
1D
100
AcDbEntity
  8
0
100
AcDbLine
 10
12.61899788261691
 20
7.567013340079487
 30
0.0
 11
12.50939788261691
 21
7.465363340079487
 31
0.0
  0
LINE
  5
7C
330
1D
100
AcDbEntity
  8
0
100
AcDbLine
 10
12.50939788261691
 20
7.465363340079487
 30
0.0
 11
12.38589788261691
 21
7.381163340079487
 31
0.0
  0
LINE
  5
7D
330
1D
100
AcDbEntity
  8
0
100
AcDbLine
 10
12.38589788261691
 20
7.381163340079487
 30
0.0
 11
12.25129788261691
 21
7.316323340079487
 31
0.0
  0
LINE
  5
7E
330
1D
100
AcDbEntity
  8
0
100
AcDbLine
 10
12.25129788261691
 20
7.316323340079487
 30
0.0
 11
12.10849788261691
 21
7.272263340079487
 31
0.0
  0
LINE
  5
7F
330
1D
100
AcDbEntity
  8
0
100
AcDbLine
 10
12.10849788261691
 20
7.272263340079487
 30
0.0
 11
11.96069788261691
 21
7.249993340079487
 31
0.0
  0
LINE
  5
80
330
1D
100
AcDbEntity
  8
0
100
AcDbLine
 10
11.96069788261691
 20
7.249993340079487
 30
0.0
 11
11.81119788261691
 21
7.249993340079487
 31
0.0
  0
POLYLINE
  5
FF
330
1D
100
AcDbEntity
  8
0
  6
CONTINUOUS
 62
     1
100
AcDb2dPolyline
 66
     1
 10
0.0
 20
0.0
 30
0.0
  0
VERTEX
  5
100
330
FF
100
AcDbEntity
  8
0
  6
CONTINUOUS
 62
     1
100
AcDbVertex
100
AcDb2dVertex
 10
23.6279760134846
 20
19.89927936794654
 30
0.0
  0
VERTEX
  5
101
330
FF
100
AcDbEntity
  8
0
  6
CONTINUOUS
 62
     1
100
AcDbVertex
100
AcDb2dVertex
 10
23.6279760134846
 20
20.89927936794654
 30
0.0
  0
VERTEX
  5
102
330
FF
100
AcDbEntity
  8
0
  6
CONTINUOUS
 62
     1
100
AcDbVertex
100
AcDb2dVertex
 10
24.1279760134846
 20
20.89927936794654
 30
0.0
  0
VERTEX
  5
103
330
FF
100
AcDbEntity
  8
0
  6
CONTINUOUS
 62
     1
100
AcDbVertex
100
AcDb2dVertex
 10
24.29464268015127
 20
20.73261270127987
 30
0.0
  0
VERTEX
  5
104
330
FF
100
AcDbEntity
  8
0
  6
CONTINUOUS
 62
     1
100
AcDbVertex
100
AcDb2dVertex
 10
24.29464268015127
 20
20.56594603461321
 30
0.0
  0
VERTEX
  5
105
330
FF
100
AcDbEntity
  8
0
  6
CONTINUOUS
 62
     1
100
AcDbVertex
100
AcDb2dVertex
 10
24.1279760134846
 20
20.39927936794654
 30
0.0
  0
VERTEX
  5
106
330
FF
100
AcDbEntity
  8
0
  6
CONTINUOUS
 62
     1
100
AcDbVertex
100
AcDb2dVertex
 10
23.6279760134846
 20
20.39927936794654
 30
0.0
  0
SEQEND
  5
113
330
FF
100
AcDbEntity
  8
0
  6
CONTINUOUS
 62
     1
  0
LINE
  5
107
330
1D
100
AcDbEntity
  8
0
  6
CONTINUOUS
 62
     1
100
AcDbLine
 10
24.6279760134846
 20
19.89927936794654
 30
0.0
 11
24.96130934681793
 21
19.89927936794654
 31
0.0
  0
POLYLINE
  5
108
330
1D
100
AcDbEntity
  8
0
  6
CONTINUOUS
 62
     1
100
AcDb2dPolyline
 66
     1
 10
0.0
 20
0.0
 30
0.0
  0
VERTEX
  5
109
330
108
100
AcDbEntity
  8
0
  6
CONTINUOUS
 62
     1
100
AcDbVertex
100
AcDb2dVertex
 10
24.79464268015127
 20
19.89927936794654
 30
0.0
  0
VERTEX
  5
10A
330
108
100
AcDbEntity
  8
0
  6
CONTINUOUS
 62
     1
100
AcDbVertex
100
AcDb2dVertex
 10
24.79464268015127
 20
20.89927936794654
 30
0.0
  0
VERTEX
  5
10B
330
108
100
AcDbEntity
  8
0
  6
CONTINUOUS
 62
     1
100
AcDbVertex
100
AcDb2dVertex
 10
24.6279760134846
 20
20.73261270127987
 30
0.0
  0
SEQEND
  5
112
330
108
100
AcDbEntity
  8
0
  6
CONTINUOUS
 62
     1
  0
POLYLINE
  5
10C
330
1D
100
AcDbEntity
  8
0
  6
CONTINUOUS
 62
     1
100
AcDb2dPolyline
 66
     1
 10
0.0
 20
0.0
 30
0.0
  0
VERTEX
  5
10D
330
10C
100
AcDbEntity
  8
0
  6
CONTINUOUS
 62
     1
100
AcDbVertex
100
AcDb2dVertex
 10
25.79464268015127
 20
19.89927936794654
 30
0.0
  0
VERTEX
  5
10E
330
10C
100
AcDbEntity
  8
0
  6
CONTINUOUS
 62
     1
100
AcDbVertex
100
AcDb2dVertex
 10
25.79464268015127
 20
20.89927936794654
 30
0.0
  0
VERTEX
  5
10F
330
10C
100
AcDbEntity
  8
0
  6
CONTINUOUS
 62
     1
100
AcDbVertex
100
AcDb2dVertex
 10
25.29464268015127
 20
20.23261270127987
 30
0.0
  0
VERTEX
  5
110
330
10C
100
AcDbEntity
  8
0
  6
CONTINUOUS
 62
     1
100
AcDbVertex
100
AcDb2dVertex
 10
25.96130934681793
 20
20.23261270127987
 30
0.0
  0
SEQEND
  5
111
330
10C
100
AcDbEntity
  8
0
  6
CONTINUOUS
 62
     1
  0
POLYLINE
  5
114
330
1D
100
AcDbEntity
  8
0
  6
CONTINUOUS
 62
     1
100
AcDb2dPolyline
 66
     1
 10
0.0
 20
0.0
 30
0.0
  0
VERTEX
  5
115
330
114
100
AcDbEntity
  8
0
  6
CONTINUOUS
 62
     1
100
AcDbVertex
100
AcDb2dVertex
 10
20.07084375205154
 20
14.87885146715445
 30
0.0
  0
VERTEX
  5
116
330
114
100
AcDbEntity
  8
0
  6
CONTINUOUS
 62
     1
100
AcDbVertex
100
AcDb2dVertex
 10
20.07084375205154
 20
18.87885146715445
 30
0.0
  0
VERTEX
  5
117
330
114
100
AcDbEntity
  8
0
  6
CONTINUOUS
 62
     1
100
AcDbVertex
100
AcDb2dVertex
 10
22.07084375205154
 20
18.87885146715445
 30
0.0
  0
VERTEX
  5
118
330
114
100
AcDbEntity
  8
0
  6
CONTINUOUS
 62
     1
100
AcDbVertex
100
AcDb2dVertex
 10
22.73751041871821
 20
18.21218480048778
 30
0.0
  0
VERTEX
  5
119
330
114
100
AcDbEntity
  8
0
  6
CONTINUOUS
 62
     1
100
AcDbVertex
100
AcDb2dVertex
 10
22.73751041871821
 20
17.54551813382112
 30
0.0
  0
VERTEX
  5
11A
330
114
100
AcDbEntity
  8
0
  6
CONTINUOUS
 62
     1
100
AcDbVertex
100
AcDb2dVertex
 10
22.07084375205154
 20
16.87885146715445
 30
0.0
  0
VERTEX
  5
11B
330
114
100
AcDbEntity
  8
0
  6
CONTINUOUS
 62
     1
100
AcDbVertex
100
AcDb2dVertex
 10
20.07084375205154
 20
16.87885146715445
 30
0.0
  0
SEQEND
  5
133
330
114
100
AcDbEntity
  8
0
  6
CONTINUOUS
 62
     1
  0
LINE
  5
11C
330
1D
100
AcDbEntity
  8
0
  6
CONTINUOUS
 62
     1
100
AcDbLine
 10
24.07084375205154
 20
14.87885146715445
 30
0.0
 11
25.40417708538487
 21
14.87885146715445
 31
0.0
  0
POLYLINE
  5
11D
330
1D
100
AcDbEntity
  8
0
  6
CONTINUOUS
 62
     1
100
AcDb2dPolyline
 66
     1
 10
0.0
 20
0.0
 30
0.0
  0
VERTEX
  5
11E
330
11D
100
AcDbEntity
  8
0
  6
CONTINUOUS
 62
     1
100
AcDbVertex
100
AcDb2dVertex
 10
24.73751041871821
 20
14.87885146715445
 30
0.0
  0
VERTEX
  5
11F
330
11D
100
AcDbEntity
  8
0
  6
CONTINUOUS
 62
     1
100
AcDbVertex
100
AcDb2dVertex
 10
24.73751041871821
 20
18.87885146715445
 30
0.0
  0
VERTEX
  5
120
330
11D
100
AcDbEntity
  8
0
  6
CONTINUOUS
 62
     1
100
AcDbVertex
100
AcDb2dVertex
 10
24.07084375205154
 20
18.21218480048778
 30
0.0
  0
SEQEND
  5
132
330
11D
100
AcDbEntity
  8
0
  6
CONTINUOUS
 62
     1
  0
POLYLINE
  5
121
330
1D
100
AcDbEntity
  8
0
  6
CONTINUOUS
 62
     1
100
AcDb2dPolyline
 66
     1
 10
0.0
 20
0.0
 30
0.0
  0
VERTEX
  5
122
330
121
100
AcDbEntity
  8
0
  6
CONTINUOUS
 62
     1
100
AcDbVertex
100
AcDb2dVertex
 10
26.73751041871821
 20
15.54551813382112
 30
0.0
  0
VERTEX
  5
123
330
121
100
AcDbEntity
  8
0
  6
CONTINUOUS
 62
     1
100
AcDbVertex
100
AcDb2dVertex
 10
27.40417708538488
 20
14.87885146715445
 30
0.0
  0
VERTEX
  5
124
330
121
100
AcDbEntity
  8
0
  6
CONTINUOUS
 62
     1
100
AcDbVertex
100
AcDb2dVertex
 10
28.73751041871821
 20
14.87885146715445
 30
0.0
  0
VERTEX
  5
125
330
121
100
AcDbEntity
  8
0
  6
CONTINUOUS
 62
     1
100
AcDbVertex
100
AcDb2dVertex
 10
29.40417708538488
 20
15.54551813382112
 30
0.0
  0
VERTEX
  5
126
330
121
100
AcDbEntity
  8
0
  6
CONTINUOUS
 62
     1
100
AcDbVertex
100
AcDb2dVertex
 10
29.40417708538488
 20
16.21218480048778
 30
0.0
  0
VERTEX
  5
127
330
121
100
AcDbEntity
  8
0
  6
CONTINUOUS
 62
     1
100
AcDbVertex
100
AcDb2dVertex
 10
28.73751041871821
 20
16.87885146715445
 30
0.0
  0
VERTEX
  5
128
330
121
100
AcDbEntity
  8
0
  6
CONTINUOUS
 62
     1
100
AcDbVertex
100
AcDb2dVertex
 10
28.07084375205154
 20
16.87885146715445
 30
0.0
  0
SEQEND
  5
131
330
121
100
AcDbEntity
  8
0
  6
CONTINUOUS
 62
     1
  0
POLYLINE
  5
129
330
1D
100
AcDbEntity
  8
0
  6
CONTINUOUS
 62
     1
100
AcDb2dPolyline
 66
     1
 10
0.0
 20
0.0
 30
0.0
  0
VERTEX
  5
12A
330
129
100
AcDbEntity
  8
0
  6
CONTINUOUS
 62
     1
100
AcDbVertex
100
AcDb2dVertex
 10
28.73751041871821
 20
16.87885146715445
 30
0.0
  0
VERTEX
  5
12B
330
129
100
AcDbEntity
  8
0
  6
CONTINUOUS
 62
     1
100
AcDbVertex
100
AcDb2dVertex
 10
29.40417708538488
 20
17.54551813382112
 30
0.0
  0
VERTEX
  5
12C
330
129
100
AcDbEntity
  8
0
  6
CONTINUOUS
 62
     1
100
AcDbVertex
100
AcDb2dVertex
 10
29.40417708538488
 20
18.21218480048778
 30
0.0
  0
VERTEX
  5
12D
330
129
100
AcDbEntity
  8
0
  6
CONTINUOUS
 62
     1
100
AcDbVertex
100
AcDb2dVertex
 10
28.73751041871821
 20
18.87885146715445
 30
0.0
  0
VERTEX
  5
12E
330
129
100
AcDbEntity
  8
0
  6
CONTINUOUS
 62
     1
100
AcDbVertex
100
AcDb2dVertex
 10
27.40417708538488
 20
18.87885146715445
 30
0.0
  0
VERTEX
  5
12F
330
129
100
AcDbEntity
  8
0
  6
CONTINUOUS
 62
     1
100
AcDbVertex
100
AcDb2dVertex
 10
26.73751041871821
 20
18.21218480048778
 30
0.0
  0
SEQEND
  5
130
330
129
100
AcDbEntity
  8
0
  6
CONTINUOUS
 62
     1
  0
ENDSEC
  0
SECTION
  2
OBJECTS
  0
DICTIONARY
  5
C
330
0
100
AcDbDictionary
  3
ACAD_DETAILVIEWSTYLE
350
FD
  3
ACAD_GROUP
350
D
  3
ACAD_IMAGE_VARS
350
CC
  3
ACAD_MLINESTYLE
350
17
  3
ACAD_SCALELIST
350
83
  3
ACAD_SECTIONVIEWSTYLE
350
FE
  3
ACDBVARIABLEDICTIONARY
350
F5
  3
APPDATA
350
CA
  3
DWGPROPS
350
138
1001
ACAD
1000
TREAT_AS_HARD
1070
     0
  0
DICTIONARY
  5
FD
102
{ACAD_REACTORS
330
C
102
}
330
C
100
AcDbDictionary
1001
ACAD
1000
TREAT_AS_HARD
1070
     0
  0
DICTIONARY
  5
D
102
{ACAD_REACTORS
330
C
102
}
330
C
100
AcDbDictionary
1001
ACAD
1000
TREAT_AS_HARD
1070
     0
  0
RASTERVARIABLES
  5
CC
102
{ACAD_REACTORS
330
C
102
}
330
C
100
AcDbRasterVariables
 90
        0
 70
     1
 71
     1
 72
     0
  0
DICTIONARY
  5
17
102
{ACAD_REACTORS
330
C
102
}
330
C
100
AcDbDictionary
  3
STANDARD
350
18
1001
ACAD
1000
TREAT_AS_HARD
1070
     0
  0
DICTIONARY
  5
83
102
{ACAD_REACTORS
330
C
102
}
330
C
100
AcDbDictionary
1001
ACAD
1000
TREAT_AS_HARD
1070
     0
  0
DICTIONARY
  5
FE
102
{ACAD_REACTORS
330
C
102
}
330
C
100
AcDbDictionary
1001
ACAD
1000
TREAT_AS_HARD
1070
     0
  0
DICTIONARY
  5
F5
102
{ACAD_REACTORS
330
C
102
}
330
C
100
AcDbDictionary
1001
ACAD
1000
TREAT_AS_HARD
1070
     0
  0
DICTIONARY
  5
CA
102
{ACAD_REACTORS
330
C
102
}
330
C
100
AcDbDictionary
1001
ACAD
1000
TREAT_AS_HARD
1070
     0
  0
XRECORD
  5
138
102
{ACAD_REACTORS
330
C
102
}
330
C
100
AcDbXrecord
  1
DWGPROPS COOKIE
  2

  3

  4

  6

  7

  8
Cesar
  9

300
=
301
=
302
=
303
=
304
=
305
=
306
=
307
=
308
=
309
=
 40
0.0
 41
2457628.07239757
 42
2457628.86045397
  1

 90
        0
  0
MLINESTYLE
  5
18
102
{ACAD_REACTORS
330
17
102
}
330
17
100
AcDbMlineStyle
  2
Standard
 70
     0
  3

 62
   256
 51
90.0
 52
90.0
 71
     2
 49
0.5
 62
   256
  6
BYLAYER
 49
-0.5
 62
   256
  6
BYLAYER
  0
ENDSEC
  0
EOF
