  0
SECTION
  2
HEADER
  9
$ACADVER
  1
AC1012
  9
$DWGCODEPAGE
  3
ansi_1252
  9
$INSBASE
 10
0.0
 20
0.0
 30
0.0
  9
$EXTMIN
 10
4.143325713589075
 20
2.871554929165379
 30
0.0
  9
$EXTMAX
 10
46.14332571358908
 20
28.87153492916538
 30
0.0
  9
$LIMMIN
 10
0.0
 20
0.0
  9
$LIMMAX
 10
12.0
 20
9.0
  9
$ORTHOMODE
 70
     0
  9
$REGENMODE
 70
     1
  9
$FILLMODE
 70
     1
  9
$QTEXTMODE
 70
     0
  9
$MIRRTEXT
 70
     1
  9
$DRAGMODE
 70
     2
  9
$LTSCALE
 40
1.0
  9
$OSMODE
 70
   511
  9
$ATTMODE
 70
     1
  9
$TEXTSIZE
 40
0.2
  9
$TRACEWID
 40
0.05
  9
$TEXTSTYLE
  7
STANDARD
  9
$CLAYER
  8
0
  9
$CELTYPE
  6
BYBLOCK
  9
$CECOLOR
 62
   256
  9
$CELTSCALE
 40
1.0
  9
$DELOBJ
 70
     1
  9
$DISPSILH
 70
     0
  9
$DIMSCALE
 40
1.0
  9
$DIMASZ
 40
0.18
  9
$DIMEXO
 40
0.0625
  9
$DIMDLI
 40
0.38
  9
$DIMRND
 40
0.0
  9
$DIMDLE
 40
0.0
  9
$DIMEXE
 40
0.18
  9
$DIMTP
 40
0.0
  9
$DIMTM
 40
0.0
  9
$DIMTXT
 40
0.18
  9
$DIMCEN
 40
0.09
  9
$DIMTSZ
 40
0.0
  9
$DIMTOL
 70
     0
  9
$DIMLIM
 70
     0
  9
$DIMTIH
 70
     1
  9
$DIMTOH
 70
     1
  9
$DIMSE1
 70
     0
  9
$DIMSE2
 70
     0
  9
$DIMTAD
 70
     0
  9
$DIMZIN
 70
     0
  9
$DIMBLK
  1

  9
$DIMASO
 70
     1
  9
$DIMSHO
 70
     1
  9
$DIMPOST
  1

  9
$DIMAPOST
  1

  9
$DIMALT
 70
     0
  9
$DIMALTD
 70
     2
  9
$DIMALTF
 40
25.4
  9
$DIMLFAC
 40
1.0
  9
$DIMTOFL
 70
     0
  9
$DIMTVP
 40
0.0
  9
$DIMTIX
 70
     0
  9
$DIMSOXD
 70
     0
  9
$DIMSAH
 70
     0
  9
$DIMBLK1
  1

  9
$DIMBLK2
  1

  9
$DIMSTYLE
  2
STANDARD
  9
$DIMCLRD
 70
     0
  9
$DIMCLRE
 70
     0
  9
$DIMCLRT
 70
     0
  9
$DIMTFAC
 40
1.0
  9
$DIMGAP
 40
0.09
  9
$DIMJUST
 70
     0
  9
$DIMSD1
 70
     0
  9
$DIMSD2
 70
     0
  9
$DIMTOLJ
 70
     1
  9
$DIMTZIN
 70
     0
  9
$DIMALTZ
 70
     0
  9
$DIMALTTZ
 70
     0
  9
$DIMFIT
 70
     5
  9
$DIMUPT
 70
     0
  9
$DIMUNIT
 70
     2
  9
$DIMDEC
 70
     4
  9
$DIMTDEC
 70
     4
  9
$DIMALTU
 70
     2
  9
$DIMALTTD
 70
     2
  9
$DIMTXSTY
  7
STANDARD
  9
$DIMAUNIT
 70
     0
  9
$LUNITS
 70
     2
  9
$LUPREC
 70
     4
  9
$SKETCHINC
 40
0.1
  9
$FILLETRAD
 40
0.5
  9
$AUNITS
 70
     0
  9
$AUPREC
 70
     0
  9
$MENU
  1
.
  9
$ELEVATION
 40
0.0
  9
$PELEVATION
 40
0.0
  9
$THICKNESS
 40
0.0
  9
$LIMCHECK
 70
     0
  9
$CHAMFERA
 40
0.0
  9
$CHAMFERB
 40
0.0
  9
$CHAMFERC
 40
0.0
  9
$CHAMFERD
 40
0.0
  9
$SKPOLY
 70
     0
  9
$TDCREATE
 40
2457627.947614653
  9
$TDUPDATE
 40
2457628.735325011
  9
$TDINDWG
 40
0.0033357755
  9
$TDUSRTIMER
 40
2457628.859553738
  9
$USRTIMER
 70
     1
  9
$ANGBASE
 50
0.0
  9
$ANGDIR
 70
     0
  9
$PDMODE
 70
     0
  9
$PDSIZE
 40
0.0
  9
$PLINEWID
 40
0.0
  9
$COORDS
 70
     1
  9
$SPLFRAME
 70
     0
  9
$SPLINETYPE
 70
     6
  9
$SPLINESEGS
 70
     8
  9
$ATTDIA
 70
     0
  9
$ATTREQ
 70
     1
  9
$HANDLING
 70
     1
  9
$HANDSEED
  5
268
  9
$SURFTAB1
 70
     6
  9
$SURFTAB2
 70
     6
  9
$SURFTYPE
 70
     6
  9
$SURFU
 70
     6
  9
$SURFV
 70
     6
  9
$UCSNAME
  2

  9
$UCSORG
 10
0.0
 20
0.0
 30
0.0
  9
$UCSXDIR
 10
1.0
 20
0.0
 30
0.0
  9
$UCSYDIR
 10
0.0
 20
1.0
 30
0.0
  9
$PUCSNAME
  2

  9
$PUCSORG
 10
0.0
 20
0.0
 30
0.0
  9
$PUCSXDIR
 10
1.0
 20
0.0
 30
0.0
  9
$PUCSYDIR
 10
0.0
 20
1.0
 30
0.0
  9
$USERI1
 70
     0
  9
$USERI2
 70
     0
  9
$USERI3
 70
     0
  9
$USERI4
 70
     0
  9
$USERI5
 70
     0
  9
$USERR1
 40
0.0
  9
$USERR2
 40
0.0
  9
$USERR3
 40
0.0
  9
$USERR4
 40
0.0
  9
$USERR5
 40
0.0
  9
$WORLDVIEW
 70
     1
  9
$SHADEDGE
 70
     3
  9
$SHADEDIF
 70
    70
  9
$TILEMODE
 70
     1
  9
$MAXACTVP
 70
    64
  9
$PINSBASE
 10
0.0
 20
0.0
 30
0.0
  9
$PLIMCHECK
 70
     0
  9
$PEXTMIN
 10
1.000000000000000E+20
 20
1.000000000000000E+20
 30
1.000000000000000E+20
  9
$PEXTMAX
 10
-1.000000000000000E+20
 20
-1.000000000000000E+20
 30
-1.000000000000000E+20
  9
$PLIMMIN
 10
0.0
 20
0.0
  9
$PLIMMAX
 10
0.0
 20
0.0
  9
$UNITMODE
 70
     0
  9
$VISRETAIN
 70
     1
  9
$PLINEGEN
 70
     0
  9
$PSLTSCALE
 70
     1
  9
$TREEDEPTH
 70
  3020
  9
$PICKSTYLE
 70
     1
  9
$CMLSTYLE
  2
STANDARD
  9
$CMLJUST
 70
     0
  9
$CMLSCALE
 40
1.0
  9
$SAVEIMAGES
 70
     1
  0
ENDSEC
  0
SECTION
  2
CLASSES
  0
CLASS
  1
ACDBDICTIONARYWDFLT
  2
AcDbDictionaryWithDefault
  3
ObjectDBX Classes
 90
    32768
280
     0
281
     0
  0
CLASS
  1
SCALE
  2
AcDbScale
  3
ObjectDBX Classes
 90
     1153
280
     0
281
     0
  0
CLASS
  1
VISUALSTYLE
  2
AcDbVisualStyle
  3
ObjectDBX Classes
 90
     4095
280
     0
281
     0
  0
CLASS
  1
MATERIAL
  2
AcDbMaterial
  3
ObjectDBX Classes
 90
     1153
280
     0
281
     0
  0
CLASS
  1
TABLESTYLE
  2
AcDbTableStyle
  3
ObjectDBX Classes
 90
     4095
280
     0
281
     0
  0
CLASS
  1
MLEADERSTYLE
  2
AcDbMLeaderStyle
  3
ACDB_MLEADERSTYLE_CLASS
 90
     4095
280
     0
281
     0
  0
CLASS
  1
SUN
  2
AcDbSun
  3
SCENEOE
 90
     1153
280
     0
281
     0
  0
CLASS
  1
RASTERVARIABLES
  2
AcDbRasterVariables
  3
ISM
 90
    32768
280
     0
281
     0
  0
CLASS
  1
DICTIONARYVAR
  2
AcDbDictionaryVar
  3
ObjectDBX Classes
 90
        0
280
     0
281
     0
  0
CLASS
  1
CELLSTYLEMAP
  2
AcDbCellStyleMap
  3
ObjectDBX Classes
 90
     1152
280
     0
281
     0
  0
CLASS
  1
XRECORD
  2
AcDbXrecord
  3
ObjectDBX Classes
 90
    32768
280
     0
281
     0
  0
ENDSEC
  0
SECTION
  2
TABLES
  0
TABLE
  2
VPORT
  5
8
330
0
100
AcDbSymbolTable
 70
     1
  0
VPORT
  5
AE
330
8
100
AcDbSymbolTableRecord
100
AcDbViewportTableRecord
  2
*ACTIVE
 70
     0
 10
0.0
 20
0.0
 11
1.0
 21
1.0
 12
46.48039144699502
 22
13.95562462653714
 13
0.0
 23
0.0
 14
0.5
 24
0.5
 15
0.5
 25
0.5
 16
0.0
 26
0.0
 36
1.0
 17
0.0
 27
0.0
 37
0.0
 40
44.2567464680278
 41
2.501170960187354
 42
50.0
 43
0.0
 44
0.0
 50
0.0
 51
0.0
 71
    16
 72
   100
 73
     1
 74
     3
 75
     0
 76
     0
 77
     0
 78
     0
  0
ENDTAB
  0
TABLE
  2
LTYPE
  5
5
330
0
100
AcDbSymbolTable
 70
     1
  0
LTYPE
  5
14
330
5
100
AcDbSymbolTableRecord
100
AcDbLinetypeTableRecord
  2
BYBLOCK
 70
     0
  3

 72
    65
 73
     0
 40
0.0
  0
LTYPE
  5
15
330
5
100
AcDbSymbolTableRecord
100
AcDbLinetypeTableRecord
  2
BYLAYER
 70
     0
  3

 72
    65
 73
     0
 40
0.0
  0
LTYPE
  5
16
330
5
100
AcDbSymbolTableRecord
100
AcDbLinetypeTableRecord
  2
CONTINUOUS
 70
     0
  3
Solid line
 72
    65
 73
     0
 40
0.0
  0
ENDTAB
  0
TABLE
  2
LAYER
  5
2
330
0
100
AcDbSymbolTable
 70
     1
  0
LAYER
  5
10
330
2
100
AcDbSymbolTableRecord
100
AcDbLayerTableRecord
  2
0
 70
     0
 62
     7
  6
CONTINUOUS
  0
ENDTAB
  0
TABLE
  2
STYLE
  5
3
330
0
100
AcDbSymbolTable
 70
     1
  0
STYLE
  5
11
330
3
100
AcDbSymbolTableRecord
100
AcDbTextStyleTableRecord
  2
STANDARD
 70
     0
 40
0.0
 41
1.0
 50
0.0
 71
     0
 42
0.2
  3
txt
  4

  0
ENDTAB
  0
TABLE
  2
VIEW
  5
6
330
0
100
AcDbSymbolTable
 70
     0
  0
ENDTAB
  0
TABLE
  2
UCS
  5
7
330
0
100
AcDbSymbolTable
 70
     0
  0
ENDTAB
  0
TABLE
  2
APPID
  5
9
330
0
100
AcDbSymbolTable
 70
     1
  0
APPID
  5
12
330
9
100
AcDbSymbolTableRecord
100
AcDbRegAppTableRecord
  2
ACAD
 70
     0
  0
ENDTAB
  0
TABLE
  2
DIMSTYLE
  5
A
330
0
100
AcDbSymbolTable
 70
     1
  0
DIMSTYLE
105
20
330
A
100
AcDbSymbolTableRecord
100
AcDbDimStyleTableRecord
  2
STANDARD
 70
     0
  3

  4

  5

  6

  7

 40
1.0
 41
0.18
 42
0.0625
 43
0.38
 44
0.18
 45
0.0
 46
0.0
 47
0.0
 48
0.0
140
0.18
141
0.09
142
0.0
143
25.4
144
1.0
145
0.0
146
1.0
147
0.09
 71
     0
 72
     0
 73
     1
 74
     1
 75
     0
 76
     0
 77
     0
 78
     0
170
     0
171
     2
172
     0
173
     0
174
     0
175
     0
176
     0
177
     0
178
     0
270
     2
271
     4
272
     4
273
     2
274
     2
340
11
275
     0
280
     0
281
     0
282
     0
283
     1
284
     0
285
     0
286
     0
287
     3
288
     0
  0
ENDTAB
  0
TABLE
  2
BLOCK_RECORD
  5
1
330
0
100
AcDbSymbolTable
 70
     1
  0
BLOCK_RECORD
  5
1D
330
1
100
AcDbSymbolTableRecord
100
AcDbBlockTableRecord
  2
*MODEL_SPACE
  0
BLOCK_RECORD
  5
1B
330
1
100
AcDbSymbolTableRecord
100
AcDbBlockTableRecord
  2
*PAPER_SPACE
  0
BLOCK_RECORD
  5
265
330
1
100
AcDbSymbolTableRecord
100
AcDbBlockTableRecord
  2
*U0
  0
ENDTAB
  0
ENDSEC
  0
SECTION
  2
BLOCKS
  0
BLOCK
  5
D1
330
1D
100
AcDbEntity
  8
0
100
AcDbBlockBegin
  2
*MODEL_SPACE
 70
     0
 10
0.0
 20
0.0
 30
0.0
  3
*MODEL_SPACE
  1

  0
ENDBLK
  5
D2
330
1D
100
AcDbEntity
  8
0
100
AcDbBlockEnd
  0
BLOCK
  5
D3
330
1B
100
AcDbEntity
 67
     1
  8
0
100
AcDbBlockBegin
  2
*PAPER_SPACE
 70
     0
 10
0.0
 20
0.0
 30
0.0
  3
*PAPER_SPACE
  1

  0
ENDBLK
  5
D4
330
1B
100
AcDbEntity
 67
     1
  8
0
100
AcDbBlockEnd
  0
BLOCK
  5
266
330
265
100
AcDbEntity
  8
0
100
AcDbBlockBegin
  2
*U0
 70
     1
 10
0.0
 20
0.0
 30
0.0
  3
*U0
  1
*U0
  0
ENDBLK
  5
267
330
265
100
AcDbEntity
  8
0
100
AcDbBlockEnd
  0
ENDSEC
  0
SECTION
  2
ENTITIES
  0
LINE
  5
21
330
1D
100
AcDbEntity
  8
0
100
AcDbLine
 10
14.14332571358908
 20
5.87153492916538
 30
0.0
 11
36.14332571358908
 21
5.87153492916538
 31
0.0
  0
LINE
  5
22
330
1D
100
AcDbEntity
  8
0
100
AcDbLine
 10
36.14332571358908
 20
5.87153492916538
 30
0.0
 11
36.14332571358908
 21
2.871554929165379
 31
0.0
  0
LINE
  5
23
330
1D
100
AcDbEntity
  8
0
100
AcDbLine
 10
36.14332571358908
 20
2.871554929165379
 30
0.0
 11
46.14332571358908
 21
2.871554929165379
 31
0.0
  0
LINE
  5
24
330
1D
100
AcDbEntity
  8
0
100
AcDbLine
 10
46.14332571358908
 20
2.871554929165379
 30
0.0
 11
46.14332571358908
 21
28.87153492916538
 31
0.0
  0
LINE
  5
25
330
1D
100
AcDbEntity
  8
0
100
AcDbLine
 10
46.14332571358908
 20
28.87153492916538
 30
0.0
 11
4.14332571358908
 21
28.87153492916538
 31
0.0
  0
LINE
  5
26
330
1D
100
AcDbEntity
  8
0
100
AcDbLine
 10
4.14332571358908
 20
28.87153492916538
 30
0.0
 11
4.14332571358908
 21
2.871554929165379
 31
0.0
  0
LINE
  5
27
330
1D
100
AcDbEntity
  8
0
100
AcDbLine
 10
4.14332571358908
 20
2.871554929165379
 30
0.0
 11
14.14332571358908
 21
2.871554929165379
 31
0.0
  0
LINE
  5
28
330
1D
100
AcDbEntity
  8
0
100
AcDbLine
 10
14.14332571358908
 20
2.871554929165379
 30
0.0
 11
14.14332571358908
 21
5.87153492916538
 31
0.0
  0
LINE
  5
29
102
{ACAD_REACTORS
330
225
102
}
330
1D
100
AcDbEntity
  8
0
100
AcDbLine
 10
24.39412571358908
 20
12.18163492916538
 30
0.0
 11
24.18732571358908
 21
12.21433492916538
 31
0.0
  0
LINE
  5
2A
102
{ACAD_REACTORS
330
225
102
}
330
1D
100
AcDbEntity
  8
0
100
AcDbLine
 10
24.18732571358908
 20
12.21433492916538
 30
0.0
 11
23.98512571358908
 21
12.26853492916538
 31
0.0
  0
LINE
  5
2B
102
{ACAD_REACTORS
330
225
102
}
330
1D
100
AcDbEntity
  8
0
100
AcDbLine
 10
23.98512571358908
 20
12.26853492916538
 30
0.0
 11
23.78972571358908
 21
12.34353492916538
 31
0.0
  0
LINE
  5
2C
102
{ACAD_REACTORS
330
225
102
}
330
1D
100
AcDbEntity
  8
0
100
AcDbLine
 10
23.78972571358908
 20
12.34353492916538
 30
0.0
 11
23.60322571358908
 21
12.43863492916538
 31
0.0
  0
LINE
  5
2D
102
{ACAD_REACTORS
330
225
102
}
330
1D
100
AcDbEntity
  8
0
100
AcDbLine
 10
23.60322571358908
 20
12.43863492916538
 30
0.0
 11
23.42762571358908
 21
12.55263492916538
 31
0.0
  0
LINE
  5
2E
102
{ACAD_REACTORS
330
225
102
}
330
1D
100
AcDbEntity
  8
0
100
AcDbLine
 10
23.42762571358908
 20
12.55263492916538
 30
0.0
 11
23.26492571358908
 21
12.68433492916538
 31
0.0
  0
LINE
  5
2F
102
{ACAD_REACTORS
330
225
102
}
330
1D
100
AcDbEntity
  8
0
100
AcDbLine
 10
23.26492571358908
 20
12.68433492916538
 30
0.0
 11
23.11692571358908
 21
12.83233492916538
 31
0.0
  0
LINE
  5
30
102
{ACAD_REACTORS
330
225
102
}
330
1D
100
AcDbEntity
  8
0
100
AcDbLine
 10
23.11692571358908
 20
12.83233492916538
 30
0.0
 11
22.98512571358908
 21
12.99503492916538
 31
0.0
  0
LINE
  5
31
102
{ACAD_REACTORS
330
225
102
}
330
1D
100
AcDbEntity
  8
0
100
AcDbLine
 10
22.98512571358908
 20
12.99503492916538
 30
0.0
 11
22.87112571358908
 21
13.17063492916538
 31
0.0
  0
LINE
  5
32
102
{ACAD_REACTORS
330
225
102
}
330
1D
100
AcDbEntity
  8
0
100
AcDbLine
 10
22.87112571358908
 20
13.17063492916538
 30
0.0
 11
22.77612571358908
 21
13.35713492916538
 31
0.0
  0
LINE
  5
33
102
{ACAD_REACTORS
330
225
102
}
330
1D
100
AcDbEntity
  8
0
100
AcDbLine
 10
22.77612571358908
 20
13.35713492916538
 30
0.0
 11
22.70102571358908
 21
13.55263492916538
 31
0.0
  0
LINE
  5
34
102
{ACAD_REACTORS
330
225
102
}
330
1D
100
AcDbEntity
  8
0
100
AcDbLine
 10
22.70102571358908
 20
13.55263492916538
 30
0.0
 11
22.64692571358908
 21
13.75483492916538
 31
0.0
  0
LINE
  5
35
102
{ACAD_REACTORS
330
225
102
}
330
1D
100
AcDbEntity
  8
0
100
AcDbLine
 10
22.64692571358908
 20
13.75483492916538
 30
0.0
 11
22.61412571358908
 21
13.96153492916538
 31
0.0
  0
LINE
  5
36
102
{ACAD_REACTORS
330
225
102
}
330
1D
100
AcDbEntity
  8
0
100
AcDbLine
 10
22.61412571358908
 20
13.96153492916538
 30
0.0
 11
22.60322571358908
 21
14.17063492916538
 31
0.0
  0
LINE
  5
37
102
{ACAD_REACTORS
330
225
102
}
330
1D
100
AcDbEntity
  8
0
100
AcDbLine
 10
22.60322571358908
 20
14.17063492916538
 30
0.0
 11
22.61412571358908
 21
14.37973492916538
 31
0.0
  0
LINE
  5
38
102
{ACAD_REACTORS
330
225
102
}
330
1D
100
AcDbEntity
  8
0
100
AcDbLine
 10
22.61412571358908
 20
14.37973492916538
 30
0.0
 11
22.64692571358908
 21
14.58643492916538
 31
0.0
  0
LINE
  5
39
102
{ACAD_REACTORS
330
225
102
}
330
1D
100
AcDbEntity
  8
0
100
AcDbLine
 10
22.64692571358908
 20
14.58643492916538
 30
0.0
 11
22.70102571358908
 21
14.78863492916538
 31
0.0
  0
LINE
  5
3A
102
{ACAD_REACTORS
330
225
102
}
330
1D
100
AcDbEntity
  8
0
100
AcDbLine
 10
22.70102571358908
 20
14.78863492916538
 30
0.0
 11
22.77612571358908
 21
14.98413492916538
 31
0.0
  0
LINE
  5
3B
102
{ACAD_REACTORS
330
225
102
}
330
1D
100
AcDbEntity
  8
0
100
AcDbLine
 10
22.77612571358908
 20
14.98413492916538
 30
0.0
 11
22.87112571358908
 21
15.17063492916538
 31
0.0
  0
LINE
  5
3C
102
{ACAD_REACTORS
330
225
102
}
330
1D
100
AcDbEntity
  8
0
100
AcDbLine
 10
22.87112571358908
 20
15.17063492916538
 30
0.0
 11
22.98512571358908
 21
15.34623492916538
 31
0.0
  0
LINE
  5
3D
102
{ACAD_REACTORS
330
225
102
}
330
1D
100
AcDbEntity
  8
0
100
AcDbLine
 10
22.98512571358908
 20
15.34623492916538
 30
0.0
 11
23.11692571358908
 21
15.50893492916538
 31
0.0
  0
LINE
  5
3E
102
{ACAD_REACTORS
330
225
102
}
330
1D
100
AcDbEntity
  8
0
100
AcDbLine
 10
23.11692571358908
 20
15.50893492916538
 30
0.0
 11
23.26492571358908
 21
15.65693492916538
 31
0.0
  0
LINE
  5
3F
102
{ACAD_REACTORS
330
225
102
}
330
1D
100
AcDbEntity
  8
0
100
AcDbLine
 10
23.26492571358908
 20
15.65693492916538
 30
0.0
 11
23.42762571358908
 21
15.78863492916538
 31
0.0
  0
LINE
  5
40
102
{ACAD_REACTORS
330
225
102
}
330
1D
100
AcDbEntity
  8
0
100
AcDbLine
 10
23.42762571358908
 20
15.78863492916538
 30
0.0
 11
23.60322571358908
 21
15.90273492916538
 31
0.0
  0
LINE
  5
41
102
{ACAD_REACTORS
330
225
102
}
330
1D
100
AcDbEntity
  8
0
100
AcDbLine
 10
23.60322571358908
 20
15.90273492916538
 30
0.0
 11
23.78972571358908
 21
15.99773492916538
 31
0.0
  0
LINE
  5
42
102
{ACAD_REACTORS
330
225
102
}
330
1D
100
AcDbEntity
  8
0
100
AcDbLine
 10
23.78972571358908
 20
15.99773492916538
 30
0.0
 11
23.98512571358908
 21
16.07273492916538
 31
0.0
  0
LINE
  5
43
102
{ACAD_REACTORS
330
225
102
}
330
1D
100
AcDbEntity
  8
0
100
AcDbLine
 10
23.98512571358908
 20
16.07273492916538
 30
0.0
 11
24.18732571358908
 21
16.12693492916538
 31
0.0
  0
LINE
  5
44
102
{ACAD_REACTORS
330
225
102
}
330
1D
100
AcDbEntity
  8
0
100
AcDbLine
 10
24.18732571358908
 20
16.12693492916538
 30
0.0
 11
24.39412571358908
 21
16.15963492916538
 31
0.0
  0
LINE
  5
45
102
{ACAD_REACTORS
330
225
102
}
330
1D
100
AcDbEntity
  8
0
100
AcDbLine
 10
24.39412571358908
 20
16.15963492916538
 30
0.0
 11
24.60322571358908
 21
16.17063492916538
 31
0.0
  0
LINE
  5
46
102
{ACAD_REACTORS
330
225
102
}
330
1D
100
AcDbEntity
  8
0
100
AcDbLine
 10
24.60322571358908
 20
16.17063492916538
 30
0.0
 11
24.81222571358908
 21
16.15963492916538
 31
0.0
  0
LINE
  5
47
102
{ACAD_REACTORS
330
225
102
}
330
1D
100
AcDbEntity
  8
0
100
AcDbLine
 10
24.81222571358908
 20
16.15963492916538
 30
0.0
 11
25.01902571358908
 21
16.12693492916538
 31
0.0
  0
LINE
  5
48
102
{ACAD_REACTORS
330
225
102
}
330
1D
100
AcDbEntity
  8
0
100
AcDbLine
 10
25.01902571358908
 20
16.12693492916538
 30
0.0
 11
25.22122571358908
 21
16.07273492916538
 31
0.0
  0
LINE
  5
49
102
{ACAD_REACTORS
330
225
102
}
330
1D
100
AcDbEntity
  8
0
100
AcDbLine
 10
25.22122571358908
 20
16.07273492916538
 30
0.0
 11
25.41662571358908
 21
15.99773492916538
 31
0.0
  0
LINE
  5
4A
102
{ACAD_REACTORS
330
225
102
}
330
1D
100
AcDbEntity
  8
0
100
AcDbLine
 10
25.41662571358908
 20
15.99773492916538
 30
0.0
 11
25.60322571358908
 21
15.90273492916538
 31
0.0
  0
LINE
  5
4B
102
{ACAD_REACTORS
330
225
102
}
330
1D
100
AcDbEntity
  8
0
100
AcDbLine
 10
25.60322571358908
 20
15.90273492916538
 30
0.0
 11
25.77872571358908
 21
15.78863492916538
 31
0.0
  0
LINE
  5
4C
102
{ACAD_REACTORS
330
225
102
}
330
1D
100
AcDbEntity
  8
0
100
AcDbLine
 10
25.77872571358908
 20
15.78863492916538
 30
0.0
 11
25.94142571358908
 21
15.65693492916538
 31
0.0
  0
LINE
  5
4D
102
{ACAD_REACTORS
330
225
102
}
330
1D
100
AcDbEntity
  8
0
100
AcDbLine
 10
25.94142571358908
 20
15.65693492916538
 30
0.0
 11
26.08942571358908
 21
15.50893492916538
 31
0.0
  0
LINE
  5
4E
102
{ACAD_REACTORS
330
225
102
}
330
1D
100
AcDbEntity
  8
0
100
AcDbLine
 10
26.08942571358908
 20
15.50893492916538
 30
0.0
 11
26.22122571358908
 21
15.34623492916538
 31
0.0
  0
LINE
  5
4F
102
{ACAD_REACTORS
330
225
102
}
330
1D
100
AcDbEntity
  8
0
100
AcDbLine
 10
26.22122571358908
 20
15.34623492916538
 30
0.0
 11
26.33522571358908
 21
15.17063492916538
 31
0.0
  0
LINE
  5
50
102
{ACAD_REACTORS
330
225
102
}
330
1D
100
AcDbEntity
  8
0
100
AcDbLine
 10
26.33522571358908
 20
15.17063492916538
 30
0.0
 11
26.43022571358908
 21
14.98413492916538
 31
0.0
  0
LINE
  5
51
102
{ACAD_REACTORS
330
225
102
}
330
1D
100
AcDbEntity
  8
0
100
AcDbLine
 10
26.43022571358908
 20
14.98413492916538
 30
0.0
 11
26.50532571358908
 21
14.78863492916538
 31
0.0
  0
LINE
  5
52
102
{ACAD_REACTORS
330
225
102
}
330
1D
100
AcDbEntity
  8
0
100
AcDbLine
 10
26.50532571358908
 20
14.78863492916538
 30
0.0
 11
26.55942571358908
 21
14.58643492916538
 31
0.0
  0
LINE
  5
53
102
{ACAD_REACTORS
330
225
102
}
330
1D
100
AcDbEntity
  8
0
100
AcDbLine
 10
26.55942571358908
 20
14.58643492916538
 30
0.0
 11
26.59222571358908
 21
14.37973492916538
 31
0.0
  0
LINE
  5
54
102
{ACAD_REACTORS
330
225
102
}
330
1D
100
AcDbEntity
  8
0
100
AcDbLine
 10
26.59222571358908
 20
14.37973492916538
 30
0.0
 11
26.60322571358908
 21
14.17063492916538
 31
0.0
  0
LINE
  5
55
102
{ACAD_REACTORS
330
225
102
}
330
1D
100
AcDbEntity
  8
0
100
AcDbLine
 10
26.60322571358908
 20
14.17063492916538
 30
0.0
 11
26.59222571358908
 21
13.96153492916538
 31
0.0
  0
LINE
  5
56
102
{ACAD_REACTORS
330
225
102
}
330
1D
100
AcDbEntity
  8
0
100
AcDbLine
 10
26.59222571358908
 20
13.96153492916538
 30
0.0
 11
26.55942571358908
 21
13.75483492916538
 31
0.0
  0
LINE
  5
57
102
{ACAD_REACTORS
330
225
102
}
330
1D
100
AcDbEntity
  8
0
100
AcDbLine
 10
26.55942571358908
 20
13.75483492916538
 30
0.0
 11
26.50532571358908
 21
13.55263492916538
 31
0.0
  0
LINE
  5
58
102
{ACAD_REACTORS
330
225
102
}
330
1D
100
AcDbEntity
  8
0
100
AcDbLine
 10
26.50532571358908
 20
13.55263492916538
 30
0.0
 11
26.43022571358908
 21
13.35713492916538
 31
0.0
  0
LINE
  5
59
102
{ACAD_REACTORS
330
225
102
}
330
1D
100
AcDbEntity
  8
0
100
AcDbLine
 10
26.43022571358908
 20
13.35713492916538
 30
0.0
 11
26.33522571358908
 21
13.17063492916538
 31
0.0
  0
LINE
  5
5A
102
{ACAD_REACTORS
330
225
102
}
330
1D
100
AcDbEntity
  8
0
100
AcDbLine
 10
26.33522571358908
 20
13.17063492916538
 30
0.0
 11
26.22122571358908
 21
12.99503492916538
 31
0.0
  0
LINE
  5
5B
102
{ACAD_REACTORS
330
225
102
}
330
1D
100
AcDbEntity
  8
0
100
AcDbLine
 10
26.22122571358908
 20
12.99503492916538
 30
0.0
 11
26.08942571358908
 21
12.83233492916538
 31
0.0
  0
LINE
  5
5C
102
{ACAD_REACTORS
330
225
102
}
330
1D
100
AcDbEntity
  8
0
100
AcDbLine
 10
26.08942571358908
 20
12.83233492916538
 30
0.0
 11
25.94142571358908
 21
12.68433492916538
 31
0.0
  0
LINE
  5
5D
102
{ACAD_REACTORS
330
225
102
}
330
1D
100
AcDbEntity
  8
0
100
AcDbLine
 10
25.94142571358908
 20
12.68433492916538
 30
0.0
 11
25.77872571358908
 21
12.55263492916538
 31
0.0
  0
LINE
  5
5E
102
{ACAD_REACTORS
330
225
102
}
330
1D
100
AcDbEntity
  8
0
100
AcDbLine
 10
25.77872571358908
 20
12.55263492916538
 30
0.0
 11
25.60322571358908
 21
12.43863492916538
 31
0.0
  0
LINE
  5
5F
102
{ACAD_REACTORS
330
225
102
}
330
1D
100
AcDbEntity
  8
0
100
AcDbLine
 10
25.60322571358908
 20
12.43863492916538
 30
0.0
 11
25.41662571358908
 21
12.34353492916538
 31
0.0
  0
LINE
  5
60
102
{ACAD_REACTORS
330
225
102
}
330
1D
100
AcDbEntity
  8
0
100
AcDbLine
 10
25.41662571358908
 20
12.34353492916538
 30
0.0
 11
25.22122571358908
 21
12.26853492916538
 31
0.0
  0
LINE
  5
61
102
{ACAD_REACTORS
330
225
102
}
330
1D
100
AcDbEntity
  8
0
100
AcDbLine
 10
25.22122571358908
 20
12.26853492916538
 30
0.0
 11
25.01902571358908
 21
12.21433492916538
 31
0.0
  0
LINE
  5
62
102
{ACAD_REACTORS
330
225
102
}
330
1D
100
AcDbEntity
  8
0
100
AcDbLine
 10
25.01902571358908
 20
12.21433492916538
 30
0.0
 11
24.81222571358908
 21
12.18163492916538
 31
0.0
  0
LINE
  5
63
102
{ACAD_REACTORS
330
225
102
}
330
1D
100
AcDbEntity
  8
0
100
AcDbLine
 10
24.81222571358908
 20
12.18163492916538
 30
0.0
 11
24.60322571358908
 21
12.17063492916538
 31
0.0
  0
LINE
  5
64
102
{ACAD_REACTORS
330
225
102
}
330
1D
100
AcDbEntity
  8
0
100
AcDbLine
 10
24.60322571358908
 20
12.17063492916538
 30
0.0
 11
24.39412571358908
 21
12.18163492916538
 31
0.0
  0
LINE
  5
65
102
{ACAD_REACTORS
330
225
102
}
330
1D
100
AcDbEntity
  8
0
100
AcDbLine
 10
36.51632571358908
 20
13.67823492916538
 30
0.0
 11
36.43212571358908
 21
13.70073492916538
 31
0.0
  0
LINE
  5
66
102
{ACAD_REACTORS
330
225
102
}
330
1D
100
AcDbEntity
  8
0
100
AcDbLine
 10
36.43212571358908
 20
13.70073492916538
 30
0.0
 11
36.35322571358908
 21
13.73763492916538
 31
0.0
  0
LINE
  5
67
102
{ACAD_REACTORS
330
225
102
}
330
1D
100
AcDbEntity
  8
0
100
AcDbLine
 10
36.35322571358908
 20
13.73763492916538
 30
0.0
 11
36.28182571358908
 21
13.78763492916538
 31
0.0
  0
LINE
  5
68
102
{ACAD_REACTORS
330
225
102
}
330
1D
100
AcDbEntity
  8
0
100
AcDbLine
 10
36.28182571358908
 20
13.78763492916538
 30
0.0
 11
36.22012571358908
 21
13.84923492916538
 31
0.0
  0
LINE
  5
69
102
{ACAD_REACTORS
330
225
102
}
330
1D
100
AcDbEntity
  8
0
100
AcDbLine
 10
36.22012571358908
 20
13.84923492916538
 30
0.0
 11
36.17012571358908
 21
13.92063492916538
 31
0.0
  0
LINE
  5
6A
102
{ACAD_REACTORS
330
225
102
}
330
1D
100
AcDbEntity
  8
0
100
AcDbLine
 10
36.17012571358908
 20
13.92063492916538
 30
0.0
 11
36.13332571358908
 21
13.99963492916538
 31
0.0
  0
LINE
  5
6B
102
{ACAD_REACTORS
330
225
102
}
330
1D
100
AcDbEntity
  8
0
100
AcDbLine
 10
36.13332571358908
 20
13.99963492916538
 30
0.0
 11
36.11072571358908
 21
14.08383492916538
 31
0.0
  0
LINE
  5
6C
102
{ACAD_REACTORS
330
225
102
}
330
1D
100
AcDbEntity
  8
0
100
AcDbLine
 10
36.11072571358908
 20
14.08383492916538
 30
0.0
 11
36.10322571358908
 21
14.17063492916538
 31
0.0
  0
LINE
  5
6D
102
{ACAD_REACTORS
330
225
102
}
330
1D
100
AcDbEntity
  8
0
100
AcDbLine
 10
36.10322571358908
 20
14.17063492916538
 30
0.0
 11
36.11072571358908
 21
14.25743492916538
 31
0.0
  0
LINE
  5
6E
102
{ACAD_REACTORS
330
225
102
}
330
1D
100
AcDbEntity
  8
0
100
AcDbLine
 10
36.11072571358908
 20
14.25743492916538
 30
0.0
 11
36.13332571358908
 21
14.34163492916538
 31
0.0
  0
LINE
  5
6F
102
{ACAD_REACTORS
330
225
102
}
330
1D
100
AcDbEntity
  8
0
100
AcDbLine
 10
36.13332571358908
 20
14.34163492916538
 30
0.0
 11
36.17012571358908
 21
14.42063492916538
 31
0.0
  0
LINE
  5
70
102
{ACAD_REACTORS
330
225
102
}
330
1D
100
AcDbEntity
  8
0
100
AcDbLine
 10
36.17012571358908
 20
14.42063492916538
 30
0.0
 11
36.22012571358908
 21
14.49203492916538
 31
0.0
  0
LINE
  5
71
102
{ACAD_REACTORS
330
225
102
}
330
1D
100
AcDbEntity
  8
0
100
AcDbLine
 10
36.22012571358908
 20
14.49203492916538
 30
0.0
 11
36.28182571358908
 21
14.55363492916538
 31
0.0
  0
LINE
  5
72
102
{ACAD_REACTORS
330
225
102
}
330
1D
100
AcDbEntity
  8
0
100
AcDbLine
 10
36.28182571358908
 20
14.55363492916538
 30
0.0
 11
36.35322571358908
 21
14.60363492916538
 31
0.0
  0
LINE
  5
73
102
{ACAD_REACTORS
330
225
102
}
330
1D
100
AcDbEntity
  8
0
100
AcDbLine
 10
36.35322571358908
 20
14.60363492916538
 30
0.0
 11
36.43212571358908
 21
14.64053492916538
 31
0.0
  0
LINE
  5
74
102
{ACAD_REACTORS
330
225
102
}
330
1D
100
AcDbEntity
  8
0
100
AcDbLine
 10
36.43212571358908
 20
14.64053492916538
 30
0.0
 11
36.51632571358908
 21
14.66303492916538
 31
0.0
  0
LINE
  5
75
102
{ACAD_REACTORS
330
225
102
}
330
1D
100
AcDbEntity
  8
0
100
AcDbLine
 10
36.51632571358908
 20
14.66303492916538
 30
0.0
 11
36.60322571358908
 21
14.67063492916538
 31
0.0
  0
LINE
  5
76
102
{ACAD_REACTORS
330
225
102
}
330
1D
100
AcDbEntity
  8
0
100
AcDbLine
 10
36.60322571358908
 20
14.67063492916538
 30
0.0
 11
36.69002571358908
 21
14.66303492916538
 31
0.0
  0
LINE
  5
77
102
{ACAD_REACTORS
330
225
102
}
330
1D
100
AcDbEntity
  8
0
100
AcDbLine
 10
36.69002571358908
 20
14.66303492916538
 30
0.0
 11
36.77422571358908
 21
14.64053492916538
 31
0.0
  0
LINE
  5
78
102
{ACAD_REACTORS
330
225
102
}
330
1D
100
AcDbEntity
  8
0
100
AcDbLine
 10
36.77422571358908
 20
14.64053492916538
 30
0.0
 11
36.85322571358908
 21
14.60363492916538
 31
0.0
  0
LINE
  5
79
102
{ACAD_REACTORS
330
225
102
}
330
1D
100
AcDbEntity
  8
0
100
AcDbLine
 10
36.85322571358908
 20
14.60363492916538
 30
0.0
 11
36.92452571358908
 21
14.55363492916538
 31
0.0
  0
LINE
  5
7A
102
{ACAD_REACTORS
330
225
102
}
330
1D
100
AcDbEntity
  8
0
100
AcDbLine
 10
36.92452571358908
 20
14.55363492916538
 30
0.0
 11
36.98622571358908
 21
14.49203492916538
 31
0.0
  0
LINE
  5
7B
102
{ACAD_REACTORS
330
225
102
}
330
1D
100
AcDbEntity
  8
0
100
AcDbLine
 10
36.98622571358908
 20
14.49203492916538
 30
0.0
 11
37.03622571358908
 21
14.42063492916538
 31
0.0
  0
LINE
  5
7C
102
{ACAD_REACTORS
330
225
102
}
330
1D
100
AcDbEntity
  8
0
100
AcDbLine
 10
37.03622571358908
 20
14.42063492916538
 30
0.0
 11
37.07302571358908
 21
14.34163492916538
 31
0.0
  0
LINE
  5
7D
102
{ACAD_REACTORS
330
225
102
}
330
1D
100
AcDbEntity
  8
0
100
AcDbLine
 10
37.07302571358908
 20
14.34163492916538
 30
0.0
 11
37.09562571358908
 21
14.25743492916538
 31
0.0
  0
LINE
  5
7E
102
{ACAD_REACTORS
330
225
102
}
330
1D
100
AcDbEntity
  8
0
100
AcDbLine
 10
37.09562571358908
 20
14.25743492916538
 30
0.0
 11
37.10322571358908
 21
14.17063492916538
 31
0.0
  0
LINE
  5
7F
102
{ACAD_REACTORS
330
225
102
}
330
1D
100
AcDbEntity
  8
0
100
AcDbLine
 10
37.10322571358908
 20
14.17063492916538
 30
0.0
 11
37.09562571358908
 21
14.08383492916538
 31
0.0
  0
LINE
  5
80
102
{ACAD_REACTORS
330
225
102
}
330
1D
100
AcDbEntity
  8
0
100
AcDbLine
 10
37.09562571358908
 20
14.08383492916538
 30
0.0
 11
37.07302571358908
 21
13.99963492916538
 31
0.0
  0
LINE
  5
81
102
{ACAD_REACTORS
330
225
102
}
330
1D
100
AcDbEntity
  8
0
100
AcDbLine
 10
37.07302571358908
 20
13.99963492916538
 30
0.0
 11
37.03622571358908
 21
13.92063492916538
 31
0.0
  0
LINE
  5
82
102
{ACAD_REACTORS
330
225
102
}
330
1D
100
AcDbEntity
  8
0
100
AcDbLine
 10
37.03622571358908
 20
13.92063492916538
 30
0.0
 11
36.98622571358908
 21
13.84923492916538
 31
0.0
  0
LINE
  5
83
102
{ACAD_REACTORS
330
225
102
}
330
1D
100
AcDbEntity
  8
0
100
AcDbLine
 10
36.98622571358908
 20
13.84923492916538
 30
0.0
 11
36.92452571358908
 21
13.78763492916538
 31
0.0
  0
LINE
  5
84
102
{ACAD_REACTORS
330
225
102
}
330
1D
100
AcDbEntity
  8
0
100
AcDbLine
 10
36.92452571358908
 20
13.78763492916538
 30
0.0
 11
36.85322571358908
 21
13.73763492916538
 31
0.0
  0
LINE
  5
85
102
{ACAD_REACTORS
330
225
102
}
330
1D
100
AcDbEntity
  8
0
100
AcDbLine
 10
36.85322571358908
 20
13.73763492916538
 30
0.0
 11
36.77422571358908
 21
13.70073492916538
 31
0.0
  0
LINE
  5
86
102
{ACAD_REACTORS
330
225
102
}
330
1D
100
AcDbEntity
  8
0
100
AcDbLine
 10
36.77422571358908
 20
13.70073492916538
 30
0.0
 11
36.69002571358908
 21
13.67823492916538
 31
0.0
  0
LINE
  5
87
102
{ACAD_REACTORS
330
225
102
}
330
1D
100
AcDbEntity
  8
0
100
AcDbLine
 10
36.69002571358908
 20
13.67823492916538
 30
0.0
 11
36.60322571358908
 21
13.67063492916538
 31
0.0
  0
LINE
  5
88
102
{ACAD_REACTORS
330
225
102
}
330
1D
100
AcDbEntity
  8
0
100
AcDbLine
 10
36.60322571358908
 20
13.67063492916538
 30
0.0
 11
36.51632571358908
 21
13.67823492916538
 31
0.0
  0
LINE
  5
89
102
{ACAD_REACTORS
330
225
102
}
330
1D
100
AcDbEntity
  8
0
100
AcDbLine
 10
12.51632571358908
 20
13.67823492916538
 30
0.0
 11
12.43212571358908
 21
13.70073492916538
 31
0.0
  0
LINE
  5
8A
102
{ACAD_REACTORS
330
225
102
}
330
1D
100
AcDbEntity
  8
0
100
AcDbLine
 10
12.43212571358908
 20
13.70073492916538
 30
0.0
 11
12.35322571358908
 21
13.73763492916538
 31
0.0
  0
LINE
  5
8B
102
{ACAD_REACTORS
330
225
102
}
330
1D
100
AcDbEntity
  8
0
100
AcDbLine
 10
12.35322571358908
 20
13.73763492916538
 30
0.0
 11
12.28182571358908
 21
13.78763492916538
 31
0.0
  0
LINE
  5
8C
102
{ACAD_REACTORS
330
225
102
}
330
1D
100
AcDbEntity
  8
0
100
AcDbLine
 10
12.28182571358908
 20
13.78763492916538
 30
0.0
 11
12.22012571358908
 21
13.84923492916538
 31
0.0
  0
LINE
  5
8D
102
{ACAD_REACTORS
330
225
102
}
330
1D
100
AcDbEntity
  8
0
100
AcDbLine
 10
12.22012571358908
 20
13.84923492916538
 30
0.0
 11
12.17012571358908
 21
13.92063492916538
 31
0.0
  0
LINE
  5
8E
102
{ACAD_REACTORS
330
225
102
}
330
1D
100
AcDbEntity
  8
0
100
AcDbLine
 10
12.17012571358908
 20
13.92063492916538
 30
0.0
 11
12.13332571358908
 21
13.99963492916538
 31
0.0
  0
LINE
  5
8F
102
{ACAD_REACTORS
330
225
102
}
330
1D
100
AcDbEntity
  8
0
100
AcDbLine
 10
12.13332571358908
 20
13.99963492916538
 30
0.0
 11
12.11072571358908
 21
14.08383492916538
 31
0.0
  0
LINE
  5
90
102
{ACAD_REACTORS
330
225
102
}
330
1D
100
AcDbEntity
  8
0
100
AcDbLine
 10
12.11072571358908
 20
14.08383492916538
 30
0.0
 11
12.10322571358908
 21
14.17063492916538
 31
0.0
  0
LINE
  5
91
102
{ACAD_REACTORS
330
225
102
}
330
1D
100
AcDbEntity
  8
0
100
AcDbLine
 10
12.10322571358908
 20
14.17063492916538
 30
0.0
 11
12.11072571358908
 21
14.25743492916538
 31
0.0
  0
LINE
  5
92
102
{ACAD_REACTORS
330
225
102
}
330
1D
100
AcDbEntity
  8
0
100
AcDbLine
 10
12.11072571358908
 20
14.25743492916538
 30
0.0
 11
12.13332571358908
 21
14.34163492916538
 31
0.0
  0
LINE
  5
93
102
{ACAD_REACTORS
330
225
102
}
330
1D
100
AcDbEntity
  8
0
100
AcDbLine
 10
12.13332571358908
 20
14.34163492916538
 30
0.0
 11
12.17012571358908
 21
14.42063492916538
 31
0.0
  0
LINE
  5
94
102
{ACAD_REACTORS
330
225
102
}
330
1D
100
AcDbEntity
  8
0
100
AcDbLine
 10
12.17012571358908
 20
14.42063492916538
 30
0.0
 11
12.22012571358908
 21
14.49203492916538
 31
0.0
  0
LINE
  5
95
102
{ACAD_REACTORS
330
225
102
}
330
1D
100
AcDbEntity
  8
0
100
AcDbLine
 10
12.22012571358908
 20
14.49203492916538
 30
0.0
 11
12.28182571358908
 21
14.55363492916538
 31
0.0
  0
LINE
  5
96
102
{ACAD_REACTORS
330
225
102
}
330
1D
100
AcDbEntity
  8
0
100
AcDbLine
 10
12.28182571358908
 20
14.55363492916538
 30
0.0
 11
12.35322571358908
 21
14.60363492916538
 31
0.0
  0
LINE
  5
97
102
{ACAD_REACTORS
330
225
102
}
330
1D
100
AcDbEntity
  8
0
100
AcDbLine
 10
12.35322571358908
 20
14.60363492916538
 30
0.0
 11
12.43212571358908
 21
14.64053492916538
 31
0.0
  0
LINE
  5
98
102
{ACAD_REACTORS
330
225
102
}
330
1D
100
AcDbEntity
  8
0
100
AcDbLine
 10
12.43212571358908
 20
14.64053492916538
 30
0.0
 11
12.51632571358908
 21
14.66303492916538
 31
0.0
  0
LINE
  5
99
102
{ACAD_REACTORS
330
225
102
}
330
1D
100
AcDbEntity
  8
0
100
AcDbLine
 10
12.51632571358908
 20
14.66303492916538
 30
0.0
 11
12.60322571358908
 21
14.67063492916538
 31
0.0
  0
LINE
  5
9A
102
{ACAD_REACTORS
330
225
102
}
330
1D
100
AcDbEntity
  8
0
100
AcDbLine
 10
12.60322571358908
 20
14.67063492916538
 30
0.0
 11
12.69002571358908
 21
14.66303492916538
 31
0.0
  0
LINE
  5
9B
102
{ACAD_REACTORS
330
225
102
}
330
1D
100
AcDbEntity
  8
0
100
AcDbLine
 10
12.69002571358908
 20
14.66303492916538
 30
0.0
 11
12.77422571358908
 21
14.64053492916538
 31
0.0
  0
LINE
  5
9C
102
{ACAD_REACTORS
330
225
102
}
330
1D
100
AcDbEntity
  8
0
100
AcDbLine
 10
12.77422571358908
 20
14.64053492916538
 30
0.0
 11
12.85322571358908
 21
14.60363492916538
 31
0.0
  0
LINE
  5
9D
102
{ACAD_REACTORS
330
225
102
}
330
1D
100
AcDbEntity
  8
0
100
AcDbLine
 10
12.85322571358908
 20
14.60363492916538
 30
0.0
 11
12.92452571358908
 21
14.55363492916538
 31
0.0
  0
LINE
  5
9E
102
{ACAD_REACTORS
330
225
102
}
330
1D
100
AcDbEntity
  8
0
100
AcDbLine
 10
12.92452571358908
 20
14.55363492916538
 30
0.0
 11
12.98622571358908
 21
14.49203492916538
 31
0.0
  0
LINE
  5
9F
102
{ACAD_REACTORS
330
225
102
}
330
1D
100
AcDbEntity
  8
0
100
AcDbLine
 10
12.98622571358908
 20
14.49203492916538
 30
0.0
 11
13.03622571358908
 21
14.42063492916538
 31
0.0
  0
LINE
  5
A0
102
{ACAD_REACTORS
330
225
102
}
330
1D
100
AcDbEntity
  8
0
100
AcDbLine
 10
13.03622571358908
 20
14.42063492916538
 30
0.0
 11
13.07302571358908
 21
14.34163492916538
 31
0.0
  0
LINE
  5
A1
102
{ACAD_REACTORS
330
225
102
}
330
1D
100
AcDbEntity
  8
0
100
AcDbLine
 10
13.07302571358908
 20
14.34163492916538
 30
0.0
 11
13.09562571358908
 21
14.25743492916538
 31
0.0
  0
LINE
  5
A2
102
{ACAD_REACTORS
330
225
102
}
330
1D
100
AcDbEntity
  8
0
100
AcDbLine
 10
13.09562571358908
 20
14.25743492916538
 30
0.0
 11
13.10322571358908
 21
14.17063492916538
 31
0.0
  0
LINE
  5
A3
102
{ACAD_REACTORS
330
225
102
}
330
1D
100
AcDbEntity
  8
0
100
AcDbLine
 10
13.10322571358908
 20
14.17063492916538
 30
0.0
 11
13.09562571358908
 21
14.08383492916538
 31
0.0
  0
LINE
  5
A4
102
{ACAD_REACTORS
330
225
102
}
330
1D
100
AcDbEntity
  8
0
100
AcDbLine
 10
13.09562571358908
 20
14.08383492916538
 30
0.0
 11
13.07302571358908
 21
13.99963492916538
 31
0.0
  0
LINE
  5
A5
102
{ACAD_REACTORS
330
225
102
}
330
1D
100
AcDbEntity
  8
0
100
AcDbLine
 10
13.07302571358908
 20
13.99963492916538
 30
0.0
 11
13.03622571358908
 21
13.92063492916538
 31
0.0
  0
LINE
  5
A6
102
{ACAD_REACTORS
330
225
102
}
330
1D
100
AcDbEntity
  8
0
100
AcDbLine
 10
13.03622571358908
 20
13.92063492916538
 30
0.0
 11
12.98622571358908
 21
13.84923492916538
 31
0.0
  0
LINE
  5
A7
102
{ACAD_REACTORS
330
225
102
}
330
1D
100
AcDbEntity
  8
0
100
AcDbLine
 10
12.98622571358908
 20
13.84923492916538
 30
0.0
 11
12.92452571358908
 21
13.78763492916538
 31
0.0
  0
LINE
  5
A8
102
{ACAD_REACTORS
330
225
102
}
330
1D
100
AcDbEntity
  8
0
100
AcDbLine
 10
12.92452571358908
 20
13.78763492916538
 30
0.0
 11
12.85322571358908
 21
13.73763492916538
 31
0.0
  0
LINE
  5
A9
102
{ACAD_REACTORS
330
225
102
}
330
1D
100
AcDbEntity
  8
0
100
AcDbLine
 10
12.85322571358908
 20
13.73763492916538
 30
0.0
 11
12.77422571358908
 21
13.70073492916538
 31
0.0
  0
LINE
  5
AA
102
{ACAD_REACTORS
330
225
102
}
330
1D
100
AcDbEntity
  8
0
100
AcDbLine
 10
12.77422571358908
 20
13.70073492916538
 30
0.0
 11
12.69002571358908
 21
13.67823492916538
 31
0.0
  0
LINE
  5
AB
102
{ACAD_REACTORS
330
225
102
}
330
1D
100
AcDbEntity
  8
0
100
AcDbLine
 10
12.69002571358908
 20
13.67823492916538
 30
0.0
 11
12.60322571358908
 21
13.67063492916538
 31
0.0
  0
LINE
  5
AC
102
{ACAD_REACTORS
330
225
102
}
330
1D
100
AcDbEntity
  8
0
100
AcDbLine
 10
12.60322571358908
 20
13.67063492916538
 30
0.0
 11
12.51632571358908
 21
13.67823492916538
 31
0.0
  0
LINE
  5
19B
102
{ACAD_REACTORS
330
225
102
}
330
1D
100
AcDbEntity
  8
0
 62
     2
100
AcDbLine
 10
24.68292845127651
 20
10.10210856267352
 30
0.0
 11
24.93962845127651
 21
10.11230856267352
 31
0.0
  0
LINE
  5
19C
102
{ACAD_REACTORS
330
225
102
}
330
1D
100
AcDbEntity
  8
0
 62
     2
100
AcDbLine
 10
24.93962845127651
 20
10.11230856267352
 30
0.0
 11
25.19522845127651
 21
10.13900856267352
 31
0.0
  0
LINE
  5
19D
102
{ACAD_REACTORS
330
225
102
}
330
1D
100
AcDbEntity
  8
0
 62
     2
100
AcDbLine
 10
25.19522845127651
 20
10.13900856267352
 30
0.0
 11
25.44842845127651
 21
10.18210856267352
 31
0.0
  0
LINE
  5
19E
102
{ACAD_REACTORS
330
225
102
}
330
1D
100
AcDbEntity
  8
0
 62
     2
100
AcDbLine
 10
25.44842845127651
 20
10.18210856267352
 30
0.0
 11
25.69842845127651
 21
10.24130856267352
 31
0.0
  0
LINE
  5
19F
102
{ACAD_REACTORS
330
225
102
}
330
1D
100
AcDbEntity
  8
0
 62
     2
100
AcDbLine
 10
25.69842845127651
 20
10.24130856267352
 30
0.0
 11
25.94412845127651
 21
10.31640856267352
 31
0.0
  0
LINE
  5
1A0
102
{ACAD_REACTORS
330
225
102
}
330
1D
100
AcDbEntity
  8
0
 62
     2
100
AcDbLine
 10
25.94412845127651
 20
10.31640856267352
 30
0.0
 11
40.65242845127651
 21
12.17880856267352
 31
0.0
  0
LINE
  5
1A1
102
{ACAD_REACTORS
330
225
102
}
330
1D
100
AcDbEntity
  8
0
 62
     2
100
AcDbLine
 10
40.65242845127651
 20
12.17880856267352
 30
0.0
 11
40.86152845127651
 21
12.18980856267352
 31
0.0
  0
LINE
  5
1A2
102
{ACAD_REACTORS
330
225
102
}
330
1D
100
AcDbEntity
  8
0
 62
     2
100
AcDbLine
 10
40.86152845127651
 20
12.18980856267352
 30
0.0
 11
41.06822845127651
 21
12.22250856267352
 31
0.0
  0
LINE
  5
1A3
102
{ACAD_REACTORS
330
225
102
}
330
1D
100
AcDbEntity
  8
0
 62
     2
100
AcDbLine
 10
41.06822845127651
 20
12.22250856267352
 30
0.0
 11
41.27042845127651
 21
12.27670856267352
 31
0.0
  0
LINE
  5
1A4
102
{ACAD_REACTORS
330
225
102
}
330
1D
100
AcDbEntity
  8
0
 62
     2
100
AcDbLine
 10
41.27042845127651
 20
12.27670856267352
 30
0.0
 11
41.46592845127651
 21
12.35180856267352
 31
0.0
  0
LINE
  5
1A5
102
{ACAD_REACTORS
330
225
102
}
330
1D
100
AcDbEntity
  8
0
 62
     2
100
AcDbLine
 10
41.46592845127651
 20
12.35180856267352
 30
0.0
 11
41.65242845127651
 21
12.44680856267352
 31
0.0
  0
LINE
  5
1A6
102
{ACAD_REACTORS
330
225
102
}
330
1D
100
AcDbEntity
  8
0
 62
     2
100
AcDbLine
 10
41.65242845127651
 20
12.44680856267352
 30
0.0
 11
41.82802845127651
 21
12.56080856267352
 31
0.0
  0
LINE
  5
1A7
102
{ACAD_REACTORS
330
225
102
}
330
1D
100
AcDbEntity
  8
0
 62
     2
100
AcDbLine
 10
41.82802845127651
 20
12.56080856267352
 30
0.0
 11
41.99072845127651
 21
12.69250856267352
 31
0.0
  0
LINE
  5
1A8
102
{ACAD_REACTORS
330
225
102
}
330
1D
100
AcDbEntity
  8
0
 62
     2
100
AcDbLine
 10
41.99072845127651
 20
12.69250856267352
 30
0.0
 11
42.13872845127651
 21
12.84060856267352
 31
0.0
  0
LINE
  5
1A9
102
{ACAD_REACTORS
330
225
102
}
330
1D
100
AcDbEntity
  8
0
 62
     2
100
AcDbLine
 10
42.13872845127651
 20
12.84060856267352
 30
0.0
 11
42.27042845127651
 21
13.00330856267352
 31
0.0
  0
LINE
  5
1AA
102
{ACAD_REACTORS
330
225
102
}
330
1D
100
AcDbEntity
  8
0
 62
     2
100
AcDbLine
 10
42.27042845127651
 20
13.00330856267352
 30
0.0
 11
42.38452845127651
 21
13.17880856267352
 31
0.0
  0
LINE
  5
1AB
102
{ACAD_REACTORS
330
225
102
}
330
1D
100
AcDbEntity
  8
0
 62
     2
100
AcDbLine
 10
42.38452845127651
 20
13.17880856267352
 30
0.0
 11
42.47952845127651
 21
13.36540856267352
 31
0.0
  0
LINE
  5
1AC
102
{ACAD_REACTORS
330
225
102
}
330
1D
100
AcDbEntity
  8
0
 62
     2
100
AcDbLine
 10
42.47952845127651
 20
13.36540856267352
 30
0.0
 11
42.55452845127651
 21
13.56080856267352
 31
0.0
  0
LINE
  5
1AD
102
{ACAD_REACTORS
330
225
102
}
330
1D
100
AcDbEntity
  8
0
 62
     2
100
AcDbLine
 10
42.55452845127651
 20
13.56080856267352
 30
0.0
 11
42.60872845127651
 21
13.76300856267352
 31
0.0
  0
LINE
  5
1AE
102
{ACAD_REACTORS
330
225
102
}
330
1D
100
AcDbEntity
  8
0
 62
     2
100
AcDbLine
 10
42.60872845127651
 20
13.76300856267352
 30
0.0
 11
42.64152845127651
 21
13.96980856267352
 31
0.0
  0
LINE
  5
1AF
102
{ACAD_REACTORS
330
225
102
}
330
1D
100
AcDbEntity
  8
0
 62
     2
100
AcDbLine
 10
42.64152845127651
 20
13.96980856267352
 30
0.0
 11
42.65242845127651
 21
14.17880856267352
 31
0.0
  0
LINE
  5
1B0
102
{ACAD_REACTORS
330
225
102
}
330
1D
100
AcDbEntity
  8
0
 62
     2
100
AcDbLine
 10
42.65242845127651
 20
14.17880856267352
 30
0.0
 11
42.64152845127651
 21
14.38790856267352
 31
0.0
  0
LINE
  5
1B1
102
{ACAD_REACTORS
330
225
102
}
330
1D
100
AcDbEntity
  8
0
 62
     2
100
AcDbLine
 10
42.64152845127651
 20
14.38790856267352
 30
0.0
 11
42.60872845127651
 21
14.59470856267352
 31
0.0
  0
LINE
  5
1B2
102
{ACAD_REACTORS
330
225
102
}
330
1D
100
AcDbEntity
  8
0
 62
     2
100
AcDbLine
 10
42.60872845127651
 20
14.59470856267352
 30
0.0
 11
42.55452845127651
 21
14.79690856267352
 31
0.0
  0
LINE
  5
1B3
102
{ACAD_REACTORS
330
225
102
}
330
1D
100
AcDbEntity
  8
0
 62
     2
100
AcDbLine
 10
42.55452845127651
 20
14.79690856267352
 30
0.0
 11
42.47952845127651
 21
14.99230856267352
 31
0.0
  0
LINE
  5
1B4
102
{ACAD_REACTORS
330
225
102
}
330
1D
100
AcDbEntity
  8
0
 62
     2
100
AcDbLine
 10
42.47952845127651
 20
14.99230856267352
 30
0.0
 11
42.38452845127651
 21
15.17880856267352
 31
0.0
  0
LINE
  5
1B5
102
{ACAD_REACTORS
330
225
102
}
330
1D
100
AcDbEntity
  8
0
 62
     2
100
AcDbLine
 10
42.38452845127651
 20
15.17880856267352
 30
0.0
 11
42.27042845127651
 21
15.35440856267352
 31
0.0
  0
LINE
  5
1B6
102
{ACAD_REACTORS
330
225
102
}
330
1D
100
AcDbEntity
  8
0
 62
     2
100
AcDbLine
 10
42.27042845127651
 20
15.35440856267352
 30
0.0
 11
42.13872845127651
 21
15.51710856267352
 31
0.0
  0
LINE
  5
1B7
102
{ACAD_REACTORS
330
225
102
}
330
1D
100
AcDbEntity
  8
0
 62
     2
100
AcDbLine
 10
42.13872845127651
 20
15.51710856267352
 30
0.0
 11
41.99072845127651
 21
15.66510856267352
 31
0.0
  0
LINE
  5
1B8
102
{ACAD_REACTORS
330
225
102
}
330
1D
100
AcDbEntity
  8
0
 62
     2
100
AcDbLine
 10
41.99072845127651
 20
15.66510856267352
 30
0.0
 11
41.82802845127651
 21
15.79690856267352
 31
0.0
  0
LINE
  5
1B9
102
{ACAD_REACTORS
330
225
102
}
330
1D
100
AcDbEntity
  8
0
 62
     2
100
AcDbLine
 10
41.82802845127651
 20
15.79690856267352
 30
0.0
 11
41.65242845127651
 21
15.91090856267352
 31
0.0
  0
LINE
  5
1BA
102
{ACAD_REACTORS
330
225
102
}
330
1D
100
AcDbEntity
  8
0
 62
     2
100
AcDbLine
 10
41.65242845127651
 20
15.91090856267352
 30
0.0
 11
41.46592845127651
 21
16.00590856267352
 31
0.0
  0
LINE
  5
1BB
102
{ACAD_REACTORS
330
225
102
}
330
1D
100
AcDbEntity
  8
0
 62
     2
100
AcDbLine
 10
41.46592845127651
 20
16.00590856267352
 30
0.0
 11
41.27042845127651
 21
16.08100856267352
 31
0.0
  0
LINE
  5
1BC
102
{ACAD_REACTORS
330
225
102
}
330
1D
100
AcDbEntity
  8
0
 62
     2
100
AcDbLine
 10
41.27042845127651
 20
16.08100856267352
 30
0.0
 11
41.06822845127651
 21
16.13510856267352
 31
0.0
  0
LINE
  5
1BD
102
{ACAD_REACTORS
330
225
102
}
330
1D
100
AcDbEntity
  8
0
 62
     2
100
AcDbLine
 10
41.06822845127651
 20
16.13510856267352
 30
0.0
 11
40.86152845127651
 21
16.16790856267352
 31
0.0
  0
LINE
  5
1BE
102
{ACAD_REACTORS
330
225
102
}
330
1D
100
AcDbEntity
  8
0
 62
     2
100
AcDbLine
 10
40.86152845127651
 20
16.16790856267352
 30
0.0
 11
40.65242845127651
 21
16.17880856267352
 31
0.0
  0
LINE
  5
1BF
102
{ACAD_REACTORS
330
225
102
}
330
1D
100
AcDbEntity
  8
0
 62
     2
100
AcDbLine
 10
40.65242845127651
 20
16.17880856267352
 30
0.0
 11
25.47952845127651
 21
18.10380856267352
 31
0.0
  0
LINE
  5
1C0
102
{ACAD_REACTORS
330
225
102
}
330
1D
100
AcDbEntity
  8
0
 62
     2
100
AcDbLine
 10
25.47952845127651
 20
18.10380856267352
 30
0.0
 11
25.31902845127651
 21
18.13210856267352
 31
0.0
  0
LINE
  5
1C1
102
{ACAD_REACTORS
330
225
102
}
330
1D
100
AcDbEntity
  8
0
 62
     2
100
AcDbLine
 10
25.31902845127651
 20
18.13210856267352
 30
0.0
 11
25.19552845127651
 21
18.14940856267352
 31
0.0
  0
LINE
  5
1C2
102
{ACAD_REACTORS
330
225
102
}
330
1D
100
AcDbEntity
  8
0
 62
     2
100
AcDbLine
 10
25.19552845127651
 20
18.14940856267352
 30
0.0
 11
25.02582845127651
 21
18.16670856267352
 31
0.0
  0
LINE
  5
1C3
102
{ACAD_REACTORS
330
225
102
}
330
1D
100
AcDbEntity
  8
0
 62
     2
100
AcDbLine
 10
25.02582845127651
 20
18.16670856267352
 30
0.0
 11
24.90892845127651
 21
18.17440856267352
 31
0.0
  0
LINE
  5
1C4
102
{ACAD_REACTORS
330
225
102
}
330
1D
100
AcDbEntity
  8
0
 62
     2
100
AcDbLine
 10
24.90892845127651
 20
18.17440856267352
 30
0.0
 11
24.73082845127651
 21
18.17950856267352
 31
0.0
  0
LINE
  5
1C5
102
{ACAD_REACTORS
330
225
102
}
330
1D
100
AcDbEntity
  8
0
 62
     2
100
AcDbLine
 10
24.73082845127651
 20
18.17950856267352
 30
0.0
 11
24.62142845127651
 21
18.17870856267352
 31
0.0
  0
LINE
  5
1C6
102
{ACAD_REACTORS
330
225
102
}
330
1D
100
AcDbEntity
  8
0
 62
     2
100
AcDbLine
 10
24.62142845127651
 20
18.17870856267352
 30
0.0
 11
24.36462845127651
 21
18.16850856267352
 31
0.0
  0
LINE
  5
1C7
102
{ACAD_REACTORS
330
225
102
}
330
1D
100
AcDbEntity
  8
0
 62
     2
100
AcDbLine
 10
24.36462845127651
 20
18.16850856267352
 30
0.0
 11
24.10912845127651
 21
18.14180856267352
 31
0.0
  0
LINE
  5
1C8
102
{ACAD_REACTORS
330
225
102
}
330
1D
100
AcDbEntity
  8
0
 62
     2
100
AcDbLine
 10
24.10912845127651
 20
18.14180856267352
 30
0.0
 11
23.85582845127651
 21
18.09870856267352
 31
0.0
  0
LINE
  5
1C9
102
{ACAD_REACTORS
330
225
102
}
330
1D
100
AcDbEntity
  8
0
 62
     2
100
AcDbLine
 10
23.85582845127651
 20
18.09870856267352
 30
0.0
 11
23.60592845127651
 21
18.03950856267352
 31
0.0
  0
LINE
  5
1CA
102
{ACAD_REACTORS
330
225
102
}
330
1D
100
AcDbEntity
  8
0
 62
     2
100
AcDbLine
 10
23.60592845127651
 20
18.03950856267352
 30
0.0
 11
23.36022845127651
 21
17.96440856267352
 31
0.0
  0
LINE
  5
1CB
102
{ACAD_REACTORS
330
225
102
}
330
1D
100
AcDbEntity
  8
0
 62
     2
100
AcDbLine
 10
23.36022845127651
 20
17.96440856267352
 30
0.0
 11
8.651928451276513
 21
16.10200856267352
 31
0.0
  0
LINE
  5
1CC
102
{ACAD_REACTORS
330
225
102
}
330
1D
100
AcDbEntity
  8
0
 62
     2
100
AcDbLine
 10
8.651928451276513
 20
16.10200856267352
 30
0.0
 11
8.442828451276513
 21
16.09100856267352
 31
0.0
  0
LINE
  5
1CD
102
{ACAD_REACTORS
330
225
102
}
330
1D
100
AcDbEntity
  8
0
 62
     2
100
AcDbLine
 10
8.442828451276513
 20
16.09100856267352
 30
0.0
 11
8.236128451276512
 21
16.05830856267352
 31
0.0
  0
LINE
  5
1CE
102
{ACAD_REACTORS
330
225
102
}
330
1D
100
AcDbEntity
  8
0
 62
     2
100
AcDbLine
 10
8.236128451276512
 20
16.05830856267352
 30
0.0
 11
8.033928451276514
 21
16.00410856267352
 31
0.0
  0
LINE
  5
1CF
102
{ACAD_REACTORS
330
225
102
}
330
1D
100
AcDbEntity
  8
0
 62
     2
100
AcDbLine
 10
8.033928451276514
 20
16.00410856267352
 30
0.0
 11
7.838428451276512
 21
15.92900856267352
 31
0.0
  0
LINE
  5
1D0
102
{ACAD_REACTORS
330
225
102
}
330
1D
100
AcDbEntity
  8
0
 62
     2
100
AcDbLine
 10
7.838428451276512
 20
15.92900856267352
 30
0.0
 11
7.651928451276513
 21
15.83400856267352
 31
0.0
  0
LINE
  5
1D1
102
{ACAD_REACTORS
330
225
102
}
330
1D
100
AcDbEntity
  8
0
 62
     2
100
AcDbLine
 10
7.651928451276513
 20
15.83400856267352
 30
0.0
 11
7.476328451276514
 21
15.72000856267352
 31
0.0
  0
LINE
  5
1D2
102
{ACAD_REACTORS
330
225
102
}
330
1D
100
AcDbEntity
  8
0
 62
     2
100
AcDbLine
 10
7.476328451276514
 20
15.72000856267352
 30
0.0
 11
7.313628451276513
 21
15.58830856267352
 31
0.0
  0
LINE
  5
1D3
102
{ACAD_REACTORS
330
225
102
}
330
1D
100
AcDbEntity
  8
0
 62
     2
100
AcDbLine
 10
7.313628451276513
 20
15.58830856267352
 30
0.0
 11
7.165628451276513
 21
15.44020856267352
 31
0.0
  0
LINE
  5
1D4
102
{ACAD_REACTORS
330
225
102
}
330
1D
100
AcDbEntity
  8
0
 62
     2
100
AcDbLine
 10
7.165628451276513
 20
15.44020856267352
 30
0.0
 11
7.033928451276514
 21
15.27750856267352
 31
0.0
  0
LINE
  5
1D5
102
{ACAD_REACTORS
330
225
102
}
330
1D
100
AcDbEntity
  8
0
 62
     2
100
AcDbLine
 10
7.033928451276514
 20
15.27750856267352
 30
0.0
 11
6.919828451276514
 21
15.10200856267352
 31
0.0
  0
LINE
  5
1D6
102
{ACAD_REACTORS
330
225
102
}
330
1D
100
AcDbEntity
  8
0
 62
     2
100
AcDbLine
 10
6.919828451276514
 20
15.10200856267352
 30
0.0
 11
6.824828451276511
 21
14.91540856267352
 31
0.0
  0
LINE
  5
1D7
102
{ACAD_REACTORS
330
225
102
}
330
1D
100
AcDbEntity
  8
0
 62
     2
100
AcDbLine
 10
6.824828451276511
 20
14.91540856267352
 30
0.0
 11
6.749828451276512
 21
14.72000856267352
 31
0.0
  0
LINE
  5
1D8
102
{ACAD_REACTORS
330
225
102
}
330
1D
100
AcDbEntity
  8
0
 62
     2
100
AcDbLine
 10
6.749828451276512
 20
14.72000856267352
 30
0.0
 11
6.695628451276514
 21
14.51780856267352
 31
0.0
  0
LINE
  5
1D9
102
{ACAD_REACTORS
330
225
102
}
330
1D
100
AcDbEntity
  8
0
 62
     2
100
AcDbLine
 10
6.695628451276514
 20
14.51780856267352
 30
0.0
 11
6.662828451276512
 21
14.31100856267352
 31
0.0
  0
LINE
  5
1DA
102
{ACAD_REACTORS
330
225
102
}
330
1D
100
AcDbEntity
  8
0
 62
     2
100
AcDbLine
 10
6.662828451276512
 20
14.31100856267352
 30
0.0
 11
6.651928451276513
 21
14.10200856267352
 31
0.0
  0
LINE
  5
1DB
102
{ACAD_REACTORS
330
225
102
}
330
1D
100
AcDbEntity
  8
0
 62
     2
100
AcDbLine
 10
6.651928451276513
 20
14.10200856267352
 30
0.0
 11
6.662828451276512
 21
13.89290856267352
 31
0.0
  0
LINE
  5
1DC
102
{ACAD_REACTORS
330
225
102
}
330
1D
100
AcDbEntity
  8
0
 62
     2
100
AcDbLine
 10
6.662828451276512
 20
13.89290856267352
 30
0.0
 11
6.695628451276514
 21
13.68610856267352
 31
0.0
  0
LINE
  5
1DD
102
{ACAD_REACTORS
330
225
102
}
330
1D
100
AcDbEntity
  8
0
 62
     2
100
AcDbLine
 10
6.695628451276514
 20
13.68610856267352
 30
0.0
 11
6.749828451276512
 21
13.48390856267352
 31
0.0
  0
LINE
  5
1DE
102
{ACAD_REACTORS
330
225
102
}
330
1D
100
AcDbEntity
  8
0
 62
     2
100
AcDbLine
 10
6.749828451276512
 20
13.48390856267352
 30
0.0
 11
6.824828451276511
 21
13.28850856267352
 31
0.0
  0
LINE
  5
1DF
102
{ACAD_REACTORS
330
225
102
}
330
1D
100
AcDbEntity
  8
0
 62
     2
100
AcDbLine
 10
6.824828451276511
 20
13.28850856267352
 30
0.0
 11
6.919828451276514
 21
13.10200856267352
 31
0.0
  0
LINE
  5
1E0
102
{ACAD_REACTORS
330
225
102
}
330
1D
100
AcDbEntity
  8
0
 62
     2
100
AcDbLine
 10
6.919828451276514
 20
13.10200856267352
 30
0.0
 11
7.033928451276514
 21
12.92640856267352
 31
0.0
  0
LINE
  5
1E1
102
{ACAD_REACTORS
330
225
102
}
330
1D
100
AcDbEntity
  8
0
 62
     2
100
AcDbLine
 10
7.033928451276514
 20
12.92640856267352
 30
0.0
 11
7.165628451276513
 21
12.76370856267352
 31
0.0
  0
LINE
  5
1E2
102
{ACAD_REACTORS
330
225
102
}
330
1D
100
AcDbEntity
  8
0
 62
     2
100
AcDbLine
 10
7.165628451276513
 20
12.76370856267352
 30
0.0
 11
7.313628451276513
 21
12.61570856267352
 31
0.0
  0
LINE
  5
1E3
102
{ACAD_REACTORS
330
225
102
}
330
1D
100
AcDbEntity
  8
0
 62
     2
100
AcDbLine
 10
7.313628451276513
 20
12.61570856267352
 30
0.0
 11
7.476328451276514
 21
12.48390856267352
 31
0.0
  0
LINE
  5
1E4
102
{ACAD_REACTORS
330
225
102
}
330
1D
100
AcDbEntity
  8
0
 62
     2
100
AcDbLine
 10
7.476328451276514
 20
12.48390856267352
 30
0.0
 11
7.651928451276513
 21
12.36990856267352
 31
0.0
  0
LINE
  5
1E5
102
{ACAD_REACTORS
330
225
102
}
330
1D
100
AcDbEntity
  8
0
 62
     2
100
AcDbLine
 10
7.651928451276513
 20
12.36990856267352
 30
0.0
 11
7.838428451276512
 21
12.27490856267352
 31
0.0
  0
LINE
  5
1E6
102
{ACAD_REACTORS
330
225
102
}
330
1D
100
AcDbEntity
  8
0
 62
     2
100
AcDbLine
 10
7.838428451276512
 20
12.27490856267352
 30
0.0
 11
8.033928451276514
 21
12.19980856267352
 31
0.0
  0
LINE
  5
1E7
102
{ACAD_REACTORS
330
225
102
}
330
1D
100
AcDbEntity
  8
0
 62
     2
100
AcDbLine
 10
8.033928451276514
 20
12.19980856267352
 30
0.0
 11
8.236128451276512
 21
12.14570856267352
 31
0.0
  0
LINE
  5
1E8
102
{ACAD_REACTORS
330
225
102
}
330
1D
100
AcDbEntity
  8
0
 62
     2
100
AcDbLine
 10
8.236128451276512
 20
12.14570856267352
 30
0.0
 11
8.442828451276513
 21
12.11290856267352
 31
0.0
  0
LINE
  5
1E9
102
{ACAD_REACTORS
330
225
102
}
330
1D
100
AcDbEntity
  8
0
 62
     2
100
AcDbLine
 10
8.442828451276513
 20
12.11290856267352
 30
0.0
 11
8.651928451276513
 21
12.10200856267352
 31
0.0
  0
LINE
  5
1EA
102
{ACAD_REACTORS
330
225
102
}
330
1D
100
AcDbEntity
  8
0
 62
     2
100
AcDbLine
 10
8.651928451276513
 20
12.10200856267352
 30
0.0
 11
23.82482845127651
 21
10.17700856267352
 31
0.0
  0
LINE
  5
1EB
102
{ACAD_REACTORS
330
225
102
}
330
1D
100
AcDbEntity
  8
0
 62
     2
100
AcDbLine
 10
23.82482845127651
 20
10.17700856267352
 30
0.0
 11
23.98532845127651
 21
10.14870856267352
 31
0.0
  0
LINE
  5
1EC
102
{ACAD_REACTORS
330
225
102
}
330
1D
100
AcDbEntity
  8
0
 62
     2
100
AcDbLine
 10
23.98532845127651
 20
10.14870856267352
 30
0.0
 11
24.10882845127651
 21
10.13140856267352
 31
0.0
  0
LINE
  5
1ED
102
{ACAD_REACTORS
330
225
102
}
330
1D
100
AcDbEntity
  8
0
 62
     2
100
AcDbLine
 10
24.10882845127651
 20
10.13140856267352
 30
0.0
 11
24.27852845127651
 21
10.11410856267352
 31
0.0
  0
LINE
  5
1EE
102
{ACAD_REACTORS
330
225
102
}
330
1D
100
AcDbEntity
  8
0
 62
     2
100
AcDbLine
 10
24.27852845127651
 20
10.11410856267352
 30
0.0
 11
24.39532845127651
 21
10.10640856267352
 31
0.0
  0
LINE
  5
1EF
102
{ACAD_REACTORS
330
225
102
}
330
1D
100
AcDbEntity
  8
0
 62
     2
100
AcDbLine
 10
24.39532845127651
 20
10.10640856267352
 30
0.0
 11
24.57352845127651
 21
10.10130856267352
 31
0.0
  0
LINE
  5
1F0
102
{ACAD_REACTORS
330
225
102
}
330
1D
100
AcDbEntity
  8
0
 62
     2
100
AcDbLine
 10
24.57352845127651
 20
10.10130856267352
 30
0.0
 11
24.68292845127651
 21
10.10210856267352
 31
0.0
  0
INSERT
  5
225
330
1D
100
AcDbEntity
  8
0
  6
BYBLOCK
 62
     2
100
AcDbBlockReference
  2
*U0
 10
0.0
 20
0.0
 30
0.0
  0
POLYLINE
  5
22C
330
1D
100
AcDbEntity
  8
0
  6
CONTINUOUS
 62
     1
100
AcDb2dPolyline
 66
     1
 10
0.0
 20
0.0
 30
0.0
  0
VERTEX
  5
22D
330
22C
100
AcDbEntity
  8
0
  6
CONTINUOUS
 62
     1
100
AcDbVertex
100
AcDb2dVertex
 10
7.544156433406478
 20
4.950968084443836
 30
0.0
  0
VERTEX
  5
22E
330
22C
100
AcDbEntity
  8
0
  6
CONTINUOUS
 62
     1
100
AcDbVertex
100
AcDb2dVertex
 10
7.544156433406478
 20
5.950968084443836
 30
0.0
  0
VERTEX
  5
22F
330
22C
100
AcDbEntity
  8
0
  6
CONTINUOUS
 62
     1
100
AcDbVertex
100
AcDb2dVertex
 10
8.044156433406478
 20
5.950968084443836
 30
0.0
  0
VERTEX
  5
230
330
22C
100
AcDbEntity
  8
0
  6
CONTINUOUS
 62
     1
100
AcDbVertex
100
AcDb2dVertex
 10
8.210823100073144
 20
5.784301417777169
 30
0.0
  0
VERTEX
  5
231
330
22C
100
AcDbEntity
  8
0
  6
CONTINUOUS
 62
     1
100
AcDbVertex
100
AcDb2dVertex
 10
8.210823100073144
 20
5.617634751110503
 30
0.0
  0
VERTEX
  5
232
330
22C
100
AcDbEntity
  8
0
  6
CONTINUOUS
 62
     1
100
AcDbVertex
100
AcDb2dVertex
 10
8.044156433406478
 20
5.450968084443836
 30
0.0
  0
VERTEX
  5
233
330
22C
100
AcDbEntity
  8
0
  6
CONTINUOUS
 62
     1
100
AcDbVertex
100
AcDb2dVertex
 10
7.544156433406478
 20
5.450968084443836
 30
0.0
  0
SEQEND
  5
24B
330
22C
100
AcDbEntity
  8
0
  6
CONTINUOUS
 62
     1
  0
LINE
  5
234
330
1D
100
AcDbEntity
  8
0
  6
CONTINUOUS
 62
     1
100
AcDbLine
 10
8.544156433406478
 20
4.950968084443836
 30
0.0
 11
8.877489766739812
 21
4.950968084443836
 31
0.0
  0
POLYLINE
  5
235
330
1D
100
AcDbEntity
  8
0
  6
CONTINUOUS
 62
     1
100
AcDb2dPolyline
 66
     1
 10
0.0
 20
0.0
 30
0.0
  0
VERTEX
  5
236
330
235
100
AcDbEntity
  8
0
  6
CONTINUOUS
 62
     1
100
AcDbVertex
100
AcDb2dVertex
 10
8.710823100073144
 20
4.950968084443836
 30
0.0
  0
VERTEX
  5
237
330
235
100
AcDbEntity
  8
0
  6
CONTINUOUS
 62
     1
100
AcDbVertex
100
AcDb2dVertex
 10
8.710823100073144
 20
5.950968084443836
 30
0.0
  0
VERTEX
  5
238
330
235
100
AcDbEntity
  8
0
  6
CONTINUOUS
 62
     1
100
AcDbVertex
100
AcDb2dVertex
 10
8.544156433406478
 20
5.784301417777169
 30
0.0
  0
SEQEND
  5
24A
330
235
100
AcDbEntity
  8
0
  6
CONTINUOUS
 62
     1
  0
POLYLINE
  5
239
330
1D
100
AcDbEntity
  8
0
  6
CONTINUOUS
 62
     1
100
AcDb2dPolyline
 66
     1
 10
0.0
 20
0.0
 30
0.0
  0
VERTEX
  5
23A
330
239
100
AcDbEntity
  8
0
  6
CONTINUOUS
 62
     1
100
AcDbVertex
100
AcDb2dVertex
 10
9.210823100073144
 20
5.117634751110503
 30
0.0
  0
VERTEX
  5
23B
330
239
100
AcDbEntity
  8
0
  6
CONTINUOUS
 62
     1
100
AcDbVertex
100
AcDb2dVertex
 10
9.37748976673981
 20
4.950968084443836
 30
0.0
  0
VERTEX
  5
23C
330
239
100
AcDbEntity
  8
0
  6
CONTINUOUS
 62
     1
100
AcDbVertex
100
AcDb2dVertex
 10
9.710823100073144
 20
4.950968084443836
 30
0.0
  0
VERTEX
  5
23D
330
239
100
AcDbEntity
  8
0
  6
CONTINUOUS
 62
     1
100
AcDbVertex
100
AcDb2dVertex
 10
9.87748976673981
 20
5.117634751110503
 30
0.0
  0
VERTEX
  5
23E
330
239
100
AcDbEntity
  8
0
  6
CONTINUOUS
 62
     1
100
AcDbVertex
100
AcDb2dVertex
 10
9.87748976673981
 20
5.284301417777169
 30
0.0
  0
VERTEX
  5
23F
330
239
100
AcDbEntity
  8
0
  6
CONTINUOUS
 62
     1
100
AcDbVertex
100
AcDb2dVertex
 10
9.710823100073144
 20
5.450968084443836
 30
0.0
  0
VERTEX
  5
240
330
239
100
AcDbEntity
  8
0
  6
CONTINUOUS
 62
     1
100
AcDbVertex
100
AcDb2dVertex
 10
9.544156433406478
 20
5.450968084443836
 30
0.0
  0
SEQEND
  5
249
330
239
100
AcDbEntity
  8
0
  6
CONTINUOUS
 62
     1
  0
POLYLINE
  5
241
330
1D
100
AcDbEntity
  8
0
  6
CONTINUOUS
 62
     1
100
AcDb2dPolyline
 66
     1
 10
0.0
 20
0.0
 30
0.0
  0
VERTEX
  5
242
330
241
100
AcDbEntity
  8
0
  6
CONTINUOUS
 62
     1
100
AcDbVertex
100
AcDb2dVertex
 10
9.710823100073144
 20
5.450968084443836
 30
0.0
  0
VERTEX
  5
243
330
241
100
AcDbEntity
  8
0
  6
CONTINUOUS
 62
     1
100
AcDbVertex
100
AcDb2dVertex
 10
9.87748976673981
 20
5.617634751110503
 30
0.0
  0
VERTEX
  5
244
330
241
100
AcDbEntity
  8
0
  6
CONTINUOUS
 62
     1
100
AcDbVertex
100
AcDb2dVertex
 10
9.87748976673981
 20
5.784301417777169
 30
0.0
  0
VERTEX
  5
245
330
241
100
AcDbEntity
  8
0
  6
CONTINUOUS
 62
     1
100
AcDbVertex
100
AcDb2dVertex
 10
9.710823100073144
 20
5.950968084443836
 30
0.0
  0
VERTEX
  5
246
330
241
100
AcDbEntity
  8
0
  6
CONTINUOUS
 62
     1
100
AcDbVertex
100
AcDb2dVertex
 10
9.37748976673981
 20
5.950968084443836
 30
0.0
  0
VERTEX
  5
247
330
241
100
AcDbEntity
  8
0
  6
CONTINUOUS
 62
     1
100
AcDbVertex
100
AcDb2dVertex
 10
9.210823100073144
 20
5.784301417777169
 30
0.0
  0
SEQEND
  5
248
330
241
100
AcDbEntity
  8
0
  6
CONTINUOUS
 62
     1
  0
POLYLINE
  5
24C
330
1D
100
AcDbEntity
  8
0
  6
CONTINUOUS
 62
     1
100
AcDb2dPolyline
 66
     1
 10
0.0
 20
0.0
 30
0.0
  0
VERTEX
  5
24D
330
24C
100
AcDbEntity
  8
0
  6
CONTINUOUS
 62
     1
100
AcDbVertex
100
AcDb2dVertex
 10
19.19962839597144
 20
23.50798899471327
 30
0.0
  0
VERTEX
  5
24E
330
24C
100
AcDbEntity
  8
0
  6
CONTINUOUS
 62
     1
100
AcDbVertex
100
AcDb2dVertex
 10
19.19962839597144
 20
27.50798899471327
 30
0.0
  0
VERTEX
  5
24F
330
24C
100
AcDbEntity
  8
0
  6
CONTINUOUS
 62
     1
100
AcDbVertex
100
AcDb2dVertex
 10
21.19962839597144
 20
27.50798899471327
 30
0.0
  0
VERTEX
  5
250
330
24C
100
AcDbEntity
  8
0
  6
CONTINUOUS
 62
     1
100
AcDbVertex
100
AcDb2dVertex
 10
21.86629506263811
 20
26.8413223280466
 30
0.0
  0
VERTEX
  5
251
330
24C
100
AcDbEntity
  8
0
  6
CONTINUOUS
 62
     1
100
AcDbVertex
100
AcDb2dVertex
 10
21.86629506263811
 20
26.17465566137994
 30
0.0
  0
VERTEX
  5
252
330
24C
100
AcDbEntity
  8
0
  6
CONTINUOUS
 62
     1
100
AcDbVertex
100
AcDb2dVertex
 10
21.19962839597144
 20
25.50798899471327
 30
0.0
  0
VERTEX
  5
253
330
24C
100
AcDbEntity
  8
0
  6
CONTINUOUS
 62
     1
100
AcDbVertex
100
AcDb2dVertex
 10
19.19962839597144
 20
25.50798899471327
 30
0.0
  0
SEQEND
  5
260
330
24C
100
AcDbEntity
  8
0
  6
CONTINUOUS
 62
     1
  0
LINE
  5
254
330
1D
100
AcDbEntity
  8
0
  6
CONTINUOUS
 62
     1
100
AcDbLine
 10
23.19962839597144
 20
23.50798899471327
 30
0.0
 11
24.53296172930477
 21
23.50798899471327
 31
0.0
  0
POLYLINE
  5
255
330
1D
100
AcDbEntity
  8
0
  6
CONTINUOUS
 62
     1
100
AcDb2dPolyline
 66
     1
 10
0.0
 20
0.0
 30
0.0
  0
VERTEX
  5
256
330
255
100
AcDbEntity
  8
0
  6
CONTINUOUS
 62
     1
100
AcDbVertex
100
AcDb2dVertex
 10
23.86629506263811
 20
23.50798899471327
 30
0.0
  0
VERTEX
  5
257
330
255
100
AcDbEntity
  8
0
  6
CONTINUOUS
 62
     1
100
AcDbVertex
100
AcDb2dVertex
 10
23.86629506263811
 20
27.50798899471327
 30
0.0
  0
VERTEX
  5
258
330
255
100
AcDbEntity
  8
0
  6
CONTINUOUS
 62
     1
100
AcDbVertex
100
AcDb2dVertex
 10
23.19962839597144
 20
26.8413223280466
 30
0.0
  0
SEQEND
  5
25F
330
255
100
AcDbEntity
  8
0
  6
CONTINUOUS
 62
     1
  0
POLYLINE
  5
259
330
1D
100
AcDbEntity
  8
0
  6
CONTINUOUS
 62
     1
100
AcDb2dPolyline
 66
     1
 10
0.0
 20
0.0
 30
0.0
  0
VERTEX
  5
25A
330
259
100
AcDbEntity
  8
0
  6
CONTINUOUS
 62
     1
100
AcDbVertex
100
AcDb2dVertex
 10
27.86629506263811
 20
23.50798899471327
 30
0.0
  0
VERTEX
  5
25B
330
259
100
AcDbEntity
  8
0
  6
CONTINUOUS
 62
     1
100
AcDbVertex
100
AcDb2dVertex
 10
27.86629506263811
 20
27.50798899471327
 30
0.0
  0
VERTEX
  5
25C
330
259
100
AcDbEntity
  8
0
  6
CONTINUOUS
 62
     1
100
AcDbVertex
100
AcDb2dVertex
 10
25.86629506263811
 20
24.8413223280466
 30
0.0
  0
VERTEX
  5
25D
330
259
100
AcDbEntity
  8
0
  6
CONTINUOUS
 62
     1
100
AcDbVertex
100
AcDb2dVertex
 10
28.53296172930478
 20
24.8413223280466
 30
0.0
  0
SEQEND
  5
25E
330
259
100
AcDbEntity
  8
0
  6
CONTINUOUS
 62
     1
  0
ENDSEC
  0
SECTION
  2
OBJECTS
  0
DICTIONARY
  5
C
330
0
100
AcDbDictionary
  3
ACAD_DETAILVIEWSTYLE
350
1F9
  3
ACAD_GROUP
350
D
  3
ACAD_IMAGE_VARS
350
F8
  3
ACAD_MLINESTYLE
350
17
  3
ACAD_SCALELIST
350
AF
  3
ACAD_SECTIONVIEWSTYLE
350
1FA
  3
ACDBVARIABLEDICTIONARY
350
1F1
  3
APPDATA
350
F6
  3
DWGPROPS
350
264
1001
ACAD
1000
TREAT_AS_HARD
1070
     0
  0
DICTIONARY
  5
1F9
102
{ACAD_REACTORS
330
C
102
}
330
C
100
AcDbDictionary
1001
ACAD
1000
TREAT_AS_HARD
1070
     0
  0
DICTIONARY
  5
D
102
{ACAD_REACTORS
330
C
102
}
330
C
100
AcDbDictionary
1001
ACAD
1000
TREAT_AS_HARD
1070
     0
  0
RASTERVARIABLES
  5
F8
102
{ACAD_REACTORS
330
C
102
}
330
C
100
AcDbRasterVariables
 90
        0
 70
     1
 71
     1
 72
     0
  0
DICTIONARY
  5
17
102
{ACAD_REACTORS
330
C
102
}
330
C
100
AcDbDictionary
  3
STANDARD
350
18
1001
ACAD
1000
TREAT_AS_HARD
1070
     0
  0
DICTIONARY
  5
AF
102
{ACAD_REACTORS
330
C
102
}
330
C
100
AcDbDictionary
1001
ACAD
1000
TREAT_AS_HARD
1070
     0
  0
DICTIONARY
  5
1FA
102
{ACAD_REACTORS
330
C
102
}
330
C
100
AcDbDictionary
1001
ACAD
1000
TREAT_AS_HARD
1070
     0
  0
DICTIONARY
  5
1F1
102
{ACAD_REACTORS
330
C
102
}
330
C
100
AcDbDictionary
1001
ACAD
1000
TREAT_AS_HARD
1070
     0
  0
DICTIONARY
  5
F6
102
{ACAD_REACTORS
330
C
102
}
330
C
100
AcDbDictionary
1001
ACAD
1000
TREAT_AS_HARD
1070
     0
  0
XRECORD
  5
264
102
{ACAD_REACTORS
330
C
102
}
330
C
100
AcDbXrecord
  1
DWGPROPS COOKIE
  2

  3

  4

  6

  7

  8
Cesar
  9

300
=
301
=
302
=
303
=
304
=
305
=
306
=
307
=
308
=
309
=
 40
0.0
 41
2457628.072614653
 42
2457628.860325011
  1

 90
        0
  0
MLINESTYLE
  5
18
102
{ACAD_REACTORS
330
17
102
}
330
17
100
AcDbMlineStyle
  2
Standard
 70
     0
  3

 62
   256
 51
90.0
 52
90.0
 71
     2
 49
0.5
 62
   256
  6
BYLAYER
 49
-0.5
 62
   256
  6
BYLAYER
  0
ENDSEC
  0
EOF
