  0
SECTION
  2
HEADER
  9
$ACADVER
  1
AC1027
  9
$ACADMAINTVER
 70
     8
  9
$DWGCODEPAGE
  3
ANSI_1252
  9
$REQUIREDVERSIONS
160
                 0
  9
$LASTSAVEDBY
  1
Igor
  9
$INSBASE
 10
0.0
 20
0.0
 30
0.0
  9
$EXTMIN
 10
7.683230401529666
 20
7.43579407265775
 30
0.0
  9
$EXTMAX
 10
192.6832304015297
 20
86.93579407265773
 30
0.0
  9
$LIMMIN
 10
0.0
 20
0.0
  9
$LIMMAX
 10
12.0
 20
9.0
  9
$ORTHOMODE
 70
     0
  9
$REGENMODE
 70
     1
  9
$FILLMODE
 70
     1
  9
$QTEXTMODE
 70
     0
  9
$MIRRTEXT
 70
     1
  9
$LTSCALE
 40
1.0
  9
$ATTMODE
 70
     1
  9
$TEXTSIZE
 40
0.2
  9
$TRACEWID
 40
0.05
  9
$TEXTSTYLE
  7
Standard
  9
$CLAYER
  8
0
  9
$CELTYPE
  6
ByBlock
  9
$CECOLOR
 62
   256
  9
$CELTSCALE
 40
1.0
  9
$DISPSILH
 70
     0
  9
$DIMSCALE
 40
1.0
  9
$DIMASZ
 40
0.18
  9
$DIMEXO
 40
0.0625
  9
$DIMDLI
 40
0.38
  9
$DIMRND
 40
0.0
  9
$DIMDLE
 40
0.0
  9
$DIMEXE
 40
0.18
  9
$DIMTP
 40
0.0
  9
$DIMTM
 40
0.0
  9
$DIMTXT
 40
0.18
  9
$DIMCEN
 40
0.09
  9
$DIMTSZ
 40
0.0
  9
$DIMTOL
 70
     0
  9
$DIMLIM
 70
     0
  9
$DIMTIH
 70
     1
  9
$DIMTOH
 70
     1
  9
$DIMSE1
 70
     0
  9
$DIMSE2
 70
     0
  9
$DIMTAD
 70
     0
  9
$DIMZIN
 70
     0
  9
$DIMBLK
  1

  9
$DIMASO
 70
     1
  9
$DIMSHO
 70
     1
  9
$DIMPOST
  1

  9
$DIMAPOST
  1

  9
$DIMALT
 70
     0
  9
$DIMALTD
 70
     2
  9
$DIMALTF
 40
25.4
  9
$DIMLFAC
 40
1.0
  9
$DIMTOFL
 70
     0
  9
$DIMTVP
 40
0.0
  9
$DIMTIX
 70
     0
  9
$DIMSOXD
 70
     0
  9
$DIMSAH
 70
     0
  9
$DIMBLK1
  1

  9
$DIMBLK2
  1

  9
$DIMSTYLE
  2
Standard
  9
$DIMCLRD
 70
     0
  9
$DIMCLRE
 70
     0
  9
$DIMCLRT
 70
     0
  9
$DIMTFAC
 40
1.0
  9
$DIMGAP
 40
0.09
  9
$DIMJUST
 70
     0
  9
$DIMSD1
 70
     0
  9
$DIMSD2
 70
     0
  9
$DIMTOLJ
 70
     1
  9
$DIMTZIN
 70
     0
  9
$DIMALTZ
 70
     0
  9
$DIMALTTZ
 70
     0
  9
$DIMUPT
 70
     0
  9
$DIMDEC
 70
     4
  9
$DIMTDEC
 70
     4
  9
$DIMALTU
 70
     2
  9
$DIMALTTD
 70
     2
  9
$DIMTXSTY
  7
Standard
  9
$DIMAUNIT
 70
     0
  9
$DIMADEC
 70
     0
  9
$DIMALTRND
 40
0.0
  9
$DIMAZIN
 70
     0
  9
$DIMDSEP
 70
    46
  9
$DIMATFIT
 70
     3
  9
$DIMFRAC
 70
     0
  9
$DIMLDRBLK
  1

  9
$DIMLUNIT
 70
     2
  9
$DIMLWD
 70
    -2
  9
$DIMLWE
 70
    -2
  9
$DIMTMOVE
 70
     2
  9
$DIMFXL
 40
1.0
  9
$DIMFXLON
 70
     0
  9
$DIMJOGANG
 40
0.7853981633974483
  9
$DIMTFILL
 70
     0
  9
$DIMTFILLCLR
 70
     0
  9
$DIMARCSYM
 70
     0
  9
$DIMLTYPE
  6

  9
$DIMLTEX1
  6

  9
$DIMLTEX2
  6

  9
$DIMTXTDIRECTION
 70
     0
  9
$LUNITS
 70
     2
  9
$LUPREC
 70
     4
  9
$SKETCHINC
 40
0.1
  9
$FILLETRAD
 40
0.5
  9
$AUNITS
 70
     0
  9
$AUPREC
 70
     0
  9
$MENU
  1
.
  9
$ELEVATION
 40
0.0
  9
$PELEVATION
 40
0.0
  9
$THICKNESS
 40
0.0
  9
$LIMCHECK
 70
     0
  9
$CHAMFERA
 40
0.0
  9
$CHAMFERB
 40
0.0
  9
$CHAMFERC
 40
0.0
  9
$CHAMFERD
 40
0.0
  9
$SKPOLY
 70
     0
  9
$TDCREATE
 40
2457627.814168542
  9
$TDUCREATE
 40
2457627.939168542
  9
$TDUPDATE
 40
2457628.633118877
  9
$TDUUPDATE
 40
2457628.758118877
  9
$TDINDWG
 40
0.0029622338
  9
$TDUSRTIMER
 40
2457628.757705752
  9
$USRTIMER
 70
     1
  9
$ANGBASE
 50
0.0
  9
$ANGDIR
 70
     0
  9
$PDMODE
 70
     0
  9
$PDSIZE
 40
0.0
  9
$PLINEWID
 40
0.0
  9
$SPLFRAME
 70
     0
  9
$SPLINETYPE
 70
     6
  9
$SPLINESEGS
 70
     8
  9
$HANDSEED
  5
23F
  9
$SURFTAB1
 70
     6
  9
$SURFTAB2
 70
     6
  9
$SURFTYPE
 70
     6
  9
$SURFU
 70
     6
  9
$SURFV
 70
     6
  9
$UCSBASE
  2

  9
$UCSNAME
  2

  9
$UCSORG
 10
0.0
 20
0.0
 30
0.0
  9
$UCSXDIR
 10
1.0
 20
0.0
 30
0.0
  9
$UCSYDIR
 10
0.0
 20
1.0
 30
0.0
  9
$UCSORTHOREF
  2

  9
$UCSORTHOVIEW
 70
     0
  9
$UCSORGTOP
 10
0.0
 20
0.0
 30
0.0
  9
$UCSORGBOTTOM
 10
0.0
 20
0.0
 30
0.0
  9
$UCSORGLEFT
 10
0.0
 20
0.0
 30
0.0
  9
$UCSORGRIGHT
 10
0.0
 20
0.0
 30
0.0
  9
$UCSORGFRONT
 10
0.0
 20
0.0
 30
0.0
  9
$UCSORGBACK
 10
0.0
 20
0.0
 30
0.0
  9
$PUCSBASE
  2

  9
$PUCSNAME
  2

  9
$PUCSORG
 10
0.0
 20
0.0
 30
0.0
  9
$PUCSXDIR
 10
1.0
 20
0.0
 30
0.0
  9
$PUCSYDIR
 10
0.0
 20
1.0
 30
0.0
  9
$PUCSORTHOREF
  2

  9
$PUCSORTHOVIEW
 70
     0
  9
$PUCSORGTOP
 10
0.0
 20
0.0
 30
0.0
  9
$PUCSORGBOTTOM
 10
0.0
 20
0.0
 30
0.0
  9
$PUCSORGLEFT
 10
0.0
 20
0.0
 30
0.0
  9
$PUCSORGRIGHT
 10
0.0
 20
0.0
 30
0.0
  9
$PUCSORGFRONT
 10
0.0
 20
0.0
 30
0.0
  9
$PUCSORGBACK
 10
0.0
 20
0.0
 30
0.0
  9
$USERI1
 70
     0
  9
$USERI2
 70
     0
  9
$USERI3
 70
     0
  9
$USERI4
 70
     0
  9
$USERI5
 70
     0
  9
$USERR1
 40
0.0
  9
$USERR2
 40
0.0
  9
$USERR3
 40
0.0
  9
$USERR4
 40
0.0
  9
$USERR5
 40
0.0
  9
$WORLDVIEW
 70
     1
  9
$SHADEDGE
 70
     3
  9
$SHADEDIF
 70
    70
  9
$TILEMODE
 70
     1
  9
$MAXACTVP
 70
    64
  9
$PINSBASE
 10
0.0
 20
0.0
 30
0.0
  9
$PLIMCHECK
 70
     0
  9
$PEXTMIN
 10
1.000000000000000E+20
 20
1.000000000000000E+20
 30
1.000000000000000E+20
  9
$PEXTMAX
 10
-1.000000000000000E+20
 20
-1.000000000000000E+20
 30
-1.000000000000000E+20
  9
$PLIMMIN
 10
0.0
 20
0.0
  9
$PLIMMAX
 10
0.0
 20
0.0
  9
$UNITMODE
 70
     0
  9
$VISRETAIN
 70
     1
  9
$PLINEGEN
 70
     0
  9
$PSLTSCALE
 70
     1
  9
$TREEDEPTH
 70
  3020
  9
$CMLSTYLE
  2
Standard
  9
$CMLJUST
 70
     0
  9
$CMLSCALE
 40
1.0
  9
$PROXYGRAPHICS
 70
     1
  9
$MEASUREMENT
 70
     0
  9
$CELWEIGHT
370
    -1
  9
$ENDCAPS
280
     0
  9
$JOINSTYLE
280
     0
  9
$LWDISPLAY
290
     0
  9
$INSUNITS
 70
     0
  9
$HYPERLINKBASE
  1

  9
$STYLESHEET
  1

  9
$XEDIT
290
     1
  9
$CEPSNTYPE
380
     0
  9
$PSTYLEMODE
290
     1
  9
$FINGERPRINTGUID
  2
{1E3AAC5F-EE7C-42DE-AAA5-F22E85FDE6A1}
  9
$VERSIONGUID
  2
{FAEB1C32-E019-11D5-929B-00C0DF256EC4}
  9
$EXTNAMES
290
     1
  9
$PSVPSCALE
 40
0.0
  9
$OLESTARTUP
290
     0
  9
$SORTENTS
280
   127
  9
$INDEXCTL
280
     0
  9
$HIDETEXT
280
     1
  9
$XCLIPFRAME
280
     2
  9
$HALOGAP
280
     0
  9
$OBSCOLOR
 70
   257
  9
$OBSLTYPE
280
     0
  9
$INTERSECTIONDISPLAY
280
     0
  9
$INTERSECTIONCOLOR
 70
   257
  9
$DIMASSOC
280
     2
  9
$PROJECTNAME
  1

  9
$CAMERADISPLAY
290
     0
  9
$LENSLENGTH
 40
50.0
  9
$CAMERAHEIGHT
 40
0.0
  9
$STEPSPERSEC
 40
2.0
  9
$STEPSIZE
 40
6.0
  9
$3DDWFPREC
 40
2.0
  9
$PSOLWIDTH
 40
0.25
  9
$PSOLHEIGHT
 40
4.0
  9
$LOFTANG1
 40
1.570796326794897
  9
$LOFTANG2
 40
1.570796326794897
  9
$LOFTMAG1
 40
0.0
  9
$LOFTMAG2
 40
0.0
  9
$LOFTPARAM
 70
     7
  9
$LOFTNORMALS
280
     1
  9
$LATITUDE
 40
37.795
  9
$LONGITUDE
 40
-122.394
  9
$NORTHDIRECTION
 40
0.0
  9
$TIMEZONE
 70
 -8000
  9
$LIGHTGLYPHDISPLAY
280
     1
  9
$TILEMODELIGHTSYNCH
280
     1
  9
$SOLIDHIST
280
     0
  9
$SHOWHIST
280
     1
  9
$DWFFRAME
280
     2
  9
$DGNFRAME
280
     2
  9
$REALWORLDSCALE
290
     1
  9
$INTERFERECOLOR
 62
   256
  9
$CSHADOW
280
     0
  9
$SHADOWPLANELOCATION
 40
0.0
  0
ENDSEC
  0
SECTION
  2
CLASSES
  0
CLASS
  1
ACDBDICTIONARYWDFLT
  2
AcDbDictionaryWithDefault
  3
ObjectDBX Classes
 90
        0
 91
        6
280
     0
281
     0
  0
CLASS
  1
SCALE
  2
AcDbScale
  3
ObjectDBX Classes
 90
     1153
 91
        6
280
     0
281
     0
  0
CLASS
  1
VISUALSTYLE
  2
AcDbVisualStyle
  3
ObjectDBX Classes
 90
     4095
 91
        6
280
     0
281
     0
  0
CLASS
  1
MATERIAL
  2
AcDbMaterial
  3
ObjectDBX Classes
 90
     1153
 91
        6
280
     0
281
     0
  0
CLASS
  1
TABLESTYLE
  2
AcDbTableStyle
  3
ObjectDBX Classes
 90
     4095
 91
        6
280
     0
281
     0
  0
CLASS
  1
MLEADERSTYLE
  2
AcDbMLeaderStyle
  3
ACDB_MLEADERSTYLE_CLASS
 90
     4095
 91
        6
280
     0
281
     0
  0
CLASS
  1
SUN
  2
AcDbSun
  3
SCENEOE
 90
     1153
 91
        6
280
     0
281
     0
  0
CLASS
  1
RASTERVARIABLES
  2
AcDbRasterVariables
  3
ISM
 90
        0
 91
        6
280
     0
281
     0
  0
CLASS
  1
DICTIONARYVAR
  2
AcDbDictionaryVar
  3
ObjectDBX Classes
 90
        0
 91
        6
280
     0
281
     0
  0
CLASS
  1
CELLSTYLEMAP
  2
AcDbCellStyleMap
  3
ObjectDBX Classes
 90
     1152
 91
        6
280
     0
281
     0
  0
ENDSEC
  0
SECTION
  2
TABLES
  0
TABLE
  2
VPORT
  5
8
330
0
100
AcDbSymbolTable
 70
     1
  0
VPORT
  5
157
330
8
100
AcDbSymbolTableRecord
100
AcDbViewportTableRecord
  2
*Active
 70
     0
 10
0.0
 20
0.0
 11
1.0
 21
1.0
 12
119.2027471892926
 22
60.90386552413003
 13
0.0
 23
0.0
 14
0.5
 24
0.5
 15
0.5
 25
0.5
 16
0.0
 26
0.0
 36
1.0
 17
0.0
 27
0.0
 37
0.0
 40
120.768
 41
2.579349904397706
 42
50.0
 43
0.0
 44
0.0
 50
0.0
 51
0.0
 71
    16
 72
   100
 73
     1
 74
     3
 75
     0
 76
     0
 77
     0
 78
     0
281
     0
 65
     1
110
0.0
120
0.0
130
0.0
111
1.0
121
0.0
131
0.0
112
0.0
122
1.0
132
0.0
 79
     0
146
0.0
348
183
 60
     3
 61
     5
292
     1
282
     1
141
0.0
142
0.0
 63
   250
361
1A0
  0
ENDTAB
  0
TABLE
  2
LTYPE
  5
5
330
0
100
AcDbSymbolTable
 70
     1
  0
LTYPE
  5
14
330
5
100
AcDbSymbolTableRecord
100
AcDbLinetypeTableRecord
  2
ByBlock
 70
     0
  3

 72
    65
 73
     0
 40
0.0
  0
LTYPE
  5
15
330
5
100
AcDbSymbolTableRecord
100
AcDbLinetypeTableRecord
  2
ByLayer
 70
     0
  3

 72
    65
 73
     0
 40
0.0
  0
LTYPE
  5
16
330
5
100
AcDbSymbolTableRecord
100
AcDbLinetypeTableRecord
  2
Continuous
 70
     0
  3
Solid line
 72
    65
 73
     0
 40
0.0
  0
ENDTAB
  0
TABLE
  2
LAYER
  5
2
330
0
100
AcDbSymbolTable
 70
     1
  0
LAYER
  5
10
330
2
100
AcDbSymbolTableRecord
100
AcDbLayerTableRecord
  2
0
 70
     0
 62
     7
  6
Continuous
370
    -3
390
F
347
19A
348
0
  0
ENDTAB
  0
TABLE
  2
STYLE
  5
3
330
0
100
AcDbSymbolTable
 70
     1
  0
STYLE
  5
11
330
3
100
AcDbSymbolTableRecord
100
AcDbTextStyleTableRecord
  2
Standard
 70
     0
 40
0.0
 41
1.0
 50
0.0
 71
     0
 42
0.2
  3
txt
  4

  0
ENDTAB
  0
TABLE
  2
VIEW
  5
6
330
0
100
AcDbSymbolTable
 70
     0
  0
ENDTAB
  0
TABLE
  2
UCS
  5
7
330
0
100
AcDbSymbolTable
 70
     0
  0
ENDTAB
  0
TABLE
  2
APPID
  5
9
330
0
100
AcDbSymbolTable
 70
     1
  0
APPID
  5
12
330
9
100
AcDbSymbolTableRecord
100
AcDbRegAppTableRecord
  2
ACAD
 70
     0
  0
ENDTAB
  0
TABLE
  2
DIMSTYLE
  5
A
330
0
100
AcDbSymbolTable
 70
     1
100
AcDbDimStyleTable
  0
DIMSTYLE
105
20
330
A
100
AcDbSymbolTableRecord
100
AcDbDimStyleTableRecord
  2
Standard
 70
     0
178
     0
340
11
  0
ENDTAB
  0
TABLE
  2
BLOCK_RECORD
  5
1
330
0
100
AcDbSymbolTable
 70
     0
  0
BLOCK_RECORD
  5
1D
330
1
100
AcDbSymbolTableRecord
100
AcDbBlockTableRecord
  2
*Model_Space
340
1E
 70
     0
280
     1
281
     0
  0
BLOCK_RECORD
  5
1B
330
1
100
AcDbSymbolTableRecord
100
AcDbBlockTableRecord
  2
*Paper_Space
340
1C
 70
     0
280
     1
281
     0
  0
ENDTAB
  0
ENDSEC
  0
SECTION
  2
BLOCKS
  0
BLOCK
  5
17A
330
1D
100
AcDbEntity
  8
0
100
AcDbBlockBegin
  2
*Model_Space
 70
     0
 10
0.0
 20
0.0
 30
0.0
  3
*Model_Space
  1
*Model_Space
  0
ENDBLK
  5
17B
330
1D
100
AcDbEntity
  8
0
100
AcDbBlockEnd
  0
BLOCK
  5
17C
330
1B
100
AcDbEntity
 67
     1
  8
0
100
AcDbBlockBegin
  2
*Paper_Space
 70
     0
 10
0.0
 20
0.0
 30
0.0
  3
*Paper_Space
  1
*Paper_Space
  0
ENDBLK
  5
17D
330
1B
100
AcDbEntity
 67
     1
  8
0
100
AcDbBlockEnd
  0
ENDSEC
  0
SECTION
  2
ENTITIES
  0
LINE
  5
21
330
1D
100
AcDbEntity
  8
0
100
AcDbLine
 10
167.6832304015297
 20
80.93579407265773
 30
0.0
 11
167.6832304015297
 21
86.93579407265773
 31
0.0
  0
LINE
  5
22
330
1D
100
AcDbEntity
  8
0
100
AcDbLine
 10
167.6832304015297
 20
86.93579407265773
 30
0.0
 11
147.6832304015297
 21
86.93579407265773
 31
0.0
  0
LINE
  5
23
330
1D
100
AcDbEntity
  8
0
100
AcDbLine
 10
147.6832304015297
 20
86.93579407265773
 30
0.0
 11
147.6832304015297
 21
80.93579407265773
 31
0.0
  0
LINE
  5
24
330
1D
100
AcDbEntity
  8
0
100
AcDbLine
 10
147.6832304015297
 20
80.93579407265773
 30
0.0
 11
117.6832304015297
 21
80.93579407265773
 31
0.0
  0
LINE
  5
25
330
1D
100
AcDbEntity
  8
0
100
AcDbLine
 10
117.6832304015297
 20
80.93579407265773
 30
0.0
 11
117.6832304015297
 21
86.93579407265773
 31
0.0
  0
LINE
  5
26
330
1D
100
AcDbEntity
  8
0
100
AcDbLine
 10
117.6832304015297
 20
86.93579407265773
 30
0.0
 11
97.68325040152968
 21
86.93579407265773
 31
0.0
  0
LINE
  5
27
330
1D
100
AcDbEntity
  8
0
100
AcDbLine
 10
97.68325040152968
 20
86.93579407265773
 30
0.0
 11
97.68325040152968
 21
80.93579407265773
 31
0.0
  0
LINE
  5
28
330
1D
100
AcDbEntity
  8
0
100
AcDbLine
 10
97.68325040152968
 20
80.93579407265773
 30
0.0
 11
67.68323040152967
 21
80.93579407265773
 31
0.0
  0
LINE
  5
29
330
1D
100
AcDbEntity
  8
0
100
AcDbLine
 10
67.68323040152967
 20
80.93579407265773
 30
0.0
 11
67.68323040152967
 21
86.93579407265773
 31
0.0
  0
LINE
  5
2A
330
1D
100
AcDbEntity
  8
0
100
AcDbLine
 10
67.68323040152967
 20
86.93579407265773
 30
0.0
 11
47.68323040152967
 21
86.93579407265773
 31
0.0
  0
LINE
  5
2B
330
1D
100
AcDbEntity
  8
0
100
AcDbLine
 10
47.68323040152967
 20
86.93579407265773
 30
0.0
 11
47.68323040152967
 21
80.93579407265773
 31
0.0
  0
LINE
  5
2C
330
1D
100
AcDbEntity
  8
0
100
AcDbLine
 10
47.68323040152967
 20
80.93579407265773
 30
0.0
 11
7.68323040152967
 21
80.93579407265773
 31
0.0
  0
LINE
  5
2D
330
1D
100
AcDbEntity
  8
0
100
AcDbLine
 10
7.68323040152967
 20
80.93579407265773
 30
0.0
 11
7.68323040152967
 21
13.43579407265775
 31
0.0
  0
LINE
  5
2E
330
1D
100
AcDbEntity
  8
0
100
AcDbLine
 10
7.68323040152967
 20
13.43579407265775
 30
0.0
 11
25.98493040152965
 21
13.43579407265775
 31
0.0
  0
LINE
  5
2F
330
1D
100
AcDbEntity
  8
0
100
AcDbLine
 10
25.98493040152965
 20
13.43579407265775
 30
0.0
 11
25.88393040152965
 21
12.77379407265772
 31
0.0
  0
LINE
  5
30
330
1D
100
AcDbEntity
  8
0
100
AcDbLine
 10
25.88393040152965
 20
12.77379407265772
 30
0.0
 11
25.8040304015297
 21
12.10979407265773
 31
0.0
  0
LINE
  5
31
330
1D
100
AcDbEntity
  8
0
100
AcDbLine
 10
25.8040304015297
 20
12.10979407265773
 30
0.0
 11
25.74543040152969
 21
11.44379407265773
 31
0.0
  0
LINE
  5
32
330
1D
100
AcDbEntity
  8
0
100
AcDbLine
 10
25.74543040152969
 20
11.44379407265773
 30
0.0
 11
25.7080304015297
 21
10.77479407265775
 31
0.0
  0
LINE
  5
33
330
1D
100
AcDbEntity
  8
0
100
AcDbLine
 10
25.7080304015297
 20
10.77479407265775
 30
0.0
 11
25.6919304015297
 21
10.10679407265774
 31
0.0
  0
LINE
  5
34
330
1D
100
AcDbEntity
  8
0
100
AcDbLine
 10
25.6919304015297
 20
10.10679407265774
 30
0.0
 11
25.69713040152971
 21
9.436794072657726
 31
0.0
  0
LINE
  5
35
330
1D
100
AcDbEntity
  8
0
100
AcDbLine
 10
25.69713040152971
 20
9.436794072657726
 30
0.0
 11
25.72363040152965
 21
8.76879407265772
 31
0.0
  0
LINE
  5
36
330
1D
100
AcDbEntity
  8
0
100
AcDbLine
 10
25.72363040152965
 20
8.76879407265772
 30
0.0
 11
25.77153040152967
 21
8.100794072657713
 31
0.0
  0
LINE
  5
37
330
1D
100
AcDbEntity
  8
0
100
AcDbLine
 10
25.77153040152967
 20
8.100794072657713
 30
0.0
 11
25.84053040152969
 21
7.43579407265775
 31
0.0
  0
LINE
  5
38
330
1D
100
AcDbEntity
  8
0
100
AcDbLine
 10
25.84053040152969
 20
7.43579407265775
 30
0.0
 11
39.05513040152965
 21
7.43579407265775
 31
0.0
  0
LINE
  5
39
330
1D
100
AcDbEntity
  8
0
100
AcDbLine
 10
39.05513040152965
 20
7.43579407265775
 30
0.0
 11
39.05513040152965
 21
13.43579407265775
 31
0.0
  0
LINE
  5
3A
330
1D
100
AcDbEntity
  8
0
100
AcDbLine
 10
39.05513040152965
 20
13.43579407265775
 30
0.0
 11
39.24683040152968
 21
13.82679407265771
 31
0.0
  0
LINE
  5
3B
330
1D
100
AcDbEntity
  8
0
100
AcDbLine
 10
39.24683040152968
 20
13.82679407265771
 30
0.0
 11
39.45853040152969
 21
14.20779407265774
 31
0.0
  0
LINE
  5
3C
330
1D
100
AcDbEntity
  8
0
100
AcDbLine
 10
39.45853040152969
 20
14.20779407265774
 30
0.0
 11
39.68973040152969
 21
14.57679407265771
 31
0.0
  0
LINE
  5
3D
330
1D
100
AcDbEntity
  8
0
100
AcDbLine
 10
39.68973040152969
 20
14.57679407265771
 30
0.0
 11
39.93973040152969
 21
14.93379407265774
 31
0.0
  0
LINE
  5
3E
330
1D
100
AcDbEntity
  8
0
100
AcDbLine
 10
39.93973040152969
 20
14.93379407265774
 30
0.0
 11
40.20793040152967
 21
15.27679407265776
 31
0.0
  0
LINE
  5
3F
330
1D
100
AcDbEntity
  8
0
100
AcDbLine
 10
40.20793040152967
 20
15.27679407265776
 30
0.0
 11
40.49353040152965
 21
15.60579407265771
 31
0.0
  0
LINE
  5
40
330
1D
100
AcDbEntity
  8
0
100
AcDbLine
 10
40.49353040152965
 20
15.60579407265771
 30
0.0
 11
40.79583040152971
 21
15.91979407265773
 31
0.0
  0
LINE
  5
41
330
1D
100
AcDbEntity
  8
0
100
AcDbLine
 10
40.79583040152971
 20
15.91979407265773
 30
0.0
 11
41.11393040152967
 21
16.21679407265776
 31
0.0
  0
LINE
  5
42
330
1D
100
AcDbEntity
  8
0
100
AcDbLine
 10
41.11393040152967
 20
16.21679407265776
 30
0.0
 11
41.44703040152967
 21
16.49779407265776
 31
0.0
  0
LINE
  5
43
330
1D
100
AcDbEntity
  8
0
100
AcDbLine
 10
41.44703040152967
 20
16.49779407265776
 30
0.0
 11
41.79433040152969
 21
16.76079407265774
 31
0.0
  0
LINE
  5
44
330
1D
100
AcDbEntity
  8
0
100
AcDbLine
 10
41.79433040152969
 20
16.76079407265774
 30
0.0
 11
42.15473040152966
 21
17.00579407265774
 31
0.0
  0
LINE
  5
45
330
1D
100
AcDbEntity
  8
0
100
AcDbLine
 10
42.15473040152966
 20
17.00579407265774
 30
0.0
 11
42.5273304015297
 21
17.23079407265771
 31
0.0
  0
LINE
  5
46
330
1D
100
AcDbEntity
  8
0
100
AcDbLine
 10
42.5273304015297
 20
17.23079407265771
 30
0.0
 11
42.9111304015297
 21
17.43679407265773
 31
0.0
  0
LINE
  5
47
330
1D
100
AcDbEntity
  8
0
100
AcDbLine
 10
42.9111304015297
 20
17.43679407265773
 30
0.0
 11
43.30503040152968
 21
17.62279407265776
 31
0.0
  0
LINE
  5
48
330
1D
100
AcDbEntity
  8
0
100
AcDbLine
 10
43.30503040152968
 20
17.62279407265776
 30
0.0
 11
43.70813040152967
 21
17.78779407265773
 31
0.0
  0
LINE
  5
49
330
1D
100
AcDbEntity
  8
0
100
AcDbLine
 10
43.70813040152967
 20
17.78779407265773
 30
0.0
 11
44.11923040152971
 21
17.93179407265773
 31
0.0
  0
LINE
  5
4A
330
1D
100
AcDbEntity
  8
0
100
AcDbLine
 10
44.11923040152971
 20
17.93179407265773
 30
0.0
 11
44.53723040152971
 21
18.05479407265772
 31
0.0
  0
LINE
  5
4B
330
1D
100
AcDbEntity
  8
0
100
AcDbLine
 10
44.53723040152971
 20
18.05479407265772
 30
0.0
 11
44.96103040152968
 21
18.15579407265772
 31
0.0
  0
LINE
  5
4C
330
1D
100
AcDbEntity
  8
0
100
AcDbLine
 10
44.96103040152968
 20
18.15579407265772
 30
0.0
 11
45.38953040152967
 21
18.23379407265775
 31
0.0
  0
LINE
  5
4D
330
1D
100
AcDbEntity
  8
0
100
AcDbLine
 10
45.38953040152967
 20
18.23379407265775
 30
0.0
 11
45.82143040152965
 21
18.29079407265771
 31
0.0
  0
LINE
  5
4E
330
1D
100
AcDbEntity
  8
0
100
AcDbLine
 10
45.82143040152965
 20
18.29079407265771
 30
0.0
 11
46.25573040152966
 21
18.32479407265776
 31
0.0
  0
LINE
  5
4F
330
1D
100
AcDbEntity
  8
0
100
AcDbLine
 10
46.25573040152966
 20
18.32479407265776
 30
0.0
 11
46.69123040152971
 21
18.33579407265773
 31
0.0
  0
LINE
  5
50
330
1D
100
AcDbEntity
  8
0
100
AcDbLine
 10
46.69123040152971
 20
18.33579407265773
 30
0.0
 11
47.1267304015297
 21
18.32479407265776
 31
0.0
  0
LINE
  5
51
330
1D
100
AcDbEntity
  8
0
100
AcDbLine
 10
47.1267304015297
 20
18.32479407265776
 30
0.0
 11
47.56103040152971
 21
18.29079407265771
 31
0.0
  0
LINE
  5
52
330
1D
100
AcDbEntity
  8
0
100
AcDbLine
 10
47.56103040152971
 20
18.29079407265771
 30
0.0
 11
47.99293040152969
 21
18.23379407265775
 31
0.0
  0
LINE
  5
53
330
1D
100
AcDbEntity
  8
0
100
AcDbLine
 10
47.99293040152969
 20
18.23379407265775
 30
0.0
 11
48.42143040152968
 21
18.15579407265772
 31
0.0
  0
LINE
  5
54
330
1D
100
AcDbEntity
  8
0
100
AcDbLine
 10
48.42143040152968
 20
18.15579407265772
 30
0.0
 11
48.8452304015297
 21
18.05479407265772
 31
0.0
  0
LINE
  5
55
330
1D
100
AcDbEntity
  8
0
100
AcDbLine
 10
48.8452304015297
 20
18.05479407265772
 30
0.0
 11
49.26323040152971
 21
17.93179407265773
 31
0.0
  0
LINE
  5
56
330
1D
100
AcDbEntity
  8
0
100
AcDbLine
 10
49.26323040152971
 20
17.93179407265773
 30
0.0
 11
49.67433040152969
 21
17.78779407265773
 31
0.0
  0
LINE
  5
57
330
1D
100
AcDbEntity
  8
0
100
AcDbLine
 10
49.67433040152969
 20
17.78779407265773
 30
0.0
 11
50.07733040152965
 21
17.62279407265776
 31
0.0
  0
LINE
  5
58
330
1D
100
AcDbEntity
  8
0
100
AcDbLine
 10
50.07733040152965
 20
17.62279407265776
 30
0.0
 11
50.47133040152966
 21
17.43679407265773
 31
0.0
  0
LINE
  5
59
330
1D
100
AcDbEntity
  8
0
100
AcDbLine
 10
50.47133040152966
 20
17.43679407265773
 30
0.0
 11
50.85513040152966
 21
17.23079407265771
 31
0.0
  0
LINE
  5
5A
330
1D
100
AcDbEntity
  8
0
100
AcDbLine
 10
50.85513040152966
 20
17.23079407265771
 30
0.0
 11
51.2277304015297
 21
17.00579407265774
 31
0.0
  0
LINE
  5
5B
330
1D
100
AcDbEntity
  8
0
100
AcDbLine
 10
51.2277304015297
 20
17.00579407265774
 30
0.0
 11
51.58813040152967
 21
16.76079407265774
 31
0.0
  0
LINE
  5
5C
330
1D
100
AcDbEntity
  8
0
100
AcDbLine
 10
51.58813040152967
 20
16.76079407265774
 30
0.0
 11
51.93533040152971
 21
16.49779407265776
 31
0.0
  0
LINE
  5
5D
330
1D
100
AcDbEntity
  8
0
100
AcDbLine
 10
51.93533040152971
 20
16.49779407265776
 30
0.0
 11
52.26853040152969
 21
16.21679407265776
 31
0.0
  0
LINE
  5
5E
330
1D
100
AcDbEntity
  8
0
100
AcDbLine
 10
52.26853040152969
 20
16.21679407265776
 30
0.0
 11
52.5866304015297
 21
15.91979407265773
 31
0.0
  0
LINE
  5
5F
330
1D
100
AcDbEntity
  8
0
100
AcDbLine
 10
52.5866304015297
 20
15.91979407265773
 30
0.0
 11
52.88893040152971
 21
15.60579407265771
 31
0.0
  0
LINE
  5
60
330
1D
100
AcDbEntity
  8
0
100
AcDbLine
 10
52.88893040152971
 20
15.60579407265771
 30
0.0
 11
53.17453040152969
 21
15.27679407265776
 31
0.0
  0
LINE
  5
61
330
1D
100
AcDbEntity
  8
0
100
AcDbLine
 10
53.17453040152969
 20
15.27679407265776
 30
0.0
 11
53.44273040152967
 21
14.93379407265774
 31
0.0
  0
LINE
  5
62
330
1D
100
AcDbEntity
  8
0
100
AcDbLine
 10
53.44273040152967
 20
14.93379407265774
 30
0.0
 11
53.69273040152967
 21
14.57679407265771
 31
0.0
  0
LINE
  5
63
330
1D
100
AcDbEntity
  8
0
100
AcDbLine
 10
53.69273040152967
 20
14.57679407265771
 30
0.0
 11
53.9238304015297
 21
14.20779407265774
 31
0.0
  0
LINE
  5
64
330
1D
100
AcDbEntity
  8
0
100
AcDbLine
 10
53.9238304015297
 20
14.20779407265774
 30
0.0
 11
54.13563040152968
 21
13.82679407265771
 31
0.0
  0
LINE
  5
65
330
1D
100
AcDbEntity
  8
0
100
AcDbLine
 10
54.13563040152968
 20
13.82679407265771
 30
0.0
 11
54.32733040152965
 21
13.43579407265775
 31
0.0
  0
LINE
  5
66
330
1D
100
AcDbEntity
  8
0
100
AcDbLine
 10
54.32733040152965
 20
13.43579407265775
 30
0.0
 11
54.32733040152965
 21
7.43579407265775
 31
0.0
  0
LINE
  5
67
330
1D
100
AcDbEntity
  8
0
100
AcDbLine
 10
54.32733040152965
 20
7.43579407265775
 30
0.0
 11
67.54193040152967
 21
7.43579407265775
 31
0.0
  0
LINE
  5
68
330
1D
100
AcDbEntity
  8
0
100
AcDbLine
 10
67.54193040152967
 20
7.43579407265775
 30
0.0
 11
67.61093040152969
 21
8.100794072657713
 31
0.0
  0
LINE
  5
69
330
1D
100
AcDbEntity
  8
0
100
AcDbLine
 10
67.61093040152969
 20
8.100794072657713
 30
0.0
 11
67.65873040152968
 21
8.76879407265772
 31
0.0
  0
LINE
  5
6A
330
1D
100
AcDbEntity
  8
0
100
AcDbLine
 10
67.65873040152968
 20
8.76879407265772
 30
0.0
 11
67.68533040152968
 21
9.436794072657726
 31
0.0
  0
LINE
  5
6B
330
1D
100
AcDbEntity
  8
0
100
AcDbLine
 10
67.68533040152968
 20
9.436794072657726
 30
0.0
 11
67.69053040152968
 21
10.10679407265774
 31
0.0
  0
LINE
  5
6C
330
1D
100
AcDbEntity
  8
0
100
AcDbLine
 10
67.69053040152968
 20
10.10679407265774
 30
0.0
 11
67.67443040152969
 21
10.77479407265775
 31
0.0
  0
LINE
  5
6D
330
1D
100
AcDbEntity
  8
0
100
AcDbLine
 10
67.67443040152969
 20
10.77479407265775
 30
0.0
 11
67.63703040152967
 21
11.44379407265773
 31
0.0
  0
LINE
  5
6E
330
1D
100
AcDbEntity
  8
0
100
AcDbLine
 10
67.63703040152967
 20
11.44379407265773
 30
0.0
 11
67.57833040152968
 21
12.10979407265773
 31
0.0
  0
LINE
  5
6F
330
1D
100
AcDbEntity
  8
0
100
AcDbLine
 10
67.57833040152968
 20
12.10979407265773
 30
0.0
 11
67.49853040152968
 21
12.77379407265772
 31
0.0
  0
LINE
  5
70
330
1D
100
AcDbEntity
  8
0
100
AcDbLine
 10
67.49853040152968
 20
12.77379407265772
 30
0.0
 11
67.39753040152968
 21
13.43579407265775
 31
0.0
  0
LINE
  5
71
330
1D
100
AcDbEntity
  8
0
100
AcDbLine
 10
67.39753040152968
 20
13.43579407265775
 30
0.0
 11
97.68325040152968
 21
13.43579407265775
 31
0.0
  0
LINE
  5
72
330
1D
100
AcDbEntity
  8
0
100
AcDbLine
 10
97.68325040152968
 20
13.43579407265775
 30
0.0
 11
97.68325040152968
 21
7.43579407265775
 31
0.0
  0
LINE
  5
73
330
1D
100
AcDbEntity
  8
0
100
AcDbLine
 10
97.68325040152968
 20
7.43579407265775
 30
0.0
 11
117.6832304015297
 21
7.43579407265775
 31
0.0
  0
LINE
  5
74
330
1D
100
AcDbEntity
  8
0
100
AcDbLine
 10
117.6832304015297
 20
7.43579407265775
 30
0.0
 11
117.6832304015297
 21
13.43579407265775
 31
0.0
  0
LINE
  5
75
330
1D
100
AcDbEntity
  8
0
100
AcDbLine
 10
117.6832304015297
 20
13.43579407265775
 30
0.0
 11
147.6832304015297
 21
13.43579407265775
 31
0.0
  0
LINE
  5
76
330
1D
100
AcDbEntity
  8
0
100
AcDbLine
 10
147.6832304015297
 20
13.43579407265775
 30
0.0
 11
147.6832304015297
 21
7.43579407265775
 31
0.0
  0
LINE
  5
77
330
1D
100
AcDbEntity
  8
0
100
AcDbLine
 10
147.6832304015297
 20
7.43579407265775
 30
0.0
 11
167.6832304015297
 21
7.43579407265775
 31
0.0
  0
LINE
  5
78
330
1D
100
AcDbEntity
  8
0
100
AcDbLine
 10
167.6832304015297
 20
7.43579407265775
 30
0.0
 11
167.6832304015297
 21
13.43579407265775
 31
0.0
  0
LINE
  5
79
330
1D
100
AcDbEntity
  8
0
100
AcDbLine
 10
167.6832304015297
 20
13.43579407265775
 30
0.0
 11
192.6832304015297
 21
13.43579407265775
 31
0.0
  0
LINE
  5
7A
330
1D
100
AcDbEntity
  8
0
100
AcDbLine
 10
192.6832304015297
 20
13.43579407265775
 30
0.0
 11
192.6832304015297
 21
80.93579407265773
 31
0.0
  0
LINE
  5
7B
330
1D
100
AcDbEntity
  8
0
100
AcDbLine
 10
192.6832304015297
 20
80.93579407265773
 30
0.0
 11
167.6832304015297
 21
80.93579407265773
 31
0.0
  0
LINE
  5
7C
330
1D
100
AcDbEntity
  8
0
100
AcDbLine
 10
31.68843040152967
 20
17.34679407265775
 30
0.0
 11
31.68033040152966
 21
17.23279407265772
 31
0.0
  0
LINE
  5
7D
330
1D
100
AcDbEntity
  8
0
100
AcDbLine
 10
31.68033040152966
 20
17.23279407265772
 30
0.0
 11
31.6688304015297
 21
17.11179407265774
 31
0.0
  0
LINE
  5
7E
330
1D
100
AcDbEntity
  8
0
100
AcDbLine
 10
31.6688304015297
 20
17.11179407265774
 30
0.0
 11
31.65013040152968
 21
16.99879407265774
 31
0.0
  0
LINE
  5
7F
330
1D
100
AcDbEntity
  8
0
100
AcDbLine
 10
31.65013040152968
 20
16.99879407265774
 30
0.0
 11
31.62703040152968
 21
16.87879407265773
 31
0.0
  0
LINE
  5
80
330
1D
100
AcDbEntity
  8
0
100
AcDbLine
 10
31.62703040152968
 20
16.87879407265773
 30
0.0
 11
31.59803040152968
 21
16.76879407265772
 31
0.0
  0
LINE
  5
81
330
1D
100
AcDbEntity
  8
0
100
AcDbLine
 10
31.59803040152968
 20
16.76879407265772
 30
0.0
 11
31.5635304015297
 21
16.65179407265776
 31
0.0
  0
LINE
  5
82
330
1D
100
AcDbEntity
  8
0
100
AcDbLine
 10
31.5635304015297
 20
16.65179407265776
 30
0.0
 11
31.52433040152965
 21
16.54479407265773
 31
0.0
  0
LINE
  5
83
330
1D
100
AcDbEntity
  8
0
100
AcDbLine
 10
31.52433040152965
 20
16.54479407265773
 30
0.0
 11
31.47893040152968
 21
16.43079407265775
 31
0.0
  0
LINE
  5
84
330
1D
100
AcDbEntity
  8
0
100
AcDbLine
 10
31.47893040152968
 20
16.43079407265775
 30
0.0
 11
31.42963040152966
 21
16.32779407265775
 31
0.0
  0
LINE
  5
85
330
1D
100
AcDbEntity
  8
0
100
AcDbLine
 10
31.42963040152966
 20
16.32779407265775
 30
0.0
 11
31.37403040152969
 21
16.21979407265774
 31
0.0
  0
LINE
  5
86
330
1D
100
AcDbEntity
  8
0
100
AcDbLine
 10
31.37403040152969
 20
16.21979407265774
 30
0.0
 11
31.31483040152966
 21
16.12079407265775
 31
0.0
  0
LINE
  5
87
330
1D
100
AcDbEntity
  8
0
100
AcDbLine
 10
31.31483040152966
 20
16.12079407265775
 30
0.0
 11
31.24953040152968
 21
16.01979407265775
 31
0.0
  0
LINE
  5
88
330
1D
100
AcDbEntity
  8
0
100
AcDbLine
 10
31.24953040152968
 20
16.01979407265775
 30
0.0
 11
31.18123040152966
 21
15.92679407265774
 31
0.0
  0
LINE
  5
89
330
1D
100
AcDbEntity
  8
0
100
AcDbLine
 10
31.18123040152966
 20
15.92679407265774
 30
0.0
 11
31.10673040152966
 21
15.83179407265771
 31
0.0
  0
LINE
  5
8A
330
1D
100
AcDbEntity
  8
0
100
AcDbLine
 10
31.10673040152966
 20
15.83179407265771
 30
0.0
 11
31.03033040152968
 21
15.74579407265775
 31
0.0
  0
LINE
  5
8B
330
1D
100
AcDbEntity
  8
0
100
AcDbLine
 10
31.03033040152968
 20
15.74579407265775
 30
0.0
 11
30.94653040152969
 21
15.65779407265773
 31
0.0
  0
LINE
  5
8C
330
1D
100
AcDbEntity
  8
0
100
AcDbLine
 10
30.94653040152969
 20
15.65779407265773
 30
0.0
 11
30.86273040152969
 21
15.57979407265776
 31
0.0
  0
LINE
  5
8D
330
1D
100
AcDbEntity
  8
0
100
AcDbLine
 10
30.86273040152969
 20
15.57979407265776
 30
0.0
 11
30.77103040152969
 21
15.50079407265775
 31
0.0
  0
LINE
  5
8E
330
1D
100
AcDbEntity
  8
0
100
AcDbLine
 10
30.77103040152969
 20
15.50079407265775
 30
0.0
 11
30.6797304015297
 21
15.42979407265772
 31
0.0
  0
LINE
  5
8F
330
1D
100
AcDbEntity
  8
0
100
AcDbLine
 10
30.6797304015297
 20
15.42979407265772
 30
0.0
 11
30.58173040152968
 21
15.35979407265773
 31
0.0
  0
LINE
  5
90
330
1D
100
AcDbEntity
  8
0
100
AcDbLine
 10
30.58173040152968
 20
15.35979407265773
 30
0.0
 11
30.48363040152969
 21
15.29879407265775
 31
0.0
  0
LINE
  5
91
330
1D
100
AcDbEntity
  8
0
100
AcDbLine
 10
30.48363040152969
 20
15.29879407265775
 30
0.0
 11
30.3792304015297
 21
15.23779407265771
 31
0.0
  0
LINE
  5
92
330
1D
100
AcDbEntity
  8
0
100
AcDbLine
 10
30.3792304015297
 20
15.23779407265771
 30
0.0
 11
30.27633040152966
 21
15.18579407265775
 31
0.0
  0
LINE
  5
93
330
1D
100
AcDbEntity
  8
0
100
AcDbLine
 10
30.27633040152966
 20
15.18579407265775
 30
0.0
 11
30.16713040152968
 21
15.13579407265774
 31
0.0
  0
LINE
  5
94
330
1D
100
AcDbEntity
  8
0
100
AcDbLine
 10
30.16713040152968
 20
15.13579407265774
 30
0.0
 11
30.05883040152969
 21
15.09379407265771
 31
0.0
  0
LINE
  5
95
330
1D
100
AcDbEntity
  8
0
100
AcDbLine
 10
30.05883040152969
 20
15.09379407265771
 30
0.0
 11
29.94523040152967
 21
15.05379407265774
 31
0.0
  0
LINE
  5
96
330
1D
100
AcDbEntity
  8
0
100
AcDbLine
 10
29.94523040152967
 20
15.05379407265774
 30
0.0
 11
29.83463040152969
 21
15.02179407265776
 31
0.0
  0
LINE
  5
97
330
1D
100
AcDbEntity
  8
0
100
AcDbLine
 10
29.83463040152969
 20
15.02179407265776
 30
0.0
 11
29.71693040152968
 21
14.99379407265774
 31
0.0
  0
LINE
  5
98
330
1D
100
AcDbEntity
  8
0
100
AcDbLine
 10
29.71693040152968
 20
14.99379407265774
 30
0.0
 11
29.60433040152969
 21
14.97179407265775
 31
0.0
  0
LINE
  5
99
330
1D
100
AcDbEntity
  8
0
100
AcDbLine
 10
29.60433040152969
 20
14.97179407265775
 30
0.0
 11
29.48343040152969
 21
14.95479407265776
 31
0.0
  0
LINE
  5
9A
330
1D
100
AcDbEntity
  8
0
100
AcDbLine
 10
29.48343040152969
 20
14.95479407265776
 30
0.0
 11
29.36973040152969
 21
14.94379407265773
 31
0.0
  0
LINE
  5
9B
330
1D
100
AcDbEntity
  8
0
100
AcDbLine
 10
29.36973040152969
 20
14.94379407265773
 30
0.0
 11
29.24973040152969
 21
14.93879407265774
 31
0.0
  0
LINE
  5
9C
330
1D
100
AcDbEntity
  8
0
100
AcDbLine
 10
29.24973040152969
 20
14.93879407265774
 30
0.0
 11
29.13273040152967
 21
14.93879407265774
 31
0.0
  0
LINE
  5
9D
330
1D
100
AcDbEntity
  8
0
100
AcDbLine
 10
29.13273040152967
 20
14.93879407265774
 30
0.0
 11
29.01273040152967
 21
14.94379407265773
 31
0.0
  0
LINE
  5
9E
330
1D
100
AcDbEntity
  8
0
100
AcDbLine
 10
29.01273040152967
 20
14.94379407265773
 30
0.0
 11
28.8989304015297
 21
14.95479407265776
 31
0.0
  0
LINE
  5
9F
330
1D
100
AcDbEntity
  8
0
100
AcDbLine
 10
28.8989304015297
 20
14.95479407265776
 30
0.0
 11
28.77813040152967
 21
14.97179407265775
 31
0.0
  0
LINE
  5
A0
330
1D
100
AcDbEntity
  8
0
100
AcDbLine
 10
28.77813040152967
 20
14.97179407265775
 30
0.0
 11
28.66553040152968
 21
14.99379407265774
 31
0.0
  0
LINE
  5
A1
330
1D
100
AcDbEntity
  8
0
100
AcDbLine
 10
28.66553040152968
 20
14.99379407265774
 30
0.0
 11
28.54773040152969
 21
15.02179407265776
 31
0.0
  0
LINE
  5
A2
330
1D
100
AcDbEntity
  8
0
100
AcDbLine
 10
28.54773040152969
 20
15.02179407265776
 30
0.0
 11
28.43723040152969
 21
15.05379407265774
 31
0.0
  0
LINE
  5
A3
330
1D
100
AcDbEntity
  8
0
100
AcDbLine
 10
28.43723040152969
 20
15.05379407265774
 30
0.0
 11
28.32353040152969
 21
15.09379407265771
 31
0.0
  0
LINE
  5
A4
330
1D
100
AcDbEntity
  8
0
100
AcDbLine
 10
28.32353040152969
 20
15.09379407265771
 30
0.0
 11
28.21533040152968
 21
15.13579407265774
 31
0.0
  0
LINE
  5
A5
330
1D
100
AcDbEntity
  8
0
100
AcDbLine
 10
28.21533040152968
 20
15.13579407265774
 30
0.0
 11
28.1061304015297
 21
15.18579407265775
 31
0.0
  0
LINE
  5
A6
330
1D
100
AcDbEntity
  8
0
100
AcDbLine
 10
28.1061304015297
 20
15.18579407265775
 30
0.0
 11
28.00323040152966
 21
15.23779407265771
 31
0.0
  0
LINE
  5
A7
330
1D
100
AcDbEntity
  8
0
100
AcDbLine
 10
28.00323040152966
 20
15.23779407265771
 30
0.0
 11
27.89883040152966
 21
15.29879407265775
 31
0.0
  0
LINE
  5
A8
330
1D
100
AcDbEntity
  8
0
100
AcDbLine
 10
27.89883040152966
 20
15.29879407265775
 30
0.0
 11
27.80073040152968
 21
15.35979407265773
 31
0.0
  0
LINE
  5
A9
330
1D
100
AcDbEntity
  8
0
100
AcDbLine
 10
27.80073040152968
 20
15.35979407265773
 30
0.0
 11
27.70273040152966
 21
15.42979407265772
 31
0.0
  0
LINE
  5
AA
330
1D
100
AcDbEntity
  8
0
100
AcDbLine
 10
27.70273040152966
 20
15.42979407265772
 30
0.0
 11
27.61143040152967
 21
15.49979407265771
 31
0.0
  0
LINE
  5
AB
330
1D
100
AcDbEntity
  8
0
100
AcDbLine
 10
27.61143040152967
 20
15.49979407265771
 30
0.0
 11
27.5196304015297
 21
15.57979407265776
 31
0.0
  0
LINE
  5
AC
330
1D
100
AcDbEntity
  8
0
100
AcDbLine
 10
27.5196304015297
 20
15.57979407265776
 30
0.0
 11
27.43593040152967
 21
15.65779407265773
 31
0.0
  0
LINE
  5
AD
330
1D
100
AcDbEntity
  8
0
100
AcDbLine
 10
27.43593040152967
 20
15.65779407265773
 30
0.0
 11
27.35223040152965
 21
15.74579407265775
 31
0.0
  0
LINE
  5
AE
330
1D
100
AcDbEntity
  8
0
100
AcDbLine
 10
27.35223040152965
 20
15.74579407265775
 30
0.0
 11
27.27563040152967
 21
15.83179407265771
 31
0.0
  0
LINE
  5
AF
330
1D
100
AcDbEntity
  8
0
100
AcDbLine
 10
27.27563040152967
 20
15.83179407265771
 30
0.0
 11
27.2012304015297
 21
15.92679407265774
 31
0.0
  0
LINE
  5
B0
330
1D
100
AcDbEntity
  8
0
100
AcDbLine
 10
27.2012304015297
 20
15.92679407265774
 30
0.0
 11
27.13293040152968
 21
16.01979407265775
 31
0.0
  0
LINE
  5
B1
330
1D
100
AcDbEntity
  8
0
100
AcDbLine
 10
27.13293040152968
 20
16.01979407265775
 30
0.0
 11
27.06753040152967
 21
16.12179407265773
 31
0.0
  0
LINE
  5
B2
330
1D
100
AcDbEntity
  8
0
100
AcDbLine
 10
27.06753040152967
 20
16.12179407265773
 30
0.0
 11
27.00843040152967
 21
16.21979407265774
 31
0.0
  0
LINE
  5
B3
330
1D
100
AcDbEntity
  8
0
100
AcDbLine
 10
27.00843040152967
 20
16.21979407265774
 30
0.0
 11
26.9528304015297
 21
16.32779407265775
 31
0.0
  0
LINE
  5
B4
330
1D
100
AcDbEntity
  8
0
100
AcDbLine
 10
26.9528304015297
 20
16.32779407265775
 30
0.0
 11
26.90343040152965
 21
16.43179407265773
 31
0.0
  0
LINE
  5
B5
330
1D
100
AcDbEntity
  8
0
100
AcDbLine
 10
26.90343040152965
 20
16.43179407265773
 30
0.0
 11
26.85823040152968
 21
16.54479407265773
 31
0.0
  0
LINE
  5
B6
330
1D
100
AcDbEntity
  8
0
100
AcDbLine
 10
26.85823040152968
 20
16.54479407265773
 30
0.0
 11
26.81893040152971
 21
16.65179407265776
 31
0.0
  0
LINE
  5
B7
330
1D
100
AcDbEntity
  8
0
100
AcDbLine
 10
26.81893040152971
 20
16.65179407265776
 30
0.0
 11
26.78443040152968
 21
16.76879407265772
 31
0.0
  0
LINE
  5
B8
330
1D
100
AcDbEntity
  8
0
100
AcDbLine
 10
26.78443040152968
 20
16.76879407265772
 30
0.0
 11
26.75543040152968
 21
16.87879407265773
 31
0.0
  0
LINE
  5
B9
330
1D
100
AcDbEntity
  8
0
100
AcDbLine
 10
26.75543040152968
 20
16.87879407265773
 30
0.0
 11
26.73233040152968
 21
16.99879407265774
 31
0.0
  0
LINE
  5
BA
330
1D
100
AcDbEntity
  8
0
100
AcDbLine
 10
26.73233040152968
 20
16.99879407265774
 30
0.0
 11
26.71373040152969
 21
17.11079407265776
 31
0.0
  0
LINE
  5
BB
330
1D
100
AcDbEntity
  8
0
100
AcDbLine
 10
26.71373040152969
 20
17.11079407265776
 30
0.0
 11
26.70203040152967
 21
17.23279407265772
 31
0.0
  0
LINE
  5
BC
330
1D
100
AcDbEntity
  8
0
100
AcDbLine
 10
26.70203040152967
 20
17.23279407265772
 30
0.0
 11
26.69403040152969
 21
17.34679407265775
 31
0.0
  0
LINE
  5
BD
330
1D
100
AcDbEntity
  8
0
100
AcDbLine
 10
26.69403040152969
 20
17.34679407265775
 30
0.0
 11
26.69403040152969
 21
17.46879407265771
 31
0.0
  0
LINE
  5
BE
330
1D
100
AcDbEntity
  8
0
100
AcDbLine
 10
26.69403040152969
 20
17.46879407265771
 30
0.0
 11
26.69673040152969
 21
17.58279407265774
 31
0.0
  0
LINE
  5
BF
330
1D
100
AcDbEntity
  8
0
100
AcDbLine
 10
26.69673040152969
 20
17.58279407265774
 30
0.0
 11
26.70843040152971
 21
17.70479407265776
 31
0.0
  0
LINE
  5
C0
330
1D
100
AcDbEntity
  8
0
100
AcDbLine
 10
26.70843040152971
 20
17.70479407265776
 30
0.0
 11
26.72163040152969
 21
17.81679407265772
 31
0.0
  0
LINE
  5
C1
330
1D
100
AcDbEntity
  8
0
100
AcDbLine
 10
26.72163040152969
 20
17.81679407265772
 30
0.0
 11
26.7449304015297
 21
17.93779407265776
 31
0.0
  0
LINE
  5
C2
330
1D
100
AcDbEntity
  8
0
100
AcDbLine
 10
26.7449304015297
 20
17.93779407265776
 30
0.0
 11
26.76853040152969
 21
18.04879407265775
 31
0.0
  0
LINE
  5
C3
330
1D
100
AcDbEntity
  8
0
100
AcDbLine
 10
26.76853040152969
 20
18.04879407265775
 30
0.0
 11
26.80333040152965
 21
18.16679407265774
 31
0.0
  0
LINE
  5
C4
330
1D
100
AcDbEntity
  8
0
100
AcDbLine
 10
26.80333040152965
 20
18.16679407265774
 30
0.0
 11
26.83723040152967
 21
18.27479407265775
 31
0.0
  0
LINE
  5
C5
330
1D
100
AcDbEntity
  8
0
100
AcDbLine
 10
26.83723040152967
 20
18.27479407265775
 30
0.0
 11
26.8826304015297
 21
18.38779407265775
 31
0.0
  0
LINE
  5
C6
330
1D
100
AcDbEntity
  8
0
100
AcDbLine
 10
26.8826304015297
 20
18.38779407265775
 30
0.0
 11
26.92683040152968
 21
18.49279407265774
 31
0.0
  0
LINE
  5
C7
330
1D
100
AcDbEntity
  8
0
100
AcDbLine
 10
26.92683040152968
 20
18.49279407265774
 30
0.0
 11
27.03653040152966
 21
18.70179407265774
 31
0.0
  0
LINE
  5
C8
330
1D
100
AcDbEntity
  8
0
100
AcDbLine
 10
27.03653040152966
 20
18.70179407265774
 30
0.0
 11
27.16563040152965
 21
18.89979407265775
 31
0.0
  0
LINE
  5
C9
330
1D
100
AcDbEntity
  8
0
100
AcDbLine
 10
27.16563040152965
 20
18.89979407265775
 30
0.0
 11
27.31293040152968
 21
19.08479407265772
 31
0.0
  0
LINE
  5
CA
330
1D
100
AcDbEntity
  8
0
100
AcDbLine
 10
27.31293040152968
 20
19.08479407265772
 30
0.0
 11
27.47653040152971
 21
19.25379407265773
 31
0.0
  0
LINE
  5
CB
330
1D
100
AcDbEntity
  8
0
100
AcDbLine
 10
27.47653040152971
 20
19.25379407265773
 30
0.0
 11
27.65563040152966
 21
19.40779407265773
 31
0.0
  0
LINE
  5
CC
330
1D
100
AcDbEntity
  8
0
100
AcDbLine
 10
27.65563040152966
 20
19.40779407265773
 30
0.0
 11
27.84903040152966
 21
19.54379407265773
 31
0.0
  0
LINE
  5
CD
330
1D
100
AcDbEntity
  8
0
100
AcDbLine
 10
27.84903040152966
 20
19.54379407265773
 30
0.0
 11
28.05373040152966
 21
19.66179407265772
 31
0.0
  0
LINE
  5
CE
330
1D
100
AcDbEntity
  8
0
100
AcDbLine
 10
28.05373040152966
 20
19.66179407265772
 30
0.0
 11
28.26913040152971
 21
19.75879407265773
 31
0.0
  0
LINE
  5
CF
330
1D
100
AcDbEntity
  8
0
100
AcDbLine
 10
28.26913040152971
 20
19.75879407265773
 30
0.0
 11
28.49193040152971
 21
19.83579407265773
 31
0.0
  0
LINE
  5
D0
330
1D
100
AcDbEntity
  8
0
100
AcDbLine
 10
28.49193040152971
 20
19.83579407265773
 30
0.0
 11
28.7218304015297
 21
19.89079407265773
 31
0.0
  0
LINE
  5
D1
330
1D
100
AcDbEntity
  8
0
100
AcDbLine
 10
28.7218304015297
 20
19.89079407265773
 30
0.0
 11
28.95473040152967
 21
19.92479407265773
 31
0.0
  0
LINE
  5
D2
330
1D
100
AcDbEntity
  8
0
100
AcDbLine
 10
28.95473040152967
 20
19.92479407265773
 30
0.0
 11
29.19123040152971
 21
19.93579407265772
 31
0.0
  0
LINE
  5
D3
330
1D
100
AcDbEntity
  8
0
100
AcDbLine
 10
29.19123040152971
 20
19.93579407265772
 30
0.0
 11
29.42773040152969
 21
19.92479407265773
 31
0.0
  0
LINE
  5
D4
330
1D
100
AcDbEntity
  8
0
100
AcDbLine
 10
29.42773040152969
 20
19.92479407265773
 30
0.0
 11
29.66063040152966
 21
19.89079407265773
 31
0.0
  0
LINE
  5
D5
330
1D
100
AcDbEntity
  8
0
100
AcDbLine
 10
29.66063040152966
 20
19.89079407265773
 30
0.0
 11
29.89043040152967
 21
19.83579407265773
 31
0.0
  0
LINE
  5
D6
330
1D
100
AcDbEntity
  8
0
100
AcDbLine
 10
29.89043040152967
 20
19.83579407265773
 30
0.0
 11
30.11333040152971
 21
19.75879407265773
 31
0.0
  0
LINE
  5
D7
330
1D
100
AcDbEntity
  8
0
100
AcDbLine
 10
30.11333040152971
 20
19.75879407265773
 30
0.0
 11
30.3287304015297
 21
19.66179407265772
 31
0.0
  0
LINE
  5
D8
330
1D
100
AcDbEntity
  8
0
100
AcDbLine
 10
30.3287304015297
 20
19.66179407265772
 30
0.0
 11
30.5334304015297
 21
19.54379407265773
 31
0.0
  0
LINE
  5
D9
330
1D
100
AcDbEntity
  8
0
100
AcDbLine
 10
30.5334304015297
 20
19.54379407265773
 30
0.0
 11
30.72673040152966
 21
19.40779407265773
 31
0.0
  0
LINE
  5
DA
330
1D
100
AcDbEntity
  8
0
100
AcDbLine
 10
30.72673040152966
 20
19.40779407265773
 30
0.0
 11
30.90573040152969
 21
19.25379407265773
 31
0.0
  0
LINE
  5
DB
330
1D
100
AcDbEntity
  8
0
100
AcDbLine
 10
30.90573040152969
 20
19.25379407265773
 30
0.0
 11
31.0694304015297
 21
19.08479407265772
 31
0.0
  0
LINE
  5
DC
330
1D
100
AcDbEntity
  8
0
100
AcDbLine
 10
31.0694304015297
 20
19.08479407265772
 30
0.0
 11
31.21683040152971
 21
18.89979407265775
 31
0.0
  0
LINE
  5
DD
330
1D
100
AcDbEntity
  8
0
100
AcDbLine
 10
31.21683040152971
 20
18.89979407265775
 30
0.0
 11
31.34583040152967
 21
18.70179407265774
 31
0.0
  0
LINE
  5
DE
330
1D
100
AcDbEntity
  8
0
100
AcDbLine
 10
31.34583040152967
 20
18.70179407265774
 30
0.0
 11
31.4555304015297
 21
18.49279407265774
 31
0.0
  0
LINE
  5
DF
330
1D
100
AcDbEntity
  8
0
100
AcDbLine
 10
31.4555304015297
 20
18.49279407265774
 30
0.0
 11
31.49963040152971
 21
18.38879407265772
 31
0.0
  0
LINE
  5
E0
330
1D
100
AcDbEntity
  8
0
100
AcDbLine
 10
31.49963040152971
 20
18.38879407265772
 30
0.0
 11
31.54523040152969
 21
18.27479407265775
 31
0.0
  0
LINE
  5
E1
330
1D
100
AcDbEntity
  8
0
100
AcDbLine
 10
31.54523040152969
 20
18.27479407265775
 30
0.0
 11
31.57903040152968
 21
18.16679407265774
 31
0.0
  0
LINE
  5
E2
330
1D
100
AcDbEntity
  8
0
100
AcDbLine
 10
31.57903040152968
 20
18.16679407265774
 30
0.0
 11
31.6138304015297
 21
18.04879407265775
 31
0.0
  0
LINE
  5
E3
330
1D
100
AcDbEntity
  8
0
100
AcDbLine
 10
31.6138304015297
 20
18.04879407265775
 30
0.0
 11
31.63753040152966
 21
17.93779407265776
 31
0.0
  0
LINE
  5
E4
330
1D
100
AcDbEntity
  8
0
100
AcDbLine
 10
31.63753040152966
 20
17.93779407265776
 30
0.0
 11
31.66083040152967
 21
17.81779407265775
 31
0.0
  0
LINE
  5
E5
330
1D
100
AcDbEntity
  8
0
100
AcDbLine
 10
31.66083040152967
 20
17.81779407265775
 30
0.0
 11
31.67413040152968
 21
17.70379407265772
 31
0.0
  0
LINE
  5
E6
330
1D
100
AcDbEntity
  8
0
100
AcDbLine
 10
31.67413040152968
 20
17.70379407265772
 30
0.0
 11
31.68573040152967
 21
17.58279407265774
 31
0.0
  0
LINE
  5
E7
330
1D
100
AcDbEntity
  8
0
100
AcDbLine
 10
31.68573040152967
 20
17.58279407265774
 30
0.0
 11
31.68843040152967
 21
17.46879407265771
 31
0.0
  0
LINE
  5
E8
330
1D
100
AcDbEntity
  8
0
100
AcDbLine
 10
31.68843040152967
 20
17.46879407265771
 30
0.0
 11
31.68843040152967
 21
17.34679407265775
 31
0.0
  0
LINE
  5
E9
330
1D
100
AcDbEntity
  8
0
100
AcDbLine
 10
66.68843040152967
 20
17.34679407265775
 30
0.0
 11
66.68033040152969
 21
17.23279407265772
 31
0.0
  0
LINE
  5
EA
330
1D
100
AcDbEntity
  8
0
100
AcDbLine
 10
66.68033040152969
 20
17.23279407265772
 30
0.0
 11
66.66883040152968
 21
17.11179407265774
 31
0.0
  0
LINE
  5
EB
330
1D
100
AcDbEntity
  8
0
100
AcDbLine
 10
66.66883040152968
 20
17.11179407265774
 30
0.0
 11
66.65013040152968
 21
16.99879407265774
 31
0.0
  0
LINE
  5
EC
330
1D
100
AcDbEntity
  8
0
100
AcDbLine
 10
66.65013040152968
 20
16.99879407265774
 30
0.0
 11
66.62703040152968
 21
16.87879407265773
 31
0.0
  0
LINE
  5
ED
330
1D
100
AcDbEntity
  8
0
100
AcDbLine
 10
66.62703040152968
 20
16.87879407265773
 30
0.0
 11
66.59803040152968
 21
16.76879407265772
 31
0.0
  0
LINE
  5
EE
330
1D
100
AcDbEntity
  8
0
100
AcDbLine
 10
66.59803040152968
 20
16.76879407265772
 30
0.0
 11
66.56353040152968
 21
16.65179407265776
 31
0.0
  0
LINE
  5
EF
330
1D
100
AcDbEntity
  8
0
100
AcDbLine
 10
66.56353040152968
 20
16.65179407265776
 30
0.0
 11
66.52433040152968
 21
16.54479407265773
 31
0.0
  0
LINE
  5
F0
330
1D
100
AcDbEntity
  8
0
100
AcDbLine
 10
66.52433040152968
 20
16.54479407265773
 30
0.0
 11
66.47893040152968
 21
16.43079407265775
 31
0.0
  0
LINE
  5
F1
330
1D
100
AcDbEntity
  8
0
100
AcDbLine
 10
66.47893040152968
 20
16.43079407265775
 30
0.0
 11
66.42963040152969
 21
16.32779407265775
 31
0.0
  0
LINE
  5
F2
330
1D
100
AcDbEntity
  8
0
100
AcDbLine
 10
66.42963040152969
 20
16.32779407265775
 30
0.0
 11
66.3740304015297
 21
16.21979407265774
 31
0.0
  0
LINE
  5
F3
330
1D
100
AcDbEntity
  8
0
100
AcDbLine
 10
66.3740304015297
 20
16.21979407265774
 30
0.0
 11
66.31483040152969
 21
16.12079407265775
 31
0.0
  0
LINE
  5
F4
330
1D
100
AcDbEntity
  8
0
100
AcDbLine
 10
66.31483040152969
 20
16.12079407265775
 30
0.0
 11
66.24953040152968
 21
16.01979407265775
 31
0.0
  0
LINE
  5
F5
330
1D
100
AcDbEntity
  8
0
100
AcDbLine
 10
66.24953040152968
 20
16.01979407265775
 30
0.0
 11
66.18123040152969
 21
15.92679407265774
 31
0.0
  0
LINE
  5
F6
330
1D
100
AcDbEntity
  8
0
100
AcDbLine
 10
66.18123040152969
 20
15.92679407265774
 30
0.0
 11
66.10673040152969
 21
15.83179407265771
 31
0.0
  0
LINE
  5
F7
330
1D
100
AcDbEntity
  8
0
100
AcDbLine
 10
66.10673040152969
 20
15.83179407265771
 30
0.0
 11
66.03033040152968
 21
15.74579407265775
 31
0.0
  0
LINE
  5
F8
330
1D
100
AcDbEntity
  8
0
100
AcDbLine
 10
66.03033040152968
 20
15.74579407265775
 30
0.0
 11
65.94653040152969
 21
15.65779407265773
 31
0.0
  0
LINE
  5
F9
330
1D
100
AcDbEntity
  8
0
100
AcDbLine
 10
65.94653040152969
 20
15.65779407265773
 30
0.0
 11
65.86273040152969
 21
15.57979407265776
 31
0.0
  0
LINE
  5
FA
330
1D
100
AcDbEntity
  8
0
100
AcDbLine
 10
65.86273040152969
 20
15.57979407265776
 30
0.0
 11
65.77103040152969
 21
15.50079407265775
 31
0.0
  0
LINE
  5
FB
330
1D
100
AcDbEntity
  8
0
100
AcDbLine
 10
65.77103040152969
 20
15.50079407265775
 30
0.0
 11
65.6797304015297
 21
15.42979407265772
 31
0.0
  0
LINE
  5
FC
330
1D
100
AcDbEntity
  8
0
100
AcDbLine
 10
65.6797304015297
 20
15.42979407265772
 30
0.0
 11
65.58173040152968
 21
15.35979407265773
 31
0.0
  0
LINE
  5
FD
330
1D
100
AcDbEntity
  8
0
100
AcDbLine
 10
65.58173040152968
 20
15.35979407265773
 30
0.0
 11
65.4836304015297
 21
15.29879407265775
 31
0.0
  0
LINE
  5
FE
330
1D
100
AcDbEntity
  8
0
100
AcDbLine
 10
65.4836304015297
 20
15.29879407265775
 30
0.0
 11
65.3792304015297
 21
15.23779407265771
 31
0.0
  0
LINE
  5
FF
330
1D
100
AcDbEntity
  8
0
100
AcDbLine
 10
65.3792304015297
 20
15.23779407265771
 30
0.0
 11
65.27633040152969
 21
15.18579407265775
 31
0.0
  0
LINE
  5
100
330
1D
100
AcDbEntity
  8
0
100
AcDbLine
 10
65.27633040152969
 20
15.18579407265775
 30
0.0
 11
65.16713040152968
 21
15.13579407265774
 31
0.0
  0
LINE
  5
101
330
1D
100
AcDbEntity
  8
0
100
AcDbLine
 10
65.16713040152968
 20
15.13579407265774
 30
0.0
 11
65.05883040152969
 21
15.09379407265771
 31
0.0
  0
LINE
  5
102
330
1D
100
AcDbEntity
  8
0
100
AcDbLine
 10
65.05883040152969
 20
15.09379407265771
 30
0.0
 11
64.94523040152967
 21
15.05379407265774
 31
0.0
  0
LINE
  5
103
330
1D
100
AcDbEntity
  8
0
100
AcDbLine
 10
64.94523040152967
 20
15.05379407265774
 30
0.0
 11
64.8346304015297
 21
15.02179407265776
 31
0.0
  0
LINE
  5
104
330
1D
100
AcDbEntity
  8
0
100
AcDbLine
 10
64.8346304015297
 20
15.02179407265776
 30
0.0
 11
64.71693040152968
 21
14.99379407265774
 31
0.0
  0
LINE
  5
105
330
1D
100
AcDbEntity
  8
0
100
AcDbLine
 10
64.71693040152968
 20
14.99379407265774
 30
0.0
 11
64.6043304015297
 21
14.97179407265775
 31
0.0
  0
LINE
  5
106
330
1D
100
AcDbEntity
  8
0
100
AcDbLine
 10
64.6043304015297
 20
14.97179407265775
 30
0.0
 11
64.48343040152969
 21
14.95479407265776
 31
0.0
  0
LINE
  5
107
330
1D
100
AcDbEntity
  8
0
100
AcDbLine
 10
64.48343040152969
 20
14.95479407265776
 30
0.0
 11
64.3697304015297
 21
14.94379407265773
 31
0.0
  0
LINE
  5
108
330
1D
100
AcDbEntity
  8
0
100
AcDbLine
 10
64.3697304015297
 20
14.94379407265773
 30
0.0
 11
64.24973040152969
 21
14.93879407265774
 31
0.0
  0
LINE
  5
109
330
1D
100
AcDbEntity
  8
0
100
AcDbLine
 10
64.24973040152969
 20
14.93879407265774
 30
0.0
 11
64.13273040152967
 21
14.93879407265774
 31
0.0
  0
LINE
  5
10A
330
1D
100
AcDbEntity
  8
0
100
AcDbLine
 10
64.13273040152967
 20
14.93879407265774
 30
0.0
 11
64.0127304015297
 21
14.94379407265773
 31
0.0
  0
LINE
  5
10B
330
1D
100
AcDbEntity
  8
0
100
AcDbLine
 10
64.0127304015297
 20
14.94379407265773
 30
0.0
 11
63.8989304015297
 21
14.95479407265776
 31
0.0
  0
LINE
  5
10C
330
1D
100
AcDbEntity
  8
0
100
AcDbLine
 10
63.8989304015297
 20
14.95479407265776
 30
0.0
 11
63.77813040152969
 21
14.97179407265775
 31
0.0
  0
LINE
  5
10D
330
1D
100
AcDbEntity
  8
0
100
AcDbLine
 10
63.77813040152969
 20
14.97179407265775
 30
0.0
 11
63.66553040152968
 21
14.99379407265774
 31
0.0
  0
LINE
  5
10E
330
1D
100
AcDbEntity
  8
0
100
AcDbLine
 10
63.66553040152968
 20
14.99379407265774
 30
0.0
 11
63.54773040152969
 21
15.02179407265776
 31
0.0
  0
LINE
  5
10F
330
1D
100
AcDbEntity
  8
0
100
AcDbLine
 10
63.54773040152969
 20
15.02179407265776
 30
0.0
 11
63.43723040152969
 21
15.05379407265774
 31
0.0
  0
LINE
  5
110
330
1D
100
AcDbEntity
  8
0
100
AcDbLine
 10
63.43723040152969
 20
15.05379407265774
 30
0.0
 11
63.32353040152969
 21
15.09379407265771
 31
0.0
  0
LINE
  5
111
330
1D
100
AcDbEntity
  8
0
100
AcDbLine
 10
63.32353040152969
 20
15.09379407265771
 30
0.0
 11
63.21533040152968
 21
15.13579407265774
 31
0.0
  0
LINE
  5
112
330
1D
100
AcDbEntity
  8
0
100
AcDbLine
 10
63.21533040152968
 20
15.13579407265774
 30
0.0
 11
63.1061304015297
 21
15.18579407265775
 31
0.0
  0
LINE
  5
113
330
1D
100
AcDbEntity
  8
0
100
AcDbLine
 10
63.1061304015297
 20
15.18579407265775
 30
0.0
 11
63.00323040152969
 21
15.23779407265771
 31
0.0
  0
LINE
  5
114
330
1D
100
AcDbEntity
  8
0
100
AcDbLine
 10
63.00323040152969
 20
15.23779407265771
 30
0.0
 11
62.89883040152969
 21
15.29879407265775
 31
0.0
  0
LINE
  5
115
330
1D
100
AcDbEntity
  8
0
100
AcDbLine
 10
62.89883040152969
 20
15.29879407265775
 30
0.0
 11
62.80073040152968
 21
15.35979407265773
 31
0.0
  0
LINE
  5
116
330
1D
100
AcDbEntity
  8
0
100
AcDbLine
 10
62.80073040152968
 20
15.35979407265773
 30
0.0
 11
62.70273040152969
 21
15.42979407265772
 31
0.0
  0
LINE
  5
117
330
1D
100
AcDbEntity
  8
0
100
AcDbLine
 10
62.70273040152969
 20
15.42979407265772
 30
0.0
 11
62.61143040152967
 21
15.49979407265771
 31
0.0
  0
LINE
  5
118
330
1D
100
AcDbEntity
  8
0
100
AcDbLine
 10
62.61143040152967
 20
15.49979407265771
 30
0.0
 11
62.5196304015297
 21
15.57979407265776
 31
0.0
  0
LINE
  5
119
330
1D
100
AcDbEntity
  8
0
100
AcDbLine
 10
62.5196304015297
 20
15.57979407265776
 30
0.0
 11
62.43593040152967
 21
15.65779407265773
 31
0.0
  0
LINE
  5
11A
330
1D
100
AcDbEntity
  8
0
100
AcDbLine
 10
62.43593040152967
 20
15.65779407265773
 30
0.0
 11
62.35223040152968
 21
15.74579407265775
 31
0.0
  0
LINE
  5
11B
330
1D
100
AcDbEntity
  8
0
100
AcDbLine
 10
62.35223040152968
 20
15.74579407265775
 30
0.0
 11
62.27563040152967
 21
15.83179407265771
 31
0.0
  0
LINE
  5
11C
330
1D
100
AcDbEntity
  8
0
100
AcDbLine
 10
62.27563040152967
 20
15.83179407265771
 30
0.0
 11
62.2012304015297
 21
15.92679407265774
 31
0.0
  0
LINE
  5
11D
330
1D
100
AcDbEntity
  8
0
100
AcDbLine
 10
62.2012304015297
 20
15.92679407265774
 30
0.0
 11
62.13293040152968
 21
16.01979407265775
 31
0.0
  0
LINE
  5
11E
330
1D
100
AcDbEntity
  8
0
100
AcDbLine
 10
62.13293040152968
 20
16.01979407265775
 30
0.0
 11
62.06753040152967
 21
16.12179407265773
 31
0.0
  0
LINE
  5
11F
330
1D
100
AcDbEntity
  8
0
100
AcDbLine
 10
62.06753040152967
 20
16.12179407265773
 30
0.0
 11
62.00843040152967
 21
16.21979407265774
 31
0.0
  0
LINE
  5
120
330
1D
100
AcDbEntity
  8
0
100
AcDbLine
 10
62.00843040152967
 20
16.21979407265774
 30
0.0
 11
61.9528304015297
 21
16.32779407265775
 31
0.0
  0
LINE
  5
121
330
1D
100
AcDbEntity
  8
0
100
AcDbLine
 10
61.9528304015297
 20
16.32779407265775
 30
0.0
 11
61.90343040152968
 21
16.43179407265773
 31
0.0
  0
LINE
  5
122
330
1D
100
AcDbEntity
  8
0
100
AcDbLine
 10
61.90343040152968
 20
16.43179407265773
 30
0.0
 11
61.85823040152968
 21
16.54479407265773
 31
0.0
  0
LINE
  5
123
330
1D
100
AcDbEntity
  8
0
100
AcDbLine
 10
61.85823040152968
 20
16.54479407265773
 30
0.0
 11
61.81893040152968
 21
16.65179407265776
 31
0.0
  0
LINE
  5
124
330
1D
100
AcDbEntity
  8
0
100
AcDbLine
 10
61.81893040152968
 20
16.65179407265776
 30
0.0
 11
61.78443040152968
 21
16.76879407265772
 31
0.0
  0
LINE
  5
125
330
1D
100
AcDbEntity
  8
0
100
AcDbLine
 10
61.78443040152968
 20
16.76879407265772
 30
0.0
 11
61.75543040152968
 21
16.87879407265773
 31
0.0
  0
LINE
  5
126
330
1D
100
AcDbEntity
  8
0
100
AcDbLine
 10
61.75543040152968
 20
16.87879407265773
 30
0.0
 11
61.73233040152968
 21
16.99879407265774
 31
0.0
  0
LINE
  5
127
330
1D
100
AcDbEntity
  8
0
100
AcDbLine
 10
61.73233040152968
 20
16.99879407265774
 30
0.0
 11
61.71373040152969
 21
17.11079407265776
 31
0.0
  0
LINE
  5
128
330
1D
100
AcDbEntity
  8
0
100
AcDbLine
 10
61.71373040152969
 20
17.11079407265776
 30
0.0
 11
61.70203040152967
 21
17.23279407265772
 31
0.0
  0
LINE
  5
129
330
1D
100
AcDbEntity
  8
0
100
AcDbLine
 10
61.70203040152967
 20
17.23279407265772
 30
0.0
 11
61.69403040152969
 21
17.34679407265775
 31
0.0
  0
LINE
  5
12A
330
1D
100
AcDbEntity
  8
0
100
AcDbLine
 10
61.69403040152969
 20
17.34679407265775
 30
0.0
 11
61.69403040152969
 21
17.46879407265771
 31
0.0
  0
LINE
  5
12B
330
1D
100
AcDbEntity
  8
0
100
AcDbLine
 10
61.69403040152969
 20
17.46879407265771
 30
0.0
 11
61.69673040152969
 21
17.58279407265774
 31
0.0
  0
LINE
  5
12C
330
1D
100
AcDbEntity
  8
0
100
AcDbLine
 10
61.69673040152969
 20
17.58279407265774
 30
0.0
 11
61.70843040152968
 21
17.70479407265776
 31
0.0
  0
LINE
  5
12D
330
1D
100
AcDbEntity
  8
0
100
AcDbLine
 10
61.70843040152968
 20
17.70479407265776
 30
0.0
 11
61.72163040152969
 21
17.81679407265772
 31
0.0
  0
LINE
  5
12E
330
1D
100
AcDbEntity
  8
0
100
AcDbLine
 10
61.72163040152969
 20
17.81679407265772
 30
0.0
 11
61.74493040152967
 21
17.93779407265776
 31
0.0
  0
LINE
  5
12F
330
1D
100
AcDbEntity
  8
0
100
AcDbLine
 10
61.74493040152967
 20
17.93779407265776
 30
0.0
 11
61.76853040152969
 21
18.04879407265775
 31
0.0
  0
LINE
  5
130
330
1D
100
AcDbEntity
  8
0
100
AcDbLine
 10
61.76853040152969
 20
18.04879407265775
 30
0.0
 11
61.80333040152968
 21
18.16679407265774
 31
0.0
  0
LINE
  5
131
330
1D
100
AcDbEntity
  8
0
100
AcDbLine
 10
61.80333040152968
 20
18.16679407265774
 30
0.0
 11
61.83723040152967
 21
18.27479407265775
 31
0.0
  0
LINE
  5
132
330
1D
100
AcDbEntity
  8
0
100
AcDbLine
 10
61.83723040152967
 20
18.27479407265775
 30
0.0
 11
61.8826304015297
 21
18.38779407265775
 31
0.0
  0
LINE
  5
133
330
1D
100
AcDbEntity
  8
0
100
AcDbLine
 10
61.8826304015297
 20
18.38779407265775
 30
0.0
 11
61.92683040152968
 21
18.49279407265774
 31
0.0
  0
LINE
  5
134
330
1D
100
AcDbEntity
  8
0
100
AcDbLine
 10
61.92683040152968
 20
18.49279407265774
 30
0.0
 11
62.03653040152969
 21
18.70179407265774
 31
0.0
  0
LINE
  5
135
330
1D
100
AcDbEntity
  8
0
100
AcDbLine
 10
62.03653040152969
 20
18.70179407265774
 30
0.0
 11
62.16563040152968
 21
18.89979407265775
 31
0.0
  0
LINE
  5
136
330
1D
100
AcDbEntity
  8
0
100
AcDbLine
 10
62.16563040152968
 20
18.89979407265775
 30
0.0
 11
62.31293040152968
 21
19.08479407265772
 31
0.0
  0
LINE
  5
137
330
1D
100
AcDbEntity
  8
0
100
AcDbLine
 10
62.31293040152968
 20
19.08479407265772
 30
0.0
 11
62.47653040152969
 21
19.25379407265773
 31
0.0
  0
LINE
  5
138
330
1D
100
AcDbEntity
  8
0
100
AcDbLine
 10
62.47653040152969
 20
19.25379407265773
 30
0.0
 11
62.65563040152969
 21
19.40779407265773
 31
0.0
  0
LINE
  5
139
330
1D
100
AcDbEntity
  8
0
100
AcDbLine
 10
62.65563040152969
 20
19.40779407265773
 30
0.0
 11
62.84903040152969
 21
19.54379407265773
 31
0.0
  0
LINE
  5
13A
330
1D
100
AcDbEntity
  8
0
100
AcDbLine
 10
62.84903040152969
 20
19.54379407265773
 30
0.0
 11
63.05373040152969
 21
19.66179407265772
 31
0.0
  0
LINE
  5
13B
330
1D
100
AcDbEntity
  8
0
100
AcDbLine
 10
63.05373040152969
 20
19.66179407265772
 30
0.0
 11
63.26913040152968
 21
19.75879407265773
 31
0.0
  0
LINE
  5
13C
330
1D
100
AcDbEntity
  8
0
100
AcDbLine
 10
63.26913040152968
 20
19.75879407265773
 30
0.0
 11
63.49193040152969
 21
19.83579407265773
 31
0.0
  0
LINE
  5
13D
330
1D
100
AcDbEntity
  8
0
100
AcDbLine
 10
63.49193040152969
 20
19.83579407265773
 30
0.0
 11
63.72183040152967
 21
19.89079407265773
 31
0.0
  0
LINE
  5
13E
330
1D
100
AcDbEntity
  8
0
100
AcDbLine
 10
63.72183040152967
 20
19.89079407265773
 30
0.0
 11
63.95473040152967
 21
19.92479407265773
 31
0.0
  0
LINE
  5
13F
330
1D
100
AcDbEntity
  8
0
100
AcDbLine
 10
63.95473040152967
 20
19.92479407265773
 30
0.0
 11
64.19123040152968
 21
19.93579407265772
 31
0.0
  0
LINE
  5
140
330
1D
100
AcDbEntity
  8
0
100
AcDbLine
 10
64.19123040152968
 20
19.93579407265772
 30
0.0
 11
64.42773040152969
 21
19.92479407265773
 31
0.0
  0
LINE
  5
141
330
1D
100
AcDbEntity
  8
0
100
AcDbLine
 10
64.42773040152969
 20
19.92479407265773
 30
0.0
 11
64.66063040152969
 21
19.89079407265773
 31
0.0
  0
LINE
  5
142
330
1D
100
AcDbEntity
  8
0
100
AcDbLine
 10
64.66063040152969
 20
19.89079407265773
 30
0.0
 11
64.89043040152967
 21
19.83579407265773
 31
0.0
  0
LINE
  5
143
330
1D
100
AcDbEntity
  8
0
100
AcDbLine
 10
64.89043040152967
 20
19.83579407265773
 30
0.0
 11
65.11333040152968
 21
19.75879407265773
 31
0.0
  0
LINE
  5
144
330
1D
100
AcDbEntity
  8
0
100
AcDbLine
 10
65.11333040152968
 20
19.75879407265773
 30
0.0
 11
65.3287304015297
 21
19.66179407265772
 31
0.0
  0
LINE
  5
145
330
1D
100
AcDbEntity
  8
0
100
AcDbLine
 10
65.3287304015297
 20
19.66179407265772
 30
0.0
 11
65.53343040152967
 21
19.54379407265773
 31
0.0
  0
LINE
  5
146
330
1D
100
AcDbEntity
  8
0
100
AcDbLine
 10
65.53343040152967
 20
19.54379407265773
 30
0.0
 11
65.7267304015297
 21
19.40779407265773
 31
0.0
  0
LINE
  5
147
330
1D
100
AcDbEntity
  8
0
100
AcDbLine
 10
65.7267304015297
 20
19.40779407265773
 30
0.0
 11
65.9057304015297
 21
19.25379407265773
 31
0.0
  0
LINE
  5
148
330
1D
100
AcDbEntity
  8
0
100
AcDbLine
 10
65.9057304015297
 20
19.25379407265773
 30
0.0
 11
66.06943040152967
 21
19.08479407265772
 31
0.0
  0
LINE
  5
149
330
1D
100
AcDbEntity
  8
0
100
AcDbLine
 10
66.06943040152967
 20
19.08479407265772
 30
0.0
 11
66.21683040152968
 21
18.89979407265775
 31
0.0
  0
LINE
  5
14A
330
1D
100
AcDbEntity
  8
0
100
AcDbLine
 10
66.21683040152968
 20
18.89979407265775
 30
0.0
 11
66.34583040152967
 21
18.70179407265774
 31
0.0
  0
LINE
  5
14B
330
1D
100
AcDbEntity
  8
0
100
AcDbLine
 10
66.34583040152967
 20
18.70179407265774
 30
0.0
 11
66.45553040152967
 21
18.49279407265774
 31
0.0
  0
LINE
  5
14C
330
1D
100
AcDbEntity
  8
0
100
AcDbLine
 10
66.45553040152967
 20
18.49279407265774
 30
0.0
 11
66.49963040152969
 21
18.38879407265772
 31
0.0
  0
LINE
  5
14D
330
1D
100
AcDbEntity
  8
0
100
AcDbLine
 10
66.49963040152969
 20
18.38879407265772
 30
0.0
 11
66.5452304015297
 21
18.27479407265775
 31
0.0
  0
LINE
  5
14E
330
1D
100
AcDbEntity
  8
0
100
AcDbLine
 10
66.5452304015297
 20
18.27479407265775
 30
0.0
 11
66.57903040152968
 21
18.16679407265774
 31
0.0
  0
LINE
  5
14F
330
1D
100
AcDbEntity
  8
0
100
AcDbLine
 10
66.57903040152968
 20
18.16679407265774
 30
0.0
 11
66.6138304015297
 21
18.04879407265775
 31
0.0
  0
LINE
  5
150
330
1D
100
AcDbEntity
  8
0
100
AcDbLine
 10
66.6138304015297
 20
18.04879407265775
 30
0.0
 11
66.63753040152969
 21
17.93779407265776
 31
0.0
  0
LINE
  5
151
330
1D
100
AcDbEntity
  8
0
100
AcDbLine
 10
66.63753040152969
 20
17.93779407265776
 30
0.0
 11
66.6608304015297
 21
17.81779407265775
 31
0.0
  0
LINE
  5
152
330
1D
100
AcDbEntity
  8
0
100
AcDbLine
 10
66.6608304015297
 20
17.81779407265775
 30
0.0
 11
66.67413040152968
 21
17.70379407265772
 31
0.0
  0
LINE
  5
153
330
1D
100
AcDbEntity
  8
0
100
AcDbLine
 10
66.67413040152968
 20
17.70379407265772
 30
0.0
 11
66.68573040152967
 21
17.58279407265774
 31
0.0
  0
LINE
  5
154
330
1D
100
AcDbEntity
  8
0
100
AcDbLine
 10
66.68573040152967
 20
17.58279407265774
 30
0.0
 11
66.68843040152967
 21
17.46879407265771
 31
0.0
  0
LINE
  5
155
330
1D
100
AcDbEntity
  8
0
100
AcDbLine
 10
66.68843040152967
 20
17.46879407265771
 30
0.0
 11
66.68843040152967
 21
17.34679407265775
 31
0.0
  0
POLYLINE
  5
1FE
330
1D
100
AcDbEntity
  8
0
  6
Continuous
 62
     1
100
AcDb2dPolyline
 66
     1
 10
0.0
 20
0.0
 30
0.0
  0
VERTEX
  5
1FF
330
1FE
100
AcDbEntity
  8
0
  6
Continuous
 62
     1
100
AcDbVertex
100
AcDb2dVertex
 10
100.7965956022944
 20
41.12608183556406
 30
0.0
  0
VERTEX
  5
200
330
1FE
100
AcDbEntity
  8
0
  6
Continuous
 62
     1
100
AcDbVertex
100
AcDb2dVertex
 10
100.7965956022944
 20
51.12608183556406
 30
0.0
  0
VERTEX
  5
201
330
1FE
100
AcDbEntity
  8
0
  6
Continuous
 62
     1
100
AcDbVertex
100
AcDb2dVertex
 10
105.7965956022944
 20
51.12608183556406
 30
0.0
  0
VERTEX
  5
202
330
1FE
100
AcDbEntity
  8
0
  6
Continuous
 62
     1
100
AcDbVertex
100
AcDb2dVertex
 10
107.4632622689611
 20
49.45941516889739
 30
0.0
  0
VERTEX
  5
203
330
1FE
100
AcDbEntity
  8
0
  6
Continuous
 62
     1
100
AcDbVertex
100
AcDb2dVertex
 10
107.4632622689611
 20
47.79274850223072
 30
0.0
  0
VERTEX
  5
204
330
1FE
100
AcDbEntity
  8
0
  6
Continuous
 62
     1
100
AcDbVertex
100
AcDb2dVertex
 10
105.7965956022944
 20
46.12608183556406
 30
0.0
  0
VERTEX
  5
205
330
1FE
100
AcDbEntity
  8
0
  6
Continuous
 62
     1
100
AcDbVertex
100
AcDb2dVertex
 10
100.7965956022944
 20
46.12608183556406
 30
0.0
  0
SEQEND
  5
217
330
1FE
100
AcDbEntity
  8
0
  6
Continuous
 62
     1
  0
POLYLINE
  5
206
330
1D
100
AcDbEntity
  8
0
  6
Continuous
 62
     1
100
AcDb2dPolyline
 66
     1
 10
0.0
 20
0.0
 30
0.0
  0
VERTEX
  5
207
330
206
100
AcDbEntity
  8
0
  6
Continuous
 62
     1
100
AcDbVertex
100
AcDb2dVertex
 10
110.7965956022944
 20
42.79274850223072
 30
0.0
  0
VERTEX
  5
208
330
206
100
AcDbEntity
  8
0
  6
Continuous
 62
     1
100
AcDbVertex
100
AcDb2dVertex
 10
112.4632622689611
 20
41.12608183556406
 30
0.0
  0
VERTEX
  5
209
330
206
100
AcDbEntity
  8
0
  6
Continuous
 62
     1
100
AcDbVertex
100
AcDb2dVertex
 10
115.7965956022944
 20
41.12608183556406
 30
0.0
  0
VERTEX
  5
20A
330
206
100
AcDbEntity
  8
0
  6
Continuous
 62
     1
100
AcDbVertex
100
AcDb2dVertex
 10
117.4632622689611
 20
42.79274850223072
 30
0.0
  0
VERTEX
  5
20B
330
206
100
AcDbEntity
  8
0
  6
Continuous
 62
     1
100
AcDbVertex
100
AcDb2dVertex
 10
117.4632622689611
 20
44.45941516889739
 30
0.0
  0
VERTEX
  5
20C
330
206
100
AcDbEntity
  8
0
  6
Continuous
 62
     1
100
AcDbVertex
100
AcDb2dVertex
 10
115.7965956022944
 20
46.12608183556406
 30
0.0
  0
VERTEX
  5
20D
330
206
100
AcDbEntity
  8
0
  6
Continuous
 62
     1
100
AcDbVertex
100
AcDb2dVertex
 10
114.1299289356277
 20
46.12608183556406
 30
0.0
  0
SEQEND
  5
216
330
206
100
AcDbEntity
  8
0
  6
Continuous
 62
     1
  0
POLYLINE
  5
20E
330
1D
100
AcDbEntity
  8
0
  6
Continuous
 62
     1
100
AcDb2dPolyline
 66
     1
 10
0.0
 20
0.0
 30
0.0
  0
VERTEX
  5
20F
330
20E
100
AcDbEntity
  8
0
  6
Continuous
 62
     1
100
AcDbVertex
100
AcDb2dVertex
 10
115.7965956022944
 20
46.12608183556406
 30
0.0
  0
VERTEX
  5
210
330
20E
100
AcDbEntity
  8
0
  6
Continuous
 62
     1
100
AcDbVertex
100
AcDb2dVertex
 10
117.4632622689611
 20
47.79274850223072
 30
0.0
  0
VERTEX
  5
211
330
20E
100
AcDbEntity
  8
0
  6
Continuous
 62
     1
100
AcDbVertex
100
AcDb2dVertex
 10
117.4632622689611
 20
49.45941516889739
 30
0.0
  0
VERTEX
  5
212
330
20E
100
AcDbEntity
  8
0
  6
Continuous
 62
     1
100
AcDbVertex
100
AcDb2dVertex
 10
115.7965956022944
 20
51.12608183556406
 30
0.0
  0
VERTEX
  5
213
330
20E
100
AcDbEntity
  8
0
  6
Continuous
 62
     1
100
AcDbVertex
100
AcDb2dVertex
 10
112.4632622689611
 20
51.12608183556406
 30
0.0
  0
VERTEX
  5
214
330
20E
100
AcDbEntity
  8
0
  6
Continuous
 62
     1
100
AcDbVertex
100
AcDb2dVertex
 10
110.7965956022944
 20
49.45941516889739
 30
0.0
  0
SEQEND
  5
215
330
20E
100
AcDbEntity
  8
0
  6
Continuous
 62
     1
  0
POLYLINE
  5
218
330
1D
100
AcDbEntity
  8
0
  6
Continuous
 62
     1
100
AcDb2dPolyline
 66
     1
 10
0.0
 20
0.0
 30
0.0
  0
VERTEX
  5
219
330
218
100
AcDbEntity
  8
0
  6
Continuous
 62
     1
100
AcDbVertex
100
AcDb2dVertex
 10
106.858086998088
 20
9.85021185468452
 30
0.0
  0
VERTEX
  5
21A
330
218
100
AcDbEntity
  8
0
  6
Continuous
 62
     1
100
AcDbVertex
100
AcDb2dVertex
 10
106.858086998088
 20
11.85021185468452
 30
0.0
  0
VERTEX
  5
21B
330
218
100
AcDbEntity
  8
0
  6
Continuous
 62
     1
100
AcDbVertex
100
AcDb2dVertex
 10
107.858086998088
 20
11.85021185468452
 30
0.0
  0
VERTEX
  5
21C
330
218
100
AcDbEntity
  8
0
  6
Continuous
 62
     1
100
AcDbVertex
100
AcDb2dVertex
 10
108.1914203314213
 20
11.51687852135119
 30
0.0
  0
VERTEX
  5
21D
330
218
100
AcDbEntity
  8
0
  6
Continuous
 62
     1
100
AcDbVertex
100
AcDb2dVertex
 10
108.1914203314213
 20
11.18354518801785
 30
0.0
  0
VERTEX
  5
21E
330
218
100
AcDbEntity
  8
0
  6
Continuous
 62
     1
100
AcDbVertex
100
AcDb2dVertex
 10
107.858086998088
 20
10.85021185468452
 30
0.0
  0
VERTEX
  5
21F
330
218
100
AcDbEntity
  8
0
  6
Continuous
 62
     1
100
AcDbVertex
100
AcDb2dVertex
 10
106.858086998088
 20
10.85021185468452
 30
0.0
  0
SEQEND
  5
226
330
218
100
AcDbEntity
  8
0
  6
Continuous
 62
     1
  0
LINE
  5
220
330
1D
100
AcDbEntity
  8
0
  6
Continuous
 62
     1
100
AcDbLine
 10
108.858086998088
 20
9.85021185468452
 30
0.0
 11
109.5247536647547
 21
9.85021185468452
 31
0.0
  0
POLYLINE
  5
221
330
1D
100
AcDbEntity
  8
0
  6
Continuous
 62
     1
100
AcDb2dPolyline
 66
     1
 10
0.0
 20
0.0
 30
0.0
  0
VERTEX
  5
222
330
221
100
AcDbEntity
  8
0
  6
Continuous
 62
     1
100
AcDbVertex
100
AcDb2dVertex
 10
109.1914203314213
 20
9.85021185468452
 30
0.0
  0
VERTEX
  5
223
330
221
100
AcDbEntity
  8
0
  6
Continuous
 62
     1
100
AcDbVertex
100
AcDb2dVertex
 10
109.1914203314213
 20
11.85021185468452
 30
0.0
  0
VERTEX
  5
224
330
221
100
AcDbEntity
  8
0
  6
Continuous
 62
     1
100
AcDbVertex
100
AcDb2dVertex
 10
108.858086998088
 20
11.51687852135119
 30
0.0
  0
SEQEND
  5
225
330
221
100
AcDbEntity
  8
0
  6
Continuous
 62
     1
  0
POLYLINE
  5
227
330
1D
100
AcDbEntity
  8
0
  6
Continuous
 62
     1
100
AcDb2dPolyline
 66
     1
 10
0.0
 20
0.0
 30
0.0
  0
VERTEX
  5
228
330
227
100
AcDbEntity
  8
0
  6
Continuous
 62
     1
100
AcDbVertex
100
AcDb2dVertex
 10
106.1561085659656
 20
82.26340663311665
 30
0.0
  0
VERTEX
  5
229
330
227
100
AcDbEntity
  8
0
  6
Continuous
 62
     1
100
AcDbVertex
100
AcDb2dVertex
 10
106.1561085659656
 20
84.26340663311665
 30
0.0
  0
VERTEX
  5
22A
330
227
100
AcDbEntity
  8
0
  6
Continuous
 62
     1
100
AcDbVertex
100
AcDb2dVertex
 10
107.1561085659656
 20
84.26340663311665
 30
0.0
  0
VERTEX
  5
22B
330
227
100
AcDbEntity
  8
0
  6
Continuous
 62
     1
100
AcDbVertex
100
AcDb2dVertex
 10
107.4894418992989
 20
83.93007329978332
 30
0.0
  0
VERTEX
  5
22C
330
227
100
AcDbEntity
  8
0
  6
Continuous
 62
     1
100
AcDbVertex
100
AcDb2dVertex
 10
107.4894418992989
 20
83.59673996644997
 30
0.0
  0
VERTEX
  5
22D
330
227
100
AcDbEntity
  8
0
  6
Continuous
 62
     1
100
AcDbVertex
100
AcDb2dVertex
 10
107.1561085659656
 20
83.26340663311665
 30
0.0
  0
VERTEX
  5
22E
330
227
100
AcDbEntity
  8
0
  6
Continuous
 62
     1
100
AcDbVertex
100
AcDb2dVertex
 10
106.1561085659656
 20
83.26340663311665
 30
0.0
  0
SEQEND
  5
23B
330
227
100
AcDbEntity
  8
0
  6
Continuous
 62
     1
  0
POLYLINE
  5
22F
330
1D
100
AcDbEntity
  8
0
  6
Continuous
 62
     1
100
AcDb2dPolyline
 66
     1
 10
0.0
 20
0.0
 30
0.0
  0
VERTEX
  5
230
330
22F
100
AcDbEntity
  8
0
  6
Continuous
 62
     1
100
AcDbVertex
100
AcDb2dVertex
 10
108.1561085659656
 20
83.93007329978332
 30
0.0
  0
VERTEX
  5
231
330
22F
100
AcDbEntity
  8
0
  6
Continuous
 62
     1
100
AcDbVertex
100
AcDb2dVertex
 10
108.4894418992989
 20
84.26340663311665
 30
0.0
  0
VERTEX
  5
232
330
22F
100
AcDbEntity
  8
0
  6
Continuous
 62
     1
100
AcDbVertex
100
AcDb2dVertex
 10
109.1561085659656
 20
84.26340663311665
 30
0.0
  0
VERTEX
  5
233
330
22F
100
AcDbEntity
  8
0
  6
Continuous
 62
     1
100
AcDbVertex
100
AcDb2dVertex
 10
109.4894418992989
 20
83.93007329978332
 30
0.0
  0
VERTEX
  5
234
330
22F
100
AcDbEntity
  8
0
  6
Continuous
 62
     1
100
AcDbVertex
100
AcDb2dVertex
 10
109.4894418992989
 20
83.59673996644997
 30
0.0
  0
VERTEX
  5
235
330
22F
100
AcDbEntity
  8
0
  6
Continuous
 62
     1
100
AcDbVertex
100
AcDb2dVertex
 10
109.1561085659656
 20
83.26340663311665
 30
0.0
  0
VERTEX
  5
236
330
22F
100
AcDbEntity
  8
0
  6
Continuous
 62
     1
100
AcDbVertex
100
AcDb2dVertex
 10
108.4894418992989
 20
83.26340663311665
 30
0.0
  0
VERTEX
  5
237
330
22F
100
AcDbEntity
  8
0
  6
Continuous
 62
     1
100
AcDbVertex
100
AcDb2dVertex
 10
108.1561085659656
 20
82.93007329978332
 30
0.0
  0
VERTEX
  5
238
330
22F
100
AcDbEntity
  8
0
  6
Continuous
 62
     1
100
AcDbVertex
100
AcDb2dVertex
 10
108.1561085659656
 20
82.26340663311665
 30
0.0
  0
VERTEX
  5
239
330
22F
100
AcDbEntity
  8
0
  6
Continuous
 62
     1
100
AcDbVertex
100
AcDb2dVertex
 10
109.4894418992989
 20
82.26340663311665
 30
0.0
  0
SEQEND
  5
23A
330
22F
100
AcDbEntity
  8
0
  6
Continuous
 62
     1
  0
ENDSEC
  0
SECTION
  2
OBJECTS
  0
DICTIONARY
  5
C
330
0
100
AcDbDictionary
281
     1
  3
ACAD_DETAILVIEWSTYLE
350
1AB
  3
ACAD_GROUP
350
D
  3
ACAD_IMAGE_VARS
350
1A1
  3
ACAD_LAYOUT
350
1A
  3
ACAD_MATERIAL
350
197
  3
ACAD_MLEADERSTYLE
350
19D
  3
ACAD_MLINESTYLE
350
17
  3
ACAD_PLOTSETTINGS
350
19
  3
ACAD_PLOTSTYLENAME
350
E
  3
ACAD_SCALELIST
350
158
  3
ACAD_SECTIONVIEWSTYLE
350
1AC
  3
ACAD_TABLESTYLE
350
19B
  3
ACAD_VISUALSTYLE
350
17E
  3
ACDB_RECOMPOSE_DATA
350
23E
  3
AcDbVariableDictionary
350
1A3
  3
APPDATA
350
19F
  0
SUN
  5
1A0
330
157
100
AcDbSun
 90
        1
290
     0
 63
     7
421
 16777215
 40
1.0
291
     1
 91
  2455826
 92
 54000000
292
     0
 70
     2
 71
   256
280
     1
  0
DICTIONARY
  5
1AB
102
{ACAD_REACTORS
330
C
102
}
330
C
100
AcDbDictionary
281
     1
  0
DICTIONARY
  5
D
102
{ACAD_REACTORS
330
C
102
}
330
C
100
AcDbDictionary
281
     1
  0
RASTERVARIABLES
  5
1A1
102
{ACAD_REACTORS
330
C
102
}
330
C
100
AcDbRasterVariables
 90
        0
 70
     1
 71
     1
 72
     0
  0
DICTIONARY
  5
1A
102
{ACAD_REACTORS
330
C
102
}
330
C
100
AcDbDictionary
281
     1
  3
Folha 1
350
1C
  3
Model
350
1E
  0
DICTIONARY
  5
197
102
{ACAD_REACTORS
330
C
102
}
330
C
100
AcDbDictionary
281
     1
  3
ByBlock
350
199
  3
ByLayer
350
198
  3
Global
350
19A
  0
DICTIONARY
  5
19D
102
{ACAD_REACTORS
330
C
102
}
330
C
100
AcDbDictionary
281
     1
  3
Standard
350
19E
  0
DICTIONARY
  5
17
102
{ACAD_REACTORS
330
C
102
}
330
C
100
AcDbDictionary
281
     1
  3
Standard
350
18
  0
DICTIONARY
  5
19
102
{ACAD_REACTORS
330
C
102
}
330
C
100
AcDbDictionary
281
     1
  0
ACDBDICTIONARYWDFLT
  5
E
102
{ACAD_REACTORS
330
C
102
}
330
C
100
AcDbDictionary
281
     1
  3
Normal
350
F
100
AcDbDictionaryWithDefault
340
F
  0
DICTIONARY
  5
158
102
{ACAD_REACTORS
330
C
102
}
330
C
100
AcDbDictionary
281
     1
  3
A0
350
159
  3
A1
350
15A
  3
A2
350
15B
  3
A3
350
15C
  3
A4
350
15D
  3
A5
350
15E
  3
A6
350
15F
  3
A7
350
160
  3
A8
350
161
  3
A9
350
162
  3
B0
350
163
  3
B1
350
164
  3
B2
350
165
  3
B3
350
166
  3
B4
350
167
  3
B5
350
168
  3
B6
350
169
  3
B7
350
16A
  3
B8
350
16B
  3
B9
350
16C
  3
C0
350
16D
  3
C1
350
16E
  3
C2
350
16F
  3
C3
350
170
  3
C4
350
171
  3
C5
350
172
  3
C6
350
173
  3
C7
350
174
  3
C8
350
175
  3
C9
350
176
  3
D0
350
177
  3
D1
350
178
  3
D2
350
179
  0
DICTIONARY
  5
1AC
102
{ACAD_REACTORS
330
C
102
}
330
C
100
AcDbDictionary
281
     1
  0
DICTIONARY
  5
19B
102
{ACAD_REACTORS
330
C
102
}
330
C
100
AcDbDictionary
281
     1
  3
Standard
350
19C
  0
DICTIONARY
  5
17E
102
{ACAD_REACTORS
330
C
102
}
330
C
100
AcDbDictionary
281
     1
  3
2dWireframe
350
183
  3
Basic
350
186
  3
Brighten
350
18A
  3
ColorChange
350
18E
  3
Conceptual
350
188
  3
Dim
350
189
  3
EdgeColorOff
350
191
  3
Facepattern
350
18D
  3
Flat
350
17F
  3
FlatWithEdges
350
180
  3
Gouraud
350
181
  3
GouraudWithEdges
350
182
  3
Hidden
350
185
  3
JitterOff
350
18F
  3
Linepattern
350
18C
  3
OverhangOff
350
190
  3
Realistic
350
187
  3
Shaded
350
196
  3
Shaded with edges
350
195
  3
Shades of Gray
350
192
  3
Sketchy
350
193
  3
Thicken
350
18B
  3
Wireframe
350
184
  3
X-Ray
350
194
  0
XRECORD
  5
23E
102
{ACAD_REACTORS
330
C
102
}
330
C
100
AcDbXrecord
280
     1
 90
        1
330
19C
  0
DICTIONARY
  5
1A3
102
{ACAD_REACTORS
330
C
102
}
330
C
100
AcDbDictionary
281
     1
  3
CANNOSCALE
350
1A4
  3
CMLEADERSTYLE
350
1A9
  3
CTABLESTYLE
350
1A8
  3
MSLTSCALE
350
1AA
  0
DICTIONARY
  5
19F
102
{ACAD_REACTORS
330
C
102
}
330
C
100
AcDbDictionary
281
     1
  0
LAYOUT
  5
1C
102
{ACAD_REACTORS
330
1A
102
}
330
1A
100
AcDbPlotSettings
  1

  2
none_device
  4

  6

 40
0.0
 41
0.0
 42
0.0
 43
0.0
 44
0.0
 45
0.0
 46
0.0
 47
0.0
 48
0.0
 49
0.0
140
0.0
141
0.0
142
1.0
143
1.0
 70
   688
 72
     0
 73
     0
 74
     5
  7

 75
    16
 76
     0
 77
     2
 78
   300
147
1.0
148
0.0
149
0.0
100
AcDbLayout
  1
Folha 1
 70
     1
 71
     1
 10
0.0
 20
0.0
 11
0.0
 21
0.0
 12
0.0
 22
0.0
 32
0.0
 14
1.000000000000000E+20
 24
1.000000000000000E+20
 34
1.000000000000000E+20
 15
-1.000000000000000E+20
 25
-1.000000000000000E+20
 35
-1.000000000000000E+20
146
0.0
 13
0.0
 23
0.0
 33
0.0
 16
1.0
 26
0.0
 36
0.0
 17
0.0
 27
1.0
 37
0.0
 76
     0
330
1B
  0
LAYOUT
  5
1E
102
{ACAD_REACTORS
330
1A
102
}
330
1A
100
AcDbPlotSettings
  1

  2
none_device
  4
Letter_(8.50_x_11.00_Inches)
  6

 40
6.35
 41
6.35
 42
6.35
 43
6.35
 44
215.9
 45
279.4
 46
0.0
 47
0.0
 48
0.0
 49
0.0
140
0.0
141
0.0
142
1.0
143
1.0
 70
  1712
 72
     0
 73
     0
 74
     0
  7

 75
     0
 76
     0
 77
     2
 78
   300
147
1.0
148
0.0
149
0.0
100
AcDbLayout
  1
Model
 70
     1
 71
     0
 10
0.0
 20
0.0
 11
12.0
 21
9.0
 12
0.0
 22
0.0
 32
0.0
 14
7.683230401529666
 24
7.43579407265775
 34
0.0
 15
192.6832304015297
 25
86.93579407265773
 35
0.0
146
0.0
 13
0.0
 23
0.0
 33
0.0
 16
1.0
 26
0.0
 36
0.0
 17
0.0
 27
1.0
 37
0.0
 76
     0
330
1D
331
157
  0
MATERIAL
  5
199
102
{ACAD_REACTORS
330
197
102
}
330
197
100
AcDbMaterial
  1
ByBlock
 72
     1
 94
      127
  0
MATERIAL
  5
198
102
{ACAD_REACTORS
330
197
102
}
330
197
100
AcDbMaterial
  1
ByLayer
 72
     1
 94
      127
  0
MATERIAL
  5
19A
102
{ACAD_REACTORS
330
197
102
}
330
197
100
AcDbMaterial
  1
Global
 72
     1
 94
      127
  0
MLEADERSTYLE
  5
19E
102
{ACAD_REACTORS
330
19D
102
}
330
19D
100
AcDbMLeaderStyle
179
     2
170
     2
171
     1
172
     0
 90
        2
 40
0.0
 41
0.0
173
     1
 91
-1056964608
340
14
 92
       -2
290
     1
 42
0.09
291
     1
 43
0.36
  3
Standard
341
0
 44
0.18
300

342
11
174
     1
178
     6
175
     1
176
     0
 93
-1056964608
 45
0.18
292
     0
297
     0
 46
0.18
343
0
 94
-1056964608
 47
1.0
 49
1.0
140
1.0
293
     1
141
0.0
294
     1
177
     0
142
1.0
295
     0
296
     0
143
0.125
271
     0
272
     9
273
     9
298
     0
  0
MLINESTYLE
  5
18
102
{ACAD_REACTORS
330
17
102
}
330
17
100
AcDbMlineStyle
  2
Standard
 70
     0
  3

 62
   256
 51
90.0
 52
90.0
 71
     2
 49
0.5
 62
   256
  6
BYLAYER
 49
-0.5
 62
   256
  6
BYLAYER
  0
ACDBPLACEHOLDER
  5
F
102
{ACAD_REACTORS
330
E
102
}
330
E
  0
SCALE
  5
159
102
{ACAD_REACTORS
330
158
102
}
330
158
100
AcDbScale
 70
     0
300
1:1
140
1.0
141
1.0
290
     1
  0
SCALE
  5
15A
102
{ACAD_REACTORS
330
158
102
}
330
158
100
AcDbScale
 70
     0
300
1:2
140
1.0
141
2.0
290
     0
  0
SCALE
  5
15B
102
{ACAD_REACTORS
330
158
102
}
330
158
100
AcDbScale
 70
     0
300
1:4
140
1.0
141
4.0
290
     0
  0
SCALE
  5
15C
102
{ACAD_REACTORS
330
158
102
}
330
158
100
AcDbScale
 70
     0
300
1:5
140
1.0
141
5.0
290
     0
  0
SCALE
  5
15D
102
{ACAD_REACTORS
330
158
102
}
330
158
100
AcDbScale
 70
     0
300
1:8
140
1.0
141
8.0
290
     0
  0
SCALE
  5
15E
102
{ACAD_REACTORS
330
158
102
}
330
158
100
AcDbScale
 70
     0
300
1:10
140
1.0
141
10.0
290
     0
  0
SCALE
  5
15F
102
{ACAD_REACTORS
330
158
102
}
330
158
100
AcDbScale
 70
     0
300
1:16
140
1.0
141
16.0
290
     0
  0
SCALE
  5
160
102
{ACAD_REACTORS
330
158
102
}
330
158
100
AcDbScale
 70
     0
300
1:20
140
1.0
141
20.0
290
     0
  0
SCALE
  5
161
102
{ACAD_REACTORS
330
158
102
}
330
158
100
AcDbScale
 70
     0
300
1:30
140
1.0
141
30.0
290
     0
  0
SCALE
  5
162
102
{ACAD_REACTORS
330
158
102
}
330
158
100
AcDbScale
 70
     0
300
1:40
140
1.0
141
40.0
290
     0
  0
SCALE
  5
163
102
{ACAD_REACTORS
330
158
102
}
330
158
100
AcDbScale
 70
     0
300
1:50
140
1.0
141
50.0
290
     0
  0
SCALE
  5
164
102
{ACAD_REACTORS
330
158
102
}
330
158
100
AcDbScale
 70
     0
300
1:100
140
1.0
141
100.0
290
     0
  0
SCALE
  5
165
102
{ACAD_REACTORS
330
158
102
}
330
158
100
AcDbScale
 70
     0
300
2:1
140
2.0
141
1.0
290
     0
  0
SCALE
  5
166
102
{ACAD_REACTORS
330
158
102
}
330
158
100
AcDbScale
 70
     0
300
4:1
140
4.0
141
1.0
290
     0
  0
SCALE
  5
167
102
{ACAD_REACTORS
330
158
102
}
330
158
100
AcDbScale
 70
     0
300
8:1
140
8.0
141
1.0
290
     0
  0
SCALE
  5
168
102
{ACAD_REACTORS
330
158
102
}
330
158
100
AcDbScale
 70
     0
300
10:1
140
10.0
141
1.0
290
     0
  0
SCALE
  5
169
102
{ACAD_REACTORS
330
158
102
}
330
158
100
AcDbScale
 70
     0
300
100:1
140
100.0
141
1.0
290
     0
  0
SCALE
  5
16A
102
{ACAD_REACTORS
330
158
102
}
330
158
100
AcDbScale
 70
     0
300
1/128" = 1'-0"
140
0.0078125
141
12.0
290
     0
  0
SCALE
  5
16B
102
{ACAD_REACTORS
330
158
102
}
330
158
100
AcDbScale
 70
     0
300
1/64" = 1'-0"
140
0.015625
141
12.0
290
     0
  0
SCALE
  5
16C
102
{ACAD_REACTORS
330
158
102
}
330
158
100
AcDbScale
 70
     0
300
1/32" = 1'-0"
140
0.03125
141
12.0
290
     0
  0
SCALE
  5
16D
102
{ACAD_REACTORS
330
158
102
}
330
158
100
AcDbScale
 70
     0
300
1/16" = 1'-0"
140
0.0625
141
12.0
290
     0
  0
SCALE
  5
16E
102
{ACAD_REACTORS
330
158
102
}
330
158
100
AcDbScale
 70
     0
300
3/32" = 1'-0"
140
0.09375
141
12.0
290
     0
  0
SCALE
  5
16F
102
{ACAD_REACTORS
330
158
102
}
330
158
100
AcDbScale
 70
     0
300
1/8" = 1'-0"
140
0.125
141
12.0
290
     0
  0
SCALE
  5
170
102
{ACAD_REACTORS
330
158
102
}
330
158
100
AcDbScale
 70
     0
300
3/16" = 1'-0"
140
0.1875
141
12.0
290
     0
  0
SCALE
  5
171
102
{ACAD_REACTORS
330
158
102
}
330
158
100
AcDbScale
 70
     0
300
1/4" = 1'-0"
140
0.25
141
12.0
290
     0
  0
SCALE
  5
172
102
{ACAD_REACTORS
330
158
102
}
330
158
100
AcDbScale
 70
     0
300
3/8" = 1'-0"
140
0.375
141
12.0
290
     0
  0
SCALE
  5
173
102
{ACAD_REACTORS
330
158
102
}
330
158
100
AcDbScale
 70
     0
300
1/2" = 1'-0"
140
0.5
141
12.0
290
     0
  0
SCALE
  5
174
102
{ACAD_REACTORS
330
158
102
}
330
158
100
AcDbScale
 70
     0
300
3/4" = 1'-0"
140
0.75
141
12.0
290
     0
  0
SCALE
  5
175
102
{ACAD_REACTORS
330
158
102
}
330
158
100
AcDbScale
 70
     0
300
1" = 1'-0"
140
1.0
141
12.0
290
     0
  0
SCALE
  5
176
102
{ACAD_REACTORS
330
158
102
}
330
158
100
AcDbScale
 70
     0
300
1-1/2" = 1'-0"
140
1.5
141
12.0
290
     0
  0
SCALE
  5
177
102
{ACAD_REACTORS
330
158
102
}
330
158
100
AcDbScale
 70
     0
300
3" = 1'-0"
140
3.0
141
12.0
290
     0
  0
SCALE
  5
178
102
{ACAD_REACTORS
330
158
102
}
330
158
100
AcDbScale
 70
     0
300
6" = 1'-0"
140
6.0
141
12.0
290
     0
  0
SCALE
  5
179
102
{ACAD_REACTORS
330
158
102
}
330
158
100
AcDbScale
 70
     0
300
1'-0" = 1'-0"
140
12.0
141
12.0
290
     0
  0
TABLESTYLE
  5
19C
102
{ACAD_REACTORS
330
19B
102
}
102
{ACAD_XDICTIONARY
360
23C
102
}
330
19B
100
AcDbTableStyle
  3
Standard
 70
     0
 71
     0
 40
0.06
 41
0.06
280
     0
281
     0
  7
Standard
140
0.18
170
     2
 62
     0
 63
   257
283
     0
 90
        4
 91
        0
  1

274
    -2
284
     1
 64
     0
275
    -2
285
     1
 65
     0
276
    -2
286
     1
 66
     0
277
    -2
287
     1
 67
     0
278
    -2
288
     1
 68
     0
279
    -2
289
     1
 69
     0
  7
Standard
140
0.25
170
     5
 62
     0
 63
   257
283
     0
 90
        4
 91
        0
  1

274
    -2
284
     1
 64
     0
275
    -2
285
     1
 65
     0
276
    -2
286
     1
 66
     0
277
    -2
287
     1
 67
     0
278
    -2
288
     1
 68
     0
279
    -2
289
     1
 69
     0
  7
Standard
140
0.18
170
     5
 62
     0
 63
   257
283
     0
 90
        4
 91
        0
  1

274
    -2
284
     1
 64
     0
275
    -2
285
     1
 65
     0
276
    -2
286
     1
 66
     0
277
    -2
287
     1
 67
     0
278
    -2
288
     1
 68
     0
279
    -2
289
     1
 69
     0
  0
VISUALSTYLE
  5
183
102
{ACAD_REACTORS
330
17E
102
}
330
17E
100
AcDbVisualStyle
  2
2dWireframe
 70
     4
177
     3
291
     0
 70
    58
 90
        0
176
     1
 90
        2
176
     1
 90
        0
176
     1
 90
        0
176
     1
 40
0.6
176
     1
 40
30.0
176
     1
 62
     7
420
 16777215
176
     1
 90
        1
176
     1
 90
        4
176
     1
 62
     7
176
     1
 62
   257
176
     1
 90
        1
176
     1
 90
        1
176
     1
 40
1.0
176
     1
 90
        0
176
     1
 62
   257
176
     1
 40
1.0
176
     1
 90
        1
176
     1
 90
        6
176
     1
 90
        2
176
     1
 62
     7
176
     1
 90
        5
176
     1
 90
        0
176
     1
 90
        0
176
     1
290
     0
176
     1
 90
        1
176
     1
 40
0.0
176
     1
 90
        0
176
     1
290
     1
176
     1
290
     1
176
     1
290
     0
176
     1
290
     0
176
     1
290
     0
176
     1
290
     0
176
     1
290
     0
176
     1
290
     0
176
     1
290
     0
176
     1
 90
       50
176
     1
 40
0.0
176
     1
 40
1.0
176
     1
 90
        0
176
     1
 62
    18
420
        0
176
     1
 90
       50
176
     1
 90
        3
176
     1
 62
     5
420
      255
176
     1
290
     0
176
     1
 90
       50
176
     1
 90
       50
176
     1
 90
       50
176
     1
290
     0
176
     1
 90
       50
176
     1
 62
   256
176
     0
 40
1.0
176
     0
 90
        2
176
     1
  1
strokes_ogs.tif
176
     1
290
     0
176
     1
 40
1.0
176
     1
 40
1.0
176
     1
  0
VISUALSTYLE
  5
186
102
{ACAD_REACTORS
330
17E
102
}
330
17E
100
AcDbVisualStyle
  2
Basic
 70
     7
177
     3
291
     1
 70
    58
 90
        1
176
     1
 90
        0
176
     1
 90
        1
176
     1
 90
        0
176
     1
 40
0.6
176
     1
 40
30.0
176
     1
 62
     7
420
 16777215
176
     1
 90
        0
176
     1
 90
        4
176
     1
 62
     7
176
     1
 62
   257
176
     1
 90
        1
176
     1
 90
        1
176
     1
 40
1.0
176
     1
 90
        8
176
     1
 62
     7
176
     1
 40
1.0
176
     1
 90
        1
176
     1
 90
        6
176
     1
 90
        2
176
     1
 62
     7
176
     1
 90
        5
176
     1
 90
        0
176
     1
 90
        0
176
     1
290
     0
176
     1
 90
        1
176
     1
 40
0.0
176
     1
 90
        0
176
     1
290
     0
176
     1
290
     1
176
     1
290
     1
176
     1
290
     0
176
     1
290
     0
176
     1
290
     0
176
     1
290
     0
176
     1
290
     0
176
     1
290
     0
176
     1
 90
       50
176
     1
 40
0.0
176
     1
 40
1.0
176
     1
 90
        0
176
     1
 62
    18
420
        0
176
     1
 90
       50
176
     1
 90
        3
176
     1
 62
     5
420
      255
176
     1
290
     0
176
     1
 90
       50
176
     1
 90
       50
176
     1
 90
       50
176
     1
290
     0
176
     1
 90
       50
176
     1
 62
   256
176
     0
 40
1.0
176
     0
 90
        2
176
     1
  1
strokes_ogs.tif
176
     1
290
     0
176
     1
 40
1.0
176
     1
 40
1.0
176
     1
  0
VISUALSTYLE
  5
18A
102
{ACAD_REACTORS
330
17E
102
}
330
17E
100
AcDbVisualStyle
  2
Brighten
 70
    12
177
     3
291
     1
 70
    58
 90
        2
176
     1
 90
        2
176
     1
 90
        0
176
     1
 90
        0
176
     1
 40
0.6
176
     1
 40
30.0
176
     1
 62
     7
420
 16777215
176
     1
 90
        1
176
     1
 90
        4
176
     1
 62
     7
176
     1
 62
   257
176
     1
 90
        1
176
     1
 90
        1
176
     1
 40
1.0
176
     1
 90
        8
176
     1
 62
     7
176
     1
 40
1.0
176
     1
 90
        1
176
     1
 90
        6
176
     1
 90
        2
176
     1
 62
     7
176
     1
 90
        5
176
     1
 90
        0
176
     1
 90
        0
176
     1
290
     0
176
     1
 90
        1
176
     1
 40
50.0
176
     1
 90
        0
176
     1
290
     0
176
     1
290
     1
176
     1
290
     1
176
     1
290
     0
176
     1
290
     0
176
     1
290
     0
176
     1
290
     0
176
     1
290
     0
176
     1
290
     0
176
     1
 90
       50
176
     1
 40
0.0
176
     1
 40
1.0
176
     1
 90
        0
176
     1
 62
    18
420
        0
176
     1
 90
       50
176
     1
 90
        3
176
     1
 62
     5
420
      255
176
     1
290
     0
176
     1
 90
       50
176
     1
 90
       50
176
     1
 90
       50
176
     1
290
     0
176
     1
 90
       50
176
     1
 62
   256
176
     0
 40
1.0
176
     0
 90
        2
176
     1
  1
strokes_ogs.tif
176
     1
290
     0
176
     1
 40
1.0
176
     1
 40
1.0
176
     1
  0
VISUALSTYLE
  5
18E
102
{ACAD_REACTORS
330
17E
102
}
330
17E
100
AcDbVisualStyle
  2
ColorChange
 70
    16
177
     3
291
     1
 70
    58
 90
        2
176
     1
 90
        2
176
     1
 90
        3
176
     1
 90
        0
176
     1
 40
0.6
176
     1
 40
30.0
176
     1
 62
     8
420
  8421504
176
     1
 90
        1
176
     1
 90
        4
176
     1
 62
     7
176
     1
 62
   257
176
     1
 90
        1
176
     1
 90
        1
176
     1
 40
1.0
176
     1
 90
        8
176
     1
 62
     8
420
  8421504
176
     1
 40
1.0
176
     1
 90
        1
176
     1
 90
        6
176
     1
 90
        2
176
     1
 62
     7
176
     1
 90
        5
176
     1
 90
        0
176
     1
 90
        0
176
     1
290
     0
176
     1
 90
        1
176
     1
 40
0.0
176
     1
 90
        0
176
     1
290
     0
176
     1
290
     1
176
     1
290
     1
176
     1
290
     0
176
     1
290
     0
176
     1
290
     0
176
     1
290
     0
176
     1
290
     0
176
     1
290
     0
176
     1
 90
       50
176
     1
 40
0.0
176
     1
 40
1.0
176
     1
 90
        0
176
     1
 62
    18
420
        0
176
     1
 90
       50
176
     1
 90
        3
176
     1
 62
     5
420
      255
176
     1
290
     0
176
     1
 90
       50
176
     1
 90
       50
176
     1
 90
       50
176
     1
290
     0
176
     1
 90
       50
176
     1
 62
   256
176
     0
 40
1.0
176
     0
 90
        2
176
     1
  1
strokes_ogs.tif
176
     1
290
     0
176
     1
 40
1.0
176
     1
 40
1.0
176
     1
  0
VISUALSTYLE
  5
188
102
{ACAD_REACTORS
330
17E
102
}
330
17E
100
AcDbVisualStyle
  2
Conceptual
 70
     9
177
     3
291
     0
 70
    58
 90
        3
176
     1
 90
        2
176
     1
 90
        0
176
     1
 90
        0
176
     1
 40
0.6
176
     1
 40
30.0
176
     1
 62
     7
420
 16777215
176
     1
 90
        2
176
     1
 90
        2
176
     1
 62
     7
176
     1
 62
   257
176
     1
 90
        1
176
     1
 90
        1
176
     1
 40
179.0
176
     1
 90
        8
176
     1
 62
     7
176
     1
 40
1.0
176
     1
 90
        1
176
     1
 90
        6
176
     1
 90
        2
176
     1
 62
     7
176
     1
 90
        3
176
     1
 90
        0
176
     1
 90
        0
176
     1
290
     0
176
     1
 90
        1
176
     1
 40
0.0
176
     1
 90
        0
176
     1
290
     0
176
     1
290
     1
176
     1
290
     1
176
     1
290
     0
176
     1
290
     0
176
     1
290
     0
176
     1
290
     0
176
     1
290
     0
176
     1
290
     0
176
     1
 90
       50
176
     1
 40
0.0
176
     1
 40
1.0
176
     1
 90
        0
176
     1
 62
    18
420
        0
176
     1
 90
       50
176
     1
 90
        3
176
     1
 62
     5
420
      255
176
     1
290
     0
176
     1
 90
       50
176
     1
 90
       50
176
     1
 90
       50
176
     1
290
     0
176
     1
 90
       50
176
     1
 62
   256
176
     0
 40
1.0
176
     0
 90
        2
176
     1
  1
strokes_ogs.tif
176
     1
290
     0
176
     1
 40
1.0
176
     1
 40
1.0
176
     1
  0
VISUALSTYLE
  5
189
102
{ACAD_REACTORS
330
17E
102
}
330
17E
100
AcDbVisualStyle
  2
Dim
 70
    11
177
     3
291
     1
 70
    58
 90
        2
176
     1
 90
        2
176
     1
 90
        0
176
     1
 90
        0
176
     1
 40
0.6
176
     1
 40
30.0
176
     1
 62
     7
420
 16777215
176
     1
 90
        1
176
     1
 90
        4
176
     1
 62
     7
176
     1
 62
   257
176
     1
 90
        1
176
     1
 90
        1
176
     1
 40
1.0
176
     1
 90
        8
176
     1
 62
     7
176
     1
 40
1.0
176
     1
 90
        1
176
     1
 90
        6
176
     1
 90
        2
176
     1
 62
     7
176
     1
 90
        5
176
     1
 90
        0
176
     1
 90
        0
176
     1
290
     0
176
     1
 90
        1
176
     1
 40
-50.0
176
     1
 90
        0
176
     1
290
     0
176
     1
290
     1
176
     1
290
     1
176
     1
290
     0
176
     1
290
     0
176
     1
290
     0
176
     1
290
     0
176
     1
290
     0
176
     1
290
     0
176
     1
 90
       50
176
     1
 40
0.0
176
     1
 40
1.0
176
     1
 90
        0
176
     1
 62
    18
420
        0
176
     1
 90
       50
176
     1
 90
        3
176
     1
 62
     5
420
      255
176
     1
290
     0
176
     1
 90
       50
176
     1
 90
       50
176
     1
 90
       50
176
     1
290
     0
176
     1
 90
       50
176
     1
 62
   256
176
     0
 40
1.0
176
     0
 90
        2
176
     1
  1
strokes_ogs.tif
176
     1
290
     0
176
     1
 40
1.0
176
     1
 40
1.0
176
     1
  0
VISUALSTYLE
  5
191
102
{ACAD_REACTORS
330
17E
102
}
330
17E
100
AcDbVisualStyle
  2
EdgeColorOff
 70
    22
177
     3
291
     1
 70
    58
 90
        2
176
     0
 90
        2
176
     0
 90
        0
176
     0
 90
        0
176
     0
 40
0.6
176
     0
 40
30.0
176
     0
 62
     7
420
 16777215
176
     0
 90
        1
176
     0
 90
        4
176
     0
 62
     7
176
     0
 62
   257
176
     0
 90
        1
176
     0
 90
        1
176
     0
 40
1.0
176
     0
 90
        8
176
     2
 62
     7
176
     0
 40
1.0
176
     0
 90
        1
176
     0
 90
        6
176
     0
 90
        2
176
     0
 62
     7
176
     0
 90
        5
176
     0
 90
        0
176
     0
 90
        0
176
     0
290
     0
176
     0
 90
        1
176
     0
 40
0.0
176
     0
 90
        0
176
     0
290
     0
176
     0
290
     1
176
     0
290
     1
176
     0
290
     0
176
     0
290
     0
176
     0
290
     0
176
     0
290
     0
176
     0
290
     0
176
     0
290
     0
176
     0
 90
       50
176
     0
 40
0.0
176
     0
 40
1.0
176
     0
 90
        0
176
     0
 62
    18
420
        0
176
     0
 90
       50
176
     0
 90
        3
176
     0
 62
     5
420
      255
176
     0
290
     0
176
     0
 90
       50
176
     0
 90
       50
176
     0
 90
       50
176
     0
290
     0
176
     0
 90
       50
176
     0
 62
   256
176
     0
 40
1.0
176
     0
 90
        2
176
     0
  1
strokes_ogs.tif
176
     0
290
     0
176
     0
 40
1.0
176
     0
 40
1.0
176
     0
  0
VISUALSTYLE
  5
18D
102
{ACAD_REACTORS
330
17E
102
}
330
17E
100
AcDbVisualStyle
  2
Facepattern
 70
    15
177
     3
291
     1
 70
    58
 90
        2
176
     1
 90
        2
176
     1
 90
        0
176
     1
 90
        0
176
     1
 40
0.6
176
     1
 40
30.0
176
     1
 62
     7
420
 16777215
176
     1
 90
        1
176
     1
 90
        4
176
     1
 62
     7
176
     1
 62
   257
176
     1
 90
        1
176
     1
 90
        1
176
     1
 40
1.0
176
     1
 90
        8
176
     1
 62
     7
176
     1
 40
1.0
176
     1
 90
        1
176
     1
 90
        6
176
     1
 90
        2
176
     1
 62
     7
176
     1
 90
        5
176
     1
 90
        0
176
     1
 90
        0
176
     1
290
     0
176
     1
 90
        1
176
     1
 40
0.0
176
     1
 90
        0
176
     1
290
     0
176
     1
290
     1
176
     1
290
     1
176
     1
290
     0
176
     1
290
     0
176
     1
290
     0
176
     1
290
     0
176
     1
290
     0
176
     1
290
     0
176
     1
 90
       50
176
     1
 40
0.0
176
     1
 40
1.0
176
     1
 90
        0
176
     1
 62
    18
420
        0
176
     1
 90
       50
176
     1
 90
        3
176
     1
 62
     5
420
      255
176
     1
290
     0
176
     1
 90
       50
176
     1
 90
       50
176
     1
 90
       50
176
     1
290
     0
176
     1
 90
       50
176
     1
 62
   256
176
     0
 40
1.0
176
     0
 90
        2
176
     1
  1
strokes_ogs.tif
176
     1
290
     0
176
     1
 40
1.0
176
     1
 40
1.0
176
     1
  0
VISUALSTYLE
  5
17F
102
{ACAD_REACTORS
330
17E
102
}
330
17E
100
AcDbVisualStyle
  2
Flat
 70
     0
177
     3
291
     1
 70
    58
 90
        2
176
     1
 90
        1
176
     1
 90
        1
176
     1
 90
        2
176
     1
 40
0.6
176
     1
 40
30.0
176
     1
 62
     7
420
 16777215
176
     1
 90
        0
176
     1
 90
        0
176
     1
 62
     7
176
     1
 62
   257
176
     1
 90
        1
176
     1
 90
        1
176
     1
 40
1.0
176
     1
 90
        8
176
     1
 62
     7
176
     1
 40
1.0
176
     1
 90
        1
176
     1
 90
        6
176
     1
 90
        2
176
     1
 62
     7
176
     1
 90
        5
176
     1
 90
        0
176
     1
 90
        0
176
     1
290
     0
176
     1
 90
       13
176
     1
 40
0.0
176
     1
 90
        0
176
     1
290
     0
176
     1
290
     1
176
     1
290
     1
176
     1
290
     0
176
     1
290
     0
176
     1
290
     0
176
     1
290
     0
176
     1
290
     0
176
     1
290
     0
176
     1
 90
       50
176
     1
 40
0.0
176
     1
 40
1.0
176
     1
 90
        0
176
     1
 62
    18
420
        0
176
     1
 90
       50
176
     1
 90
        3
176
     1
 62
     5
420
      255
176
     1
290
     0
176
     1
 90
       50
176
     1
 90
       50
176
     1
 90
       50
176
     1
290
     0
176
     1
 90
       50
176
     1
 62
   256
176
     0
 40
1.0
176
     0
 90
        2
176
     1
  1
strokes_ogs.tif
176
     1
290
     0
176
     1
 40
1.0
176
     1
 40
1.0
176
     1
  0
VISUALSTYLE
  5
180
102
{ACAD_REACTORS
330
17E
102
}
330
17E
100
AcDbVisualStyle
  2
FlatWithEdges
 70
     1
177
     3
291
     1
 70
    58
 90
        2
176
     1
 90
        1
176
     1
 90
        1
176
     1
 90
        2
176
     1
 40
0.6
176
     1
 40
30.0
176
     1
 62
     7
420
 16777215
176
     1
 90
        1
176
     1
 90
        0
176
     1
 62
     7
176
     1
 62
   257
176
     1
 90
        1
176
     1
 90
        1
176
     1
 40
1.0
176
     1
 90
        0
176
     1
 62
   257
176
     1
 40
1.0
176
     1
 90
        1
176
     1
 90
        6
176
     1
 90
        2
176
     1
 62
     7
176
     1
 90
        5
176
     1
 90
        0
176
     1
 90
        0
176
     1
290
     0
176
     1
 90
       13
176
     1
 40
0.0
176
     1
 90
        0
176
     1
290
     0
176
     1
290
     1
176
     1
290
     1
176
     1
290
     0
176
     1
290
     0
176
     1
290
     0
176
     1
290
     0
176
     1
290
     0
176
     1
290
     0
176
     1
 90
       50
176
     1
 40
0.0
176
     1
 40
1.0
176
     1
 90
        0
176
     1
 62
    18
420
        0
176
     1
 90
       50
176
     1
 90
        3
176
     1
 62
     5
420
      255
176
     1
290
     0
176
     1
 90
       50
176
     1
 90
       50
176
     1
 90
       50
176
     1
290
     0
176
     1
 90
       50
176
     1
 62
   256
176
     0
 40
1.0
176
     0
 90
        2
176
     1
  1
strokes_ogs.tif
176
     1
290
     0
176
     1
 40
1.0
176
     1
 40
1.0
176
     1
  0
VISUALSTYLE
  5
181
102
{ACAD_REACTORS
330
17E
102
}
330
17E
100
AcDbVisualStyle
  2
Gouraud
 70
     2
177
     3
291
     1
 70
    58
 90
        2
176
     1
 90
        2
176
     1
 90
        1
176
     1
 90
        2
176
     1
 40
0.6
176
     1
 40
30.0
176
     1
 62
     7
420
 16777215
176
     1
 90
        0
176
     1
 90
        0
176
     1
 62
     7
176
     1
 62
   257
176
     1
 90
        1
176
     1
 90
        1
176
     1
 40
1.0
176
     1
 90
        0
176
     1
 62
     7
176
     1
 40
1.0
176
     1
 90
        1
176
     1
 90
        6
176
     1
 90
        2
176
     1
 62
     7
176
     1
 90
        5
176
     1
 90
        0
176
     1
 90
        0
176
     1
290
     0
176
     1
 90
       13
176
     1
 40
0.0
176
     1
 90
        0
176
     1
290
     0
176
     1
290
     1
176
     1
290
     1
176
     1
290
     0
176
     1
290
     0
176
     1
290
     0
176
     1
290
     0
176
     1
290
     0
176
     1
290
     0
176
     1
 90
       50
176
     1
 40
0.0
176
     1
 40
1.0
176
     1
 90
        0
176
     1
 62
    18
420
        0
176
     1
 90
       50
176
     1
 90
        3
176
     1
 62
     5
420
      255
176
     1
290
     0
176
     1
 90
       50
176
     1
 90
       50
176
     1
 90
       50
176
     1
290
     0
176
     1
 90
       50
176
     1
 62
   256
176
     0
 40
1.0
176
     0
 90
        2
176
     1
  1
strokes_ogs.tif
176
     1
290
     0
176
     1
 40
1.0
176
     1
 40
1.0
176
     1
  0
VISUALSTYLE
  5
182
102
{ACAD_REACTORS
330
17E
102
}
330
17E
100
AcDbVisualStyle
  2
GouraudWithEdges
 70
     3
177
     3
291
     1
 70
    58
 90
        2
176
     1
 90
        2
176
     1
 90
        1
176
     1
 90
        2
176
     1
 40
0.6
176
     1
 40
30.0
176
     1
 62
     7
420
 16777215
176
     1
 90
        1
176
     1
 90
        0
176
     1
 62
     7
176
     1
 62
   257
176
     1
 90
        1
176
     1
 90
        1
176
     1
 40
1.0
176
     1
 90
        0
176
     1
 62
   257
176
     1
 40
1.0
176
     1
 90
        1
176
     1
 90
        6
176
     1
 90
        2
176
     1
 62
     7
176
     1
 90
        5
176
     1
 90
        0
176
     1
 90
        0
176
     1
290
     0
176
     1
 90
       13
176
     1
 40
0.0
176
     1
 90
        0
176
     1
290
     0
176
     1
290
     1
176
     1
290
     1
176
     1
290
     0
176
     1
290
     0
176
     1
290
     0
176
     1
290
     0
176
     1
290
     0
176
     1
290
     0
176
     1
 90
       50
176
     1
 40
0.0
176
     1
 40
1.0
176
     1
 90
        0
176
     1
 62
    18
420
        0
176
     1
 90
       50
176
     1
 90
        3
176
     1
 62
     5
420
      255
176
     1
290
     0
176
     1
 90
       50
176
     1
 90
       50
176
     1
 90
       50
176
     1
290
     0
176
     1
 90
       50
176
     1
 62
   256
176
     0
 40
1.0
176
     0
 90
        2
176
     1
  1
strokes_ogs.tif
176
     1
290
     0
176
     1
 40
1.0
176
     1
 40
1.0
176
     1
  0
VISUALSTYLE
  5
185
102
{ACAD_REACTORS
330
17E
102
}
330
17E
100
AcDbVisualStyle
  2
Hidden
 70
     6
177
     3
291
     0
 70
    58
 90
        1
176
     1
 90
        2
176
     1
 90
        2
176
     1
 90
        0
176
     1
 40
0.6
176
     1
 40
30.0
176
     1
 62
     7
420
 16777215
176
     1
 90
        2
176
     1
 90
        2
176
     1
 62
     7
176
     1
 62
   257
176
     1
 90
        2
176
     1
 90
        1
176
     1
 40
40.0
176
     1
 90
        0
176
     1
 62
   257
176
     1
 40
1.0
176
     1
 90
        1
176
     1
 90
        6
176
     1
 90
        2
176
     1
 62
     7
176
     1
 90
        3
176
     1
 90
        0
176
     1
 90
        0
176
     1
290
     0
176
     1
 90
        1
176
     1
 40
0.0
176
     1
 90
        0
176
     1
290
     0
176
     1
290
     1
176
     1
290
     1
176
     1
290
     0
176
     1
290
     0
176
     1
290
     0
176
     1
290
     0
176
     1
290
     0
176
     1
290
     0
176
     1
 90
       50
176
     1
 40
0.0
176
     1
 40
1.0
176
     1
 90
        0
176
     1
 62
    18
420
        0
176
     1
 90
       50
176
     1
 90
        3
176
     1
 62
     5
420
      255
176
     1
290
     0
176
     1
 90
       50
176
     1
 90
       50
176
     1
 90
       50
176
     1
290
     0
176
     1
 90
       50
176
     1
 62
   256
176
     0
 40
1.0
176
     0
 90
        2
176
     1
  1
strokes_ogs.tif
176
     1
290
     0
176
     1
 40
1.0
176
     1
 40
1.0
176
     1
  0
VISUALSTYLE
  5
18F
102
{ACAD_REACTORS
330
17E
102
}
330
17E
100
AcDbVisualStyle
  2
JitterOff
 70
    20
177
     3
291
     1
 70
    58
 90
        2
176
     0
 90
        2
176
     0
 90
        0
176
     0
 90
        0
176
     0
 40
0.6
176
     0
 40
30.0
176
     0
 62
     7
420
 16777215
176
     0
 90
        1
176
     0
 90
        4
176
     0
 62
     7
176
     0
 62
   257
176
     0
 90
        1
176
     0
 90
        1
176
     0
 40
1.0
176
     0
 90
       10
176
     2
 62
     7
176
     0
 40
1.0
176
     0
 90
        1
176
     0
 90
        6
176
     0
 90
        2
176
     0
 62
     7
176
     0
 90
        5
176
     0
 90
        0
176
     0
 90
        0
176
     0
290
     0
176
     0
 90
        1
176
     0
 40
0.0
176
     0
 90
        0
176
     0
290
     0
176
     0
290
     1
176
     0
290
     1
176
     0
290
     0
176
     0
290
     0
176
     0
290
     0
176
     0
290
     0
176
     0
290
     0
176
     0
290
     0
176
     0
 90
       50
176
     0
 40
0.0
176
     0
 40
1.0
176
     0
 90
        0
176
     0
 62
    18
420
        0
176
     0
 90
       50
176
     0
 90
        3
176
     0
 62
     5
420
      255
176
     0
290
     0
176
     0
 90
       50
176
     0
 90
       50
176
     0
 90
       50
176
     0
290
     0
176
     0
 90
       50
176
     0
 62
   256
176
     0
 40
1.0
176
     0
 90
        2
176
     0
  1
strokes_ogs.tif
176
     0
290
     0
176
     0
 40
1.0
176
     0
 40
1.0
176
     0
  0
VISUALSTYLE
  5
18C
102
{ACAD_REACTORS
330
17E
102
}
330
17E
100
AcDbVisualStyle
  2
Linepattern
 70
    14
177
     3
291
     1
 70
    58
 90
        2
176
     1
 90
        2
176
     1
 90
        0
176
     1
 90
        0
176
     1
 40
0.6
176
     1
 40
30.0
176
     1
 62
     7
420
 16777215
176
     1
 90
        1
176
     1
 90
        4
176
     1
 62
     7
176
     1
 62
   257
176
     1
 90
        7
176
     1
 90
        7
176
     1
 40
1.0
176
     1
 90
        8
176
     1
 62
     7
176
     1
 40
1.0
176
     1
 90
        1
176
     1
 90
        6
176
     1
 90
        2
176
     1
 62
     7
176
     1
 90
        5
176
     1
 90
        0
176
     1
 90
        0
176
     1
290
     0
176
     1
 90
        1
176
     1
 40
0.0
176
     1
 90
        0
176
     1
290
     0
176
     1
290
     1
176
     1
290
     1
176
     1
290
     0
176
     1
290
     0
176
     1
290
     0
176
     1
290
     0
176
     1
290
     0
176
     1
290
     0
176
     1
 90
       50
176
     1
 40
0.0
176
     1
 40
1.0
176
     1
 90
        0
176
     1
 62
    18
420
        0
176
     1
 90
       50
176
     1
 90
        3
176
     1
 62
     5
420
      255
176
     1
290
     0
176
     1
 90
       50
176
     1
 90
       50
176
     1
 90
       50
176
     1
290
     0
176
     1
 90
       50
176
     1
 62
   256
176
     0
 40
1.0
176
     0
 90
        2
176
     1
  1
strokes_ogs.tif
176
     1
290
     0
176
     1
 40
1.0
176
     1
 40
1.0
176
     1
  0
VISUALSTYLE
  5
190
102
{ACAD_REACTORS
330
17E
102
}
330
17E
100
AcDbVisualStyle
  2
OverhangOff
 70
    21
177
     3
291
     1
 70
    58
 90
        2
176
     0
 90
        2
176
     0
 90
        0
176
     0
 90
        0
176
     0
 40
0.6
176
     0
 40
30.0
176
     0
 62
     7
420
 16777215
176
     0
 90
        1
176
     0
 90
        4
176
     0
 62
     7
176
     0
 62
   257
176
     0
 90
        1
176
     0
 90
        1
176
     0
 40
1.0
176
     0
 90
        9
176
     2
 62
     7
176
     0
 40
1.0
176
     0
 90
        1
176
     0
 90
        6
176
     0
 90
        2
176
     0
 62
     7
176
     0
 90
        5
176
     0
 90
        0
176
     0
 90
        0
176
     0
290
     0
176
     0
 90
        1
176
     0
 40
0.0
176
     0
 90
        0
176
     0
290
     0
176
     0
290
     1
176
     0
290
     1
176
     0
290
     0
176
     0
290
     0
176
     0
290
     0
176
     0
290
     0
176
     0
290
     0
176
     0
290
     0
176
     0
 90
       50
176
     0
 40
0.0
176
     0
 40
1.0
176
     0
 90
        0
176
     0
 62
    18
420
        0
176
     0
 90
       50
176
     0
 90
        3
176
     0
 62
     5
420
      255
176
     0
290
     0
176
     0
 90
       50
176
     0
 90
       50
176
     0
 90
       50
176
     0
290
     0
176
     0
 90
       50
176
     0
 62
   256
176
     0
 40
1.0
176
     0
 90
        2
176
     0
  1
strokes_ogs.tif
176
     0
290
     0
176
     0
 40
1.0
176
     0
 40
1.0
176
     0
  0
VISUALSTYLE
  5
187
102
{ACAD_REACTORS
330
17E
102
}
330
17E
100
AcDbVisualStyle
  2
Realistic
 70
     8
177
     3
291
     0
 70
    58
 90
        2
176
     1
 90
        3
176
     1
 90
        0
176
     1
 90
        2
176
     1
 40
0.6
176
     1
 40
30.0
176
     1
 62
     7
420
 16777215
176
     1
 90
        0
176
     1
 90
        0
176
     1
 62
     7
176
     1
 62
   257
176
     1
 90
        1
176
     1
 90
        1
176
     1
 40
1.0
176
     1
 90
        8
176
     1
 62
   257
176
     1
 40
1.0
176
     1
 90
        1
176
     1
 90
        6
176
     1
 90
        2
176
     1
 62
     7
176
     1
 90
        3
176
     1
 90
        0
176
     1
 90
        0
176
     1
290
     0
176
     1
 90
       13
176
     1
 40
0.0
176
     1
 90
        0
176
     1
290
     0
176
     1
290
     1
176
     1
290
     1
176
     1
290
     0
176
     1
290
     0
176
     1
290
     0
176
     1
290
     0
176
     1
290
     0
176
     1
290
     0
176
     1
 90
       50
176
     1
 40
0.0
176
     1
 40
1.0
176
     1
 90
        0
176
     1
 62
    18
420
        0
176
     1
 90
       50
176
     1
 90
        3
176
     1
 62
     5
420
      255
176
     1
290
     0
176
     1
 90
       50
176
     1
 90
       50
176
     1
 90
       50
176
     1
290
     0
176
     1
 90
       50
176
     1
 62
   256
176
     0
 40
1.0
176
     0
 90
        2
176
     1
  1
strokes_ogs.tif
176
     1
290
     0
176
     1
 40
1.0
176
     1
 40
1.0
176
     1
  0
VISUALSTYLE
  5
196
102
{ACAD_REACTORS
330
17E
102
}
330
17E
100
AcDbVisualStyle
  2
Shaded
 70
    27
177
     3
291
     0
 70
    58
 90
        2
176
     1
 90
        2
176
     1
 90
        1
176
     1
 90
        2
176
     1
 40
0.6
176
     1
 40
30.0
176
     1
 62
     7
420
 16777215
176
     1
 90
        0
176
     1
 90
        4
176
     1
 62
     7
176
     1
 62
   257
176
     1
 90
        1
176
     1
 90
        1
176
     1
 40
1.0
176
     1
 90
        8
176
     1
 62
   257
176
     1
 40
1.0
176
     1
 90
        1
176
     1
 90
        6
176
     1
 90
        2
176
     1
 62
     8
420
  7895160
176
     1
 90
        3
176
     1
 90
        0
176
     1
 90
        0
176
     1
290
     0
176
     1
 90
        5
176
     1
 40
0.0
176
     1
 90
        0
176
     1
290
     0
176
     1
290
     1
176
     1
290
     1
176
     1
290
     0
176
     1
290
     0
176
     1
290
     0
176
     1
290
     0
176
     1
290
     0
176
     1
290
     0
176
     1
 90
       50
176
     1
 40
0.0
176
     1
 40
1.0
176
     1
 90
        0
176
     1
 62
    18
420
        0
176
     1
 90
       50
176
     1
 90
        3
176
     1
 62
     5
420
      255
176
     1
290
     0
176
     1
 90
       50
176
     1
 90
       50
176
     1
 90
       50
176
     1
290
     0
176
     1
 90
       50
176
     1
 62
   256
176
     0
 40
1.0
176
     0
 90
        2
176
     1
  1
strokes_ogs.tif
176
     1
290
     0
176
     1
 40
1.0
176
     1
 40
1.0
176
     1
  0
VISUALSTYLE
  5
195
102
{ACAD_REACTORS
330
17E
102
}
330
17E
100
AcDbVisualStyle
  2
Shaded with edges
 70
    26
177
     3
291
     0
 70
    58
 90
        2
176
     1
 90
        2
176
     1
 90
        1
176
     1
 90
        2
176
     1
 40
0.6
176
     1
 40
30.0
176
     1
 62
     7
420
 16777215
176
     1
 90
        1
176
     1
 90
       10
176
     1
 62
     7
176
     1
 62
   257
176
     1
 90
        2
176
     1
 90
        1
176
     1
 40
1.0
176
     1
 90
        8
176
     1
 62
   257
176
     1
 40
1.0
176
     1
 90
        1
176
     1
 90
        6
176
     1
 90
        2
176
     1
 62
     7
176
     1
 90
        3
176
     1
 90
        0
176
     1
 90
        0
176
     1
290
     0
176
     1
 90
        5
176
     1
 40
0.0
176
     1
 90
        0
176
     1
290
     0
176
     1
290
     1
176
     1
290
     1
176
     1
290
     0
176
     1
290
     0
176
     1
290
     0
176
     1
290
     0
176
     1
290
     0
176
     1
290
     0
176
     1
 90
       50
176
     1
 40
0.0
176
     1
 40
1.0
176
     1
 90
        0
176
     1
 62
    18
420
        0
176
     1
 90
       50
176
     1
 90
        3
176
     1
 62
     5
420
      255
176
     1
290
     0
176
     1
 90
       50
176
     1
 90
       50
176
     1
 90
       50
176
     1
290
     0
176
     1
 90
       50
176
     1
 62
   256
176
     0
 40
1.0
176
     0
 90
        2
176
     1
  1
strokes_ogs.tif
176
     1
290
     0
176
     1
 40
1.0
176
     1
 40
1.0
176
     1
  0
VISUALSTYLE
  5
192
102
{ACAD_REACTORS
330
17E
102
}
330
17E
100
AcDbVisualStyle
  2
Shades of Gray
 70
    23
177
     3
291
     0
 70
    58
 90
        2
176
     1
 90
        2
176
     1
 90
        3
176
     1
 90
        0
176
     1
 40
0.6
176
     1
 40
30.0
176
     1
 62
     7
420
 16777215
176
     1
 90
        2
176
     1
 90
        2
176
     1
 62
     7
176
     1
 62
     7
176
     1
 90
        1
176
     1
 90
        1
176
     1
 40
40.0
176
     1
 90
        8
176
     1
 62
     7
176
     1
 40
1.0
176
     1
 90
        1
176
     1
 90
        6
176
     1
 90
        2
176
     1
 62
     7
176
     1
 90
        3
176
     1
 90
        0
176
     1
 90
        0
176
     1
290
     0
176
     1
 90
        1
176
     1
 40
0.0
176
     1
 90
        0
176
     1
290
     0
176
     1
290
     1
176
     1
290
     1
176
     1
290
     0
176
     1
290
     0
176
     1
290
     0
176
     1
290
     0
176
     1
290
     0
176
     1
290
     0
176
     1
 90
       50
176
     1
 40
0.0
176
     1
 40
1.0
176
     1
 90
        0
176
     1
 62
    18
420
        0
176
     1
 90
       50
176
     1
 90
        3
176
     1
 62
     5
420
      255
176
     1
290
     0
176
     1
 90
       50
176
     1
 90
       50
176
     1
 90
       50
176
     1
290
     0
176
     1
 90
       50
176
     1
 62
   256
176
     0
 40
1.0
176
     0
 90
        2
176
     1
  1
strokes_ogs.tif
176
     1
290
     0
176
     1
 40
1.0
176
     1
 40
1.0
176
     1
  0
VISUALSTYLE
  5
193
102
{ACAD_REACTORS
330
17E
102
}
330
17E
100
AcDbVisualStyle
  2
Sketchy
 70
    24
177
     3
291
     0
 70
    58
 90
        1
176
     1
 90
        2
176
     1
 90
        2
176
     1
 90
        0
176
     1
 40
0.6
176
     1
 40
30.0
176
     1
 62
     7
420
 16777215
176
     1
 90
        2
176
     1
 90
        2
176
     1
 62
     7
176
     1
 62
     7
176
     1
 90
        1
176
     1
 90
        1
176
     1
 40
40.0
176
     1
 90
       11
176
     1
 62
     7
176
     1
 40
1.0
176
     1
 90
        1
176
     1
 90
        6
176
     1
 90
        2
176
     1
 62
     7
176
     1
 90
        6
176
     1
 90
        0
176
     1
 90
        0
176
     1
290
     0
176
     1
 90
        1
176
     1
 40
0.0
176
     1
 90
        0
176
     1
290
     0
176
     1
290
     1
176
     1
290
     1
176
     1
290
     0
176
     1
290
     0
176
     1
290
     0
176
     1
290
     0
176
     1
290
     0
176
     1
290
     0
176
     1
 90
       50
176
     1
 40
0.0
176
     1
 40
1.0
176
     1
 90
        0
176
     1
 62
    18
420
        0
176
     1
 90
       50
176
     1
 90
        3
176
     1
 62
     5
420
      255
176
     1
290
     0
176
     1
 90
       50
176
     1
 90
       50
176
     1
 90
       50
176
     1
290
     0
176
     1
 90
       50
176
     1
 62
   256
176
     0
 40
1.0
176
     0
 90
        2
176
     1
  1
strokes_ogs.tif
176
     1
290
     0
176
     1
 40
1.0
176
     1
 40
1.0
176
     1
  0
VISUALSTYLE
  5
18B
102
{ACAD_REACTORS
330
17E
102
}
330
17E
100
AcDbVisualStyle
  2
Thicken
 70
    13
177
     3
291
     1
 70
    58
 90
        2
176
     1
 90
        2
176
     1
 90
        0
176
     1
 90
        0
176
     1
 40
0.6
176
     1
 40
30.0
176
     1
 62
     7
420
 16777215
176
     1
 90
        1
176
     1
 90
        4
176
     1
 62
     7
176
     1
 62
   257
176
     1
 90
        1
176
     1
 90
        1
176
     1
 40
1.0
176
     1
 90
       12
176
     1
 62
     7
176
     1
 40
1.0
176
     1
 90
        1
176
     1
 90
        6
176
     1
 90
        2
176
     1
 62
     7
176
     1
 90
        5
176
     1
 90
        0
176
     1
 90
        0
176
     1
290
     0
176
     1
 90
        1
176
     1
 40
0.0
176
     1
 90
        0
176
     1
290
     0
176
     1
290
     1
176
     1
290
     1
176
     1
290
     0
176
     1
290
     0
176
     1
290
     0
176
     1
290
     0
176
     1
290
     0
176
     1
290
     0
176
     1
 90
       50
176
     1
 40
0.0
176
     1
 40
1.0
176
     1
 90
        0
176
     1
 62
    18
420
        0
176
     1
 90
       50
176
     1
 90
        3
176
     1
 62
     5
420
      255
176
     1
290
     0
176
     1
 90
       50
176
     1
 90
       50
176
     1
 90
       50
176
     1
290
     0
176
     1
 90
       50
176
     1
 62
   256
176
     0
 40
1.0
176
     0
 90
        2
176
     1
  1
strokes_ogs.tif
176
     1
290
     0
176
     1
 40
1.0
176
     1
 40
1.0
176
     1
  0
VISUALSTYLE
  5
184
102
{ACAD_REACTORS
330
17E
102
}
330
17E
100
AcDbVisualStyle
  2
Wireframe
 70
     5
177
     3
291
     0
 70
    58
 90
        0
176
     1
 90
        2
176
     1
 90
        0
176
     1
 90
        0
176
     1
 40
0.6
176
     1
 40
30.0
176
     1
 62
     7
420
 16777215
176
     1
 90
        1
176
     1
 90
        4
176
     1
 62
     7
176
     1
 62
   257
176
     1
 90
        1
176
     1
 90
        1
176
     1
 40
1.0
176
     1
 90
        0
176
     1
 62
   257
176
     1
 40
1.0
176
     1
 90
        1
176
     1
 90
        6
176
     1
 90
        2
176
     1
 62
     7
176
     1
 90
        3
176
     1
 90
        0
176
     1
 90
        0
176
     1
290
     0
176
     1
 90
        1
176
     1
 40
0.0
176
     1
 90
        0
176
     1
290
     0
176
     1
290
     1
176
     1
290
     1
176
     1
290
     0
176
     1
290
     0
176
     1
290
     0
176
     1
290
     0
176
     1
290
     0
176
     1
290
     0
176
     1
 90
       50
176
     1
 40
0.0
176
     1
 40
1.0
176
     1
 90
        0
176
     1
 62
    18
420
        0
176
     1
 90
       50
176
     1
 90
        3
176
     1
 62
     5
420
      255
176
     1
290
     0
176
     1
 90
       50
176
     1
 90
       50
176
     1
 90
       50
176
     1
290
     0
176
     1
 90
       50
176
     1
 62
   256
176
     0
 40
1.0
176
     0
 90
        2
176
     1
  1
strokes_ogs.tif
176
     1
290
     0
176
     1
 40
1.0
176
     1
 40
1.0
176
     1
  0
VISUALSTYLE
  5
194
102
{ACAD_REACTORS
330
17E
102
}
330
17E
100
AcDbVisualStyle
  2
X-Ray
 70
    25
177
     3
291
     0
 70
    58
 90
        2
176
     1
 90
        2
176
     1
 90
        1
176
     1
 90
        1
176
     1
 40
0.5
176
     1
 40
30.0
176
     1
 62
     7
420
 16777215
176
     1
 90
        1
176
     1
 90
        0
176
     1
 62
     7
176
     1
 62
   257
176
     1
 90
        1
176
     1
 90
        1
176
     1
 40
1.0
176
     1
 90
        8
176
     1
 62
     7
176
     1
 40
1.0
176
     1
 90
        1
176
     1
 90
        6
176
     1
 90
        2
176
     1
 62
     7
176
     1
 90
        3
176
     1
 90
        0
176
     1
 90
        0
176
     1
290
     0
176
     1
 90
       13
176
     1
 40
0.0
176
     1
 90
        0
176
     1
290
     0
176
     1
290
     1
176
     1
290
     1
176
     1
290
     0
176
     1
290
     0
176
     1
290
     0
176
     1
290
     0
176
     1
290
     0
176
     1
290
     0
176
     1
 90
       50
176
     1
 40
0.0
176
     1
 40
1.0
176
     1
 90
        0
176
     1
 62
    18
420
        0
176
     1
 90
       50
176
     1
 90
        3
176
     1
 62
     5
420
      255
176
     1
290
     0
176
     1
 90
       50
176
     1
 90
       50
176
     1
 90
       50
176
     1
290
     0
176
     1
 90
       50
176
     1
 62
   256
176
     0
 40
1.0
176
     0
 90
        2
176
     1
  1
strokes_ogs.tif
176
     1
290
     0
176
     1
 40
1.0
176
     1
 40
1.0
176
     1
  0
DICTIONARYVAR
  5
1A4
102
{ACAD_REACTORS
330
1A3
102
}
330
1A3
100
DictionaryVariables
280
     0
  1
1:1
  0
DICTIONARYVAR
  5
1A9
102
{ACAD_REACTORS
330
1A3
102
}
330
1A3
100
DictionaryVariables
280
     0
  1
Standard
  0
DICTIONARYVAR
  5
1A8
102
{ACAD_REACTORS
330
1A3
102
}
330
1A3
100
DictionaryVariables
280
     0
  1
Standard
  0
DICTIONARYVAR
  5
1AA
102
{ACAD_REACTORS
330
1A3
102
}
330
1A3
100
DictionaryVariables
280
     0
  1
0
  0
DICTIONARY
  5
23C
330
19C
100
AcDbDictionary
280
     1
281
     1
  3
ACAD_ROUNDTRIP_2008_TABLESTYLE_CELLSTYLEMAP
360
23D
  0
CELLSTYLEMAP
  5
23D
102
{ACAD_REACTORS
330
23C
102
}
330
23C
100
AcDbCellStyleMap
 90
        3
300
CELLSTYLE
  1
TABLEFORMAT_BEGIN
 90
        5
170
     1
 91
        0
 92
    32768
 62
   257
 93
        1
300
CONTENTFORMAT
  1
CONTENTFORMAT_BEGIN
 90
        0
 91
        0
 92
        4
 93
        0
300

 40
0.0
140
1.0
 94
        5
 62
     0
340
11
144
0.25
309
CONTENTFORMAT_END
171
     1
301
MARGIN
  1
CELLMARGIN_BEGIN
 40
0.06
 40
0.06
 40
0.06
 40
0.06
 40
0.06
 40
0.06
309
CELLMARGIN_END
 94
        6
 95
        1
302
GRIDFORMAT
  1
GRIDFORMAT_BEGIN
 90
        0
 91
        1
 62
     0
 92
       -2
340
14
 93
        0
 40
0.045
309
GRIDFORMAT_END
 95
        2
302
GRIDFORMAT
  1
GRIDFORMAT_BEGIN
 90
        0
 91
        1
 62
     0
 92
       -2
340
14
 93
        0
 40
0.045
309
GRIDFORMAT_END
 95
        4
302
GRIDFORMAT
  1
GRIDFORMAT_BEGIN
 90
        0
 91
        1
 62
     0
 92
       -2
340
14
 93
        0
 40
0.045
309
GRIDFORMAT_END
 95
        8
302
GRIDFORMAT
  1
GRIDFORMAT_BEGIN
 90
        0
 91
        1
 62
     0
 92
       -2
340
14
 93
        0
 40
0.045
309
GRIDFORMAT_END
 95
       16
302
GRIDFORMAT
  1
GRIDFORMAT_BEGIN
 90
        0
 91
        1
 62
     0
 92
       -2
340
14
 93
        0
 40
0.045
309
GRIDFORMAT_END
 95
       32
302
GRIDFORMAT
  1
GRIDFORMAT_BEGIN
 90
        0
 91
        1
 62
     0
 92
       -2
340
14
 93
        0
 40
0.045
309
GRIDFORMAT_END
309
TABLEFORMAT_END
  1
CELLSTYLE_BEGIN
 90
        1
 91
        1
300
_TITLE
309
CELLSTYLE_END
300
CELLSTYLE
  1
TABLEFORMAT_BEGIN
 90
        5
170
     1
 91
        0
 92
        0
 62
   257
 93
        1
300
CONTENTFORMAT
  1
CONTENTFORMAT_BEGIN
 90
        0
 91
        0
 92
        4
 93
        0
300

 40
0.0
140
1.0
 94
        5
 62
     0
340
11
144
0.18
309
CONTENTFORMAT_END
171
     1
301
MARGIN
  1
CELLMARGIN_BEGIN
 40
0.06
 40
0.06
 40
0.06
 40
0.06
 40
0.06
 40
0.06
309
CELLMARGIN_END
 94
        6
 95
        1
302
GRIDFORMAT
  1
GRIDFORMAT_BEGIN
 90
        0
 91
        1
 62
     0
 92
       -2
340
14
 93
        0
 40
0.045
309
GRIDFORMAT_END
 95
        2
302
GRIDFORMAT
  1
GRIDFORMAT_BEGIN
 90
        0
 91
        1
 62
     0
 92
       -2
340
14
 93
        0
 40
0.045
309
GRIDFORMAT_END
 95
        4
302
GRIDFORMAT
  1
GRIDFORMAT_BEGIN
 90
        0
 91
        1
 62
     0
 92
       -2
340
14
 93
        0
 40
0.045
309
GRIDFORMAT_END
 95
        8
302
GRIDFORMAT
  1
GRIDFORMAT_BEGIN
 90
        0
 91
        1
 62
     0
 92
       -2
340
14
 93
        0
 40
0.045
309
GRIDFORMAT_END
 95
       16
302
GRIDFORMAT
  1
GRIDFORMAT_BEGIN
 90
        0
 91
        1
 62
     0
 92
       -2
340
14
 93
        0
 40
0.045
309
GRIDFORMAT_END
 95
       32
302
GRIDFORMAT
  1
GRIDFORMAT_BEGIN
 90
        0
 91
        1
 62
     0
 92
       -2
340
14
 93
        0
 40
0.045
309
GRIDFORMAT_END
309
TABLEFORMAT_END
  1
CELLSTYLE_BEGIN
 90
        2
 91
        1
300
_HEADER
309
CELLSTYLE_END
300
CELLSTYLE
  1
TABLEFORMAT_BEGIN
 90
        5
170
     1
 91
        0
 92
        0
 62
   257
 93
        1
300
CONTENTFORMAT
  1
CONTENTFORMAT_BEGIN
 90
        0
 91
        0
 92
        4
 93
        0
300

 40
0.0
140
1.0
 94
        2
 62
     0
340
11
144
0.18
309
CONTENTFORMAT_END
171
     1
301
MARGIN
  1
CELLMARGIN_BEGIN
 40
0.06
 40
0.06
 40
0.06
 40
0.06
 40
0.06
 40
0.06
309
CELLMARGIN_END
 94
        6
 95
        1
302
GRIDFORMAT
  1
GRIDFORMAT_BEGIN
 90
        0
 91
        1
 62
     0
 92
       -2
340
14
 93
        0
 40
0.045
309
GRIDFORMAT_END
 95
        2
302
GRIDFORMAT
  1
GRIDFORMAT_BEGIN
 90
        0
 91
        1
 62
     0
 92
       -2
340
14
 93
        0
 40
0.045
309
GRIDFORMAT_END
 95
        4
302
GRIDFORMAT
  1
GRIDFORMAT_BEGIN
 90
        0
 91
        1
 62
     0
 92
       -2
340
14
 93
        0
 40
0.045
309
GRIDFORMAT_END
 95
        8
302
GRIDFORMAT
  1
GRIDFORMAT_BEGIN
 90
        0
 91
        1
 62
     0
 92
       -2
340
14
 93
        0
 40
0.045
309
GRIDFORMAT_END
 95
       16
302
GRIDFORMAT
  1
GRIDFORMAT_BEGIN
 90
        0
 91
        1
 62
     0
 92
       -2
340
14
 93
        0
 40
0.045
309
GRIDFORMAT_END
 95
       32
302
GRIDFORMAT
  1
GRIDFORMAT_BEGIN
 90
        0
 91
        1
 62
     0
 92
       -2
340
14
 93
        0
 40
0.045
309
GRIDFORMAT_END
309
TABLEFORMAT_END
  1
CELLSTYLE_BEGIN
 90
        3
 91
        2
300
_DATA
309
CELLSTYLE_END
  0
ENDSEC
  0
EOF
