solid ascii
  facet normal -1.000000e+000 0.000000e+000 0.000000e+000
    outer loop
      vertex   -5.221716e+001 1.355496e+002 5.662569e+001
      vertex   -5.221716e+001 1.355496e+002 6.262569e+001
      vertex   -5.221716e+001 1.415496e+002 5.662569e+001
    endloop
  endfacet
  facet normal -1.000000e+000 0.000000e+000 0.000000e+000
    outer loop
      vertex   -5.221716e+001 1.415496e+002 5.662569e+001
      vertex   -5.221716e+001 1.355496e+002 6.262569e+001
      vertex   -5.221716e+001 1.415496e+002 6.262569e+001
    endloop
  endfacet
  facet normal 1.000000e+000 -0.000000e+000 0.000000e+000
    outer loop
      vertex   -3.221716e+001 1.355496e+002 6.262569e+001
      vertex   -3.221716e+001 1.355496e+002 5.662569e+001
      vertex   -3.221716e+001 1.415496e+002 6.262569e+001
    endloop
  endfacet
  facet normal 1.000000e+000 -0.000000e+000 0.000000e+000
    outer loop
      vertex   -3.221716e+001 1.415496e+002 6.262569e+001
      vertex   -3.221716e+001 1.355496e+002 5.662569e+001
      vertex   -3.221716e+001 1.415496e+002 5.662569e+001
    endloop
  endfacet
  facet normal 0.000000e+000 1.000000e+000 0.000000e+000
    outer loop
      vertex   -3.221716e+001 1.415496e+002 6.262569e+001
      vertex   -3.221716e+001 1.415496e+002 5.662569e+001
      vertex   -5.221716e+001 1.415496e+002 6.262569e+001
    endloop
  endfacet
  facet normal 0.000000e+000 1.000000e+000 0.000000e+000
    outer loop
      vertex   -5.221716e+001 1.415496e+002 6.262569e+001
      vertex   -3.221716e+001 1.415496e+002 5.662569e+001
      vertex   -5.221716e+001 1.415496e+002 5.662569e+001
    endloop
  endfacet
  facet normal 1.000000e+000 -0.000000e+000 0.000000e+000
    outer loop
      vertex   -8.221716e+001 1.355496e+002 6.262569e+001
      vertex   -8.221716e+001 1.355496e+002 5.662569e+001
      vertex   -8.221716e+001 1.415496e+002 6.262569e+001
    endloop
  endfacet
  facet normal 1.000000e+000 -0.000000e+000 0.000000e+000
    outer loop
      vertex   -8.221716e+001 1.415496e+002 6.262569e+001
      vertex   -8.221716e+001 1.355496e+002 5.662569e+001
      vertex   -8.221716e+001 1.415496e+002 5.662569e+001
    endloop
  endfacet
  facet normal -1.000000e+000 0.000000e+000 0.000000e+000
    outer loop
      vertex   -1.022172e+002 1.355496e+002 5.662569e+001
      vertex   -1.022172e+002 1.355496e+002 6.262569e+001
      vertex   -1.022172e+002 1.415496e+002 5.662569e+001
    endloop
  endfacet
  facet normal -1.000000e+000 0.000000e+000 0.000000e+000
    outer loop
      vertex   -1.022172e+002 1.415496e+002 5.662569e+001
      vertex   -1.022172e+002 1.355496e+002 6.262569e+001
      vertex   -1.022172e+002 1.415496e+002 6.262569e+001
    endloop
  endfacet
  facet normal -0.000000e+000 1.000000e+000 0.000000e+000
    outer loop
      vertex   -1.022172e+002 1.415496e+002 5.662569e+001
      vertex   -1.022172e+002 1.415496e+002 6.262569e+001
      vertex   -8.221716e+001 1.415496e+002 5.662569e+001
    endloop
  endfacet
  facet normal -0.000000e+000 1.000000e+000 -0.000000e+000
    outer loop
      vertex   -8.221716e+001 1.415496e+002 5.662569e+001
      vertex   -1.022172e+002 1.415496e+002 6.262569e+001
      vertex   -8.221716e+001 1.415496e+002 6.262569e+001
    endloop
  endfacet
  facet normal -1.000000e+000 0.000000e+000 0.000000e+000
    outer loop
      vertex   -1.522172e+002 1.355496e+002 5.662569e+001
      vertex   -1.522172e+002 1.355496e+002 6.262569e+001
      vertex   -1.522172e+002 1.415496e+002 5.662569e+001
    endloop
  endfacet
  facet normal -1.000000e+000 0.000000e+000 0.000000e+000
    outer loop
      vertex   -1.522172e+002 1.415496e+002 5.662569e+001
      vertex   -1.522172e+002 1.355496e+002 6.262569e+001
      vertex   -1.522172e+002 1.415496e+002 6.262569e+001
    endloop
  endfacet
  facet normal 1.000000e+000 -0.000000e+000 0.000000e+000
    outer loop
      vertex   -1.322172e+002 1.355496e+002 6.262569e+001
      vertex   -1.322172e+002 1.355496e+002 5.662569e+001
      vertex   -1.322172e+002 1.415496e+002 6.262569e+001
    endloop
  endfacet
  facet normal 1.000000e+000 -0.000000e+000 0.000000e+000
    outer loop
      vertex   -1.322172e+002 1.415496e+002 6.262569e+001
      vertex   -1.322172e+002 1.355496e+002 5.662569e+001
      vertex   -1.322172e+002 1.415496e+002 5.662569e+001
    endloop
  endfacet
  facet normal 0.000000e+000 1.000000e+000 0.000000e+000
    outer loop
      vertex   -1.322172e+002 1.415496e+002 6.262569e+001
      vertex   -1.322172e+002 1.415496e+002 5.662569e+001
      vertex   -1.522172e+002 1.415496e+002 6.262569e+001
    endloop
  endfacet
  facet normal 0.000000e+000 1.000000e+000 0.000000e+000
    outer loop
      vertex   -1.522172e+002 1.415496e+002 6.262569e+001
      vertex   -1.322172e+002 1.415496e+002 5.662569e+001
      vertex   -1.522172e+002 1.415496e+002 5.662569e+001
    endloop
  endfacet
  facet normal -3.622953e-008 1.000000e+000 0.000000e+000
    outer loop
      vertex   -1.522172e+002 1.355496e+002 6.262569e+001
      vertex   -1.522172e+002 1.355496e+002 5.662569e+001
      vertex   -1.772172e+002 1.355496e+002 6.262569e+001
    endloop
  endfacet
  facet normal -3.622953e-008 1.000000e+000 0.000000e+000
    outer loop
      vertex   -1.772172e+002 1.355496e+002 6.262569e+001
      vertex   -1.522172e+002 1.355496e+002 5.662569e+001
      vertex   -1.772172e+002 1.355496e+002 5.662569e+001
    endloop
  endfacet
  facet normal 0.000000e+000 1.000000e+000 0.000000e+000
    outer loop
      vertex   -1.022172e+002 1.355496e+002 6.262569e+001
      vertex   -1.022172e+002 1.355496e+002 5.662569e+001
      vertex   -1.322172e+002 1.355496e+002 6.262569e+001
    endloop
  endfacet
  facet normal 0.000000e+000 1.000000e+000 0.000000e+000
    outer loop
      vertex   -1.322172e+002 1.355496e+002 6.262569e+001
      vertex   -1.022172e+002 1.355496e+002 5.662569e+001
      vertex   -1.322172e+002 1.355496e+002 5.662569e+001
    endloop
  endfacet
  facet normal 0.000000e+000 1.000000e+000 0.000000e+000
    outer loop
      vertex   -5.221716e+001 1.355496e+002 6.262569e+001
      vertex   -5.221716e+001 1.355496e+002 5.662569e+001
      vertex   -8.221716e+001 1.355496e+002 6.262569e+001
    endloop
  endfacet
  facet normal 0.000000e+000 1.000000e+000 0.000000e+000
    outer loop
      vertex   -8.221716e+001 1.355496e+002 6.262569e+001
      vertex   -5.221716e+001 1.355496e+002 5.662569e+001
      vertex   -8.221716e+001 1.355496e+002 5.662569e+001
    endloop
  endfacet
  facet normal 3.622953e-008 1.000000e+000 -0.000000e+000
    outer loop
      vertex   -3.221716e+001 1.355496e+002 5.662569e+001
      vertex   -3.221716e+001 1.355496e+002 6.262569e+001
      vertex   -7.217157e+000 1.355496e+002 5.662569e+001
    endloop
  endfacet
  facet normal 3.622953e-008 1.000000e+000 -1.129377e-022
    outer loop
      vertex   -7.217157e+000 1.355496e+002 5.662569e+001
      vertex   -3.221716e+001 1.355496e+002 6.262569e+001
      vertex   -7.217157e+000 1.355496e+002 6.262569e+001
    endloop
  endfacet
  facet normal -1.000000e+000 -0.000000e+000 -0.000000e+000
    outer loop
      vertex   -5.221716e+001 6.804957e+001 6.262569e+001
      vertex   -5.221716e+001 6.804957e+001 5.662569e+001
      vertex   -5.221716e+001 6.204957e+001 6.262569e+001
    endloop
  endfacet
  facet normal -1.000000e+000 -0.000000e+000 -0.000000e+000
    outer loop
      vertex   -5.221716e+001 6.204957e+001 6.262569e+001
      vertex   -5.221716e+001 6.804957e+001 5.662569e+001
      vertex   -5.221716e+001 6.204957e+001 5.662569e+001
    endloop
  endfacet
  facet normal 1.000000e+000 0.000000e+000 -0.000000e+000
    outer loop
      vertex   -3.221716e+001 6.804957e+001 5.662569e+001
      vertex   -3.221716e+001 6.804957e+001 6.262569e+001
      vertex   -3.221716e+001 6.204957e+001 5.662569e+001
    endloop
  endfacet
  facet normal 1.000000e+000 0.000000e+000 -0.000000e+000
    outer loop
      vertex   -3.221716e+001 6.204957e+001 5.662569e+001
      vertex   -3.221716e+001 6.804957e+001 6.262569e+001
      vertex   -3.221716e+001 6.204957e+001 6.262569e+001
    endloop
  endfacet
  facet normal 0.000000e+000 -1.000000e+000 0.000000e+000
    outer loop
      vertex   -5.221716e+001 6.204957e+001 6.262569e+001
      vertex   -5.221716e+001 6.204957e+001 5.662569e+001
      vertex   -3.221716e+001 6.204957e+001 6.262569e+001
    endloop
  endfacet
  facet normal 0.000000e+000 -1.000000e+000 -0.000000e+000
    outer loop
      vertex   -3.221716e+001 6.204957e+001 6.262569e+001
      vertex   -5.221716e+001 6.204957e+001 5.662569e+001
      vertex   -3.221716e+001 6.204957e+001 5.662569e+001
    endloop
  endfacet
  facet normal 1.000000e+000 0.000000e+000 -0.000000e+000
    outer loop
      vertex   -8.221716e+001 6.804957e+001 5.662569e+001
      vertex   -8.221716e+001 6.804957e+001 6.262569e+001
      vertex   -8.221716e+001 6.204957e+001 5.662569e+001
    endloop
  endfacet
  facet normal 1.000000e+000 0.000000e+000 -0.000000e+000
    outer loop
      vertex   -8.221716e+001 6.204957e+001 5.662569e+001
      vertex   -8.221716e+001 6.804957e+001 6.262569e+001
      vertex   -8.221716e+001 6.204957e+001 6.262569e+001
    endloop
  endfacet
  facet normal -1.000000e+000 -0.000000e+000 -0.000000e+000
    outer loop
      vertex   -1.022172e+002 6.804957e+001 6.262569e+001
      vertex   -1.022172e+002 6.804957e+001 5.662569e+001
      vertex   -1.022172e+002 6.204957e+001 6.262569e+001
    endloop
  endfacet
  facet normal -1.000000e+000 -0.000000e+000 -0.000000e+000
    outer loop
      vertex   -1.022172e+002 6.204957e+001 6.262569e+001
      vertex   -1.022172e+002 6.804957e+001 5.662569e+001
      vertex   -1.022172e+002 6.204957e+001 5.662569e+001
    endloop
  endfacet
  facet normal -0.000000e+000 -1.000000e+000 0.000000e+000
    outer loop
      vertex   -8.221716e+001 6.204957e+001 5.662569e+001
      vertex   -8.221716e+001 6.204957e+001 6.262569e+001
      vertex   -1.022172e+002 6.204957e+001 5.662569e+001
    endloop
  endfacet
  facet normal 0.000000e+000 -1.000000e+000 0.000000e+000
    outer loop
      vertex   -1.022172e+002 6.204957e+001 5.662569e+001
      vertex   -8.221716e+001 6.204957e+001 6.262569e+001
      vertex   -1.022172e+002 6.204957e+001 6.262569e+001
    endloop
  endfacet
  facet normal -1.000000e+000 -0.000000e+000 -0.000000e+000
    outer loop
      vertex   -1.522172e+002 6.804957e+001 6.262569e+001
      vertex   -1.522172e+002 6.804957e+001 5.662569e+001
      vertex   -1.522172e+002 6.204957e+001 6.262569e+001
    endloop
  endfacet
  facet normal -1.000000e+000 -0.000000e+000 -0.000000e+000
    outer loop
      vertex   -1.522172e+002 6.204957e+001 6.262569e+001
      vertex   -1.522172e+002 6.804957e+001 5.662569e+001
      vertex   -1.522172e+002 6.204957e+001 5.662569e+001
    endloop
  endfacet
  facet normal 1.000000e+000 0.000000e+000 -0.000000e+000
    outer loop
      vertex   -1.322172e+002 6.804957e+001 5.662569e+001
      vertex   -1.322172e+002 6.804957e+001 6.262569e+001
      vertex   -1.322172e+002 6.204957e+001 5.662569e+001
    endloop
  endfacet
  facet normal 1.000000e+000 0.000000e+000 -0.000000e+000
    outer loop
      vertex   -1.322172e+002 6.204957e+001 5.662569e+001
      vertex   -1.322172e+002 6.804957e+001 6.262569e+001
      vertex   -1.322172e+002 6.204957e+001 6.262569e+001
    endloop
  endfacet
  facet normal -0.000000e+000 -1.000000e+000 0.000000e+000
    outer loop
      vertex   -1.322172e+002 6.204957e+001 5.662569e+001
      vertex   -1.322172e+002 6.204957e+001 6.262569e+001
      vertex   -1.522172e+002 6.204957e+001 5.662569e+001
    endloop
  endfacet
  facet normal 0.000000e+000 -1.000000e+000 0.000000e+000
    outer loop
      vertex   -1.522172e+002 6.204957e+001 5.662569e+001
      vertex   -1.322172e+002 6.204957e+001 6.262569e+001
      vertex   -1.522172e+002 6.204957e+001 6.262569e+001
    endloop
  endfacet
  facet normal 0.000000e+000 2.105312e-016 -1.000000e+000
    outer loop
      vertex   -8.221716e+001 6.804957e+001 5.662569e+001
      vertex   -6.388382e+001 1.017996e+002 5.662569e+001
      vertex   -5.221716e+001 6.804957e+001 5.662569e+001
    endloop
  endfacet
  facet normal -7.105427e-016 5.965050e-016 -1.000000e+000
    outer loop
      vertex   -8.221716e+001 6.804957e+001 5.662569e+001
      vertex   -1.022172e+002 6.804957e+001 5.662569e+001
      vertex   -6.388382e+001 1.017996e+002 5.662569e+001
    endloop
  endfacet
  facet normal -7.105427e-016 -0.000000e+000 -1.000000e+000
    outer loop
      vertex   -8.221716e+001 6.804957e+001 5.662569e+001
      vertex   -8.221716e+001 6.204957e+001 5.662569e+001
      vertex   -1.022172e+002 6.804957e+001 5.662569e+001
    endloop
  endfacet
  facet normal -7.105427e-016 0.000000e+000 -1.000000e+000
    outer loop
      vertex   -1.022172e+002 6.804957e+001 5.662569e+001
      vertex   -8.221716e+001 6.204957e+001 5.662569e+001
      vertex   -1.022172e+002 6.204957e+001 5.662569e+001
    endloop
  endfacet
  facet normal -2.507798e-016 7.430512e-017 -1.000000e+000
    outer loop
      vertex   -6.388382e+001 1.017996e+002 5.662569e+001
      vertex   -1.022172e+002 6.804957e+001 5.662569e+001
      vertex   -1.205505e+002 1.017996e+002 5.662569e+001
    endloop
  endfacet
  facet normal 0.000000e+000 -6.315935e-016 -1.000000e+000
    outer loop
      vertex   -1.022172e+002 1.355496e+002 5.662569e+001
      vertex   -1.205505e+002 1.017996e+002 5.662569e+001
      vertex   -1.322172e+002 1.355496e+002 5.662569e+001
    endloop
  endfacet
  facet normal -2.507798e-016 -4.953675e-016 -1.000000e+000
    outer loop
      vertex   -1.022172e+002 1.355496e+002 5.662569e+001
      vertex   -6.388382e+001 1.017996e+002 5.662569e+001
      vertex   -1.205505e+002 1.017996e+002 5.662569e+001
    endloop
  endfacet
  facet normal -7.105427e-016 -1.017567e-015 -1.000000e+000
    outer loop
      vertex   -1.022172e+002 1.355496e+002 5.662569e+001
      vertex   -8.221716e+001 1.355496e+002 5.662569e+001
      vertex   -6.388382e+001 1.017996e+002 5.662569e+001
    endloop
  endfacet
  facet normal -7.105427e-016 0.000000e+000 -1.000000e+000
    outer loop
      vertex   -1.022172e+002 1.355496e+002 5.662569e+001
      vertex   -1.022172e+002 1.415496e+002 5.662569e+001
      vertex   -8.221716e+001 1.355496e+002 5.662569e+001
    endloop
  endfacet
  facet normal -7.105427e-016 0.000000e+000 -1.000000e+000
    outer loop
      vertex   -8.221716e+001 1.355496e+002 5.662569e+001
      vertex   -1.022172e+002 1.415496e+002 5.662569e+001
      vertex   -8.221716e+001 1.415496e+002 5.662569e+001
    endloop
  endfacet
  facet normal 0.000000e+000 0.000000e+000 -1.000000e+000
    outer loop
      vertex   -1.322172e+002 6.204957e+001 5.662569e+001
      vertex   -1.522172e+002 6.804957e+001 5.662569e+001
      vertex   -1.322172e+002 6.804957e+001 5.662569e+001
    endloop
  endfacet
  facet normal 0.000000e+000 0.000000e+000 -1.000000e+000
    outer loop
      vertex   -1.322172e+002 6.204957e+001 5.662569e+001
      vertex   -1.522172e+002 6.204957e+001 5.662569e+001
      vertex   -1.522172e+002 6.804957e+001 5.662569e+001
    endloop
  endfacet
  facet normal -8.526513e-016 0.000000e+000 -1.000000e+000
    outer loop
      vertex   -1.772172e+002 6.804957e+001 5.662569e+001
      vertex   -1.772172e+002 1.017996e+002 5.662569e+001
      vertex   -1.522172e+002 6.804957e+001 5.662569e+001
    endloop
  endfacet
  facet normal -2.507798e-016 4.458307e-016 -1.000000e+000
    outer loop
      vertex   -1.522172e+002 6.804957e+001 5.662569e+001
      vertex   -1.772172e+002 1.017996e+002 5.662569e+001
      vertex   -1.205505e+002 1.017996e+002 5.662569e+001
    endloop
  endfacet
  facet normal 0.000000e+000 2.105312e-016 -1.000000e+000
    outer loop
      vertex   -1.322172e+002 6.804957e+001 5.662569e+001
      vertex   -1.205505e+002 1.017996e+002 5.662569e+001
      vertex   -1.022172e+002 6.804957e+001 5.662569e+001
    endloop
  endfacet
  facet normal 0.000000e+000 2.105312e-016 -1.000000e+000
    outer loop
      vertex   -1.322172e+002 6.804957e+001 5.662569e+001
      vertex   -1.522172e+002 6.804957e+001 5.662569e+001
      vertex   -1.205505e+002 1.017996e+002 5.662569e+001
    endloop
  endfacet
  facet normal -5.684342e-016 -6.315935e-016 -1.000000e+000
    outer loop
      vertex   -1.772172e+002 1.355496e+002 5.662569e+001
      vertex   -1.522172e+002 1.355496e+002 5.662569e+001
      vertex   -1.772172e+002 1.017996e+002 5.662569e+001
    endloop
  endfacet
  facet normal -2.507798e-016 -8.668931e-016 -1.000000e+000
    outer loop
      vertex   -1.772172e+002 1.017996e+002 5.662569e+001
      vertex   -1.522172e+002 1.355496e+002 5.662569e+001
      vertex   -1.205505e+002 1.017996e+002 5.662569e+001
    endloop
  endfacet
  facet normal 0.000000e+000 -6.315935e-016 -1.000000e+000
    outer loop
      vertex   -1.205505e+002 1.017996e+002 5.662569e+001
      vertex   -1.522172e+002 1.355496e+002 5.662569e+001
      vertex   -1.322172e+002 1.355496e+002 5.662569e+001
    endloop
  endfacet
  facet normal 0.000000e+000 0.000000e+000 -1.000000e+000
    outer loop
      vertex   -1.322172e+002 1.355496e+002 5.662569e+001
      vertex   -1.522172e+002 1.355496e+002 5.662569e+001
      vertex   -1.522172e+002 1.415496e+002 5.662569e+001
    endloop
  endfacet
  facet normal -0.000000e+000 -0.000000e+000 -1.000000e+000
    outer loop
      vertex   -1.322172e+002 1.415496e+002 5.662569e+001
      vertex   -1.322172e+002 1.355496e+002 5.662569e+001
      vertex   -1.522172e+002 1.415496e+002 5.662569e+001
    endloop
  endfacet
  facet normal 0.000000e+000 -6.315935e-016 -1.000000e+000
    outer loop
      vertex   -8.221716e+001 1.355496e+002 5.662569e+001
      vertex   -5.221716e+001 1.355496e+002 5.662569e+001
      vertex   -6.388382e+001 1.017996e+002 5.662569e+001
    endloop
  endfacet
  facet normal -1.065814e-015 -2.631640e-016 -1.000000e+000
    outer loop
      vertex   -6.388382e+001 1.017996e+002 5.662569e+001
      vertex   -5.221716e+001 1.355496e+002 5.662569e+001
      vertex   -3.221716e+001 1.355496e+002 5.662569e+001
    endloop
  endfacet
  facet normal -2.288234e-023 -6.315935e-016 -1.000000e+000
    outer loop
      vertex   -7.217157e+000 1.017996e+002 5.662569e+001
      vertex   -3.221716e+001 1.355496e+002 5.662569e+001
      vertex   -7.217157e+000 1.355496e+002 5.662569e+001
    endloop
  endfacet
  facet normal -3.761697e-016 -9.102377e-016 -1.000000e+000
    outer loop
      vertex   -7.217157e+000 1.017996e+002 5.662569e+001
      vertex   -6.388382e+001 1.017996e+002 5.662569e+001
      vertex   -3.221716e+001 1.355496e+002 5.662569e+001
    endloop
  endfacet
  facet normal -3.761697e-016 2.786442e-016 -1.000000e+000
    outer loop
      vertex   -7.217157e+000 1.017996e+002 5.662569e+001
      vertex   -3.221716e+001 6.804957e+001 5.662569e+001
      vertex   -6.388382e+001 1.017996e+002 5.662569e+001
    endloop
  endfacet
  facet normal -0.000000e+000 -0.000000e+000 -1.000000e+000
    outer loop
      vertex   -7.217157e+000 1.017996e+002 5.662569e+001
      vertex   -7.217157e+000 6.804957e+001 5.662569e+001
      vertex   -3.221716e+001 6.804957e+001 5.662569e+001
    endloop
  endfacet
  facet normal -1.065814e-015 0.000000e+000 -1.000000e+000
    outer loop
      vertex   -5.221716e+001 1.355496e+002 5.662569e+001
      vertex   -5.221716e+001 1.415496e+002 5.662569e+001
      vertex   -3.221716e+001 1.355496e+002 5.662569e+001
    endloop
  endfacet
  facet normal -1.065814e-015 0.000000e+000 -1.000000e+000
    outer loop
      vertex   -3.221716e+001 1.355496e+002 5.662569e+001
      vertex   -5.221716e+001 1.415496e+002 5.662569e+001
      vertex   -3.221716e+001 1.415496e+002 5.662569e+001
    endloop
  endfacet
  facet normal -7.105427e-016 -3.508853e-017 -1.000000e+000
    outer loop
      vertex   -6.388382e+001 1.017996e+002 5.662569e+001
      vertex   -3.221716e+001 6.804957e+001 5.662569e+001
      vertex   -5.221716e+001 6.804957e+001 5.662569e+001
    endloop
  endfacet
  facet normal -7.105427e-016 -0.000000e+000 -1.000000e+000
    outer loop
      vertex   -5.221716e+001 6.804957e+001 5.662569e+001
      vertex   -3.221716e+001 6.804957e+001 5.662569e+001
      vertex   -3.221716e+001 6.204957e+001 5.662569e+001
    endloop
  endfacet
  facet normal -7.105427e-016 0.000000e+000 -1.000000e+000
    outer loop
      vertex   -5.221716e+001 6.204957e+001 5.662569e+001
      vertex   -5.221716e+001 6.804957e+001 5.662569e+001
      vertex   -3.221716e+001 6.204957e+001 5.662569e+001
    endloop
  endfacet
  facet normal -0.000000e+000 -1.000000e+000 0.000000e+000
    outer loop
      vertex   -1.522172e+002 6.804957e+001 5.662569e+001
      vertex   -1.522172e+002 6.804957e+001 6.262569e+001
      vertex   -1.772172e+002 6.804957e+001 5.662569e+001
    endloop
  endfacet
  facet normal 0.000000e+000 -1.000000e+000 0.000000e+000
    outer loop
      vertex   -1.772172e+002 6.804957e+001 5.662569e+001
      vertex   -1.522172e+002 6.804957e+001 6.262569e+001
      vertex   -1.772172e+002 6.804957e+001 6.262569e+001
    endloop
  endfacet
  facet normal -0.000000e+000 -1.000000e+000 0.000000e+000
    outer loop
      vertex   -1.022172e+002 6.804957e+001 5.662569e+001
      vertex   -1.022172e+002 6.804957e+001 6.262569e+001
      vertex   -1.322172e+002 6.804957e+001 5.662569e+001
    endloop
  endfacet
  facet normal 0.000000e+000 -1.000000e+000 0.000000e+000
    outer loop
      vertex   -1.322172e+002 6.804957e+001 5.662569e+001
      vertex   -1.022172e+002 6.804957e+001 6.262569e+001
      vertex   -1.322172e+002 6.804957e+001 6.262569e+001
    endloop
  endfacet
  facet normal 0.000000e+000 -1.000000e+000 0.000000e+000
    outer loop
      vertex   -3.221716e+001 6.804957e+001 6.262569e+001
      vertex   -3.221716e+001 6.804957e+001 5.662569e+001
      vertex   -7.217157e+000 6.804957e+001 6.262569e+001
    endloop
  endfacet
  facet normal 0.000000e+000 -1.000000e+000 -0.000000e+000
    outer loop
      vertex   -7.217157e+000 6.804957e+001 6.262569e+001
      vertex   -3.221716e+001 6.804957e+001 5.662569e+001
      vertex   -7.217157e+000 6.804957e+001 5.662569e+001
    endloop
  endfacet
  facet normal -1.000000e+000 0.000000e+000 0.000000e+000
    outer loop
      vertex   -1.772172e+002 1.355496e+002 5.662569e+001
      vertex   -1.772172e+002 1.017996e+002 5.662569e+001
      vertex   -1.772172e+002 1.355496e+002 6.262569e+001
    endloop
  endfacet
  facet normal -1.000000e+000 -0.000000e+000 0.000000e+000
    outer loop
      vertex   -1.772172e+002 1.355496e+002 6.262569e+001
      vertex   -1.772172e+002 1.017996e+002 5.662569e+001
      vertex   -1.772172e+002 1.017996e+002 6.262569e+001
    endloop
  endfacet
  facet normal -1.000000e+000 -0.000000e+000 -0.000000e+000
    outer loop
      vertex   -1.772172e+002 1.017996e+002 6.262569e+001
      vertex   -1.772172e+002 1.017996e+002 5.662569e+001
      vertex   -1.772172e+002 6.804957e+001 5.662569e+001
    endloop
  endfacet
  facet normal -1.000000e+000 0.000000e+000 -0.000000e+000
    outer loop
      vertex   -1.772172e+002 6.804957e+001 6.262569e+001
      vertex   -1.772172e+002 1.017996e+002 6.262569e+001
      vertex   -1.772172e+002 6.804957e+001 5.662569e+001
    endloop
  endfacet
  facet normal 1.000000e+000 -1.869893e-030 -2.960595e-015
    outer loop
      vertex   -7.217157e+000 1.355496e+002 6.262569e+001
      vertex   -7.217157e+000 1.017996e+002 6.262569e+001
      vertex   -7.217157e+000 1.355496e+002 5.662569e+001
    endloop
  endfacet
  facet normal 1.000000e+000 -1.869893e-030 -2.960595e-015
    outer loop
      vertex   -7.217157e+000 1.355496e+002 5.662569e+001
      vertex   -7.217157e+000 1.017996e+002 6.262569e+001
      vertex   -7.217157e+000 1.017996e+002 5.662569e+001
    endloop
  endfacet
  facet normal 1.000000e+000 0.000000e+000 -2.960595e-015
    outer loop
      vertex   -7.217157e+000 1.017996e+002 5.662569e+001
      vertex   -7.217157e+000 1.017996e+002 6.262569e+001
      vertex   -7.217157e+000 6.804957e+001 6.262569e+001
    endloop
  endfacet
  facet normal 1.000000e+000 0.000000e+000 -2.960595e-015
    outer loop
      vertex   -7.217157e+000 6.804957e+001 5.662569e+001
      vertex   -7.217157e+000 1.017996e+002 5.662569e+001
      vertex   -7.217157e+000 6.804957e+001 6.262569e+001
    endloop
  endfacet
  facet normal -0.000000e+000 -1.000000e+000 0.000000e+000
    outer loop
      vertex   -5.221716e+001 6.804957e+001 5.662569e+001
      vertex   -5.221716e+001 6.804957e+001 6.262569e+001
      vertex   -8.221716e+001 6.804957e+001 5.662569e+001
    endloop
  endfacet
  facet normal 0.000000e+000 -1.000000e+000 0.000000e+000
    outer loop
      vertex   -8.221716e+001 6.804957e+001 5.662569e+001
      vertex   -5.221716e+001 6.804957e+001 6.262569e+001
      vertex   -8.221716e+001 6.804957e+001 6.262569e+001
    endloop
  endfacet
  facet normal 5.684342e-016 4.210624e-016 1.000000e+000
    outer loop
      vertex   -1.772172e+002 1.355496e+002 6.262569e+001
      vertex   -1.772172e+002 1.017996e+002 6.262569e+001
      vertex   -1.522172e+002 1.355496e+002 6.262569e+001
    endloop
  endfacet
  facet normal 1.253899e-016 7.492433e-016 1.000000e+000
    outer loop
      vertex   -1.522172e+002 1.355496e+002 6.262569e+001
      vertex   -1.772172e+002 1.017996e+002 6.262569e+001
      vertex   -1.205505e+002 1.017996e+002 6.262569e+001
    endloop
  endfacet
  facet normal 0.000000e+000 6.315935e-016 1.000000e+000
    outer loop
      vertex   -1.322172e+002 1.355496e+002 6.262569e+001
      vertex   -1.205505e+002 1.017996e+002 6.262569e+001
      vertex   -1.022172e+002 1.355496e+002 6.262569e+001
    endloop
  endfacet
  facet normal 0.000000e+000 6.315935e-016 1.000000e+000
    outer loop
      vertex   -1.322172e+002 1.355496e+002 6.262569e+001
      vertex   -1.522172e+002 1.355496e+002 6.262569e+001
      vertex   -1.205505e+002 1.017996e+002 6.262569e+001
    endloop
  endfacet
  facet normal 0.000000e+000 -0.000000e+000 1.000000e+000
    outer loop
      vertex   -1.322172e+002 1.355496e+002 6.262569e+001
      vertex   -1.322172e+002 1.415496e+002 6.262569e+001
      vertex   -1.522172e+002 1.355496e+002 6.262569e+001
    endloop
  endfacet
  facet normal 0.000000e+000 -0.000000e+000 1.000000e+000
    outer loop
      vertex   -1.522172e+002 1.355496e+002 6.262569e+001
      vertex   -1.322172e+002 1.415496e+002 6.262569e+001
      vertex   -1.522172e+002 1.415496e+002 6.262569e+001
    endloop
  endfacet
  facet normal 5.684342e-016 0.000000e+000 1.000000e+000
    outer loop
      vertex   -1.772172e+002 6.804957e+001 6.262569e+001
      vertex   -1.522172e+002 6.804957e+001 6.262569e+001
      vertex   -1.772172e+002 1.017996e+002 6.262569e+001
    endloop
  endfacet
  facet normal 1.253899e-016 -3.281810e-016 1.000000e+000
    outer loop
      vertex   -1.772172e+002 1.017996e+002 6.262569e+001
      vertex   -1.522172e+002 6.804957e+001 6.262569e+001
      vertex   -1.205505e+002 1.017996e+002 6.262569e+001
    endloop
  endfacet
  facet normal 0.000000e+000 -2.105312e-016 1.000000e+000
    outer loop
      vertex   -1.205505e+002 1.017996e+002 6.262569e+001
      vertex   -1.522172e+002 6.804957e+001 6.262569e+001
      vertex   -1.322172e+002 6.804957e+001 6.262569e+001
    endloop
  endfacet
  facet normal 0.000000e+000 -2.105312e-016 1.000000e+000
    outer loop
      vertex   -1.022172e+002 6.804957e+001 6.262569e+001
      vertex   -1.205505e+002 1.017996e+002 6.262569e+001
      vertex   -1.322172e+002 6.804957e+001 6.262569e+001
    endloop
  endfacet
  facet normal 2.507798e-016 -7.430512e-017 1.000000e+000
    outer loop
      vertex   -1.022172e+002 6.804957e+001 6.262569e+001
      vertex   -6.388382e+001 1.017996e+002 6.262569e+001
      vertex   -1.205505e+002 1.017996e+002 6.262569e+001
    endloop
  endfacet
  facet normal 7.105427e-016 -5.965050e-016 1.000000e+000
    outer loop
      vertex   -1.022172e+002 6.804957e+001 6.262569e+001
      vertex   -8.221716e+001 6.804957e+001 6.262569e+001
      vertex   -6.388382e+001 1.017996e+002 6.262569e+001
    endloop
  endfacet
  facet normal 7.105427e-016 0.000000e+000 1.000000e+000
    outer loop
      vertex   -1.022172e+002 6.804957e+001 6.262569e+001
      vertex   -1.022172e+002 6.204957e+001 6.262569e+001
      vertex   -8.221716e+001 6.804957e+001 6.262569e+001
    endloop
  endfacet
  facet normal 7.105427e-016 0.000000e+000 1.000000e+000
    outer loop
      vertex   -8.221716e+001 6.804957e+001 6.262569e+001
      vertex   -1.022172e+002 6.204957e+001 6.262569e+001
      vertex   -8.221716e+001 6.204957e+001 6.262569e+001
    endloop
  endfacet
  facet normal -0.000000e+000 0.000000e+000 1.000000e+000
    outer loop
      vertex   -1.522172e+002 6.804957e+001 6.262569e+001
      vertex   -1.522172e+002 6.204957e+001 6.262569e+001
      vertex   -1.322172e+002 6.804957e+001 6.262569e+001
    endloop
  endfacet
  facet normal -0.000000e+000 0.000000e+000 1.000000e+000
    outer loop
      vertex   -1.322172e+002 6.804957e+001 6.262569e+001
      vertex   -1.522172e+002 6.204957e+001 6.262569e+001
      vertex   -1.322172e+002 6.204957e+001 6.262569e+001
    endloop
  endfacet
  facet normal 0.000000e+000 -2.105312e-016 1.000000e+000
    outer loop
      vertex   -8.221716e+001 6.804957e+001 6.262569e+001
      vertex   -5.221716e+001 6.804957e+001 6.262569e+001
      vertex   -6.388382e+001 1.017996e+002 6.262569e+001
    endloop
  endfacet
  facet normal 0.000000e+000 -2.105312e-016 1.000000e+000
    outer loop
      vertex   -6.388382e+001 1.017996e+002 6.262569e+001
      vertex   -5.221716e+001 6.804957e+001 6.262569e+001
      vertex   -3.221716e+001 6.804957e+001 6.262569e+001
    endloop
  endfacet
  facet normal -0.000000e+000 0.000000e+000 1.000000e+000
    outer loop
      vertex   -7.217157e+000 1.017996e+002 6.262569e+001
      vertex   -3.221716e+001 6.804957e+001 6.262569e+001
      vertex   -7.217157e+000 6.804957e+001 6.262569e+001
    endloop
  endfacet
  facet normal 1.253899e-016 -9.288140e-017 1.000000e+000
    outer loop
      vertex   -7.217157e+000 1.017996e+002 6.262569e+001
      vertex   -6.388382e+001 1.017996e+002 6.262569e+001
      vertex   -3.221716e+001 6.804957e+001 6.262569e+001
    endloop
  endfacet
  facet normal 1.253899e-016 7.244749e-016 1.000000e+000
    outer loop
      vertex   -7.217157e+000 1.017996e+002 6.262569e+001
      vertex   -3.221716e+001 1.355496e+002 6.262569e+001
      vertex   -6.388382e+001 1.017996e+002 6.262569e+001
    endloop
  endfacet
  facet normal 2.288234e-023 6.315935e-016 1.000000e+000
    outer loop
      vertex   -7.217157e+000 1.017996e+002 6.262569e+001
      vertex   -7.217157e+000 1.355496e+002 6.262569e+001
      vertex   -3.221716e+001 1.355496e+002 6.262569e+001
    endloop
  endfacet
  facet normal -0.000000e+000 0.000000e+000 1.000000e+000
    outer loop
      vertex   -5.221716e+001 6.804957e+001 6.262569e+001
      vertex   -5.221716e+001 6.204957e+001 6.262569e+001
      vertex   -3.221716e+001 6.804957e+001 6.262569e+001
    endloop
  endfacet
  facet normal -0.000000e+000 0.000000e+000 1.000000e+000
    outer loop
      vertex   -3.221716e+001 6.804957e+001 6.262569e+001
      vertex   -5.221716e+001 6.204957e+001 6.262569e+001
      vertex   -3.221716e+001 6.204957e+001 6.262569e+001
    endloop
  endfacet
  facet normal 0.000000e+000 8.421247e-016 1.000000e+000
    outer loop
      vertex   -6.388382e+001 1.017996e+002 6.262569e+001
      vertex   -3.221716e+001 1.355496e+002 6.262569e+001
      vertex   -5.221716e+001 1.355496e+002 6.262569e+001
    endloop
  endfacet
  facet normal 0.000000e+000 8.421247e-016 1.000000e+000
    outer loop
      vertex   -8.221716e+001 1.355496e+002 6.262569e+001
      vertex   -6.388382e+001 1.017996e+002 6.262569e+001
      vertex   -5.221716e+001 1.355496e+002 6.262569e+001
    endloop
  endfacet
  facet normal 1.065814e-015 1.421085e-015 1.000000e+000
    outer loop
      vertex   -8.221716e+001 1.355496e+002 6.262569e+001
      vertex   -1.022172e+002 1.355496e+002 6.262569e+001
      vertex   -6.388382e+001 1.017996e+002 6.262569e+001
    endloop
  endfacet
  facet normal 1.065814e-015 -0.000000e+000 1.000000e+000
    outer loop
      vertex   -8.221716e+001 1.355496e+002 6.262569e+001
      vertex   -8.221716e+001 1.415496e+002 6.262569e+001
      vertex   -1.022172e+002 1.355496e+002 6.262569e+001
    endloop
  endfacet
  facet normal 1.065814e-015 0.000000e+000 1.000000e+000
    outer loop
      vertex   -1.022172e+002 1.355496e+002 6.262569e+001
      vertex   -8.221716e+001 1.415496e+002 6.262569e+001
      vertex   -1.022172e+002 1.415496e+002 6.262569e+001
    endloop
  endfacet
  facet normal -0.000000e+000 0.000000e+000 1.000000e+000
    outer loop
      vertex   -5.221716e+001 1.415496e+002 6.262569e+001
      vertex   -5.221716e+001 1.355496e+002 6.262569e+001
      vertex   -3.221716e+001 1.415496e+002 6.262569e+001
    endloop
  endfacet
  facet normal -0.000000e+000 0.000000e+000 1.000000e+000
    outer loop
      vertex   -3.221716e+001 1.415496e+002 6.262569e+001
      vertex   -5.221716e+001 1.355496e+002 6.262569e+001
      vertex   -3.221716e+001 1.355496e+002 6.262569e+001
    endloop
  endfacet
  facet normal 2.507798e-016 4.953675e-016 1.000000e+000
    outer loop
      vertex   -6.388382e+001 1.017996e+002 6.262569e+001
      vertex   -1.022172e+002 1.355496e+002 6.262569e+001
      vertex   -1.205505e+002 1.017996e+002 6.262569e+001
    endloop
  endfacet
endsolid
