solid ascii
  facet normal -0.000000e+000 1.000000e+000 0.000000e+000
    outer loop
      vertex   -1.880000e+002 -6.160774e+001 1.413642e+002
      vertex   -1.780000e+002 -6.160774e+001 1.413642e+002
      vertex   -1.880000e+002 -6.160774e+001 1.353642e+002
    endloop
  endfacet
  facet normal -0.000000e+000 1.000000e+000 0.000000e+000
    outer loop
      vertex   -1.880000e+002 -6.160774e+001 1.353642e+002
      vertex   -1.780000e+002 -6.160774e+001 1.413642e+002
      vertex   -1.780000e+002 -6.160774e+001 1.353642e+002
    endloop
  endfacet
  facet normal 1.000000e+000 0.000000e+000 0.000000e+000
    outer loop
      vertex   -1.880000e+002 -4.910774e+001 1.413642e+002
      vertex   -1.880000e+002 -6.160774e+001 1.413642e+002
      vertex   -1.880000e+002 -4.910774e+001 1.353642e+002
    endloop
  endfacet
  facet normal 1.000000e+000 0.000000e+000 0.000000e+000
    outer loop
      vertex   -1.880000e+002 -4.910774e+001 1.353642e+002
      vertex   -1.880000e+002 -6.160774e+001 1.413642e+002
      vertex   -1.880000e+002 -6.160774e+001 1.353642e+002
    endloop
  endfacet
  facet normal -0.000000e+000 -1.000000e+000 -0.000000e+000
    outer loop
      vertex   -1.580000e+002 -4.910774e+001 1.413642e+002
      vertex   -1.880000e+002 -4.910774e+001 1.413642e+002
      vertex   -1.580000e+002 -4.910774e+001 1.353642e+002
    endloop
  endfacet
  facet normal -0.000000e+000 -1.000000e+000 -0.000000e+000
    outer loop
      vertex   -1.580000e+002 -4.910774e+001 1.353642e+002
      vertex   -1.880000e+002 -4.910774e+001 1.413642e+002
      vertex   -1.880000e+002 -4.910774e+001 1.353642e+002
    endloop
  endfacet
  facet normal 4.303410e-001 -9.026664e-001 0.000000e+000
    outer loop
      vertex   -1.150000e+002 -2.860774e+001 1.413642e+002
      vertex   -1.580000e+002 -4.910774e+001 1.413642e+002
      vertex   -1.150000e+002 -2.860774e+001 1.353642e+002
    endloop
  endfacet
  facet normal 4.303410e-001 -9.026664e-001 0.000000e+000
    outer loop
      vertex   -1.150000e+002 -2.860774e+001 1.353642e+002
      vertex   -1.580000e+002 -4.910774e+001 1.413642e+002
      vertex   -1.580000e+002 -4.910774e+001 1.353642e+002
    endloop
  endfacet
  facet normal 1.000000e+000 0.000000e+000 0.000000e+000
    outer loop
      vertex   -1.150000e+002 -7.607739e+000 1.413642e+002
      vertex   -1.150000e+002 -2.860774e+001 1.413642e+002
      vertex   -1.150000e+002 -7.607739e+000 1.353642e+002
    endloop
  endfacet
  facet normal 1.000000e+000 0.000000e+000 0.000000e+000
    outer loop
      vertex   -1.150000e+002 -7.607739e+000 1.353642e+002
      vertex   -1.150000e+002 -2.860774e+001 1.413642e+002
      vertex   -1.150000e+002 -2.860774e+001 1.353642e+002
    endloop
  endfacet
  facet normal -0.000000e+000 1.000000e+000 0.000000e+000
    outer loop
      vertex   -1.210000e+002 -7.607739e+000 1.413642e+002
      vertex   -1.150000e+002 -7.607739e+000 1.413642e+002
      vertex   -1.210000e+002 -7.607739e+000 1.353642e+002
    endloop
  endfacet
  facet normal -0.000000e+000 1.000000e+000 0.000000e+000
    outer loop
      vertex   -1.210000e+002 -7.607739e+000 1.353642e+002
      vertex   -1.150000e+002 -7.607739e+000 1.413642e+002
      vertex   -1.150000e+002 -7.607739e+000 1.353642e+002
    endloop
  endfacet
  facet normal -1.000000e+000 0.000000e+000 -0.000000e+000
    outer loop
      vertex   -1.210000e+002 -1.360774e+001 1.413642e+002
      vertex   -1.210000e+002 -7.607739e+000 1.413642e+002
      vertex   -1.210000e+002 -1.360774e+001 1.353642e+002
    endloop
  endfacet
  facet normal -1.000000e+000 0.000000e+000 0.000000e+000
    outer loop
      vertex   -1.210000e+002 -1.360774e+001 1.353642e+002
      vertex   -1.210000e+002 -7.607739e+000 1.413642e+002
      vertex   -1.210000e+002 -7.607739e+000 1.353642e+002
    endloop
  endfacet
  facet normal -0.000000e+000 1.000000e+000 0.000000e+000
    outer loop
      vertex   -1.270000e+002 -1.360774e+001 1.413642e+002
      vertex   -1.210000e+002 -1.360774e+001 1.413642e+002
      vertex   -1.270000e+002 -1.360774e+001 1.353642e+002
    endloop
  endfacet
  facet normal -0.000000e+000 1.000000e+000 0.000000e+000
    outer loop
      vertex   -1.270000e+002 -1.360774e+001 1.353642e+002
      vertex   -1.210000e+002 -1.360774e+001 1.413642e+002
      vertex   -1.210000e+002 -1.360774e+001 1.353642e+002
    endloop
  endfacet
  facet normal 1.000000e+000 0.000000e+000 0.000000e+000
    outer loop
      vertex   -1.270000e+002 -7.607739e+000 1.413642e+002
      vertex   -1.270000e+002 -1.360774e+001 1.413642e+002
      vertex   -1.270000e+002 -7.607739e+000 1.353642e+002
    endloop
  endfacet
  facet normal 1.000000e+000 0.000000e+000 0.000000e+000
    outer loop
      vertex   -1.270000e+002 -7.607739e+000 1.353642e+002
      vertex   -1.270000e+002 -1.360774e+001 1.413642e+002
      vertex   -1.270000e+002 -1.360774e+001 1.353642e+002
    endloop
  endfacet
  facet normal -0.000000e+000 1.000000e+000 0.000000e+000
    outer loop
      vertex   -1.330000e+002 -7.607739e+000 1.413642e+002
      vertex   -1.270000e+002 -7.607739e+000 1.413642e+002
      vertex   -1.330000e+002 -7.607739e+000 1.353642e+002
    endloop
  endfacet
  facet normal -0.000000e+000 1.000000e+000 0.000000e+000
    outer loop
      vertex   -1.330000e+002 -7.607739e+000 1.353642e+002
      vertex   -1.270000e+002 -7.607739e+000 1.413642e+002
      vertex   -1.270000e+002 -7.607739e+000 1.353642e+002
    endloop
  endfacet
  facet normal -1.000000e+000 0.000000e+000 -0.000000e+000
    outer loop
      vertex   -1.330000e+002 -1.360774e+001 1.413642e+002
      vertex   -1.330000e+002 -7.607739e+000 1.413642e+002
      vertex   -1.330000e+002 -1.360774e+001 1.353642e+002
    endloop
  endfacet
  facet normal -1.000000e+000 0.000000e+000 0.000000e+000
    outer loop
      vertex   -1.330000e+002 -1.360774e+001 1.353642e+002
      vertex   -1.330000e+002 -7.607739e+000 1.413642e+002
      vertex   -1.330000e+002 -7.607739e+000 1.353642e+002
    endloop
  endfacet
  facet normal -0.000000e+000 1.000000e+000 0.000000e+000
    outer loop
      vertex   -1.390000e+002 -1.360774e+001 1.413642e+002
      vertex   -1.330000e+002 -1.360774e+001 1.413642e+002
      vertex   -1.390000e+002 -1.360774e+001 1.353642e+002
    endloop
  endfacet
  facet normal -0.000000e+000 1.000000e+000 0.000000e+000
    outer loop
      vertex   -1.390000e+002 -1.360774e+001 1.353642e+002
      vertex   -1.330000e+002 -1.360774e+001 1.413642e+002
      vertex   -1.330000e+002 -1.360774e+001 1.353642e+002
    endloop
  endfacet
  facet normal 1.000000e+000 0.000000e+000 0.000000e+000
    outer loop
      vertex   -1.390000e+002 -7.607739e+000 1.413642e+002
      vertex   -1.390000e+002 -1.360774e+001 1.413642e+002
      vertex   -1.390000e+002 -7.607739e+000 1.353642e+002
    endloop
  endfacet
  facet normal 1.000000e+000 0.000000e+000 0.000000e+000
    outer loop
      vertex   -1.390000e+002 -7.607739e+000 1.353642e+002
      vertex   -1.390000e+002 -1.360774e+001 1.413642e+002
      vertex   -1.390000e+002 -1.360774e+001 1.353642e+002
    endloop
  endfacet
  facet normal -0.000000e+000 1.000000e+000 0.000000e+000
    outer loop
      vertex   -1.450000e+002 -7.607739e+000 1.413642e+002
      vertex   -1.390000e+002 -7.607739e+000 1.413642e+002
      vertex   -1.450000e+002 -7.607739e+000 1.353642e+002
    endloop
  endfacet
  facet normal -0.000000e+000 1.000000e+000 0.000000e+000
    outer loop
      vertex   -1.450000e+002 -7.607739e+000 1.353642e+002
      vertex   -1.390000e+002 -7.607739e+000 1.413642e+002
      vertex   -1.390000e+002 -7.607739e+000 1.353642e+002
    endloop
  endfacet
  facet normal -1.000000e+000 0.000000e+000 -0.000000e+000
    outer loop
      vertex   -1.450000e+002 -1.360774e+001 1.413642e+002
      vertex   -1.450000e+002 -7.607739e+000 1.413642e+002
      vertex   -1.450000e+002 -1.360774e+001 1.353642e+002
    endloop
  endfacet
  facet normal -1.000000e+000 0.000000e+000 0.000000e+000
    outer loop
      vertex   -1.450000e+002 -1.360774e+001 1.353642e+002
      vertex   -1.450000e+002 -7.607739e+000 1.413642e+002
      vertex   -1.450000e+002 -7.607739e+000 1.353642e+002
    endloop
  endfacet
  facet normal -0.000000e+000 1.000000e+000 0.000000e+000
    outer loop
      vertex   -1.510000e+002 -1.360774e+001 1.413642e+002
      vertex   -1.450000e+002 -1.360774e+001 1.413642e+002
      vertex   -1.510000e+002 -1.360774e+001 1.353642e+002
    endloop
  endfacet
  facet normal -0.000000e+000 1.000000e+000 0.000000e+000
    outer loop
      vertex   -1.510000e+002 -1.360774e+001 1.353642e+002
      vertex   -1.450000e+002 -1.360774e+001 1.413642e+002
      vertex   -1.450000e+002 -1.360774e+001 1.353642e+002
    endloop
  endfacet
  facet normal 1.000000e+000 0.000000e+000 0.000000e+000
    outer loop
      vertex   -1.510000e+002 -7.607739e+000 1.413642e+002
      vertex   -1.510000e+002 -1.360774e+001 1.413642e+002
      vertex   -1.510000e+002 -7.607739e+000 1.353642e+002
    endloop
  endfacet
  facet normal 1.000000e+000 0.000000e+000 0.000000e+000
    outer loop
      vertex   -1.510000e+002 -7.607739e+000 1.353642e+002
      vertex   -1.510000e+002 -1.360774e+001 1.413642e+002
      vertex   -1.510000e+002 -1.360774e+001 1.353642e+002
    endloop
  endfacet
  facet normal -0.000000e+000 1.000000e+000 0.000000e+000
    outer loop
      vertex   -1.570000e+002 -7.607739e+000 1.413642e+002
      vertex   -1.510000e+002 -7.607739e+000 1.413642e+002
      vertex   -1.570000e+002 -7.607739e+000 1.353642e+002
    endloop
  endfacet
  facet normal -0.000000e+000 1.000000e+000 0.000000e+000
    outer loop
      vertex   -1.570000e+002 -7.607739e+000 1.353642e+002
      vertex   -1.510000e+002 -7.607739e+000 1.413642e+002
      vertex   -1.510000e+002 -7.607739e+000 1.353642e+002
    endloop
  endfacet
  facet normal -1.000000e+000 0.000000e+000 -0.000000e+000
    outer loop
      vertex   -1.570000e+002 -1.360774e+001 1.413642e+002
      vertex   -1.570000e+002 -7.607739e+000 1.413642e+002
      vertex   -1.570000e+002 -1.360774e+001 1.353642e+002
    endloop
  endfacet
  facet normal -1.000000e+000 0.000000e+000 0.000000e+000
    outer loop
      vertex   -1.570000e+002 -1.360774e+001 1.353642e+002
      vertex   -1.570000e+002 -7.607739e+000 1.413642e+002
      vertex   -1.570000e+002 -7.607739e+000 1.353642e+002
    endloop
  endfacet
  facet normal -0.000000e+000 1.000000e+000 0.000000e+000
    outer loop
      vertex   -1.630000e+002 -1.360774e+001 1.413642e+002
      vertex   -1.570000e+002 -1.360774e+001 1.413642e+002
      vertex   -1.630000e+002 -1.360774e+001 1.353642e+002
    endloop
  endfacet
  facet normal -0.000000e+000 1.000000e+000 0.000000e+000
    outer loop
      vertex   -1.630000e+002 -1.360774e+001 1.353642e+002
      vertex   -1.570000e+002 -1.360774e+001 1.413642e+002
      vertex   -1.570000e+002 -1.360774e+001 1.353642e+002
    endloop
  endfacet
  facet normal 1.000000e+000 0.000000e+000 0.000000e+000
    outer loop
      vertex   -1.630000e+002 -7.607739e+000 1.413642e+002
      vertex   -1.630000e+002 -1.360774e+001 1.413642e+002
      vertex   -1.630000e+002 -7.607739e+000 1.353642e+002
    endloop
  endfacet
  facet normal 1.000000e+000 0.000000e+000 0.000000e+000
    outer loop
      vertex   -1.630000e+002 -7.607739e+000 1.353642e+002
      vertex   -1.630000e+002 -1.360774e+001 1.413642e+002
      vertex   -1.630000e+002 -1.360774e+001 1.353642e+002
    endloop
  endfacet
  facet normal -0.000000e+000 1.000000e+000 0.000000e+000
    outer loop
      vertex   -1.690000e+002 -7.607739e+000 1.413642e+002
      vertex   -1.630000e+002 -7.607739e+000 1.413642e+002
      vertex   -1.690000e+002 -7.607739e+000 1.353642e+002
    endloop
  endfacet
  facet normal -0.000000e+000 1.000000e+000 0.000000e+000
    outer loop
      vertex   -1.690000e+002 -7.607739e+000 1.353642e+002
      vertex   -1.630000e+002 -7.607739e+000 1.413642e+002
      vertex   -1.630000e+002 -7.607739e+000 1.353642e+002
    endloop
  endfacet
  facet normal -1.000000e+000 0.000000e+000 -0.000000e+000
    outer loop
      vertex   -1.690000e+002 -1.360774e+001 1.413642e+002
      vertex   -1.690000e+002 -7.607739e+000 1.413642e+002
      vertex   -1.690000e+002 -1.360774e+001 1.353642e+002
    endloop
  endfacet
  facet normal -1.000000e+000 0.000000e+000 0.000000e+000
    outer loop
      vertex   -1.690000e+002 -1.360774e+001 1.353642e+002
      vertex   -1.690000e+002 -7.607739e+000 1.413642e+002
      vertex   -1.690000e+002 -7.607739e+000 1.353642e+002
    endloop
  endfacet
  facet normal -0.000000e+000 1.000000e+000 0.000000e+000
    outer loop
      vertex   -1.750000e+002 -1.360774e+001 1.413642e+002
      vertex   -1.690000e+002 -1.360774e+001 1.413642e+002
      vertex   -1.750000e+002 -1.360774e+001 1.353642e+002
    endloop
  endfacet
  facet normal -0.000000e+000 1.000000e+000 0.000000e+000
    outer loop
      vertex   -1.750000e+002 -1.360774e+001 1.353642e+002
      vertex   -1.690000e+002 -1.360774e+001 1.413642e+002
      vertex   -1.690000e+002 -1.360774e+001 1.353642e+002
    endloop
  endfacet
  facet normal 1.000000e+000 0.000000e+000 0.000000e+000
    outer loop
      vertex   -1.750000e+002 -7.607739e+000 1.413642e+002
      vertex   -1.750000e+002 -1.360774e+001 1.413642e+002
      vertex   -1.750000e+002 -7.607739e+000 1.353642e+002
    endloop
  endfacet
  facet normal 1.000000e+000 0.000000e+000 0.000000e+000
    outer loop
      vertex   -1.750000e+002 -7.607739e+000 1.353642e+002
      vertex   -1.750000e+002 -1.360774e+001 1.413642e+002
      vertex   -1.750000e+002 -1.360774e+001 1.353642e+002
    endloop
  endfacet
  facet normal -0.000000e+000 1.000000e+000 0.000000e+000
    outer loop
      vertex   -1.810000e+002 -7.607739e+000 1.413642e+002
      vertex   -1.750000e+002 -7.607739e+000 1.413642e+002
      vertex   -1.810000e+002 -7.607739e+000 1.353642e+002
    endloop
  endfacet
  facet normal -0.000000e+000 1.000000e+000 0.000000e+000
    outer loop
      vertex   -1.810000e+002 -7.607739e+000 1.353642e+002
      vertex   -1.750000e+002 -7.607739e+000 1.413642e+002
      vertex   -1.750000e+002 -7.607739e+000 1.353642e+002
    endloop
  endfacet
  facet normal -1.000000e+000 0.000000e+000 -0.000000e+000
    outer loop
      vertex   -1.810000e+002 -1.360774e+001 1.413642e+002
      vertex   -1.810000e+002 -7.607739e+000 1.413642e+002
      vertex   -1.810000e+002 -1.360774e+001 1.353642e+002
    endloop
  endfacet
  facet normal -1.000000e+000 0.000000e+000 0.000000e+000
    outer loop
      vertex   -1.810000e+002 -1.360774e+001 1.353642e+002
      vertex   -1.810000e+002 -7.607739e+000 1.413642e+002
      vertex   -1.810000e+002 -7.607739e+000 1.353642e+002
    endloop
  endfacet
  facet normal -0.000000e+000 1.000000e+000 0.000000e+000
    outer loop
      vertex   -1.870000e+002 -1.360774e+001 1.413642e+002
      vertex   -1.810000e+002 -1.360774e+001 1.413642e+002
      vertex   -1.870000e+002 -1.360774e+001 1.353642e+002
    endloop
  endfacet
  facet normal -0.000000e+000 1.000000e+000 0.000000e+000
    outer loop
      vertex   -1.870000e+002 -1.360774e+001 1.353642e+002
      vertex   -1.810000e+002 -1.360774e+001 1.413642e+002
      vertex   -1.810000e+002 -1.360774e+001 1.353642e+002
    endloop
  endfacet
  facet normal 1.000000e+000 0.000000e+000 0.000000e+000
    outer loop
      vertex   -1.870000e+002 -7.607739e+000 1.413642e+002
      vertex   -1.870000e+002 -1.360774e+001 1.413642e+002
      vertex   -1.870000e+002 -7.607739e+000 1.353642e+002
    endloop
  endfacet
  facet normal 1.000000e+000 0.000000e+000 0.000000e+000
    outer loop
      vertex   -1.870000e+002 -7.607739e+000 1.353642e+002
      vertex   -1.870000e+002 -1.360774e+001 1.413642e+002
      vertex   -1.870000e+002 -1.360774e+001 1.353642e+002
    endloop
  endfacet
  facet normal -0.000000e+000 1.000000e+000 0.000000e+000
    outer loop
      vertex   -1.930000e+002 -7.607739e+000 1.413642e+002
      vertex   -1.870000e+002 -7.607739e+000 1.413642e+002
      vertex   -1.930000e+002 -7.607739e+000 1.353642e+002
    endloop
  endfacet
  facet normal -0.000000e+000 1.000000e+000 0.000000e+000
    outer loop
      vertex   -1.930000e+002 -7.607739e+000 1.353642e+002
      vertex   -1.870000e+002 -7.607739e+000 1.413642e+002
      vertex   -1.870000e+002 -7.607739e+000 1.353642e+002
    endloop
  endfacet
  facet normal -1.000000e+000 0.000000e+000 -0.000000e+000
    outer loop
      vertex   -1.930000e+002 -6.460774e+001 1.413642e+002
      vertex   -1.930000e+002 -3.610774e+001 1.413642e+002
      vertex   -1.930000e+002 -6.460774e+001 1.353642e+002
    endloop
  endfacet
  facet normal -1.000000e+000 0.000000e+000 0.000000e+000
    outer loop
      vertex   -1.930000e+002 -6.460774e+001 1.353642e+002
      vertex   -1.930000e+002 -3.610774e+001 1.413642e+002
      vertex   -1.930000e+002 -3.610774e+001 1.353642e+002
    endloop
  endfacet
  facet normal -1.000000e+000 0.000000e+000 0.000000e+000
    outer loop
      vertex   -1.930000e+002 -3.610774e+001 1.353642e+002
      vertex   -1.930000e+002 -3.610774e+001 1.413642e+002
      vertex   -1.930000e+002 -7.607739e+000 1.413642e+002
    endloop
  endfacet
  facet normal -1.000000e+000 0.000000e+000 0.000000e+000
    outer loop
      vertex   -1.930000e+002 -7.607739e+000 1.353642e+002
      vertex   -1.930000e+002 -3.610774e+001 1.353642e+002
      vertex   -1.930000e+002 -7.607739e+000 1.413642e+002
    endloop
  endfacet
  facet normal -0.000000e+000 -1.000000e+000 -0.000000e+000
    outer loop
      vertex   -1.780000e+002 -6.460774e+001 1.413642e+002
      vertex   -1.930000e+002 -6.460774e+001 1.413642e+002
      vertex   -1.780000e+002 -6.460774e+001 1.353642e+002
    endloop
  endfacet
  facet normal -0.000000e+000 -1.000000e+000 -0.000000e+000
    outer loop
      vertex   -1.780000e+002 -6.460774e+001 1.353642e+002
      vertex   -1.930000e+002 -6.460774e+001 1.413642e+002
      vertex   -1.930000e+002 -6.460774e+001 1.353642e+002
    endloop
  endfacet
  facet normal 1.000000e+000 0.000000e+000 0.000000e+000
    outer loop
      vertex   -1.780000e+002 -6.160774e+001 1.413642e+002
      vertex   -1.780000e+002 -6.460774e+001 1.413642e+002
      vertex   -1.780000e+002 -6.160774e+001 1.353642e+002
    endloop
  endfacet
  facet normal 1.000000e+000 0.000000e+000 0.000000e+000
    outer loop
      vertex   -1.780000e+002 -6.160774e+001 1.353642e+002
      vertex   -1.780000e+002 -6.460774e+001 1.413642e+002
      vertex   -1.780000e+002 -6.460774e+001 1.353642e+002
    endloop
  endfacet
  facet normal 0.000000e+000 0.000000e+000 1.000000e+000
    outer loop
      vertex   -1.780000e+002 -6.160774e+001 1.413642e+002
      vertex   -1.880000e+002 -6.160774e+001 1.413642e+002
      vertex   -1.780000e+002 -6.460774e+001 1.413642e+002
    endloop
  endfacet
  facet normal 0.000000e+000 0.000000e+000 1.000000e+000
    outer loop
      vertex   -1.780000e+002 -6.460774e+001 1.413642e+002
      vertex   -1.880000e+002 -6.160774e+001 1.413642e+002
      vertex   -1.930000e+002 -6.460774e+001 1.413642e+002
    endloop
  endfacet
  facet normal 0.000000e+000 0.000000e+000 1.000000e+000
    outer loop
      vertex   -1.930000e+002 -6.460774e+001 1.413642e+002
      vertex   -1.880000e+002 -6.160774e+001 1.413642e+002
      vertex   -1.880000e+002 -4.910774e+001 1.413642e+002
    endloop
  endfacet
  facet normal -0.000000e+000 0.000000e+000 1.000000e+000
    outer loop
      vertex   -1.930000e+002 -3.610774e+001 1.413642e+002
      vertex   -1.880000e+002 -4.910774e+001 1.413642e+002
      vertex   -1.810000e+002 -1.360774e+001 1.413642e+002
    endloop
  endfacet
  facet normal -0.000000e+000 0.000000e+000 1.000000e+000
    outer loop
      vertex   -1.870000e+002 -1.360774e+001 1.413642e+002
      vertex   -1.930000e+002 -3.610774e+001 1.413642e+002
      vertex   -1.810000e+002 -1.360774e+001 1.413642e+002
    endloop
  endfacet
  facet normal 0.000000e+000 0.000000e+000 1.000000e+000
    outer loop
      vertex   -1.870000e+002 -1.360774e+001 1.413642e+002
      vertex   -1.930000e+002 -7.607739e+000 1.413642e+002
      vertex   -1.930000e+002 -3.610774e+001 1.413642e+002
    endloop
  endfacet
  facet normal 0.000000e+000 -0.000000e+000 1.000000e+000
    outer loop
      vertex   -1.870000e+002 -1.360774e+001 1.413642e+002
      vertex   -1.870000e+002 -7.607739e+000 1.413642e+002
      vertex   -1.930000e+002 -7.607739e+000 1.413642e+002
    endloop
  endfacet
  facet normal -0.000000e+000 0.000000e+000 1.000000e+000
    outer loop
      vertex   -1.810000e+002 -1.360774e+001 1.413642e+002
      vertex   -1.880000e+002 -4.910774e+001 1.413642e+002
      vertex   -1.750000e+002 -1.360774e+001 1.413642e+002
    endloop
  endfacet
  facet normal 0.000000e+000 0.000000e+000 1.000000e+000
    outer loop
      vertex   -1.750000e+002 -7.607739e+000 1.413642e+002
      vertex   -1.810000e+002 -1.360774e+001 1.413642e+002
      vertex   -1.750000e+002 -1.360774e+001 1.413642e+002
    endloop
  endfacet
  facet normal 0.000000e+000 0.000000e+000 1.000000e+000
    outer loop
      vertex   -1.750000e+002 -7.607739e+000 1.413642e+002
      vertex   -1.810000e+002 -7.607739e+000 1.413642e+002
      vertex   -1.810000e+002 -1.360774e+001 1.413642e+002
    endloop
  endfacet
  facet normal 0.000000e+000 0.000000e+000 1.000000e+000
    outer loop
      vertex   -1.150000e+002 -2.860774e+001 1.413642e+002
      vertex   -1.330000e+002 -1.360774e+001 1.413642e+002
      vertex   -1.580000e+002 -4.910774e+001 1.413642e+002
    endloop
  endfacet
  facet normal 0.000000e+000 0.000000e+000 1.000000e+000
    outer loop
      vertex   -1.150000e+002 -2.860774e+001 1.413642e+002
      vertex   -1.270000e+002 -1.360774e+001 1.413642e+002
      vertex   -1.330000e+002 -1.360774e+001 1.413642e+002
    endloop
  endfacet
  facet normal 0.000000e+000 0.000000e+000 1.000000e+000
    outer loop
      vertex   -1.150000e+002 -2.860774e+001 1.413642e+002
      vertex   -1.210000e+002 -1.360774e+001 1.413642e+002
      vertex   -1.270000e+002 -1.360774e+001 1.413642e+002
    endloop
  endfacet
  facet normal 0.000000e+000 -0.000000e+000 1.000000e+000
    outer loop
      vertex   -1.150000e+002 -2.860774e+001 1.413642e+002
      vertex   -1.150000e+002 -7.607739e+000 1.413642e+002
      vertex   -1.210000e+002 -1.360774e+001 1.413642e+002
    endloop
  endfacet
  facet normal 0.000000e+000 -0.000000e+000 1.000000e+000
    outer loop
      vertex   -1.210000e+002 -1.360774e+001 1.413642e+002
      vertex   -1.150000e+002 -7.607739e+000 1.413642e+002
      vertex   -1.210000e+002 -7.607739e+000 1.413642e+002
    endloop
  endfacet
  facet normal 0.000000e+000 -0.000000e+000 1.000000e+000
    outer loop
      vertex   -1.270000e+002 -1.360774e+001 1.413642e+002
      vertex   -1.270000e+002 -7.607739e+000 1.413642e+002
      vertex   -1.330000e+002 -1.360774e+001 1.413642e+002
    endloop
  endfacet
  facet normal 0.000000e+000 -0.000000e+000 1.000000e+000
    outer loop
      vertex   -1.330000e+002 -1.360774e+001 1.413642e+002
      vertex   -1.270000e+002 -7.607739e+000 1.413642e+002
      vertex   -1.330000e+002 -7.607739e+000 1.413642e+002
    endloop
  endfacet
  facet normal 0.000000e+000 0.000000e+000 1.000000e+000
    outer loop
      vertex   -1.330000e+002 -1.360774e+001 1.413642e+002
      vertex   -1.390000e+002 -1.360774e+001 1.413642e+002
      vertex   -1.580000e+002 -4.910774e+001 1.413642e+002
    endloop
  endfacet
  facet normal 0.000000e+000 -0.000000e+000 1.000000e+000
    outer loop
      vertex   -1.580000e+002 -4.910774e+001 1.413642e+002
      vertex   -1.390000e+002 -1.360774e+001 1.413642e+002
      vertex   -1.450000e+002 -1.360774e+001 1.413642e+002
    endloop
  endfacet
  facet normal -0.000000e+000 0.000000e+000 1.000000e+000
    outer loop
      vertex   -1.510000e+002 -1.360774e+001 1.413642e+002
      vertex   -1.580000e+002 -4.910774e+001 1.413642e+002
      vertex   -1.450000e+002 -1.360774e+001 1.413642e+002
    endloop
  endfacet
  facet normal 0.000000e+000 0.000000e+000 1.000000e+000
    outer loop
      vertex   -1.510000e+002 -1.360774e+001 1.413642e+002
      vertex   -1.570000e+002 -1.360774e+001 1.413642e+002
      vertex   -1.580000e+002 -4.910774e+001 1.413642e+002
    endloop
  endfacet
  facet normal 0.000000e+000 0.000000e+000 1.000000e+000
    outer loop
      vertex   -1.510000e+002 -1.360774e+001 1.413642e+002
      vertex   -1.570000e+002 -7.607739e+000 1.413642e+002
      vertex   -1.570000e+002 -1.360774e+001 1.413642e+002
    endloop
  endfacet
  facet normal 0.000000e+000 -0.000000e+000 1.000000e+000
    outer loop
      vertex   -1.510000e+002 -1.360774e+001 1.413642e+002
      vertex   -1.510000e+002 -7.607739e+000 1.413642e+002
      vertex   -1.570000e+002 -7.607739e+000 1.413642e+002
    endloop
  endfacet
  facet normal 0.000000e+000 -0.000000e+000 1.000000e+000
    outer loop
      vertex   -1.390000e+002 -1.360774e+001 1.413642e+002
      vertex   -1.390000e+002 -7.607739e+000 1.413642e+002
      vertex   -1.450000e+002 -1.360774e+001 1.413642e+002
    endloop
  endfacet
  facet normal 0.000000e+000 -0.000000e+000 1.000000e+000
    outer loop
      vertex   -1.450000e+002 -1.360774e+001 1.413642e+002
      vertex   -1.390000e+002 -7.607739e+000 1.413642e+002
      vertex   -1.450000e+002 -7.607739e+000 1.413642e+002
    endloop
  endfacet
  facet normal 0.000000e+000 0.000000e+000 1.000000e+000
    outer loop
      vertex   -1.570000e+002 -1.360774e+001 1.413642e+002
      vertex   -1.630000e+002 -1.360774e+001 1.413642e+002
      vertex   -1.580000e+002 -4.910774e+001 1.413642e+002
    endloop
  endfacet
  facet normal 0.000000e+000 0.000000e+000 1.000000e+000
    outer loop
      vertex   -1.580000e+002 -4.910774e+001 1.413642e+002
      vertex   -1.630000e+002 -1.360774e+001 1.413642e+002
      vertex   -1.690000e+002 -1.360774e+001 1.413642e+002
    endloop
  endfacet
  facet normal -0.000000e+000 -0.000000e+000 1.000000e+000
    outer loop
      vertex   -1.750000e+002 -1.360774e+001 1.413642e+002
      vertex   -1.580000e+002 -4.910774e+001 1.413642e+002
      vertex   -1.690000e+002 -1.360774e+001 1.413642e+002
    endloop
  endfacet
  facet normal -0.000000e+000 0.000000e+000 1.000000e+000
    outer loop
      vertex   -1.750000e+002 -1.360774e+001 1.413642e+002
      vertex   -1.880000e+002 -4.910774e+001 1.413642e+002
      vertex   -1.580000e+002 -4.910774e+001 1.413642e+002
    endloop
  endfacet
  facet normal 0.000000e+000 -0.000000e+000 1.000000e+000
    outer loop
      vertex   -1.630000e+002 -1.360774e+001 1.413642e+002
      vertex   -1.630000e+002 -7.607739e+000 1.413642e+002
      vertex   -1.690000e+002 -1.360774e+001 1.413642e+002
    endloop
  endfacet
  facet normal 0.000000e+000 -0.000000e+000 1.000000e+000
    outer loop
      vertex   -1.690000e+002 -1.360774e+001 1.413642e+002
      vertex   -1.630000e+002 -7.607739e+000 1.413642e+002
      vertex   -1.690000e+002 -7.607739e+000 1.413642e+002
    endloop
  endfacet
  facet normal -0.000000e+000 0.000000e+000 1.000000e+000
    outer loop
      vertex   -1.930000e+002 -3.610774e+001 1.413642e+002
      vertex   -1.930000e+002 -6.460774e+001 1.413642e+002
      vertex   -1.880000e+002 -4.910774e+001 1.413642e+002
    endloop
  endfacet
  facet normal -0.000000e+000 -0.000000e+000 -1.000000e+000
    outer loop
      vertex   -1.780000e+002 -6.160774e+001 1.353642e+002
      vertex   -1.780000e+002 -6.460774e+001 1.353642e+002
      vertex   -1.880000e+002 -6.160774e+001 1.353642e+002
    endloop
  endfacet
  facet normal -0.000000e+000 -0.000000e+000 -1.000000e+000
    outer loop
      vertex   -1.880000e+002 -6.160774e+001 1.353642e+002
      vertex   -1.780000e+002 -6.460774e+001 1.353642e+002
      vertex   -1.930000e+002 -6.460774e+001 1.353642e+002
    endloop
  endfacet
  facet normal -0.000000e+000 0.000000e+000 -1.000000e+000
    outer loop
      vertex   -1.880000e+002 -4.910774e+001 1.353642e+002
      vertex   -1.930000e+002 -6.460774e+001 1.353642e+002
      vertex   -1.930000e+002 -3.610774e+001 1.353642e+002
    endloop
  endfacet
  facet normal -0.000000e+000 0.000000e+000 -1.000000e+000
    outer loop
      vertex   -1.810000e+002 -1.360774e+001 1.353642e+002
      vertex   -1.930000e+002 -3.610774e+001 1.353642e+002
      vertex   -1.870000e+002 -1.360774e+001 1.353642e+002
    endloop
  endfacet
  facet normal -0.000000e+000 0.000000e+000 -1.000000e+000
    outer loop
      vertex   -1.810000e+002 -1.360774e+001 1.353642e+002
      vertex   -1.880000e+002 -4.910774e+001 1.353642e+002
      vertex   -1.930000e+002 -3.610774e+001 1.353642e+002
    endloop
  endfacet
  facet normal 0.000000e+000 -0.000000e+000 -1.000000e+000
    outer loop
      vertex   -1.810000e+002 -1.360774e+001 1.353642e+002
      vertex   -1.750000e+002 -1.360774e+001 1.353642e+002
      vertex   -1.880000e+002 -4.910774e+001 1.353642e+002
    endloop
  endfacet
  facet normal 0.000000e+000 0.000000e+000 -1.000000e+000
    outer loop
      vertex   -1.810000e+002 -1.360774e+001 1.353642e+002
      vertex   -1.810000e+002 -7.607739e+000 1.353642e+002
      vertex   -1.750000e+002 -1.360774e+001 1.353642e+002
    endloop
  endfacet
  facet normal 0.000000e+000 0.000000e+000 -1.000000e+000
    outer loop
      vertex   -1.750000e+002 -1.360774e+001 1.353642e+002
      vertex   -1.810000e+002 -7.607739e+000 1.353642e+002
      vertex   -1.750000e+002 -7.607739e+000 1.353642e+002
    endloop
  endfacet
  facet normal -0.000000e+000 0.000000e+000 -1.000000e+000
    outer loop
      vertex   -1.880000e+002 -6.160774e+001 1.353642e+002
      vertex   -1.930000e+002 -6.460774e+001 1.353642e+002
      vertex   -1.880000e+002 -4.910774e+001 1.353642e+002
    endloop
  endfacet
  facet normal 0.000000e+000 0.000000e+000 -1.000000e+000
    outer loop
      vertex   -1.930000e+002 -3.610774e+001 1.353642e+002
      vertex   -1.930000e+002 -7.607739e+000 1.353642e+002
      vertex   -1.870000e+002 -1.360774e+001 1.353642e+002
    endloop
  endfacet
  facet normal 0.000000e+000 0.000000e+000 -1.000000e+000
    outer loop
      vertex   -1.870000e+002 -1.360774e+001 1.353642e+002
      vertex   -1.930000e+002 -7.607739e+000 1.353642e+002
      vertex   -1.870000e+002 -7.607739e+000 1.353642e+002
    endloop
  endfacet
  facet normal 0.000000e+000 0.000000e+000 -1.000000e+000
    outer loop
      vertex   -1.880000e+002 -4.910774e+001 1.353642e+002
      vertex   -1.750000e+002 -1.360774e+001 1.353642e+002
      vertex   -1.580000e+002 -4.910774e+001 1.353642e+002
    endloop
  endfacet
  facet normal 0.000000e+000 0.000000e+000 -1.000000e+000
    outer loop
      vertex   -1.580000e+002 -4.910774e+001 1.353642e+002
      vertex   -1.750000e+002 -1.360774e+001 1.353642e+002
      vertex   -1.690000e+002 -1.360774e+001 1.353642e+002
    endloop
  endfacet
  facet normal 0.000000e+000 0.000000e+000 -1.000000e+000
    outer loop
      vertex   -1.630000e+002 -1.360774e+001 1.353642e+002
      vertex   -1.690000e+002 -1.360774e+001 1.353642e+002
      vertex   -1.690000e+002 -7.607739e+000 1.353642e+002
    endloop
  endfacet
  facet normal -0.000000e+000 -0.000000e+000 -1.000000e+000
    outer loop
      vertex   -1.630000e+002 -7.607739e+000 1.353642e+002
      vertex   -1.630000e+002 -1.360774e+001 1.353642e+002
      vertex   -1.690000e+002 -7.607739e+000 1.353642e+002
    endloop
  endfacet
  facet normal 0.000000e+000 0.000000e+000 -1.000000e+000
    outer loop
      vertex   -1.580000e+002 -4.910774e+001 1.353642e+002
      vertex   -1.690000e+002 -1.360774e+001 1.353642e+002
      vertex   -1.630000e+002 -1.360774e+001 1.353642e+002
    endloop
  endfacet
  facet normal -0.000000e+000 0.000000e+000 -1.000000e+000
    outer loop
      vertex   -1.570000e+002 -1.360774e+001 1.353642e+002
      vertex   -1.580000e+002 -4.910774e+001 1.353642e+002
      vertex   -1.630000e+002 -1.360774e+001 1.353642e+002
    endloop
  endfacet
  facet normal 0.000000e+000 -0.000000e+000 -1.000000e+000
    outer loop
      vertex   -1.570000e+002 -1.360774e+001 1.353642e+002
      vertex   -1.510000e+002 -1.360774e+001 1.353642e+002
      vertex   -1.580000e+002 -4.910774e+001 1.353642e+002
    endloop
  endfacet
  facet normal 0.000000e+000 0.000000e+000 -1.000000e+000
    outer loop
      vertex   -1.570000e+002 -1.360774e+001 1.353642e+002
      vertex   -1.510000e+002 -7.607739e+000 1.353642e+002
      vertex   -1.510000e+002 -1.360774e+001 1.353642e+002
    endloop
  endfacet
  facet normal 0.000000e+000 0.000000e+000 -1.000000e+000
    outer loop
      vertex   -1.570000e+002 -1.360774e+001 1.353642e+002
      vertex   -1.570000e+002 -7.607739e+000 1.353642e+002
      vertex   -1.510000e+002 -7.607739e+000 1.353642e+002
    endloop
  endfacet
  facet normal 0.000000e+000 -0.000000e+000 -1.000000e+000
    outer loop
      vertex   -1.510000e+002 -1.360774e+001 1.353642e+002
      vertex   -1.450000e+002 -1.360774e+001 1.353642e+002
      vertex   -1.580000e+002 -4.910774e+001 1.353642e+002
    endloop
  endfacet
  facet normal 0.000000e+000 0.000000e+000 -1.000000e+000
    outer loop
      vertex   -1.580000e+002 -4.910774e+001 1.353642e+002
      vertex   -1.450000e+002 -1.360774e+001 1.353642e+002
      vertex   -1.390000e+002 -1.360774e+001 1.353642e+002
    endloop
  endfacet
  facet normal -0.000000e+000 0.000000e+000 -1.000000e+000
    outer loop
      vertex   -1.330000e+002 -1.360774e+001 1.353642e+002
      vertex   -1.580000e+002 -4.910774e+001 1.353642e+002
      vertex   -1.390000e+002 -1.360774e+001 1.353642e+002
    endloop
  endfacet
  facet normal 0.000000e+000 -0.000000e+000 -1.000000e+000
    outer loop
      vertex   -1.330000e+002 -1.360774e+001 1.353642e+002
      vertex   -1.150000e+002 -2.860774e+001 1.353642e+002
      vertex   -1.580000e+002 -4.910774e+001 1.353642e+002
    endloop
  endfacet
  facet normal 0.000000e+000 0.000000e+000 -1.000000e+000
    outer loop
      vertex   -1.330000e+002 -1.360774e+001 1.353642e+002
      vertex   -1.270000e+002 -1.360774e+001 1.353642e+002
      vertex   -1.150000e+002 -2.860774e+001 1.353642e+002
    endloop
  endfacet
  facet normal 0.000000e+000 0.000000e+000 -1.000000e+000
    outer loop
      vertex   -1.330000e+002 -1.360774e+001 1.353642e+002
      vertex   -1.330000e+002 -7.607739e+000 1.353642e+002
      vertex   -1.270000e+002 -1.360774e+001 1.353642e+002
    endloop
  endfacet
  facet normal 0.000000e+000 0.000000e+000 -1.000000e+000
    outer loop
      vertex   -1.270000e+002 -1.360774e+001 1.353642e+002
      vertex   -1.330000e+002 -7.607739e+000 1.353642e+002
      vertex   -1.270000e+002 -7.607739e+000 1.353642e+002
    endloop
  endfacet
  facet normal 0.000000e+000 0.000000e+000 -1.000000e+000
    outer loop
      vertex   -1.450000e+002 -1.360774e+001 1.353642e+002
      vertex   -1.450000e+002 -7.607739e+000 1.353642e+002
      vertex   -1.390000e+002 -1.360774e+001 1.353642e+002
    endloop
  endfacet
  facet normal 0.000000e+000 0.000000e+000 -1.000000e+000
    outer loop
      vertex   -1.390000e+002 -1.360774e+001 1.353642e+002
      vertex   -1.450000e+002 -7.607739e+000 1.353642e+002
      vertex   -1.390000e+002 -7.607739e+000 1.353642e+002
    endloop
  endfacet
  facet normal 0.000000e+000 0.000000e+000 -1.000000e+000
    outer loop
      vertex   -1.270000e+002 -1.360774e+001 1.353642e+002
      vertex   -1.210000e+002 -1.360774e+001 1.353642e+002
      vertex   -1.150000e+002 -2.860774e+001 1.353642e+002
    endloop
  endfacet
  facet normal 0.000000e+000 0.000000e+000 -1.000000e+000
    outer loop
      vertex   -1.150000e+002 -2.860774e+001 1.353642e+002
      vertex   -1.210000e+002 -1.360774e+001 1.353642e+002
      vertex   -1.150000e+002 -7.607739e+000 1.353642e+002
    endloop
  endfacet
  facet normal -0.000000e+000 0.000000e+000 -1.000000e+000
    outer loop
      vertex   -1.150000e+002 -7.607739e+000 1.353642e+002
      vertex   -1.210000e+002 -1.360774e+001 1.353642e+002
      vertex   -1.210000e+002 -7.607739e+000 1.353642e+002
    endloop
  endfacet
endsolid
