solid ascii
  facet normal 1.000000e+000 0.000000e+000 0.000000e+000
    outer loop
      vertex   -1.389982e+002 -1.360421e+001 2.253659e+002
      vertex   -1.389982e+002 -6.460349e+001 2.253659e+002
      vertex   -1.389982e+002 -1.360421e+001 2.193659e+002
    endloop
  endfacet
  facet normal 1.000000e+000 0.000000e+000 0.000000e+000
    outer loop
      vertex   -1.389982e+002 -1.360421e+001 2.193659e+002
      vertex   -1.389982e+002 -6.460349e+001 2.253659e+002
      vertex   -1.389982e+002 -6.460349e+001 2.193659e+002
    endloop
  endfacet
  facet normal 9.999998e-001 5.883446e-004 8.673617e-019
    outer loop
      vertex   -1.390018e+002 -7.604209e+000 2.253659e+002
      vertex   -1.389982e+002 -1.360421e+001 2.253659e+002
      vertex   -1.390018e+002 -7.604209e+000 2.193659e+002
    endloop
  endfacet
  facet normal 9.999998e-001 5.883446e-004 0.000000e+000
    outer loop
      vertex   -1.390018e+002 -7.604209e+000 2.193659e+002
      vertex   -1.389982e+002 -1.360421e+001 2.253659e+002
      vertex   -1.389982e+002 -1.360421e+001 2.193659e+002
    endloop
  endfacet
  facet normal -5.883446e-004 9.999998e-001 0.000000e+000
    outer loop
      vertex   -1.450018e+002 -7.607739e+000 2.253659e+002
      vertex   -1.390018e+002 -7.604209e+000 2.253659e+002
      vertex   -1.450018e+002 -7.607739e+000 2.193659e+002
    endloop
  endfacet
  facet normal -5.883446e-004 9.999998e-001 1.480297e-015
    outer loop
      vertex   -1.450018e+002 -7.607739e+000 2.193659e+002
      vertex   -1.390018e+002 -7.604209e+000 2.253659e+002
      vertex   -1.390018e+002 -7.604209e+000 2.193659e+002
    endloop
  endfacet
  facet normal -1.000000e+000 9.473903e-015 0.000000e+000
    outer loop
      vertex   -1.450018e+002 -1.360774e+001 2.253659e+002
      vertex   -1.450018e+002 -7.607739e+000 2.253659e+002
      vertex   -1.450018e+002 -1.360774e+001 2.193659e+002
    endloop
  endfacet
  facet normal -1.000000e+000 9.473903e-015 0.000000e+000
    outer loop
      vertex   -1.450018e+002 -1.360774e+001 2.193659e+002
      vertex   -1.450018e+002 -7.607739e+000 2.253659e+002
      vertex   -1.450018e+002 -7.607739e+000 2.193659e+002
    endloop
  endfacet
  facet normal 8.881784e-016 1.000000e+000 0.000000e+000
    outer loop
      vertex   -1.510018e+002 -1.360774e+001 2.253659e+002
      vertex   -1.450018e+002 -1.360774e+001 2.253659e+002
      vertex   -1.510018e+002 -1.360774e+001 2.193659e+002
    endloop
  endfacet
  facet normal 8.881784e-016 1.000000e+000 0.000000e+000
    outer loop
      vertex   -1.510018e+002 -1.360774e+001 2.193659e+002
      vertex   -1.450018e+002 -1.360774e+001 2.253659e+002
      vertex   -1.450018e+002 -1.360774e+001 2.193659e+002
    endloop
  endfacet
  facet normal 1.000000e+000 0.000000e+000 0.000000e+000
    outer loop
      vertex   -1.510018e+002 -7.607739e+000 2.253659e+002
      vertex   -1.510018e+002 -1.360774e+001 2.253659e+002
      vertex   -1.510018e+002 -7.607739e+000 2.193659e+002
    endloop
  endfacet
  facet normal 1.000000e+000 0.000000e+000 0.000000e+000
    outer loop
      vertex   -1.510018e+002 -7.607739e+000 2.193659e+002
      vertex   -1.510018e+002 -1.360774e+001 2.253659e+002
      vertex   -1.510018e+002 -1.360774e+001 2.193659e+002
    endloop
  endfacet
  facet normal -0.000000e+000 1.000000e+000 8.881784e-016
    outer loop
      vertex   -1.570018e+002 -7.607739e+000 2.253659e+002
      vertex   -1.510018e+002 -7.607739e+000 2.253659e+002
      vertex   -1.570018e+002 -7.607739e+000 2.193659e+002
    endloop
  endfacet
  facet normal 0.000000e+000 1.000000e+000 8.881784e-016
    outer loop
      vertex   -1.570018e+002 -7.607739e+000 2.193659e+002
      vertex   -1.510018e+002 -7.607739e+000 2.253659e+002
      vertex   -1.510018e+002 -7.607739e+000 2.193659e+002
    endloop
  endfacet
  facet normal -1.000000e+000 -1.443150e-004 0.000000e+000
    outer loop
      vertex   -1.570009e+002 -1.360774e+001 2.253659e+002
      vertex   -1.570018e+002 -7.607739e+000 2.253659e+002
      vertex   -1.570009e+002 -1.360774e+001 2.193659e+002
    endloop
  endfacet
  facet normal -1.000000e+000 -1.443150e-004 -1.281775e-019
    outer loop
      vertex   -1.570009e+002 -1.360774e+001 2.193659e+002
      vertex   -1.570018e+002 -7.607739e+000 2.253659e+002
      vertex   -1.570018e+002 -7.607739e+000 2.193659e+002
    endloop
  endfacet
  facet normal -1.443150e-004 1.000000e+000 0.000000e+000
    outer loop
      vertex   -1.630009e+002 -1.360860e+001 2.253659e+002
      vertex   -1.570009e+002 -1.360774e+001 2.253659e+002
      vertex   -1.630009e+002 -1.360860e+001 2.193659e+002
    endloop
  endfacet
  facet normal -1.443150e-004 1.000000e+000 0.000000e+000
    outer loop
      vertex   -1.630009e+002 -1.360860e+001 2.193659e+002
      vertex   -1.570009e+002 -1.360774e+001 2.253659e+002
      vertex   -1.570009e+002 -1.360774e+001 2.193659e+002
    endloop
  endfacet
  facet normal 1.000000e+000 1.443150e-004 1.204669e-019
    outer loop
      vertex   -1.630018e+002 -7.608605e+000 2.253659e+002
      vertex   -1.630009e+002 -1.360860e+001 2.253659e+002
      vertex   -1.630018e+002 -7.608605e+000 2.193659e+002
    endloop
  endfacet
  facet normal 1.000000e+000 1.443150e-004 0.000000e+000
    outer loop
      vertex   -1.630018e+002 -7.608605e+000 2.193659e+002
      vertex   -1.630009e+002 -1.360860e+001 2.253659e+002
      vertex   -1.630009e+002 -1.360860e+001 2.193659e+002
    endloop
  endfacet
  facet normal -1.443150e-004 1.000000e+000 5.921189e-016
    outer loop
      vertex   -1.690018e+002 -7.609471e+000 2.253659e+002
      vertex   -1.630018e+002 -7.608605e+000 2.253659e+002
      vertex   -1.690018e+002 -7.609471e+000 2.193659e+002
    endloop
  endfacet
  facet normal -1.443150e-004 1.000000e+000 8.881784e-016
    outer loop
      vertex   -1.690018e+002 -7.609471e+000 2.193659e+002
      vertex   -1.630018e+002 -7.608605e+000 2.253659e+002
      vertex   -1.630018e+002 -7.608605e+000 2.193659e+002
    endloop
  endfacet
  facet normal -1.000000e+000 -1.443150e-004 0.000000e+000
    outer loop
      vertex   -1.689987e+002 -2.860947e+001 2.253659e+002
      vertex   -1.690018e+002 -7.609471e+000 2.253659e+002
      vertex   -1.689987e+002 -2.860947e+001 2.193659e+002
    endloop
  endfacet
  facet normal -1.000000e+000 -1.443150e-004 -8.545165e-020
    outer loop
      vertex   -1.689987e+002 -2.860947e+001 2.193659e+002
      vertex   -1.690018e+002 -7.609471e+000 2.253659e+002
      vertex   -1.690018e+002 -7.609471e+000 2.193659e+002
    endloop
  endfacet
  facet normal -8.984831e-001 -4.390082e-001 0.000000e+000
    outer loop
      vertex   -1.589837e+002 -4.910637e+001 2.253659e+002
      vertex   -1.689987e+002 -2.860947e+001 2.253659e+002
      vertex   -1.589837e+002 -4.910637e+001 2.193659e+002
    endloop
  endfacet
  facet normal -8.984831e-001 -4.390082e-001 -0.000000e+000
    outer loop
      vertex   -1.589837e+002 -4.910637e+001 2.193659e+002
      vertex   -1.689987e+002 -2.860947e+001 2.253659e+002
      vertex   -1.689987e+002 -2.860947e+001 2.193659e+002
    endloop
  endfacet
  facet normal 1.443150e-004 -1.000000e+000 0.000000e+000
    outer loop
      vertex   -1.439837e+002 -4.910421e+001 2.253659e+002
      vertex   -1.589837e+002 -4.910637e+001 2.253659e+002
      vertex   -1.439837e+002 -4.910421e+001 2.193659e+002
    endloop
  endfacet
  facet normal 1.443150e-004 -1.000000e+000 0.000000e+000
    outer loop
      vertex   -1.439837e+002 -4.910421e+001 2.193659e+002
      vertex   -1.589837e+002 -4.910637e+001 2.253659e+002
      vertex   -1.589837e+002 -4.910637e+001 2.193659e+002
    endloop
  endfacet
  facet normal -1.000000e+000 -1.443150e-004 0.000000e+000
    outer loop
      vertex   -1.439819e+002 -6.160421e+001 2.253659e+002
      vertex   -1.439837e+002 -4.910421e+001 2.253659e+002
      vertex   -1.439819e+002 -6.160421e+001 2.193659e+002
    endloop
  endfacet
  facet normal -1.000000e+000 -1.443150e-004 -0.000000e+000
    outer loop
      vertex   -1.439819e+002 -6.160421e+001 2.193659e+002
      vertex   -1.439837e+002 -4.910421e+001 2.253659e+002
      vertex   -1.439837e+002 -4.910421e+001 2.193659e+002
    endloop
  endfacet
  facet normal -1.443150e-004 1.000000e+000 0.000000e+000
    outer loop
      vertex   -1.539819e+002 -6.160565e+001 2.253659e+002
      vertex   -1.439819e+002 -6.160421e+001 2.253659e+002
      vertex   -1.539819e+002 -6.160565e+001 2.193659e+002
    endloop
  endfacet
  facet normal -1.443150e-004 1.000000e+000 0.000000e+000
    outer loop
      vertex   -1.539819e+002 -6.160565e+001 2.193659e+002
      vertex   -1.439819e+002 -6.160421e+001 2.253659e+002
      vertex   -1.439819e+002 -6.160421e+001 2.193659e+002
    endloop
  endfacet
  facet normal -1.000000e+000 -1.443150e-004 0.000000e+000
    outer loop
      vertex   -1.539815e+002 -6.460565e+001 2.253659e+002
      vertex   -1.539819e+002 -6.160565e+001 2.253659e+002
      vertex   -1.539815e+002 -6.460565e+001 2.193659e+002
    endloop
  endfacet
  facet normal -1.000000e+000 -1.443150e-004 -0.000000e+000
    outer loop
      vertex   -1.539815e+002 -6.460565e+001 2.193659e+002
      vertex   -1.539819e+002 -6.160565e+001 2.253659e+002
      vertex   -1.539819e+002 -6.160565e+001 2.193659e+002
    endloop
  endfacet
  facet normal 1.443150e-004 -1.000000e+000 0.000000e+000
    outer loop
      vertex   -1.389982e+002 -6.460349e+001 2.253659e+002
      vertex   -1.539815e+002 -6.460565e+001 2.253659e+002
      vertex   -1.389982e+002 -6.460349e+001 2.193659e+002
    endloop
  endfacet
  facet normal 1.443150e-004 -1.000000e+000 0.000000e+000
    outer loop
      vertex   -1.389982e+002 -6.460349e+001 2.193659e+002
      vertex   -1.539815e+002 -6.460565e+001 2.253659e+002
      vertex   -1.539815e+002 -6.460565e+001 2.193659e+002
    endloop
  endfacet
  facet normal -0.000000e+000 0.000000e+000 1.000000e+000
    outer loop
      vertex   -1.539819e+002 -6.160565e+001 2.253659e+002
      vertex   -1.539815e+002 -6.460565e+001 2.253659e+002
      vertex   -1.439819e+002 -6.160421e+001 2.253659e+002
    endloop
  endfacet
  facet normal -0.000000e+000 0.000000e+000 1.000000e+000
    outer loop
      vertex   -1.439819e+002 -6.160421e+001 2.253659e+002
      vertex   -1.539815e+002 -6.460565e+001 2.253659e+002
      vertex   -1.389982e+002 -6.460349e+001 2.253659e+002
    endloop
  endfacet
  facet normal -0.000000e+000 0.000000e+000 1.000000e+000
    outer loop
      vertex   -1.439837e+002 -4.910421e+001 2.253659e+002
      vertex   -1.389982e+002 -6.460349e+001 2.253659e+002
      vertex   -1.389982e+002 -1.360421e+001 2.253659e+002
    endloop
  endfacet
  facet normal 0.000000e+000 -0.000000e+000 1.000000e+000
    outer loop
      vertex   -1.450018e+002 -1.360774e+001 2.253659e+002
      vertex   -1.389982e+002 -1.360421e+001 2.253659e+002
      vertex   -1.390018e+002 -7.604209e+000 2.253659e+002
    endloop
  endfacet
  facet normal -0.000000e+000 0.000000e+000 1.000000e+000
    outer loop
      vertex   -1.450018e+002 -7.607739e+000 2.253659e+002
      vertex   -1.450018e+002 -1.360774e+001 2.253659e+002
      vertex   -1.390018e+002 -7.604209e+000 2.253659e+002
    endloop
  endfacet
  facet normal -0.000000e+000 -0.000000e+000 1.000000e+000
    outer loop
      vertex   -1.439819e+002 -6.160421e+001 2.253659e+002
      vertex   -1.389982e+002 -6.460349e+001 2.253659e+002
      vertex   -1.439837e+002 -4.910421e+001 2.253659e+002
    endloop
  endfacet
  facet normal 0.000000e+000 -0.000000e+000 1.000000e+000
    outer loop
      vertex   -1.439837e+002 -4.910421e+001 2.253659e+002
      vertex   -1.389982e+002 -1.360421e+001 2.253659e+002
      vertex   -1.450018e+002 -1.360774e+001 2.253659e+002
    endloop
  endfacet
  facet normal -0.000000e+000 -0.000000e+000 1.000000e+000
    outer loop
      vertex   -1.510018e+002 -1.360774e+001 2.253659e+002
      vertex   -1.439837e+002 -4.910421e+001 2.253659e+002
      vertex   -1.450018e+002 -1.360774e+001 2.253659e+002
    endloop
  endfacet
  facet normal -0.000000e+000 0.000000e+000 1.000000e+000
    outer loop
      vertex   -1.510018e+002 -1.360774e+001 2.253659e+002
      vertex   -1.589837e+002 -4.910637e+001 2.253659e+002
      vertex   -1.439837e+002 -4.910421e+001 2.253659e+002
    endloop
  endfacet
  facet normal 0.000000e+000 0.000000e+000 1.000000e+000
    outer loop
      vertex   -1.510018e+002 -1.360774e+001 2.253659e+002
      vertex   -1.570009e+002 -1.360774e+001 2.253659e+002
      vertex   -1.589837e+002 -4.910637e+001 2.253659e+002
    endloop
  endfacet
  facet normal 0.000000e+000 0.000000e+000 1.000000e+000
    outer loop
      vertex   -1.510018e+002 -1.360774e+001 2.253659e+002
      vertex   -1.570018e+002 -7.607739e+000 2.253659e+002
      vertex   -1.570009e+002 -1.360774e+001 2.253659e+002
    endloop
  endfacet
  facet normal 0.000000e+000 -0.000000e+000 1.000000e+000
    outer loop
      vertex   -1.510018e+002 -1.360774e+001 2.253659e+002
      vertex   -1.510018e+002 -7.607739e+000 2.253659e+002
      vertex   -1.570018e+002 -7.607739e+000 2.253659e+002
    endloop
  endfacet
  facet normal 0.000000e+000 0.000000e+000 1.000000e+000
    outer loop
      vertex   -1.570009e+002 -1.360774e+001 2.253659e+002
      vertex   -1.630009e+002 -1.360860e+001 2.253659e+002
      vertex   -1.589837e+002 -4.910637e+001 2.253659e+002
    endloop
  endfacet
  facet normal 0.000000e+000 0.000000e+000 1.000000e+000
    outer loop
      vertex   -1.589837e+002 -4.910637e+001 2.253659e+002
      vertex   -1.630009e+002 -1.360860e+001 2.253659e+002
      vertex   -1.689987e+002 -2.860947e+001 2.253659e+002
    endloop
  endfacet
  facet normal 0.000000e+000 -0.000000e+000 1.000000e+000
    outer loop
      vertex   -1.689987e+002 -2.860947e+001 2.253659e+002
      vertex   -1.630009e+002 -1.360860e+001 2.253659e+002
      vertex   -1.690018e+002 -7.609471e+000 2.253659e+002
    endloop
  endfacet
  facet normal -0.000000e+000 -0.000000e+000 1.000000e+000
    outer loop
      vertex   -1.690018e+002 -7.609471e+000 2.253659e+002
      vertex   -1.630009e+002 -1.360860e+001 2.253659e+002
      vertex   -1.630018e+002 -7.608605e+000 2.253659e+002
    endloop
  endfacet
  facet normal 0.000000e+000 0.000000e+000 -1.000000e+000
    outer loop
      vertex   -1.539815e+002 -6.460565e+001 2.193659e+002
      vertex   -1.439819e+002 -6.160421e+001 2.193659e+002
      vertex   -1.389982e+002 -6.460349e+001 2.193659e+002
    endloop
  endfacet
  facet normal 0.000000e+000 0.000000e+000 -1.000000e+000
    outer loop
      vertex   -1.539815e+002 -6.460565e+001 2.193659e+002
      vertex   -1.539819e+002 -6.160565e+001 2.193659e+002
      vertex   -1.439819e+002 -6.160421e+001 2.193659e+002
    endloop
  endfacet
  facet normal 0.000000e+000 0.000000e+000 -1.000000e+000
    outer loop
      vertex   -1.439819e+002 -6.160421e+001 2.193659e+002
      vertex   -1.439837e+002 -4.910421e+001 2.193659e+002
      vertex   -1.389982e+002 -6.460349e+001 2.193659e+002
    endloop
  endfacet
  facet normal 3.465127e-015 1.114593e-015 -1.000000e+000
    outer loop
      vertex   -1.389982e+002 -6.460349e+001 2.193659e+002
      vertex   -1.439837e+002 -4.910421e+001 2.193659e+002
      vertex   -1.389982e+002 -1.360421e+001 2.193659e+002
    endloop
  endfacet
  facet normal -9.418720e-019 1.601355e-015 -1.000000e+000
    outer loop
      vertex   -1.389982e+002 -1.360421e+001 2.193659e+002
      vertex   -1.439837e+002 -4.910421e+001 2.193659e+002
      vertex   -1.450018e+002 -1.360774e+001 2.193659e+002
    endloop
  endfacet
  facet normal -0.000000e+000 0.000000e+000 -1.000000e+000
    outer loop
      vertex   -1.390018e+002 -7.604209e+000 2.193659e+002
      vertex   -1.450018e+002 -1.360774e+001 2.193659e+002
      vertex   -1.450018e+002 -7.607739e+000 2.193659e+002
    endloop
  endfacet
  facet normal 0.000000e+000 -0.000000e+000 -1.000000e+000
    outer loop
      vertex   -1.390018e+002 -7.604209e+000 2.193659e+002
      vertex   -1.389982e+002 -1.360421e+001 2.193659e+002
      vertex   -1.450018e+002 -1.360774e+001 2.193659e+002
    endloop
  endfacet
  facet normal 0.000000e+000 1.601382e-015 -1.000000e+000
    outer loop
      vertex   -1.450018e+002 -1.360774e+001 2.193659e+002
      vertex   -1.439837e+002 -4.910421e+001 2.193659e+002
      vertex   -1.510018e+002 -1.360774e+001 2.193659e+002
    endloop
  endfacet
  facet normal -2.310969e-019 1.601337e-015 -1.000000e+000
    outer loop
      vertex   -1.510018e+002 -1.360774e+001 2.193659e+002
      vertex   -1.439837e+002 -4.910421e+001 2.193659e+002
      vertex   -1.589837e+002 -4.910637e+001 2.193659e+002
    endloop
  endfacet
  facet normal -2.310913e-019 1.601298e-015 -1.000000e+000
    outer loop
      vertex   -1.570009e+002 -1.360774e+001 2.193659e+002
      vertex   -1.589837e+002 -4.910637e+001 2.193659e+002
      vertex   -1.630009e+002 -1.360860e+001 2.193659e+002
    endloop
  endfacet
  facet normal 1.667724e-023 1.601285e-015 -1.000000e+000
    outer loop
      vertex   -1.570009e+002 -1.360774e+001 2.193659e+002
      vertex   -1.510018e+002 -1.360774e+001 2.193659e+002
      vertex   -1.589837e+002 -4.910637e+001 2.193659e+002
    endloop
  endfacet
  facet normal 0.000000e+000 0.000000e+000 -1.000000e+000
    outer loop
      vertex   -1.570009e+002 -1.360774e+001 2.193659e+002
      vertex   -1.570018e+002 -7.607739e+000 2.193659e+002
      vertex   -1.510018e+002 -1.360774e+001 2.193659e+002
    endloop
  endfacet
  facet normal 0.000000e+000 0.000000e+000 -1.000000e+000
    outer loop
      vertex   -1.510018e+002 -1.360774e+001 2.193659e+002
      vertex   -1.570018e+002 -7.607739e+000 2.193659e+002
      vertex   -1.510018e+002 -7.607739e+000 2.193659e+002
    endloop
  endfacet
  facet normal -3.121493e-015 1.248075e-015 -1.000000e+000
    outer loop
      vertex   -1.589837e+002 -4.910637e+001 2.193659e+002
      vertex   -1.689987e+002 -2.860947e+001 2.193659e+002
      vertex   -1.630009e+002 -1.360860e+001 2.193659e+002
    endloop
  endfacet
  facet normal -0.000000e+000 0.000000e+000 -1.000000e+000
    outer loop
      vertex   -1.630009e+002 -1.360860e+001 2.193659e+002
      vertex   -1.689987e+002 -2.860947e+001 2.193659e+002
      vertex   -1.690018e+002 -7.609471e+000 2.193659e+002
    endloop
  endfacet
  facet normal -0.000000e+000 -0.000000e+000 -1.000000e+000
    outer loop
      vertex   -1.630018e+002 -7.608605e+000 2.193659e+002
      vertex   -1.630009e+002 -1.360860e+001 2.193659e+002
      vertex   -1.690018e+002 -7.609471e+000 2.193659e+002
    endloop
  endfacet
endsolid
