solid ascii
  facet normal -0.000000e+000 -1.000000e+000 0.000000e+000
    outer loop
      vertex   -1.061674e+002 1.809471e+001 1.323757e+002
      vertex   -1.061674e+002 1.809471e+001 1.383757e+002
      vertex   -1.121674e+002 1.809471e+001 1.323757e+002
    endloop
  endfacet
  facet normal 0.000000e+000 -1.000000e+000 0.000000e+000
    outer loop
      vertex   -1.121674e+002 1.809471e+001 1.323757e+002
      vertex   -1.061674e+002 1.809471e+001 1.383757e+002
      vertex   -1.121674e+002 1.809471e+001 1.383757e+002
    endloop
  endfacet
  facet normal -1.000000e+000 0.000000e+000 -0.000000e+000
    outer loop
      vertex   -1.121674e+002 1.809471e+001 1.383757e+002
      vertex   -1.121674e+002 2.809471e+001 1.383757e+002
      vertex   -1.121674e+002 1.809471e+001 1.323757e+002
    endloop
  endfacet
  facet normal -1.000000e+000 0.000000e+000 0.000000e+000
    outer loop
      vertex   -1.121674e+002 1.809471e+001 1.323757e+002
      vertex   -1.121674e+002 2.809471e+001 1.383757e+002
      vertex   -1.121674e+002 2.809471e+001 1.323757e+002
    endloop
  endfacet
  facet normal 0.000000e+000 1.000000e+000 0.000000e+000
    outer loop
      vertex   -1.061674e+002 8.094709e+000 1.383757e+002
      vertex   -1.061674e+002 8.094709e+000 1.323757e+002
      vertex   -1.121674e+002 8.094709e+000 1.383757e+002
    endloop
  endfacet
  facet normal 0.000000e+000 1.000000e+000 0.000000e+000
    outer loop
      vertex   -1.121674e+002 8.094709e+000 1.383757e+002
      vertex   -1.061674e+002 8.094709e+000 1.323757e+002
      vertex   -1.121674e+002 8.094709e+000 1.323757e+002
    endloop
  endfacet
  facet normal -0.000000e+000 -1.000000e+000 0.000000e+000
    outer loop
      vertex   -1.061674e+002 -1.905291e+000 1.323757e+002
      vertex   -1.061674e+002 -1.905291e+000 1.383757e+002
      vertex   -1.121674e+002 -1.905291e+000 1.323757e+002
    endloop
  endfacet
  facet normal 0.000000e+000 -1.000000e+000 0.000000e+000
    outer loop
      vertex   -1.121674e+002 -1.905291e+000 1.323757e+002
      vertex   -1.061674e+002 -1.905291e+000 1.383757e+002
      vertex   -1.121674e+002 -1.905291e+000 1.383757e+002
    endloop
  endfacet
  facet normal -1.000000e+000 0.000000e+000 0.000000e+000
    outer loop
      vertex   -1.121674e+002 8.094709e+000 1.323757e+002
      vertex   -1.121674e+002 -1.905291e+000 1.323757e+002
      vertex   -1.121674e+002 8.094709e+000 1.383757e+002
    endloop
  endfacet
  facet normal -1.000000e+000 -0.000000e+000 0.000000e+000
    outer loop
      vertex   -1.121674e+002 8.094709e+000 1.383757e+002
      vertex   -1.121674e+002 -1.905291e+000 1.323757e+002
      vertex   -1.121674e+002 -1.905291e+000 1.383757e+002
    endloop
  endfacet
  facet normal -1.000000e+000 3.834830e-007 0.000000e+000
    outer loop
      vertex   -1.061674e+002 -1.905291e+000 1.323757e+002
      vertex   -1.061674e+002 -1.340529e+001 1.323757e+002
      vertex   -1.061674e+002 -1.905291e+000 1.383757e+002
    endloop
  endfacet
  facet normal -1.000000e+000 3.834830e-007 0.000000e+000
    outer loop
      vertex   -1.061674e+002 -1.905291e+000 1.383757e+002
      vertex   -1.061674e+002 -1.340529e+001 1.323757e+002
      vertex   -1.061674e+002 -1.340529e+001 1.383757e+002
    endloop
  endfacet
  facet normal -0.000000e+000 0.000000e+000 -1.000000e+000
    outer loop
      vertex   -7.116744e+001 2.809471e+001 1.323757e+002
      vertex   -1.061674e+002 1.809471e+001 1.323757e+002
      vertex   -1.061674e+002 2.809471e+001 1.323757e+002
    endloop
  endfacet
  facet normal -0.000000e+000 0.000000e+000 -1.000000e+000
    outer loop
      vertex   -7.116744e+001 2.809471e+001 1.323757e+002
      vertex   -1.061674e+002 8.094709e+000 1.323757e+002
      vertex   -1.061674e+002 1.809471e+001 1.323757e+002
    endloop
  endfacet
  facet normal -0.000000e+000 0.000000e+000 -1.000000e+000
    outer loop
      vertex   -7.116744e+001 2.809471e+001 1.323757e+002
      vertex   -8.816744e+001 -7.405291e+000 1.323757e+002
      vertex   -1.061674e+002 8.094709e+000 1.323757e+002
    endloop
  endfacet
  facet normal -0.000000e+000 0.000000e+000 -1.000000e+000
    outer loop
      vertex   -7.116744e+001 2.809471e+001 1.323757e+002
      vertex   -8.216744e+001 -7.405291e+000 1.323757e+002
      vertex   -8.816744e+001 -7.405291e+000 1.323757e+002
    endloop
  endfacet
  facet normal -0.000000e+000 0.000000e+000 -1.000000e+000
    outer loop
      vertex   -7.116744e+001 2.809471e+001 1.323757e+002
      vertex   -7.616744e+001 -7.405291e+000 1.323757e+002
      vertex   -8.216744e+001 -7.405291e+000 1.323757e+002
    endloop
  endfacet
  facet normal -0.000000e+000 -0.000000e+000 -1.000000e+000
    outer loop
      vertex   -7.116744e+001 2.809471e+001 1.323757e+002
      vertex   -7.016744e+001 -7.405291e+000 1.323757e+002
      vertex   -7.616744e+001 -7.405291e+000 1.323757e+002
    endloop
  endfacet
  facet normal -0.000000e+000 -0.000000e+000 -1.000000e+000
    outer loop
      vertex   -7.116744e+001 2.809471e+001 1.323757e+002
      vertex   -6.416744e+001 -7.405291e+000 1.323757e+002
      vertex   -7.016744e+001 -7.405291e+000 1.323757e+002
    endloop
  endfacet
  facet normal -0.000000e+000 -0.000000e+000 -1.000000e+000
    outer loop
      vertex   -7.116744e+001 2.809471e+001 1.323757e+002
      vertex   -5.816744e+001 -7.405291e+000 1.323757e+002
      vertex   -6.416744e+001 -7.405291e+000 1.323757e+002
    endloop
  endfacet
  facet normal 0.000000e+000 -0.000000e+000 -1.000000e+000
    outer loop
      vertex   -7.116744e+001 2.809471e+001 1.323757e+002
      vertex   -5.216744e+001 -7.405291e+000 1.323757e+002
      vertex   -5.816744e+001 -7.405291e+000 1.323757e+002
    endloop
  endfacet
  facet normal 0.000000e+000 -0.000000e+000 -1.000000e+000
    outer loop
      vertex   -7.116744e+001 2.809471e+001 1.323757e+002
      vertex   -2.816744e+001 7.594709e+000 1.323757e+002
      vertex   -5.216744e+001 -7.405291e+000 1.323757e+002
    endloop
  endfacet
  facet normal 0.000000e+000 -0.000000e+000 -1.000000e+000
    outer loop
      vertex   -5.216744e+001 -7.405291e+000 1.323757e+002
      vertex   -2.816744e+001 7.594709e+000 1.323757e+002
      vertex   -4.616744e+001 -7.405291e+000 1.323757e+002
    endloop
  endfacet
  facet normal 0.000000e+000 -0.000000e+000 -1.000000e+000
    outer loop
      vertex   -4.616744e+001 -7.405291e+000 1.323757e+002
      vertex   -2.816744e+001 7.594709e+000 1.323757e+002
      vertex   -4.016744e+001 -7.405291e+000 1.323757e+002
    endloop
  endfacet
  facet normal 0.000000e+000 0.000000e+000 -1.000000e+000
    outer loop
      vertex   -4.016744e+001 -1.340529e+001 1.323757e+002
      vertex   -4.616744e+001 -7.405291e+000 1.323757e+002
      vertex   -4.016744e+001 -7.405291e+000 1.323757e+002
    endloop
  endfacet
  facet normal 0.000000e+000 0.000000e+000 -1.000000e+000
    outer loop
      vertex   -4.016744e+001 -1.340529e+001 1.323757e+002
      vertex   -4.616744e+001 -1.340529e+001 1.323757e+002
      vertex   -4.616744e+001 -7.405291e+000 1.323757e+002
    endloop
  endfacet
  facet normal 0.000000e+000 -0.000000e+000 -1.000000e+000
    outer loop
      vertex   -4.016744e+001 -7.405291e+000 1.323757e+002
      vertex   -2.816744e+001 7.594709e+000 1.323757e+002
      vertex   -3.416744e+001 -7.405291e+000 1.323757e+002
    endloop
  endfacet
  facet normal 0.000000e+000 0.000000e+000 -1.000000e+000
    outer loop
      vertex   -3.416744e+001 -7.405291e+000 1.323757e+002
      vertex   -2.816744e+001 7.594709e+000 1.323757e+002
      vertex   -2.816744e+001 -1.340529e+001 1.323757e+002
    endloop
  endfacet
  facet normal 0.000000e+000 0.000000e+000 -1.000000e+000
    outer loop
      vertex   -3.416744e+001 -1.340529e+001 1.323757e+002
      vertex   -3.416744e+001 -7.405291e+000 1.323757e+002
      vertex   -2.816744e+001 -1.340529e+001 1.323757e+002
    endloop
  endfacet
  facet normal -0.000000e+000 -0.000000e+000 -1.000000e+000
    outer loop
      vertex   -5.216744e+001 -7.405291e+000 1.323757e+002
      vertex   -5.216744e+001 -1.340529e+001 1.323757e+002
      vertex   -5.816744e+001 -7.405291e+000 1.323757e+002
    endloop
  endfacet
  facet normal -0.000000e+000 -0.000000e+000 -1.000000e+000
    outer loop
      vertex   -5.816744e+001 -7.405291e+000 1.323757e+002
      vertex   -5.216744e+001 -1.340529e+001 1.323757e+002
      vertex   -5.816744e+001 -1.340529e+001 1.323757e+002
    endloop
  endfacet
  facet normal -0.000000e+000 -0.000000e+000 -1.000000e+000
    outer loop
      vertex   -6.416744e+001 -7.405291e+000 1.323757e+002
      vertex   -6.416744e+001 -1.340529e+001 1.323757e+002
      vertex   -7.016744e+001 -7.405291e+000 1.323757e+002
    endloop
  endfacet
  facet normal -0.000000e+000 -0.000000e+000 -1.000000e+000
    outer loop
      vertex   -7.016744e+001 -7.405291e+000 1.323757e+002
      vertex   -6.416744e+001 -1.340529e+001 1.323757e+002
      vertex   -7.016744e+001 -1.340529e+001 1.323757e+002
    endloop
  endfacet
  facet normal -0.000000e+000 -0.000000e+000 -1.000000e+000
    outer loop
      vertex   -7.616744e+001 -7.405291e+000 1.323757e+002
      vertex   -7.616744e+001 -1.340529e+001 1.323757e+002
      vertex   -8.216744e+001 -7.405291e+000 1.323757e+002
    endloop
  endfacet
  facet normal -0.000000e+000 -0.000000e+000 -1.000000e+000
    outer loop
      vertex   -8.216744e+001 -7.405291e+000 1.323757e+002
      vertex   -7.616744e+001 -1.340529e+001 1.323757e+002
      vertex   -8.216744e+001 -1.340529e+001 1.323757e+002
    endloop
  endfacet
  facet normal 0.000000e+000 -0.000000e+000 -1.000000e+000
    outer loop
      vertex   -1.061674e+002 8.094709e+000 1.323757e+002
      vertex   -8.816744e+001 -7.405291e+000 1.323757e+002
      vertex   -9.416744e+001 -7.405291e+000 1.323757e+002
    endloop
  endfacet
  facet normal 0.000000e+000 0.000000e+000 -1.000000e+000
    outer loop
      vertex   -1.001674e+002 -7.405291e+000 1.323757e+002
      vertex   -1.061674e+002 8.094709e+000 1.323757e+002
      vertex   -9.416744e+001 -7.405291e+000 1.323757e+002
    endloop
  endfacet
  facet normal 0.000000e+000 0.000000e+000 -1.000000e+000
    outer loop
      vertex   -1.001674e+002 -7.405291e+000 1.323757e+002
      vertex   -1.061674e+002 -1.905291e+000 1.323757e+002
      vertex   -1.061674e+002 8.094709e+000 1.323757e+002
    endloop
  endfacet
  facet normal -0.000000e+000 0.000000e+000 -1.000000e+000
    outer loop
      vertex   -1.001674e+002 -7.405291e+000 1.323757e+002
      vertex   -1.061674e+002 -1.340529e+001 1.323757e+002
      vertex   -1.061674e+002 -1.905291e+000 1.323757e+002
    endloop
  endfacet
  facet normal -0.000000e+000 -0.000000e+000 -1.000000e+000
    outer loop
      vertex   -1.001674e+002 -7.405291e+000 1.323757e+002
      vertex   -1.001674e+002 -1.340529e+001 1.323757e+002
      vertex   -1.061674e+002 -1.340529e+001 1.323757e+002
    endloop
  endfacet
  facet normal 0.000000e+000 0.000000e+000 -1.000000e+000
    outer loop
      vertex   -9.416744e+001 -1.340529e+001 1.323757e+002
      vertex   -9.416744e+001 -7.405291e+000 1.323757e+002
      vertex   -8.816744e+001 -1.340529e+001 1.323757e+002
    endloop
  endfacet
  facet normal 0.000000e+000 0.000000e+000 -1.000000e+000
    outer loop
      vertex   -8.816744e+001 -1.340529e+001 1.323757e+002
      vertex   -9.416744e+001 -7.405291e+000 1.323757e+002
      vertex   -8.816744e+001 -7.405291e+000 1.323757e+002
    endloop
  endfacet
  facet normal 0.000000e+000 0.000000e+000 -1.000000e+000
    outer loop
      vertex   -1.121674e+002 -1.905291e+000 1.323757e+002
      vertex   -1.121674e+002 8.094709e+000 1.323757e+002
      vertex   -1.061674e+002 -1.905291e+000 1.323757e+002
    endloop
  endfacet
  facet normal 0.000000e+000 0.000000e+000 -1.000000e+000
    outer loop
      vertex   -1.061674e+002 -1.905291e+000 1.323757e+002
      vertex   -1.121674e+002 8.094709e+000 1.323757e+002
      vertex   -1.061674e+002 8.094709e+000 1.323757e+002
    endloop
  endfacet
  facet normal 0.000000e+000 0.000000e+000 -1.000000e+000
    outer loop
      vertex   -1.061674e+002 1.809471e+001 1.323757e+002
      vertex   -1.121674e+002 1.809471e+001 1.323757e+002
      vertex   -1.061674e+002 2.809471e+001 1.323757e+002
    endloop
  endfacet
  facet normal -0.000000e+000 0.000000e+000 -1.000000e+000
    outer loop
      vertex   -1.061674e+002 2.809471e+001 1.323757e+002
      vertex   -1.121674e+002 1.809471e+001 1.323757e+002
      vertex   -1.121674e+002 2.809471e+001 1.323757e+002
    endloop
  endfacet
  facet normal -1.000000e+000 0.000000e+000 0.000000e+000
    outer loop
      vertex   -1.061674e+002 1.809471e+001 1.323757e+002
      vertex   -1.061674e+002 8.094709e+000 1.323757e+002
      vertex   -1.061674e+002 1.809471e+001 1.383757e+002
    endloop
  endfacet
  facet normal -1.000000e+000 -0.000000e+000 0.000000e+000
    outer loop
      vertex   -1.061674e+002 1.809471e+001 1.383757e+002
      vertex   -1.061674e+002 8.094709e+000 1.323757e+002
      vertex   -1.061674e+002 8.094709e+000 1.383757e+002
    endloop
  endfacet
  facet normal 0.000000e+000 -1.000000e+000 0.000000e+000
    outer loop
      vertex   -1.061674e+002 -1.340529e+001 1.323757e+002
      vertex   -1.001674e+002 -1.340529e+001 1.323757e+002
      vertex   -1.061674e+002 -1.340529e+001 1.383757e+002
    endloop
  endfacet
  facet normal 0.000000e+000 -1.000000e+000 0.000000e+000
    outer loop
      vertex   -1.061674e+002 -1.340529e+001 1.383757e+002
      vertex   -1.001674e+002 -1.340529e+001 1.323757e+002
      vertex   -1.001674e+002 -1.340529e+001 1.383757e+002
    endloop
  endfacet
  facet normal 1.000000e+000 0.000000e+000 -0.000000e+000
    outer loop
      vertex   -1.001674e+002 -1.340529e+001 1.323757e+002
      vertex   -1.001674e+002 -7.405291e+000 1.323757e+002
      vertex   -1.001674e+002 -1.340529e+001 1.383757e+002
    endloop
  endfacet
  facet normal 1.000000e+000 -0.000000e+000 0.000000e+000
    outer loop
      vertex   -1.001674e+002 -1.340529e+001 1.383757e+002
      vertex   -1.001674e+002 -7.405291e+000 1.323757e+002
      vertex   -1.001674e+002 -7.405291e+000 1.383757e+002
    endloop
  endfacet
  facet normal 0.000000e+000 -1.000000e+000 1.480297e-015
    outer loop
      vertex   -1.001674e+002 -7.405291e+000 1.323757e+002
      vertex   -9.416744e+001 -7.405291e+000 1.323757e+002
      vertex   -1.001674e+002 -7.405291e+000 1.383757e+002
    endloop
  endfacet
  facet normal 0.000000e+000 -1.000000e+000 1.480297e-015
    outer loop
      vertex   -1.001674e+002 -7.405291e+000 1.383757e+002
      vertex   -9.416744e+001 -7.405291e+000 1.323757e+002
      vertex   -9.416744e+001 -7.405291e+000 1.383757e+002
    endloop
  endfacet
  facet normal -1.000000e+000 0.000000e+000 0.000000e+000
    outer loop
      vertex   -9.416744e+001 -7.405291e+000 1.323757e+002
      vertex   -9.416744e+001 -1.340529e+001 1.323757e+002
      vertex   -9.416744e+001 -7.405291e+000 1.383757e+002
    endloop
  endfacet
  facet normal -1.000000e+000 -0.000000e+000 0.000000e+000
    outer loop
      vertex   -9.416744e+001 -7.405291e+000 1.383757e+002
      vertex   -9.416744e+001 -1.340529e+001 1.323757e+002
      vertex   -9.416744e+001 -1.340529e+001 1.383757e+002
    endloop
  endfacet
  facet normal 0.000000e+000 -1.000000e+000 0.000000e+000
    outer loop
      vertex   -9.416744e+001 -1.340529e+001 1.323757e+002
      vertex   -8.816744e+001 -1.340529e+001 1.323757e+002
      vertex   -9.416744e+001 -1.340529e+001 1.383757e+002
    endloop
  endfacet
  facet normal 0.000000e+000 -1.000000e+000 0.000000e+000
    outer loop
      vertex   -9.416744e+001 -1.340529e+001 1.383757e+002
      vertex   -8.816744e+001 -1.340529e+001 1.323757e+002
      vertex   -8.816744e+001 -1.340529e+001 1.383757e+002
    endloop
  endfacet
  facet normal 1.000000e+000 0.000000e+000 -0.000000e+000
    outer loop
      vertex   -8.816744e+001 -1.340529e+001 1.323757e+002
      vertex   -8.816744e+001 -7.405291e+000 1.323757e+002
      vertex   -8.816744e+001 -1.340529e+001 1.383757e+002
    endloop
  endfacet
  facet normal 1.000000e+000 -0.000000e+000 0.000000e+000
    outer loop
      vertex   -8.816744e+001 -1.340529e+001 1.383757e+002
      vertex   -8.816744e+001 -7.405291e+000 1.323757e+002
      vertex   -8.816744e+001 -7.405291e+000 1.383757e+002
    endloop
  endfacet
  facet normal 0.000000e+000 -1.000000e+000 0.000000e+000
    outer loop
      vertex   -8.816744e+001 -7.405291e+000 1.323757e+002
      vertex   -8.216744e+001 -7.405291e+000 1.323757e+002
      vertex   -8.816744e+001 -7.405291e+000 1.383757e+002
    endloop
  endfacet
  facet normal 0.000000e+000 -1.000000e+000 0.000000e+000
    outer loop
      vertex   -8.816744e+001 -7.405291e+000 1.383757e+002
      vertex   -8.216744e+001 -7.405291e+000 1.323757e+002
      vertex   -8.216744e+001 -7.405291e+000 1.383757e+002
    endloop
  endfacet
  facet normal -1.000000e+000 0.000000e+000 0.000000e+000
    outer loop
      vertex   -8.216744e+001 -7.405291e+000 1.323757e+002
      vertex   -8.216744e+001 -1.340529e+001 1.323757e+002
      vertex   -8.216744e+001 -7.405291e+000 1.383757e+002
    endloop
  endfacet
  facet normal -1.000000e+000 -0.000000e+000 0.000000e+000
    outer loop
      vertex   -8.216744e+001 -7.405291e+000 1.383757e+002
      vertex   -8.216744e+001 -1.340529e+001 1.323757e+002
      vertex   -8.216744e+001 -1.340529e+001 1.383757e+002
    endloop
  endfacet
  facet normal 0.000000e+000 -1.000000e+000 0.000000e+000
    outer loop
      vertex   -8.216744e+001 -1.340529e+001 1.323757e+002
      vertex   -7.616744e+001 -1.340529e+001 1.323757e+002
      vertex   -8.216744e+001 -1.340529e+001 1.383757e+002
    endloop
  endfacet
  facet normal 0.000000e+000 -1.000000e+000 0.000000e+000
    outer loop
      vertex   -8.216744e+001 -1.340529e+001 1.383757e+002
      vertex   -7.616744e+001 -1.340529e+001 1.323757e+002
      vertex   -7.616744e+001 -1.340529e+001 1.383757e+002
    endloop
  endfacet
  facet normal 1.000000e+000 0.000000e+000 -0.000000e+000
    outer loop
      vertex   -7.616744e+001 -1.340529e+001 1.323757e+002
      vertex   -7.616744e+001 -7.405291e+000 1.323757e+002
      vertex   -7.616744e+001 -1.340529e+001 1.383757e+002
    endloop
  endfacet
  facet normal 1.000000e+000 -0.000000e+000 0.000000e+000
    outer loop
      vertex   -7.616744e+001 -1.340529e+001 1.383757e+002
      vertex   -7.616744e+001 -7.405291e+000 1.323757e+002
      vertex   -7.616744e+001 -7.405291e+000 1.383757e+002
    endloop
  endfacet
  facet normal 0.000000e+000 -1.000000e+000 0.000000e+000
    outer loop
      vertex   -7.616744e+001 -7.405291e+000 1.323757e+002
      vertex   -7.016744e+001 -7.405291e+000 1.323757e+002
      vertex   -7.616744e+001 -7.405291e+000 1.383757e+002
    endloop
  endfacet
  facet normal 0.000000e+000 -1.000000e+000 0.000000e+000
    outer loop
      vertex   -7.616744e+001 -7.405291e+000 1.383757e+002
      vertex   -7.016744e+001 -7.405291e+000 1.323757e+002
      vertex   -7.016744e+001 -7.405291e+000 1.383757e+002
    endloop
  endfacet
  facet normal -1.000000e+000 0.000000e+000 0.000000e+000
    outer loop
      vertex   -7.016744e+001 -7.405291e+000 1.323757e+002
      vertex   -7.016744e+001 -1.340529e+001 1.323757e+002
      vertex   -7.016744e+001 -7.405291e+000 1.383757e+002
    endloop
  endfacet
  facet normal -1.000000e+000 -0.000000e+000 0.000000e+000
    outer loop
      vertex   -7.016744e+001 -7.405291e+000 1.383757e+002
      vertex   -7.016744e+001 -1.340529e+001 1.323757e+002
      vertex   -7.016744e+001 -1.340529e+001 1.383757e+002
    endloop
  endfacet
  facet normal 0.000000e+000 -1.000000e+000 0.000000e+000
    outer loop
      vertex   -7.016744e+001 -1.340529e+001 1.323757e+002
      vertex   -6.416744e+001 -1.340529e+001 1.323757e+002
      vertex   -7.016744e+001 -1.340529e+001 1.383757e+002
    endloop
  endfacet
  facet normal 0.000000e+000 -1.000000e+000 0.000000e+000
    outer loop
      vertex   -7.016744e+001 -1.340529e+001 1.383757e+002
      vertex   -6.416744e+001 -1.340529e+001 1.323757e+002
      vertex   -6.416744e+001 -1.340529e+001 1.383757e+002
    endloop
  endfacet
  facet normal 1.000000e+000 0.000000e+000 -0.000000e+000
    outer loop
      vertex   -6.416744e+001 -1.340529e+001 1.323757e+002
      vertex   -6.416744e+001 -7.405291e+000 1.323757e+002
      vertex   -6.416744e+001 -1.340529e+001 1.383757e+002
    endloop
  endfacet
  facet normal 1.000000e+000 -0.000000e+000 0.000000e+000
    outer loop
      vertex   -6.416744e+001 -1.340529e+001 1.383757e+002
      vertex   -6.416744e+001 -7.405291e+000 1.323757e+002
      vertex   -6.416744e+001 -7.405291e+000 1.383757e+002
    endloop
  endfacet
  facet normal 0.000000e+000 -1.000000e+000 1.480297e-015
    outer loop
      vertex   -6.416744e+001 -7.405291e+000 1.323757e+002
      vertex   -5.816744e+001 -7.405291e+000 1.323757e+002
      vertex   -6.416744e+001 -7.405291e+000 1.383757e+002
    endloop
  endfacet
  facet normal 0.000000e+000 -1.000000e+000 1.480297e-015
    outer loop
      vertex   -6.416744e+001 -7.405291e+000 1.383757e+002
      vertex   -5.816744e+001 -7.405291e+000 1.323757e+002
      vertex   -5.816744e+001 -7.405291e+000 1.383757e+002
    endloop
  endfacet
  facet normal -1.000000e+000 0.000000e+000 0.000000e+000
    outer loop
      vertex   -5.816744e+001 -7.405291e+000 1.323757e+002
      vertex   -5.816744e+001 -1.340529e+001 1.323757e+002
      vertex   -5.816744e+001 -7.405291e+000 1.383757e+002
    endloop
  endfacet
  facet normal -1.000000e+000 -0.000000e+000 0.000000e+000
    outer loop
      vertex   -5.816744e+001 -7.405291e+000 1.383757e+002
      vertex   -5.816744e+001 -1.340529e+001 1.323757e+002
      vertex   -5.816744e+001 -1.340529e+001 1.383757e+002
    endloop
  endfacet
  facet normal 0.000000e+000 -1.000000e+000 0.000000e+000
    outer loop
      vertex   -5.816744e+001 -1.340529e+001 1.323757e+002
      vertex   -5.216744e+001 -1.340529e+001 1.323757e+002
      vertex   -5.816744e+001 -1.340529e+001 1.383757e+002
    endloop
  endfacet
  facet normal 0.000000e+000 -1.000000e+000 0.000000e+000
    outer loop
      vertex   -5.816744e+001 -1.340529e+001 1.383757e+002
      vertex   -5.216744e+001 -1.340529e+001 1.323757e+002
      vertex   -5.216744e+001 -1.340529e+001 1.383757e+002
    endloop
  endfacet
  facet normal 1.000000e+000 0.000000e+000 -0.000000e+000
    outer loop
      vertex   -5.216744e+001 -1.340529e+001 1.323757e+002
      vertex   -5.216744e+001 -7.405291e+000 1.323757e+002
      vertex   -5.216744e+001 -1.340529e+001 1.383757e+002
    endloop
  endfacet
  facet normal 1.000000e+000 -0.000000e+000 0.000000e+000
    outer loop
      vertex   -5.216744e+001 -1.340529e+001 1.383757e+002
      vertex   -5.216744e+001 -7.405291e+000 1.323757e+002
      vertex   -5.216744e+001 -7.405291e+000 1.383757e+002
    endloop
  endfacet
  facet normal 0.000000e+000 -1.000000e+000 0.000000e+000
    outer loop
      vertex   -5.216744e+001 -7.405291e+000 1.323757e+002
      vertex   -4.616744e+001 -7.405291e+000 1.323757e+002
      vertex   -5.216744e+001 -7.405291e+000 1.383757e+002
    endloop
  endfacet
  facet normal 0.000000e+000 -1.000000e+000 0.000000e+000
    outer loop
      vertex   -5.216744e+001 -7.405291e+000 1.383757e+002
      vertex   -4.616744e+001 -7.405291e+000 1.323757e+002
      vertex   -4.616744e+001 -7.405291e+000 1.383757e+002
    endloop
  endfacet
  facet normal -1.000000e+000 0.000000e+000 0.000000e+000
    outer loop
      vertex   -4.616744e+001 -7.405291e+000 1.323757e+002
      vertex   -4.616744e+001 -1.340529e+001 1.323757e+002
      vertex   -4.616744e+001 -7.405291e+000 1.383757e+002
    endloop
  endfacet
  facet normal -1.000000e+000 -0.000000e+000 0.000000e+000
    outer loop
      vertex   -4.616744e+001 -7.405291e+000 1.383757e+002
      vertex   -4.616744e+001 -1.340529e+001 1.323757e+002
      vertex   -4.616744e+001 -1.340529e+001 1.383757e+002
    endloop
  endfacet
  facet normal 0.000000e+000 -1.000000e+000 0.000000e+000
    outer loop
      vertex   -4.616744e+001 -1.340529e+001 1.323757e+002
      vertex   -4.016744e+001 -1.340529e+001 1.323757e+002
      vertex   -4.616744e+001 -1.340529e+001 1.383757e+002
    endloop
  endfacet
  facet normal 0.000000e+000 -1.000000e+000 0.000000e+000
    outer loop
      vertex   -4.616744e+001 -1.340529e+001 1.383757e+002
      vertex   -4.016744e+001 -1.340529e+001 1.323757e+002
      vertex   -4.016744e+001 -1.340529e+001 1.383757e+002
    endloop
  endfacet
  facet normal 1.000000e+000 0.000000e+000 -0.000000e+000
    outer loop
      vertex   -4.016744e+001 -1.340529e+001 1.323757e+002
      vertex   -4.016744e+001 -7.405291e+000 1.323757e+002
      vertex   -4.016744e+001 -1.340529e+001 1.383757e+002
    endloop
  endfacet
  facet normal 1.000000e+000 -0.000000e+000 0.000000e+000
    outer loop
      vertex   -4.016744e+001 -1.340529e+001 1.383757e+002
      vertex   -4.016744e+001 -7.405291e+000 1.323757e+002
      vertex   -4.016744e+001 -7.405291e+000 1.383757e+002
    endloop
  endfacet
  facet normal 0.000000e+000 -1.000000e+000 1.480297e-015
    outer loop
      vertex   -4.016744e+001 -7.405291e+000 1.323757e+002
      vertex   -3.416744e+001 -7.405291e+000 1.323757e+002
      vertex   -4.016744e+001 -7.405291e+000 1.383757e+002
    endloop
  endfacet
  facet normal 0.000000e+000 -1.000000e+000 1.480297e-015
    outer loop
      vertex   -4.016744e+001 -7.405291e+000 1.383757e+002
      vertex   -3.416744e+001 -7.405291e+000 1.323757e+002
      vertex   -3.416744e+001 -7.405291e+000 1.383757e+002
    endloop
  endfacet
  facet normal -1.000000e+000 0.000000e+000 0.000000e+000
    outer loop
      vertex   -3.416744e+001 -7.405291e+000 1.323757e+002
      vertex   -3.416744e+001 -1.340529e+001 1.323757e+002
      vertex   -3.416744e+001 -7.405291e+000 1.383757e+002
    endloop
  endfacet
  facet normal -1.000000e+000 -0.000000e+000 0.000000e+000
    outer loop
      vertex   -3.416744e+001 -7.405291e+000 1.383757e+002
      vertex   -3.416744e+001 -1.340529e+001 1.323757e+002
      vertex   -3.416744e+001 -1.340529e+001 1.383757e+002
    endloop
  endfacet
  facet normal 0.000000e+000 -1.000000e+000 0.000000e+000
    outer loop
      vertex   -3.416744e+001 -1.340529e+001 1.323757e+002
      vertex   -2.816744e+001 -1.340529e+001 1.323757e+002
      vertex   -3.416744e+001 -1.340529e+001 1.383757e+002
    endloop
  endfacet
  facet normal 0.000000e+000 -1.000000e+000 0.000000e+000
    outer loop
      vertex   -3.416744e+001 -1.340529e+001 1.383757e+002
      vertex   -2.816744e+001 -1.340529e+001 1.323757e+002
      vertex   -2.816744e+001 -1.340529e+001 1.383757e+002
    endloop
  endfacet
  facet normal 1.000000e+000 0.000000e+000 -0.000000e+000
    outer loop
      vertex   -2.816744e+001 -1.340529e+001 1.323757e+002
      vertex   -2.816744e+001 7.594709e+000 1.323757e+002
      vertex   -2.816744e+001 -1.340529e+001 1.383757e+002
    endloop
  endfacet
  facet normal 1.000000e+000 -0.000000e+000 0.000000e+000
    outer loop
      vertex   -2.816744e+001 -1.340529e+001 1.383757e+002
      vertex   -2.816744e+001 7.594709e+000 1.323757e+002
      vertex   -2.816744e+001 7.594709e+000 1.383757e+002
    endloop
  endfacet
  facet normal 4.303410e-001 9.026664e-001 0.000000e+000
    outer loop
      vertex   -2.816744e+001 7.594709e+000 1.323757e+002
      vertex   -7.116744e+001 2.809471e+001 1.323757e+002
      vertex   -2.816744e+001 7.594709e+000 1.383757e+002
    endloop
  endfacet
  facet normal 4.303410e-001 9.026664e-001 -0.000000e+000
    outer loop
      vertex   -2.816744e+001 7.594709e+000 1.383757e+002
      vertex   -7.116744e+001 2.809471e+001 1.323757e+002
      vertex   -7.116744e+001 2.809471e+001 1.383757e+002
    endloop
  endfacet
  facet normal 0.000000e+000 1.000000e+000 -0.000000e+000
    outer loop
      vertex   -7.116744e+001 2.809471e+001 1.323757e+002
      vertex   -1.061674e+002 2.809471e+001 1.323757e+002
      vertex   -7.116744e+001 2.809471e+001 1.383757e+002
    endloop
  endfacet
  facet normal 0.000000e+000 1.000000e+000 -0.000000e+000
    outer loop
      vertex   -7.116744e+001 2.809471e+001 1.383757e+002
      vertex   -1.061674e+002 2.809471e+001 1.323757e+002
      vertex   -1.061674e+002 2.809471e+001 1.383757e+002
    endloop
  endfacet
  facet normal 0.000000e+000 1.000000e+000 0.000000e+000
    outer loop
      vertex   -1.061674e+002 2.809471e+001 1.383757e+002
      vertex   -1.061674e+002 2.809471e+001 1.323757e+002
      vertex   -1.121674e+002 2.809471e+001 1.323757e+002
    endloop
  endfacet
  facet normal -0.000000e+000 1.000000e+000 0.000000e+000
    outer loop
      vertex   -1.121674e+002 2.809471e+001 1.383757e+002
      vertex   -1.061674e+002 2.809471e+001 1.383757e+002
      vertex   -1.121674e+002 2.809471e+001 1.323757e+002
    endloop
  endfacet
  facet normal -0.000000e+000 0.000000e+000 1.000000e+000
    outer loop
      vertex   -1.061674e+002 2.809471e+001 1.383757e+002
      vertex   -1.061674e+002 1.809471e+001 1.383757e+002
      vertex   -7.116744e+001 2.809471e+001 1.383757e+002
    endloop
  endfacet
  facet normal -0.000000e+000 0.000000e+000 1.000000e+000
    outer loop
      vertex   -1.061674e+002 2.809471e+001 1.383757e+002
      vertex   -1.121674e+002 1.809471e+001 1.383757e+002
      vertex   -1.061674e+002 1.809471e+001 1.383757e+002
    endloop
  endfacet
  facet normal 0.000000e+000 0.000000e+000 1.000000e+000
    outer loop
      vertex   -1.061674e+002 2.809471e+001 1.383757e+002
      vertex   -1.121674e+002 2.809471e+001 1.383757e+002
      vertex   -1.121674e+002 1.809471e+001 1.383757e+002
    endloop
  endfacet
  facet normal -0.000000e+000 0.000000e+000 1.000000e+000
    outer loop
      vertex   -1.061674e+002 1.809471e+001 1.383757e+002
      vertex   -1.061674e+002 8.094709e+000 1.383757e+002
      vertex   -7.116744e+001 2.809471e+001 1.383757e+002
    endloop
  endfacet
  facet normal 0.000000e+000 0.000000e+000 1.000000e+000
    outer loop
      vertex   -7.116744e+001 2.809471e+001 1.383757e+002
      vertex   -1.061674e+002 8.094709e+000 1.383757e+002
      vertex   -8.816744e+001 -7.405291e+000 1.383757e+002
    endloop
  endfacet
  facet normal 0.000000e+000 -0.000000e+000 1.000000e+000
    outer loop
      vertex   -8.216744e+001 -7.405291e+000 1.383757e+002
      vertex   -7.116744e+001 2.809471e+001 1.383757e+002
      vertex   -8.816744e+001 -7.405291e+000 1.383757e+002
    endloop
  endfacet
  facet normal 0.000000e+000 0.000000e+000 1.000000e+000
    outer loop
      vertex   -8.216744e+001 -7.405291e+000 1.383757e+002
      vertex   -7.616744e+001 -7.405291e+000 1.383757e+002
      vertex   -7.116744e+001 2.809471e+001 1.383757e+002
    endloop
  endfacet
  facet normal -0.000000e+000 0.000000e+000 1.000000e+000
    outer loop
      vertex   -8.216744e+001 -7.405291e+000 1.383757e+002
      vertex   -8.216744e+001 -1.340529e+001 1.383757e+002
      vertex   -7.616744e+001 -7.405291e+000 1.383757e+002
    endloop
  endfacet
  facet normal -0.000000e+000 0.000000e+000 1.000000e+000
    outer loop
      vertex   -7.616744e+001 -7.405291e+000 1.383757e+002
      vertex   -8.216744e+001 -1.340529e+001 1.383757e+002
      vertex   -7.616744e+001 -1.340529e+001 1.383757e+002
    endloop
  endfacet
  facet normal -0.000000e+000 0.000000e+000 1.000000e+000
    outer loop
      vertex   -1.121674e+002 8.094709e+000 1.383757e+002
      vertex   -1.121674e+002 -1.905291e+000 1.383757e+002
      vertex   -1.061674e+002 8.094709e+000 1.383757e+002
    endloop
  endfacet
  facet normal -0.000000e+000 0.000000e+000 1.000000e+000
    outer loop
      vertex   -1.061674e+002 8.094709e+000 1.383757e+002
      vertex   -1.121674e+002 -1.905291e+000 1.383757e+002
      vertex   -1.061674e+002 -1.905291e+000 1.383757e+002
    endloop
  endfacet
  facet normal 0.000000e+000 0.000000e+000 1.000000e+000
    outer loop
      vertex   -1.001674e+002 -7.405291e+000 1.383757e+002
      vertex   -1.061674e+002 -1.905291e+000 1.383757e+002
      vertex   -1.061674e+002 -1.340529e+001 1.383757e+002
    endloop
  endfacet
  facet normal 0.000000e+000 -0.000000e+000 1.000000e+000
    outer loop
      vertex   -1.001674e+002 -1.340529e+001 1.383757e+002
      vertex   -1.001674e+002 -7.405291e+000 1.383757e+002
      vertex   -1.061674e+002 -1.340529e+001 1.383757e+002
    endloop
  endfacet
  facet normal 0.000000e+000 0.000000e+000 1.000000e+000
    outer loop
      vertex   -1.061674e+002 8.094709e+000 1.383757e+002
      vertex   -1.061674e+002 -1.905291e+000 1.383757e+002
      vertex   -1.001674e+002 -7.405291e+000 1.383757e+002
    endloop
  endfacet
  facet normal 0.000000e+000 0.000000e+000 1.000000e+000
    outer loop
      vertex   -9.416744e+001 -7.405291e+000 1.383757e+002
      vertex   -1.061674e+002 8.094709e+000 1.383757e+002
      vertex   -1.001674e+002 -7.405291e+000 1.383757e+002
    endloop
  endfacet
  facet normal 0.000000e+000 -0.000000e+000 1.000000e+000
    outer loop
      vertex   -9.416744e+001 -7.405291e+000 1.383757e+002
      vertex   -8.816744e+001 -7.405291e+000 1.383757e+002
      vertex   -1.061674e+002 8.094709e+000 1.383757e+002
    endloop
  endfacet
  facet normal -0.000000e+000 0.000000e+000 1.000000e+000
    outer loop
      vertex   -9.416744e+001 -7.405291e+000 1.383757e+002
      vertex   -9.416744e+001 -1.340529e+001 1.383757e+002
      vertex   -8.816744e+001 -7.405291e+000 1.383757e+002
    endloop
  endfacet
  facet normal -0.000000e+000 0.000000e+000 1.000000e+000
    outer loop
      vertex   -8.816744e+001 -7.405291e+000 1.383757e+002
      vertex   -9.416744e+001 -1.340529e+001 1.383757e+002
      vertex   -8.816744e+001 -1.340529e+001 1.383757e+002
    endloop
  endfacet
  facet normal 0.000000e+000 -0.000000e+000 1.000000e+000
    outer loop
      vertex   -7.616744e+001 -7.405291e+000 1.383757e+002
      vertex   -7.016744e+001 -7.405291e+000 1.383757e+002
      vertex   -7.116744e+001 2.809471e+001 1.383757e+002
    endloop
  endfacet
  facet normal 0.000000e+000 0.000000e+000 1.000000e+000
    outer loop
      vertex   -7.116744e+001 2.809471e+001 1.383757e+002
      vertex   -7.016744e+001 -7.405291e+000 1.383757e+002
      vertex   -6.416744e+001 -7.405291e+000 1.383757e+002
    endloop
  endfacet
  facet normal 0.000000e+000 0.000000e+000 1.000000e+000
    outer loop
      vertex   -5.816744e+001 -7.405291e+000 1.383757e+002
      vertex   -7.116744e+001 2.809471e+001 1.383757e+002
      vertex   -6.416744e+001 -7.405291e+000 1.383757e+002
    endloop
  endfacet
  facet normal 0.000000e+000 -0.000000e+000 1.000000e+000
    outer loop
      vertex   -5.816744e+001 -7.405291e+000 1.383757e+002
      vertex   -5.216744e+001 -7.405291e+000 1.383757e+002
      vertex   -7.116744e+001 2.809471e+001 1.383757e+002
    endloop
  endfacet
  facet normal -0.000000e+000 0.000000e+000 1.000000e+000
    outer loop
      vertex   -5.816744e+001 -7.405291e+000 1.383757e+002
      vertex   -5.816744e+001 -1.340529e+001 1.383757e+002
      vertex   -5.216744e+001 -7.405291e+000 1.383757e+002
    endloop
  endfacet
  facet normal -0.000000e+000 0.000000e+000 1.000000e+000
    outer loop
      vertex   -5.216744e+001 -7.405291e+000 1.383757e+002
      vertex   -5.816744e+001 -1.340529e+001 1.383757e+002
      vertex   -5.216744e+001 -1.340529e+001 1.383757e+002
    endloop
  endfacet
  facet normal -0.000000e+000 0.000000e+000 1.000000e+000
    outer loop
      vertex   -7.016744e+001 -7.405291e+000 1.383757e+002
      vertex   -7.016744e+001 -1.340529e+001 1.383757e+002
      vertex   -6.416744e+001 -7.405291e+000 1.383757e+002
    endloop
  endfacet
  facet normal -0.000000e+000 0.000000e+000 1.000000e+000
    outer loop
      vertex   -6.416744e+001 -7.405291e+000 1.383757e+002
      vertex   -7.016744e+001 -1.340529e+001 1.383757e+002
      vertex   -6.416744e+001 -1.340529e+001 1.383757e+002
    endloop
  endfacet
  facet normal -0.000000e+000 0.000000e+000 1.000000e+000
    outer loop
      vertex   -7.116744e+001 2.809471e+001 1.383757e+002
      vertex   -5.216744e+001 -7.405291e+000 1.383757e+002
      vertex   -2.816744e+001 7.594709e+000 1.383757e+002
    endloop
  endfacet
  facet normal -0.000000e+000 0.000000e+000 1.000000e+000
    outer loop
      vertex   -2.816744e+001 7.594709e+000 1.383757e+002
      vertex   -5.216744e+001 -7.405291e+000 1.383757e+002
      vertex   -4.616744e+001 -7.405291e+000 1.383757e+002
    endloop
  endfacet
  facet normal 0.000000e+000 0.000000e+000 1.000000e+000
    outer loop
      vertex   -4.016744e+001 -7.405291e+000 1.383757e+002
      vertex   -4.616744e+001 -7.405291e+000 1.383757e+002
      vertex   -4.616744e+001 -1.340529e+001 1.383757e+002
    endloop
  endfacet
  facet normal 0.000000e+000 -0.000000e+000 1.000000e+000
    outer loop
      vertex   -4.016744e+001 -1.340529e+001 1.383757e+002
      vertex   -4.016744e+001 -7.405291e+000 1.383757e+002
      vertex   -4.616744e+001 -1.340529e+001 1.383757e+002
    endloop
  endfacet
  facet normal 0.000000e+000 0.000000e+000 1.000000e+000
    outer loop
      vertex   -2.816744e+001 7.594709e+000 1.383757e+002
      vertex   -4.616744e+001 -7.405291e+000 1.383757e+002
      vertex   -4.016744e+001 -7.405291e+000 1.383757e+002
    endloop
  endfacet
  facet normal 0.000000e+000 -0.000000e+000 1.000000e+000
    outer loop
      vertex   -3.416744e+001 -7.405291e+000 1.383757e+002
      vertex   -2.816744e+001 7.594709e+000 1.383757e+002
      vertex   -4.016744e+001 -7.405291e+000 1.383757e+002
    endloop
  endfacet
  facet normal -0.000000e+000 0.000000e+000 1.000000e+000
    outer loop
      vertex   -3.416744e+001 -7.405291e+000 1.383757e+002
      vertex   -2.816744e+001 -1.340529e+001 1.383757e+002
      vertex   -2.816744e+001 7.594709e+000 1.383757e+002
    endloop
  endfacet
  facet normal -0.000000e+000 0.000000e+000 1.000000e+000
    outer loop
      vertex   -3.416744e+001 -7.405291e+000 1.383757e+002
      vertex   -3.416744e+001 -1.340529e+001 1.383757e+002
      vertex   -2.816744e+001 -1.340529e+001 1.383757e+002
    endloop
  endfacet
endsolid
